G75*
%MOIN*%
%OFA0B0*%
%FSLAX25Y25*%
%IPPOS*%
%LPD*%
%AMOC8*
5,1,8,0,0,1.08239X$1,22.5*
%
%ADD10C,0.00000*%
%ADD11R,0.01969X0.03937*%
%ADD12R,0.06299X0.05118*%
%ADD13R,0.05118X0.06299*%
%ADD14R,0.05118X0.05906*%
%ADD15R,0.23622X0.07874*%
%ADD16R,0.07087X0.08661*%
%ADD17R,0.01181X0.05118*%
%ADD18R,0.05906X0.05118*%
%ADD19R,0.02087X0.05236*%
%ADD20R,0.03937X0.10236*%
%ADD21R,0.05906X0.13386*%
%ADD22R,0.07087X0.06693*%
%ADD23R,0.02756X0.02756*%
%ADD24C,0.05150*%
%ADD25R,0.05150X0.05150*%
%ADD26R,0.08000X0.02600*%
%ADD27OC8,0.08500*%
%ADD28C,0.01200*%
%ADD29C,0.02800*%
%ADD30C,0.02400*%
%ADD31C,0.03200*%
%ADD32C,0.01000*%
%ADD33C,0.01600*%
D10*
X0001171Y0003194D02*
X0001171Y0199194D01*
X0162171Y0199194D01*
X0162171Y0003194D01*
X0001171Y0003194D01*
X0071506Y0023398D02*
X0071508Y0023497D01*
X0071514Y0023596D01*
X0071524Y0023695D01*
X0071538Y0023793D01*
X0071556Y0023890D01*
X0071578Y0023987D01*
X0071603Y0024083D01*
X0071633Y0024177D01*
X0071666Y0024271D01*
X0071703Y0024363D01*
X0071744Y0024453D01*
X0071788Y0024542D01*
X0071836Y0024628D01*
X0071887Y0024713D01*
X0071942Y0024796D01*
X0072000Y0024876D01*
X0072061Y0024954D01*
X0072125Y0025030D01*
X0072192Y0025103D01*
X0072262Y0025173D01*
X0072335Y0025240D01*
X0072411Y0025304D01*
X0072489Y0025365D01*
X0072569Y0025423D01*
X0072652Y0025478D01*
X0072736Y0025529D01*
X0072823Y0025577D01*
X0072912Y0025621D01*
X0073002Y0025662D01*
X0073094Y0025699D01*
X0073188Y0025732D01*
X0073282Y0025762D01*
X0073378Y0025787D01*
X0073475Y0025809D01*
X0073572Y0025827D01*
X0073670Y0025841D01*
X0073769Y0025851D01*
X0073868Y0025857D01*
X0073967Y0025859D01*
X0074066Y0025857D01*
X0074165Y0025851D01*
X0074264Y0025841D01*
X0074362Y0025827D01*
X0074459Y0025809D01*
X0074556Y0025787D01*
X0074652Y0025762D01*
X0074746Y0025732D01*
X0074840Y0025699D01*
X0074932Y0025662D01*
X0075022Y0025621D01*
X0075111Y0025577D01*
X0075197Y0025529D01*
X0075282Y0025478D01*
X0075365Y0025423D01*
X0075445Y0025365D01*
X0075523Y0025304D01*
X0075599Y0025240D01*
X0075672Y0025173D01*
X0075742Y0025103D01*
X0075809Y0025030D01*
X0075873Y0024954D01*
X0075934Y0024876D01*
X0075992Y0024796D01*
X0076047Y0024713D01*
X0076098Y0024629D01*
X0076146Y0024542D01*
X0076190Y0024453D01*
X0076231Y0024363D01*
X0076268Y0024271D01*
X0076301Y0024177D01*
X0076331Y0024083D01*
X0076356Y0023987D01*
X0076378Y0023890D01*
X0076396Y0023793D01*
X0076410Y0023695D01*
X0076420Y0023596D01*
X0076426Y0023497D01*
X0076428Y0023398D01*
X0076426Y0023299D01*
X0076420Y0023200D01*
X0076410Y0023101D01*
X0076396Y0023003D01*
X0076378Y0022906D01*
X0076356Y0022809D01*
X0076331Y0022713D01*
X0076301Y0022619D01*
X0076268Y0022525D01*
X0076231Y0022433D01*
X0076190Y0022343D01*
X0076146Y0022254D01*
X0076098Y0022168D01*
X0076047Y0022083D01*
X0075992Y0022000D01*
X0075934Y0021920D01*
X0075873Y0021842D01*
X0075809Y0021766D01*
X0075742Y0021693D01*
X0075672Y0021623D01*
X0075599Y0021556D01*
X0075523Y0021492D01*
X0075445Y0021431D01*
X0075365Y0021373D01*
X0075282Y0021318D01*
X0075198Y0021267D01*
X0075111Y0021219D01*
X0075022Y0021175D01*
X0074932Y0021134D01*
X0074840Y0021097D01*
X0074746Y0021064D01*
X0074652Y0021034D01*
X0074556Y0021009D01*
X0074459Y0020987D01*
X0074362Y0020969D01*
X0074264Y0020955D01*
X0074165Y0020945D01*
X0074066Y0020939D01*
X0073967Y0020937D01*
X0073868Y0020939D01*
X0073769Y0020945D01*
X0073670Y0020955D01*
X0073572Y0020969D01*
X0073475Y0020987D01*
X0073378Y0021009D01*
X0073282Y0021034D01*
X0073188Y0021064D01*
X0073094Y0021097D01*
X0073002Y0021134D01*
X0072912Y0021175D01*
X0072823Y0021219D01*
X0072737Y0021267D01*
X0072652Y0021318D01*
X0072569Y0021373D01*
X0072489Y0021431D01*
X0072411Y0021492D01*
X0072335Y0021556D01*
X0072262Y0021623D01*
X0072192Y0021693D01*
X0072125Y0021766D01*
X0072061Y0021842D01*
X0072000Y0021920D01*
X0071942Y0022000D01*
X0071887Y0022083D01*
X0071836Y0022167D01*
X0071788Y0022254D01*
X0071744Y0022343D01*
X0071703Y0022433D01*
X0071666Y0022525D01*
X0071633Y0022619D01*
X0071603Y0022713D01*
X0071578Y0022809D01*
X0071556Y0022906D01*
X0071538Y0023003D01*
X0071524Y0023101D01*
X0071514Y0023200D01*
X0071508Y0023299D01*
X0071506Y0023398D01*
X0103002Y0023398D02*
X0103004Y0023497D01*
X0103010Y0023596D01*
X0103020Y0023695D01*
X0103034Y0023793D01*
X0103052Y0023890D01*
X0103074Y0023987D01*
X0103099Y0024083D01*
X0103129Y0024177D01*
X0103162Y0024271D01*
X0103199Y0024363D01*
X0103240Y0024453D01*
X0103284Y0024542D01*
X0103332Y0024628D01*
X0103383Y0024713D01*
X0103438Y0024796D01*
X0103496Y0024876D01*
X0103557Y0024954D01*
X0103621Y0025030D01*
X0103688Y0025103D01*
X0103758Y0025173D01*
X0103831Y0025240D01*
X0103907Y0025304D01*
X0103985Y0025365D01*
X0104065Y0025423D01*
X0104148Y0025478D01*
X0104232Y0025529D01*
X0104319Y0025577D01*
X0104408Y0025621D01*
X0104498Y0025662D01*
X0104590Y0025699D01*
X0104684Y0025732D01*
X0104778Y0025762D01*
X0104874Y0025787D01*
X0104971Y0025809D01*
X0105068Y0025827D01*
X0105166Y0025841D01*
X0105265Y0025851D01*
X0105364Y0025857D01*
X0105463Y0025859D01*
X0105562Y0025857D01*
X0105661Y0025851D01*
X0105760Y0025841D01*
X0105858Y0025827D01*
X0105955Y0025809D01*
X0106052Y0025787D01*
X0106148Y0025762D01*
X0106242Y0025732D01*
X0106336Y0025699D01*
X0106428Y0025662D01*
X0106518Y0025621D01*
X0106607Y0025577D01*
X0106693Y0025529D01*
X0106778Y0025478D01*
X0106861Y0025423D01*
X0106941Y0025365D01*
X0107019Y0025304D01*
X0107095Y0025240D01*
X0107168Y0025173D01*
X0107238Y0025103D01*
X0107305Y0025030D01*
X0107369Y0024954D01*
X0107430Y0024876D01*
X0107488Y0024796D01*
X0107543Y0024713D01*
X0107594Y0024629D01*
X0107642Y0024542D01*
X0107686Y0024453D01*
X0107727Y0024363D01*
X0107764Y0024271D01*
X0107797Y0024177D01*
X0107827Y0024083D01*
X0107852Y0023987D01*
X0107874Y0023890D01*
X0107892Y0023793D01*
X0107906Y0023695D01*
X0107916Y0023596D01*
X0107922Y0023497D01*
X0107924Y0023398D01*
X0107922Y0023299D01*
X0107916Y0023200D01*
X0107906Y0023101D01*
X0107892Y0023003D01*
X0107874Y0022906D01*
X0107852Y0022809D01*
X0107827Y0022713D01*
X0107797Y0022619D01*
X0107764Y0022525D01*
X0107727Y0022433D01*
X0107686Y0022343D01*
X0107642Y0022254D01*
X0107594Y0022168D01*
X0107543Y0022083D01*
X0107488Y0022000D01*
X0107430Y0021920D01*
X0107369Y0021842D01*
X0107305Y0021766D01*
X0107238Y0021693D01*
X0107168Y0021623D01*
X0107095Y0021556D01*
X0107019Y0021492D01*
X0106941Y0021431D01*
X0106861Y0021373D01*
X0106778Y0021318D01*
X0106694Y0021267D01*
X0106607Y0021219D01*
X0106518Y0021175D01*
X0106428Y0021134D01*
X0106336Y0021097D01*
X0106242Y0021064D01*
X0106148Y0021034D01*
X0106052Y0021009D01*
X0105955Y0020987D01*
X0105858Y0020969D01*
X0105760Y0020955D01*
X0105661Y0020945D01*
X0105562Y0020939D01*
X0105463Y0020937D01*
X0105364Y0020939D01*
X0105265Y0020945D01*
X0105166Y0020955D01*
X0105068Y0020969D01*
X0104971Y0020987D01*
X0104874Y0021009D01*
X0104778Y0021034D01*
X0104684Y0021064D01*
X0104590Y0021097D01*
X0104498Y0021134D01*
X0104408Y0021175D01*
X0104319Y0021219D01*
X0104233Y0021267D01*
X0104148Y0021318D01*
X0104065Y0021373D01*
X0103985Y0021431D01*
X0103907Y0021492D01*
X0103831Y0021556D01*
X0103758Y0021623D01*
X0103688Y0021693D01*
X0103621Y0021766D01*
X0103557Y0021842D01*
X0103496Y0021920D01*
X0103438Y0022000D01*
X0103383Y0022083D01*
X0103332Y0022167D01*
X0103284Y0022254D01*
X0103240Y0022343D01*
X0103199Y0022433D01*
X0103162Y0022525D01*
X0103129Y0022619D01*
X0103099Y0022713D01*
X0103074Y0022809D01*
X0103052Y0022906D01*
X0103034Y0023003D01*
X0103020Y0023101D01*
X0103010Y0023200D01*
X0103004Y0023299D01*
X0103002Y0023398D01*
D11*
X0111301Y0109076D03*
X0115041Y0109076D03*
X0118781Y0109076D03*
X0118781Y0118524D03*
X0111301Y0118524D03*
D12*
X0132401Y0118304D03*
X0132401Y0110824D03*
X0132171Y0102064D03*
X0132171Y0094583D03*
X0132464Y0085559D03*
X0132464Y0078079D03*
X0035231Y0114886D03*
X0035231Y0122366D03*
D13*
X0110931Y0098964D03*
X0118411Y0098964D03*
D14*
X0118411Y0090264D03*
X0110931Y0090264D03*
X0112431Y0072264D03*
X0112431Y0063564D03*
X0119911Y0063564D03*
X0119911Y0072264D03*
X0119711Y0127324D03*
X0112231Y0127324D03*
X0112431Y0135924D03*
X0119911Y0135924D03*
X0123431Y0149194D03*
X0130911Y0149194D03*
X0130911Y0157194D03*
X0123431Y0157194D03*
X0114911Y0157194D03*
X0114911Y0149194D03*
X0107431Y0149194D03*
X0107431Y0157194D03*
X0090911Y0150194D03*
X0083431Y0150194D03*
X0064911Y0121194D03*
X0057431Y0121194D03*
X0037911Y0137194D03*
X0030431Y0137194D03*
X0030431Y0149194D03*
X0037911Y0149194D03*
X0033593Y0164527D03*
X0026112Y0164527D03*
X0026894Y0175424D03*
X0034374Y0175424D03*
D15*
X0088541Y0116780D03*
X0088541Y0103788D03*
D16*
X0130589Y0024005D03*
X0038856Y0024005D03*
D17*
X0046337Y0036800D03*
X0048305Y0036800D03*
X0050274Y0036800D03*
X0052242Y0036800D03*
X0054211Y0036800D03*
X0056179Y0036800D03*
X0058148Y0036800D03*
X0060116Y0036800D03*
X0062085Y0036800D03*
X0064053Y0036800D03*
X0066022Y0036800D03*
X0067990Y0036800D03*
X0069959Y0036800D03*
X0071927Y0036800D03*
X0073896Y0036800D03*
X0075864Y0036800D03*
X0077833Y0036800D03*
X0079801Y0036800D03*
X0081770Y0036800D03*
X0083738Y0036800D03*
X0085707Y0036800D03*
X0087675Y0036800D03*
X0089644Y0036800D03*
X0091612Y0036800D03*
X0093581Y0036800D03*
X0095549Y0036800D03*
X0097518Y0036800D03*
X0099486Y0036800D03*
X0101455Y0036800D03*
X0103423Y0036800D03*
X0105392Y0036800D03*
X0107360Y0036800D03*
X0109329Y0036800D03*
X0111297Y0036800D03*
X0113266Y0036800D03*
X0115234Y0036800D03*
X0117203Y0036800D03*
X0119171Y0036800D03*
X0121140Y0036800D03*
X0123108Y0036800D03*
D18*
X0102534Y0171740D03*
X0102534Y0179220D03*
X0094125Y0179220D03*
X0094125Y0171740D03*
D19*
X0035887Y0103702D03*
X0030887Y0103702D03*
X0025887Y0103702D03*
X0025887Y0091102D03*
X0030887Y0091102D03*
X0035887Y0091102D03*
D20*
X0120817Y0168603D03*
X0128691Y0168603D03*
D21*
X0137943Y0189469D03*
X0111565Y0189469D03*
D22*
X0103847Y0081249D03*
X0119989Y0081249D03*
D23*
X0128982Y0066463D03*
X0134100Y0066463D03*
X0131541Y0059179D03*
X0122110Y0057129D03*
X0122110Y0052011D03*
X0114827Y0054570D03*
D24*
X0146171Y0056430D03*
X0146171Y0066430D03*
X0146171Y0076430D03*
X0146171Y0086430D03*
X0146171Y0096430D03*
X0146171Y0106430D03*
X0146171Y0116430D03*
X0146171Y0126430D03*
X0146171Y0136430D03*
X0146171Y0146430D03*
X0146171Y0156430D03*
X0146171Y0166430D03*
X0146171Y0176430D03*
X0146171Y0186430D03*
X0156171Y0186430D03*
X0156171Y0196430D03*
X0156171Y0176430D03*
X0156171Y0166430D03*
X0156171Y0156430D03*
X0156171Y0146430D03*
X0156171Y0136430D03*
X0156171Y0126430D03*
X0156171Y0116430D03*
X0156171Y0106430D03*
X0156171Y0096430D03*
X0156171Y0086430D03*
X0156171Y0076430D03*
X0156171Y0066430D03*
X0156171Y0056430D03*
X0156171Y0046430D03*
X0156171Y0036430D03*
X0156171Y0026430D03*
X0156171Y0016430D03*
X0156171Y0006430D03*
X0146171Y0006430D03*
X0146171Y0016430D03*
X0146171Y0026430D03*
X0146171Y0036430D03*
X0146171Y0046430D03*
X0016171Y0046430D03*
X0016171Y0036430D03*
X0016171Y0026430D03*
X0016171Y0016430D03*
X0016171Y0006430D03*
X0006171Y0006430D03*
X0006171Y0016430D03*
X0006171Y0026430D03*
X0006171Y0036430D03*
X0006171Y0046430D03*
X0006171Y0056430D03*
X0006171Y0066430D03*
X0006171Y0076430D03*
X0006171Y0086430D03*
X0006171Y0096430D03*
X0006171Y0106430D03*
X0006171Y0116430D03*
X0006171Y0126430D03*
X0006171Y0136430D03*
X0006171Y0146430D03*
X0006171Y0156430D03*
X0006171Y0166430D03*
X0006171Y0176430D03*
X0006171Y0186430D03*
X0016171Y0186430D03*
X0016171Y0196430D03*
X0016171Y0176430D03*
X0016171Y0166430D03*
X0016171Y0156430D03*
X0016171Y0146430D03*
X0016171Y0136430D03*
X0016171Y0126430D03*
X0016171Y0116430D03*
X0016171Y0106430D03*
X0016171Y0096430D03*
X0016171Y0086430D03*
X0016171Y0076430D03*
X0016171Y0066430D03*
X0016171Y0056430D03*
D25*
X0006171Y0196430D03*
X0146171Y0196430D03*
D26*
X0072271Y0164694D03*
X0072271Y0159694D03*
X0072271Y0154694D03*
X0072271Y0149694D03*
X0072271Y0144694D03*
X0072271Y0139694D03*
X0072271Y0134694D03*
X0072271Y0129694D03*
X0048071Y0129694D03*
X0048071Y0134694D03*
X0048071Y0139694D03*
X0048071Y0144694D03*
X0048071Y0149694D03*
X0048071Y0154694D03*
X0048071Y0159694D03*
X0048071Y0164694D03*
D27*
X0054171Y0192194D03*
X0067171Y0192194D03*
X0041171Y0192194D03*
X0028171Y0192194D03*
D28*
X0041171Y0179194D01*
X0041171Y0156194D01*
X0042671Y0154694D01*
X0048071Y0154694D01*
X0048121Y0159644D02*
X0048121Y0159744D01*
X0053671Y0159744D01*
X0053671Y0161204D01*
X0053562Y0161611D01*
X0053352Y0161976D01*
X0053134Y0162194D01*
X0053671Y0162731D01*
X0053671Y0166656D01*
X0052734Y0167594D01*
X0049371Y0167594D01*
X0049371Y0187105D01*
X0046863Y0189613D01*
X0047021Y0189771D01*
X0047021Y0194617D01*
X0044244Y0197394D01*
X0051098Y0197394D01*
X0048321Y0194617D01*
X0048321Y0189771D01*
X0051748Y0186344D01*
X0056594Y0186344D01*
X0056752Y0186502D01*
X0062971Y0180282D01*
X0062971Y0154282D01*
X0064260Y0152994D01*
X0064760Y0152494D01*
X0066909Y0152494D01*
X0067209Y0152194D01*
X0066671Y0151656D01*
X0066671Y0147731D01*
X0067209Y0147194D01*
X0066671Y0146656D01*
X0066671Y0142731D01*
X0067209Y0142194D01*
X0066991Y0141976D01*
X0066780Y0141611D01*
X0066671Y0141204D01*
X0066671Y0139744D01*
X0072221Y0139744D01*
X0072221Y0139644D01*
X0066671Y0139644D01*
X0066671Y0138183D01*
X0066780Y0137776D01*
X0066991Y0137411D01*
X0067209Y0137194D01*
X0066671Y0136656D01*
X0066671Y0132731D01*
X0067209Y0132194D01*
X0066991Y0131976D01*
X0066780Y0131611D01*
X0066671Y0131204D01*
X0066671Y0129744D01*
X0072221Y0129744D01*
X0072221Y0129644D01*
X0066671Y0129644D01*
X0066671Y0128183D01*
X0066780Y0127776D01*
X0066991Y0127411D01*
X0067289Y0127113D01*
X0067654Y0126903D01*
X0068061Y0126794D01*
X0072221Y0126794D01*
X0072221Y0129644D01*
X0072321Y0129644D01*
X0072321Y0129744D01*
X0077871Y0129744D01*
X0077871Y0131204D01*
X0077762Y0131611D01*
X0077552Y0131976D01*
X0077334Y0132194D01*
X0077634Y0132494D01*
X0098583Y0132494D01*
X0102283Y0136194D01*
X0102768Y0136194D01*
X0103871Y0136650D01*
X0104715Y0137494D01*
X0105171Y0138597D01*
X0105171Y0139790D01*
X0104715Y0140893D01*
X0104614Y0140994D01*
X0135421Y0140994D01*
X0135628Y0140494D01*
X0136472Y0139650D01*
X0137575Y0139194D01*
X0138768Y0139194D01*
X0138971Y0139278D01*
X0138971Y0073394D01*
X0134260Y0073394D01*
X0132971Y0072105D01*
X0131900Y0071034D01*
X0131900Y0069282D01*
X0131541Y0068923D01*
X0131182Y0069282D01*
X0131182Y0072294D01*
X0130317Y0073159D01*
X0131155Y0073920D01*
X0136276Y0073920D01*
X0137214Y0074857D01*
X0137214Y0081300D01*
X0136695Y0081819D01*
X0136894Y0082017D01*
X0137105Y0082382D01*
X0137214Y0082789D01*
X0137214Y0084959D01*
X0133064Y0084959D01*
X0133064Y0086159D01*
X0131864Y0086159D01*
X0131864Y0089718D01*
X0129665Y0089718D01*
X0130041Y0090094D01*
X0136041Y0090094D01*
X0137271Y0091324D01*
X0137271Y0098064D01*
X0136679Y0098656D01*
X0136812Y0098887D01*
X0136921Y0099294D01*
X0136921Y0101464D01*
X0132771Y0101464D01*
X0132771Y0102664D01*
X0131571Y0102664D01*
X0131571Y0106223D01*
X0128811Y0106223D01*
X0128404Y0106114D01*
X0128288Y0106047D01*
X0121041Y0113294D01*
X0117301Y0113294D01*
X0116564Y0112556D01*
X0116236Y0112644D01*
X0115041Y0112644D01*
X0113846Y0112644D01*
X0113835Y0112641D01*
X0113083Y0113394D01*
X0105260Y0113394D01*
X0101260Y0109394D01*
X0076260Y0109394D01*
X0076191Y0109325D01*
X0076068Y0109325D01*
X0075130Y0108388D01*
X0075130Y0108264D01*
X0074971Y0108105D01*
X0074971Y0100109D01*
X0074768Y0100194D01*
X0073575Y0100194D01*
X0072472Y0099737D01*
X0072129Y0099394D01*
X0063260Y0099394D01*
X0063060Y0099194D01*
X0062575Y0099194D01*
X0061472Y0098737D01*
X0060628Y0097893D01*
X0060171Y0096790D01*
X0060171Y0095597D01*
X0060628Y0094494D01*
X0061472Y0093650D01*
X0062575Y0093194D01*
X0063768Y0093194D01*
X0064871Y0093650D01*
X0065715Y0094494D01*
X0065921Y0094994D01*
X0072129Y0094994D01*
X0072472Y0094650D01*
X0073575Y0094194D01*
X0074768Y0094194D01*
X0075871Y0094650D01*
X0076715Y0095494D01*
X0077021Y0096233D01*
X0096971Y0076282D01*
X0098260Y0074994D01*
X0107083Y0074994D01*
X0108083Y0075994D01*
X0109371Y0077282D01*
X0109371Y0085711D01*
X0112373Y0085711D01*
X0114845Y0083238D01*
X0114845Y0077240D01*
X0115293Y0076792D01*
X0115201Y0076817D01*
X0113031Y0076817D01*
X0113031Y0072864D01*
X0111831Y0072864D01*
X0111831Y0076817D01*
X0109661Y0076817D01*
X0109254Y0076707D01*
X0108890Y0076497D01*
X0108592Y0076199D01*
X0108381Y0075834D01*
X0108272Y0075427D01*
X0108272Y0072864D01*
X0111831Y0072864D01*
X0111831Y0071664D01*
X0108272Y0071664D01*
X0108272Y0069100D01*
X0108381Y0068693D01*
X0108592Y0068329D01*
X0108890Y0068031D01*
X0109092Y0067914D01*
X0108890Y0067797D01*
X0108592Y0067499D01*
X0108381Y0067134D01*
X0108272Y0066727D01*
X0108272Y0064164D01*
X0111831Y0064164D01*
X0111831Y0068117D01*
X0111831Y0071664D01*
X0113031Y0071664D01*
X0113031Y0064164D01*
X0111831Y0064164D01*
X0111831Y0062964D01*
X0108272Y0062964D01*
X0108272Y0060400D01*
X0108381Y0059993D01*
X0108592Y0059629D01*
X0108890Y0059331D01*
X0109254Y0059120D01*
X0109661Y0059011D01*
X0111831Y0059011D01*
X0111831Y0062964D01*
X0113031Y0062964D01*
X0113031Y0059011D01*
X0115201Y0059011D01*
X0115608Y0059120D01*
X0115973Y0059331D01*
X0116171Y0059529D01*
X0116690Y0059011D01*
X0119132Y0059011D01*
X0119132Y0055088D01*
X0119651Y0054570D01*
X0119132Y0054051D01*
X0119132Y0050344D01*
X0119083Y0050394D01*
X0111083Y0050394D01*
X0109107Y0052370D01*
X0112008Y0052370D01*
X0112786Y0051592D01*
X0116867Y0051592D01*
X0117805Y0052529D01*
X0117805Y0056610D01*
X0116867Y0057548D01*
X0112786Y0057548D01*
X0112008Y0056770D01*
X0107730Y0056770D01*
X0081371Y0084082D01*
X0081371Y0084105D01*
X0080740Y0084736D01*
X0080121Y0085377D01*
X0080099Y0085378D01*
X0078371Y0087105D01*
X0077083Y0088394D01*
X0061214Y0088394D01*
X0060871Y0088737D01*
X0059768Y0089194D01*
X0058575Y0089194D01*
X0058371Y0089109D01*
X0058371Y0102105D01*
X0058283Y0102194D01*
X0058768Y0102194D01*
X0059871Y0102650D01*
X0060214Y0102994D01*
X0068129Y0102994D01*
X0068472Y0102650D01*
X0069575Y0102194D01*
X0070768Y0102194D01*
X0071871Y0102650D01*
X0072715Y0103494D01*
X0073171Y0104597D01*
X0073171Y0105790D01*
X0072715Y0106893D01*
X0071871Y0107737D01*
X0070768Y0108194D01*
X0069575Y0108194D01*
X0068472Y0107737D01*
X0068129Y0107394D01*
X0060214Y0107394D01*
X0059871Y0107737D01*
X0058768Y0108194D01*
X0057575Y0108194D01*
X0057171Y0108027D01*
X0057171Y0108790D01*
X0056715Y0109893D01*
X0055871Y0110737D01*
X0054768Y0111194D01*
X0053575Y0111194D01*
X0052472Y0110737D01*
X0052371Y0110636D01*
X0052371Y0112882D01*
X0052535Y0112719D01*
X0052628Y0112494D01*
X0053472Y0111650D01*
X0054575Y0111194D01*
X0055768Y0111194D01*
X0056871Y0111650D01*
X0057715Y0112494D01*
X0058171Y0113597D01*
X0058171Y0114790D01*
X0057715Y0115893D01*
X0056967Y0116641D01*
X0060653Y0116641D01*
X0061171Y0117159D01*
X0061370Y0116961D01*
X0061735Y0116750D01*
X0062142Y0116641D01*
X0064311Y0116641D01*
X0064311Y0120594D01*
X0065511Y0120594D01*
X0065511Y0116641D01*
X0067681Y0116641D01*
X0068088Y0116750D01*
X0068453Y0116961D01*
X0068751Y0117259D01*
X0068961Y0117623D01*
X0069070Y0118030D01*
X0069070Y0120594D01*
X0065511Y0120594D01*
X0065511Y0121794D01*
X0064311Y0121794D01*
X0064311Y0125746D01*
X0062142Y0125746D01*
X0061735Y0125637D01*
X0061370Y0125427D01*
X0061171Y0125228D01*
X0060653Y0125746D01*
X0059371Y0125746D01*
X0059371Y0129105D01*
X0058083Y0130394D01*
X0058083Y0130394D01*
X0056583Y0131894D01*
X0053434Y0131894D01*
X0053134Y0132194D01*
X0053671Y0132731D01*
X0053671Y0132994D01*
X0055129Y0132994D01*
X0055472Y0132650D01*
X0056575Y0132194D01*
X0057768Y0132194D01*
X0058871Y0132650D01*
X0059715Y0133494D01*
X0060171Y0134597D01*
X0060171Y0135790D01*
X0059715Y0136893D01*
X0058871Y0137737D01*
X0057768Y0138194D01*
X0056575Y0138194D01*
X0055472Y0137737D01*
X0055129Y0137394D01*
X0053334Y0137394D01*
X0053671Y0137731D01*
X0053671Y0141656D01*
X0053134Y0142194D01*
X0053671Y0142731D01*
X0053671Y0146656D01*
X0053134Y0147194D01*
X0053671Y0147731D01*
X0053671Y0151656D01*
X0053134Y0152194D01*
X0053671Y0152731D01*
X0053671Y0156656D01*
X0053134Y0157194D01*
X0053352Y0157411D01*
X0053562Y0157776D01*
X0053671Y0158183D01*
X0053671Y0159644D01*
X0048121Y0159644D01*
X0048071Y0159694D02*
X0048571Y0160194D01*
X0048071Y0164694D02*
X0047171Y0165594D01*
X0047171Y0186194D01*
X0041171Y0192194D01*
X0045484Y0196154D02*
X0049858Y0196154D01*
X0048660Y0194956D02*
X0046683Y0194956D01*
X0047021Y0193757D02*
X0048321Y0193757D01*
X0048321Y0192558D02*
X0047021Y0192558D01*
X0047021Y0191360D02*
X0048321Y0191360D01*
X0048321Y0190161D02*
X0047021Y0190161D01*
X0047513Y0188963D02*
X0049129Y0188963D01*
X0048712Y0187764D02*
X0050327Y0187764D01*
X0049371Y0186566D02*
X0051526Y0186566D01*
X0049371Y0185367D02*
X0057886Y0185367D01*
X0059085Y0184169D02*
X0049371Y0184169D01*
X0049371Y0182970D02*
X0060283Y0182970D01*
X0061482Y0181772D02*
X0049371Y0181772D01*
X0049371Y0180573D02*
X0062680Y0180573D01*
X0062971Y0179375D02*
X0049371Y0179375D01*
X0049371Y0178176D02*
X0062971Y0178176D01*
X0062971Y0176978D02*
X0049371Y0176978D01*
X0049371Y0175779D02*
X0062971Y0175779D01*
X0062971Y0174581D02*
X0049371Y0174581D01*
X0049371Y0173382D02*
X0062971Y0173382D01*
X0062971Y0172184D02*
X0049371Y0172184D01*
X0049371Y0170985D02*
X0062971Y0170985D01*
X0062971Y0169787D02*
X0049371Y0169787D01*
X0049371Y0168588D02*
X0062971Y0168588D01*
X0062971Y0167390D02*
X0052938Y0167390D01*
X0053671Y0166191D02*
X0062971Y0166191D01*
X0062971Y0164993D02*
X0053671Y0164993D01*
X0053671Y0163794D02*
X0062971Y0163794D01*
X0062971Y0162596D02*
X0053536Y0162596D01*
X0053620Y0161397D02*
X0062971Y0161397D01*
X0062971Y0160199D02*
X0053671Y0160199D01*
X0053671Y0159000D02*
X0062971Y0159000D01*
X0062971Y0157802D02*
X0053569Y0157802D01*
X0053671Y0156603D02*
X0062971Y0156603D01*
X0062971Y0155405D02*
X0053671Y0155405D01*
X0053671Y0154206D02*
X0063048Y0154206D01*
X0064246Y0153008D02*
X0053671Y0153008D01*
X0053519Y0151809D02*
X0066824Y0151809D01*
X0066671Y0150611D02*
X0053671Y0150611D01*
X0053671Y0149412D02*
X0066671Y0149412D01*
X0066671Y0148214D02*
X0053671Y0148214D01*
X0053313Y0147015D02*
X0067030Y0147015D01*
X0066671Y0145817D02*
X0053671Y0145817D01*
X0053671Y0144618D02*
X0066671Y0144618D01*
X0066671Y0143420D02*
X0053671Y0143420D01*
X0053161Y0142221D02*
X0067181Y0142221D01*
X0066671Y0141023D02*
X0053671Y0141023D01*
X0053671Y0139824D02*
X0066671Y0139824D01*
X0066671Y0138625D02*
X0053671Y0138625D01*
X0053367Y0137427D02*
X0055162Y0137427D01*
X0057171Y0135194D02*
X0048571Y0135194D01*
X0048071Y0134694D01*
X0048071Y0129694D02*
X0055671Y0129694D01*
X0057171Y0128194D01*
X0057171Y0121454D01*
X0057431Y0121194D01*
X0057731Y0115854D02*
X0074971Y0115854D01*
X0074971Y0117052D02*
X0068545Y0117052D01*
X0069070Y0118251D02*
X0074971Y0118251D01*
X0074971Y0119449D02*
X0069070Y0119449D01*
X0069070Y0121794D02*
X0069070Y0124357D01*
X0068961Y0124764D01*
X0068751Y0125129D01*
X0068453Y0125427D01*
X0068088Y0125637D01*
X0067681Y0125746D01*
X0065511Y0125746D01*
X0065511Y0121794D01*
X0069070Y0121794D01*
X0069070Y0121846D02*
X0075597Y0121846D01*
X0075130Y0121380D02*
X0076068Y0122317D01*
X0076184Y0122317D01*
X0076260Y0122394D01*
X0090260Y0122394D01*
X0108260Y0140394D01*
X0109127Y0140394D01*
X0109209Y0140476D01*
X0115653Y0140476D01*
X0116171Y0139958D01*
X0116370Y0140157D01*
X0116735Y0140367D01*
X0117142Y0140476D01*
X0119311Y0140476D01*
X0119311Y0136524D01*
X0120511Y0136524D01*
X0120511Y0140476D01*
X0122681Y0140476D01*
X0123088Y0140367D01*
X0123453Y0140157D01*
X0123751Y0139859D01*
X0123961Y0139494D01*
X0124070Y0139087D01*
X0124070Y0136524D01*
X0120511Y0136524D01*
X0120511Y0135324D01*
X0120511Y0131876D01*
X0120311Y0131876D01*
X0120311Y0127924D01*
X0119111Y0127924D01*
X0119111Y0131371D01*
X0119311Y0131371D01*
X0119311Y0135324D01*
X0120511Y0135324D01*
X0124070Y0135324D01*
X0124070Y0132760D01*
X0123961Y0132353D01*
X0123751Y0131988D01*
X0123453Y0131691D01*
X0123237Y0131566D01*
X0123253Y0131557D01*
X0123551Y0131259D01*
X0123761Y0130894D01*
X0123870Y0130487D01*
X0123870Y0127924D01*
X0120311Y0127924D01*
X0120311Y0126724D01*
X0120311Y0122771D01*
X0122481Y0122771D01*
X0122888Y0122880D01*
X0123253Y0123091D01*
X0123551Y0123388D01*
X0123761Y0123753D01*
X0123870Y0124160D01*
X0123870Y0126724D01*
X0120311Y0126724D01*
X0119111Y0126724D01*
X0119111Y0122771D01*
X0116942Y0122771D01*
X0116535Y0122880D01*
X0116371Y0122974D01*
X0116371Y0121330D01*
X0117134Y0122093D01*
X0120428Y0122093D01*
X0121128Y0121394D01*
X0122129Y0121394D01*
X0122472Y0121737D01*
X0123575Y0122194D01*
X0124768Y0122194D01*
X0125871Y0121737D01*
X0126715Y0120893D01*
X0127171Y0119790D01*
X0127171Y0118597D01*
X0126715Y0117494D01*
X0125871Y0116650D01*
X0125839Y0116637D01*
X0128041Y0114435D01*
X0128170Y0114564D01*
X0127971Y0114762D01*
X0127761Y0115127D01*
X0127652Y0115534D01*
X0127652Y0117704D01*
X0131801Y0117704D01*
X0131801Y0118904D01*
X0127652Y0118904D01*
X0127652Y0121074D01*
X0127761Y0121481D01*
X0127971Y0121845D01*
X0128269Y0122143D01*
X0128634Y0122354D01*
X0129041Y0122463D01*
X0131801Y0122463D01*
X0131801Y0118904D01*
X0133001Y0118904D01*
X0133001Y0122463D01*
X0135762Y0122463D01*
X0136168Y0122354D01*
X0136533Y0122143D01*
X0136831Y0121845D01*
X0137042Y0121481D01*
X0137151Y0121074D01*
X0137151Y0118904D01*
X0133001Y0118904D01*
X0133001Y0117704D01*
X0137151Y0117704D01*
X0137151Y0115534D01*
X0137042Y0115127D01*
X0136831Y0114762D01*
X0136632Y0114564D01*
X0137151Y0114045D01*
X0137151Y0107602D01*
X0136214Y0106665D01*
X0128589Y0106665D01*
X0127652Y0107602D01*
X0127652Y0108624D01*
X0127630Y0108624D01*
X0122260Y0113994D01*
X0120201Y0113994D01*
X0119239Y0114956D01*
X0117134Y0114956D01*
X0116197Y0115893D01*
X0116197Y0119108D01*
X0115371Y0118282D01*
X0115371Y0117282D01*
X0114083Y0115994D01*
X0113083Y0114994D01*
X0112986Y0114994D01*
X0112948Y0114956D01*
X0110844Y0114956D01*
X0110468Y0114580D01*
X0104669Y0114580D01*
X0101083Y0110994D01*
X0076260Y0110994D01*
X0074971Y0112282D01*
X0074971Y0121105D01*
X0075130Y0121264D01*
X0075130Y0121380D01*
X0074971Y0120648D02*
X0065511Y0120648D01*
X0065511Y0121846D02*
X0064311Y0121846D01*
X0064311Y0123045D02*
X0065511Y0123045D01*
X0065511Y0124243D02*
X0064311Y0124243D01*
X0064311Y0125442D02*
X0065511Y0125442D01*
X0066763Y0127839D02*
X0059371Y0127839D01*
X0059371Y0129037D02*
X0066671Y0129037D01*
X0066671Y0130236D02*
X0058240Y0130236D01*
X0057042Y0131434D02*
X0066733Y0131434D01*
X0066769Y0132633D02*
X0058828Y0132633D01*
X0059854Y0133831D02*
X0066671Y0133831D01*
X0066671Y0135030D02*
X0060171Y0135030D01*
X0059990Y0136228D02*
X0066671Y0136228D01*
X0066982Y0137427D02*
X0059181Y0137427D01*
X0055514Y0132633D02*
X0053573Y0132633D01*
X0053434Y0127494D02*
X0054760Y0127494D01*
X0054971Y0127282D01*
X0054971Y0125746D01*
X0054209Y0125746D01*
X0053272Y0124809D01*
X0053272Y0124204D01*
X0052083Y0125394D01*
X0039981Y0125394D01*
X0039981Y0125588D01*
X0039043Y0126525D01*
X0037371Y0126525D01*
X0037371Y0132105D01*
X0036835Y0132641D01*
X0041133Y0132641D01*
X0042070Y0133578D01*
X0042070Y0137494D01*
X0042709Y0137494D01*
X0043009Y0137194D01*
X0042471Y0136656D01*
X0042471Y0132731D01*
X0043009Y0132194D01*
X0042471Y0131656D01*
X0042471Y0127731D01*
X0043409Y0126794D01*
X0052734Y0126794D01*
X0053434Y0127494D01*
X0054971Y0126640D02*
X0037371Y0126640D01*
X0037371Y0127839D02*
X0042471Y0127839D01*
X0042471Y0129037D02*
X0037371Y0129037D01*
X0037371Y0130236D02*
X0042471Y0130236D01*
X0042471Y0131434D02*
X0037371Y0131434D01*
X0036843Y0132633D02*
X0042569Y0132633D01*
X0042471Y0133831D02*
X0042070Y0133831D01*
X0042070Y0135030D02*
X0042471Y0135030D01*
X0042471Y0136228D02*
X0042070Y0136228D01*
X0042070Y0137427D02*
X0042775Y0137427D01*
X0040411Y0139694D02*
X0048071Y0139694D01*
X0043009Y0142194D02*
X0042909Y0142294D01*
X0040136Y0142294D01*
X0040111Y0142233D01*
X0040111Y0141894D01*
X0042709Y0141894D01*
X0043009Y0142194D01*
X0042981Y0142221D02*
X0040111Y0142221D01*
X0037911Y0143194D02*
X0037911Y0137194D01*
X0040411Y0139694D01*
X0037911Y0143194D02*
X0037911Y0149194D01*
X0038411Y0149694D01*
X0048071Y0149694D01*
X0047571Y0149194D01*
X0038171Y0149194D01*
X0038171Y0155194D01*
X0036472Y0157737D02*
X0035628Y0156893D01*
X0035171Y0155790D01*
X0035171Y0154597D01*
X0035524Y0153746D01*
X0034690Y0153746D01*
X0034171Y0153228D01*
X0033973Y0153427D01*
X0033608Y0153637D01*
X0033201Y0153746D01*
X0031031Y0153746D01*
X0031031Y0149794D01*
X0029831Y0149794D01*
X0029831Y0153746D01*
X0028312Y0153746D01*
X0028312Y0159974D01*
X0029334Y0159974D01*
X0029852Y0160492D01*
X0030051Y0160294D01*
X0030416Y0160083D01*
X0030823Y0159974D01*
X0032993Y0159974D01*
X0032993Y0163927D01*
X0034192Y0163927D01*
X0034192Y0159974D01*
X0036362Y0159974D01*
X0036769Y0160083D01*
X0037134Y0160294D01*
X0037432Y0160592D01*
X0037643Y0160956D01*
X0037752Y0161363D01*
X0037752Y0163927D01*
X0034193Y0163927D01*
X0034193Y0165127D01*
X0037752Y0165127D01*
X0037752Y0167690D01*
X0037643Y0168097D01*
X0037432Y0168462D01*
X0037134Y0168760D01*
X0036769Y0168970D01*
X0036362Y0169080D01*
X0034192Y0169080D01*
X0034192Y0165127D01*
X0032993Y0165127D01*
X0032993Y0169080D01*
X0030823Y0169080D01*
X0030416Y0168970D01*
X0030051Y0168760D01*
X0029852Y0168561D01*
X0029334Y0169080D01*
X0027371Y0169080D01*
X0027371Y0170105D01*
X0026605Y0170871D01*
X0030116Y0170871D01*
X0030634Y0171389D01*
X0030833Y0171191D01*
X0031198Y0170980D01*
X0031605Y0170871D01*
X0033774Y0170871D01*
X0033774Y0174824D01*
X0034974Y0174824D01*
X0034974Y0176024D01*
X0033774Y0176024D01*
X0033774Y0179976D01*
X0031605Y0179976D01*
X0031198Y0179867D01*
X0030833Y0179657D01*
X0030634Y0179458D01*
X0030116Y0179976D01*
X0025453Y0179976D01*
X0022035Y0183394D01*
X0019039Y0183394D01*
X0019356Y0183710D01*
X0019742Y0184242D01*
X0020040Y0184827D01*
X0020243Y0185452D01*
X0020346Y0186101D01*
X0020346Y0186242D01*
X0016359Y0186242D01*
X0016359Y0186617D01*
X0020346Y0186617D01*
X0020346Y0186758D01*
X0020243Y0187408D01*
X0020040Y0188032D01*
X0019742Y0188618D01*
X0019356Y0189150D01*
X0018891Y0189614D01*
X0018359Y0190001D01*
X0017774Y0190299D01*
X0017149Y0190502D01*
X0016500Y0190605D01*
X0016359Y0190605D01*
X0016359Y0186617D01*
X0015984Y0186617D01*
X0015984Y0186242D01*
X0011996Y0186242D01*
X0011996Y0186101D01*
X0012099Y0185452D01*
X0012302Y0184827D01*
X0012601Y0184242D01*
X0012987Y0183710D01*
X0013303Y0183394D01*
X0012250Y0183394D01*
X0010266Y0185407D01*
X0010346Y0185599D01*
X0010346Y0187260D01*
X0009710Y0188795D01*
X0008536Y0189969D01*
X0007002Y0190605D01*
X0005341Y0190605D01*
X0003806Y0189969D01*
X0003171Y0189334D01*
X0003171Y0192313D01*
X0003386Y0192255D01*
X0005984Y0192255D01*
X0005984Y0196242D01*
X0006359Y0196242D01*
X0006359Y0192255D01*
X0008957Y0192255D01*
X0009364Y0192364D01*
X0009728Y0192575D01*
X0010026Y0192873D01*
X0010237Y0193238D01*
X0010346Y0193644D01*
X0010346Y0196242D01*
X0006359Y0196242D01*
X0006359Y0196617D01*
X0010346Y0196617D01*
X0010346Y0197394D01*
X0012052Y0197394D01*
X0011996Y0197260D01*
X0011996Y0195599D01*
X0012632Y0194065D01*
X0013806Y0192891D01*
X0015341Y0192255D01*
X0017002Y0192255D01*
X0018536Y0192891D01*
X0019710Y0194065D01*
X0020346Y0195599D01*
X0020346Y0197260D01*
X0020291Y0197394D01*
X0025098Y0197394D01*
X0022321Y0194617D01*
X0022321Y0189771D01*
X0025748Y0186344D01*
X0030594Y0186344D01*
X0030752Y0186502D01*
X0037326Y0179928D01*
X0037144Y0179976D01*
X0034974Y0179976D01*
X0034974Y0176024D01*
X0038533Y0176024D01*
X0038533Y0178587D01*
X0038485Y0178769D01*
X0038971Y0178282D01*
X0038971Y0158109D01*
X0038768Y0158194D01*
X0037575Y0158194D01*
X0036472Y0157737D01*
X0036628Y0157802D02*
X0028312Y0157802D01*
X0028312Y0159000D02*
X0038971Y0159000D01*
X0038971Y0160199D02*
X0036969Y0160199D01*
X0037752Y0161397D02*
X0038971Y0161397D01*
X0038971Y0162596D02*
X0037752Y0162596D01*
X0037752Y0163794D02*
X0038971Y0163794D01*
X0038971Y0164993D02*
X0034193Y0164993D01*
X0034192Y0166191D02*
X0032993Y0166191D01*
X0032993Y0167390D02*
X0034192Y0167390D01*
X0034192Y0168588D02*
X0032993Y0168588D01*
X0033774Y0170985D02*
X0034974Y0170985D01*
X0034974Y0170871D02*
X0037144Y0170871D01*
X0037551Y0170980D01*
X0037916Y0171191D01*
X0038214Y0171488D01*
X0038424Y0171853D01*
X0038533Y0172260D01*
X0038533Y0174824D01*
X0034974Y0174824D01*
X0034974Y0170871D01*
X0034974Y0172184D02*
X0033774Y0172184D01*
X0033774Y0173382D02*
X0034974Y0173382D01*
X0034974Y0174581D02*
X0033774Y0174581D01*
X0034974Y0175779D02*
X0038971Y0175779D01*
X0038971Y0174581D02*
X0038533Y0174581D01*
X0038533Y0173382D02*
X0038971Y0173382D01*
X0038971Y0172184D02*
X0038513Y0172184D01*
X0038971Y0170985D02*
X0037560Y0170985D01*
X0038971Y0169787D02*
X0027371Y0169787D01*
X0025171Y0169194D02*
X0025171Y0165468D01*
X0026112Y0164527D01*
X0026112Y0133253D01*
X0027171Y0132194D01*
X0034171Y0132194D01*
X0035171Y0131194D01*
X0035171Y0122426D01*
X0035231Y0122366D01*
X0036059Y0123194D01*
X0051171Y0123194D01*
X0052171Y0122194D01*
X0052171Y0116194D01*
X0054171Y0114194D01*
X0055171Y0114194D01*
X0052864Y0112258D02*
X0052371Y0112258D01*
X0052371Y0111060D02*
X0053251Y0111060D01*
X0055091Y0111060D02*
X0076194Y0111060D01*
X0074995Y0112258D02*
X0057478Y0112258D01*
X0058113Y0113457D02*
X0074971Y0113457D01*
X0074971Y0114655D02*
X0058171Y0114655D01*
X0061064Y0117052D02*
X0061278Y0117052D01*
X0064311Y0117052D02*
X0065511Y0117052D01*
X0065511Y0118251D02*
X0064311Y0118251D01*
X0064311Y0119449D02*
X0065511Y0119449D01*
X0069070Y0123045D02*
X0090911Y0123045D01*
X0092110Y0124243D02*
X0069070Y0124243D01*
X0068427Y0125442D02*
X0093308Y0125442D01*
X0094507Y0126640D02*
X0059371Y0126640D01*
X0060957Y0125442D02*
X0061396Y0125442D01*
X0053905Y0125442D02*
X0039981Y0125442D01*
X0039981Y0120994D02*
X0042092Y0120994D01*
X0041472Y0120737D01*
X0040628Y0119893D01*
X0040171Y0118790D01*
X0040171Y0117597D01*
X0040628Y0116494D01*
X0040971Y0116151D01*
X0040971Y0104109D01*
X0040768Y0104194D01*
X0039575Y0104194D01*
X0038530Y0103761D01*
X0038530Y0106531D01*
X0038421Y0106938D01*
X0038211Y0107303D01*
X0037913Y0107601D01*
X0037548Y0107811D01*
X0037141Y0107920D01*
X0035887Y0107920D01*
X0035887Y0103702D01*
X0035887Y0099484D01*
X0037141Y0099484D01*
X0037548Y0099593D01*
X0037579Y0099612D01*
X0037628Y0099494D01*
X0037971Y0099151D01*
X0037971Y0094942D01*
X0037593Y0095320D01*
X0034181Y0095320D01*
X0033387Y0094527D01*
X0032593Y0095320D01*
X0029181Y0095320D01*
X0028387Y0094527D01*
X0027593Y0095320D01*
X0024371Y0095320D01*
X0024371Y0099484D01*
X0027593Y0099484D01*
X0028387Y0100278D01*
X0029181Y0099484D01*
X0032593Y0099484D01*
X0033434Y0100325D01*
X0033563Y0100102D01*
X0033861Y0099804D01*
X0034226Y0099593D01*
X0034633Y0099484D01*
X0035887Y0099484D01*
X0035887Y0103702D01*
X0035887Y0103702D01*
X0035887Y0107920D01*
X0034633Y0107920D01*
X0034226Y0107811D01*
X0033861Y0107601D01*
X0033563Y0107303D01*
X0033434Y0107079D01*
X0033087Y0107427D01*
X0033087Y0109630D01*
X0034183Y0110727D01*
X0039043Y0110727D01*
X0039981Y0111664D01*
X0039981Y0118108D01*
X0039462Y0118626D01*
X0039981Y0119144D01*
X0039981Y0120994D01*
X0039981Y0120648D02*
X0041383Y0120648D01*
X0040444Y0119449D02*
X0039981Y0119449D01*
X0039838Y0118251D02*
X0040171Y0118251D01*
X0039981Y0117052D02*
X0040397Y0117052D01*
X0039981Y0115854D02*
X0040971Y0115854D01*
X0040971Y0114655D02*
X0039981Y0114655D01*
X0039981Y0113457D02*
X0040971Y0113457D01*
X0040971Y0112258D02*
X0039981Y0112258D01*
X0039376Y0111060D02*
X0040971Y0111060D01*
X0040971Y0109861D02*
X0033318Y0109861D01*
X0033087Y0108663D02*
X0040971Y0108663D01*
X0040971Y0107464D02*
X0038049Y0107464D01*
X0038530Y0106266D02*
X0040971Y0106266D01*
X0040971Y0105067D02*
X0038530Y0105067D01*
X0038530Y0103869D02*
X0038790Y0103869D01*
X0040171Y0101194D02*
X0040171Y0088194D01*
X0035171Y0083194D01*
X0035171Y0077194D01*
X0047171Y0065194D01*
X0072171Y0065194D01*
X0093581Y0043784D01*
X0093581Y0036800D01*
X0095549Y0036800D02*
X0095549Y0044816D01*
X0073171Y0067194D01*
X0048171Y0067194D01*
X0037171Y0078194D01*
X0037171Y0082194D01*
X0042171Y0087194D01*
X0042171Y0097194D01*
X0043171Y0098194D01*
X0045414Y0096194D02*
X0045715Y0096494D01*
X0046021Y0097233D01*
X0047971Y0095282D01*
X0047971Y0094273D01*
X0047715Y0094893D01*
X0046871Y0095737D01*
X0045768Y0096194D01*
X0045414Y0096194D01*
X0045790Y0096678D02*
X0046576Y0096678D01*
X0047129Y0095479D02*
X0047775Y0095479D01*
X0047968Y0094281D02*
X0047971Y0094281D01*
X0047971Y0092114D02*
X0047971Y0090109D01*
X0047768Y0090194D01*
X0046575Y0090194D01*
X0046371Y0090109D01*
X0046371Y0090444D01*
X0046871Y0090650D01*
X0047715Y0091494D01*
X0047971Y0092114D01*
X0047971Y0091884D02*
X0047876Y0091884D01*
X0047971Y0090685D02*
X0046905Y0090685D01*
X0047171Y0087194D02*
X0047171Y0086194D01*
X0042171Y0081194D01*
X0042171Y0079194D01*
X0050171Y0071194D01*
X0075171Y0071194D01*
X0099486Y0046879D01*
X0099486Y0036800D01*
X0097518Y0036800D02*
X0097518Y0045847D01*
X0074171Y0069194D01*
X0049171Y0069194D01*
X0040171Y0078194D01*
X0040171Y0082194D01*
X0044171Y0086194D01*
X0044171Y0092194D01*
X0045171Y0093194D01*
X0050171Y0096194D02*
X0050171Y0086194D01*
X0048171Y0084194D01*
X0048171Y0076194D01*
X0051171Y0073194D01*
X0076171Y0073194D01*
X0107171Y0042194D01*
X0115171Y0042194D01*
X0117203Y0040162D01*
X0117203Y0036800D01*
X0119171Y0036800D02*
X0119171Y0041194D01*
X0116171Y0044194D01*
X0108171Y0044194D01*
X0077171Y0075194D01*
X0052171Y0075194D01*
X0050171Y0077194D01*
X0050171Y0083194D01*
X0052171Y0085194D01*
X0052171Y0097194D01*
X0047171Y0102194D01*
X0047171Y0113194D01*
X0047171Y0117194D02*
X0049171Y0117194D01*
X0050171Y0116194D01*
X0050171Y0102194D01*
X0054171Y0098194D01*
X0054171Y0084194D01*
X0052171Y0082194D01*
X0052171Y0078194D01*
X0053171Y0077194D01*
X0078171Y0077194D01*
X0109171Y0046194D01*
X0117171Y0046194D01*
X0121140Y0042225D01*
X0121140Y0036800D01*
X0123108Y0036800D02*
X0123108Y0033257D01*
X0125308Y0033156D02*
X0126023Y0033156D01*
X0125308Y0032442D02*
X0125308Y0037711D01*
X0125308Y0044168D01*
X0124020Y0045457D01*
X0120444Y0049033D01*
X0124151Y0049033D01*
X0124929Y0049811D01*
X0128677Y0049811D01*
X0126971Y0048105D01*
X0126971Y0034105D01*
X0125308Y0032442D01*
X0125308Y0034355D02*
X0126971Y0034355D01*
X0126971Y0035554D02*
X0125308Y0035554D01*
X0125308Y0036752D02*
X0126971Y0036752D01*
X0126971Y0037951D02*
X0125308Y0037951D01*
X0125308Y0039149D02*
X0126971Y0039149D01*
X0126971Y0040348D02*
X0125308Y0040348D01*
X0125308Y0041546D02*
X0126971Y0041546D01*
X0126971Y0042745D02*
X0125308Y0042745D01*
X0125308Y0043943D02*
X0126971Y0043943D01*
X0126971Y0045142D02*
X0124335Y0045142D01*
X0123136Y0046340D02*
X0126971Y0046340D01*
X0126971Y0047539D02*
X0121938Y0047539D01*
X0120739Y0048737D02*
X0127603Y0048737D01*
X0129171Y0047194D02*
X0141171Y0059194D01*
X0141171Y0072194D01*
X0140171Y0071194D01*
X0135171Y0071194D01*
X0134100Y0070123D01*
X0134100Y0066463D01*
X0131541Y0064003D02*
X0132060Y0063485D01*
X0136141Y0063485D01*
X0137078Y0064422D01*
X0137078Y0068504D01*
X0136588Y0068994D01*
X0138971Y0068994D01*
X0138971Y0060105D01*
X0133741Y0054875D01*
X0133741Y0056361D01*
X0134519Y0057139D01*
X0134519Y0061220D01*
X0133582Y0062157D01*
X0129501Y0062157D01*
X0128563Y0061220D01*
X0128563Y0057139D01*
X0129284Y0056418D01*
X0127077Y0054211D01*
X0124929Y0054211D01*
X0124570Y0054570D01*
X0125088Y0055088D01*
X0125088Y0059169D01*
X0124310Y0059947D01*
X0124310Y0062276D01*
X0124070Y0062516D01*
X0124070Y0067179D01*
X0123336Y0067914D01*
X0124070Y0068648D01*
X0124070Y0075879D01*
X0123647Y0076302D01*
X0124195Y0076302D01*
X0125132Y0077240D01*
X0125132Y0085184D01*
X0126271Y0086324D01*
X0127714Y0087767D01*
X0127714Y0086159D01*
X0131864Y0086159D01*
X0131864Y0084959D01*
X0127714Y0084959D01*
X0127714Y0082789D01*
X0127823Y0082382D01*
X0128034Y0082017D01*
X0128233Y0081819D01*
X0127714Y0081300D01*
X0127714Y0076739D01*
X0127207Y0076279D01*
X0127145Y0076279D01*
X0127060Y0076194D01*
X0126575Y0076194D01*
X0125472Y0075737D01*
X0124628Y0074893D01*
X0124171Y0073790D01*
X0124171Y0072597D01*
X0124628Y0071494D01*
X0125472Y0070650D01*
X0126575Y0070194D01*
X0126782Y0070194D01*
X0126782Y0069282D01*
X0126004Y0068504D01*
X0126004Y0064422D01*
X0126942Y0063485D01*
X0131023Y0063485D01*
X0131541Y0064003D01*
X0133819Y0061921D02*
X0138971Y0061921D01*
X0138971Y0063119D02*
X0124070Y0063119D01*
X0124070Y0064318D02*
X0126109Y0064318D01*
X0126004Y0065516D02*
X0124070Y0065516D01*
X0124070Y0066715D02*
X0126004Y0066715D01*
X0126004Y0067913D02*
X0123336Y0067913D01*
X0124070Y0069112D02*
X0126613Y0069112D01*
X0126293Y0070310D02*
X0124070Y0070310D01*
X0124070Y0071509D02*
X0124622Y0071509D01*
X0124171Y0072707D02*
X0124070Y0072707D01*
X0124070Y0073906D02*
X0124219Y0073906D01*
X0124070Y0075104D02*
X0124839Y0075104D01*
X0124195Y0076303D02*
X0127234Y0076303D01*
X0127714Y0077501D02*
X0125132Y0077501D01*
X0125132Y0078700D02*
X0127714Y0078700D01*
X0127714Y0079898D02*
X0125132Y0079898D01*
X0125132Y0081097D02*
X0127714Y0081097D01*
X0127874Y0082295D02*
X0125132Y0082295D01*
X0125132Y0083494D02*
X0127714Y0083494D01*
X0127714Y0084692D02*
X0125132Y0084692D01*
X0125838Y0085891D02*
X0131864Y0085891D01*
X0131864Y0087089D02*
X0133064Y0087089D01*
X0133064Y0086159D02*
X0133064Y0089718D01*
X0135824Y0089718D01*
X0136231Y0089609D01*
X0136596Y0089398D01*
X0136894Y0089100D01*
X0137105Y0088736D01*
X0137214Y0088329D01*
X0137214Y0086159D01*
X0133064Y0086159D01*
X0133064Y0085891D02*
X0138971Y0085891D01*
X0138971Y0087089D02*
X0137214Y0087089D01*
X0137214Y0088288D02*
X0138971Y0088288D01*
X0138971Y0089487D02*
X0136443Y0089487D01*
X0136632Y0090685D02*
X0138971Y0090685D01*
X0138971Y0091884D02*
X0137271Y0091884D01*
X0137271Y0093082D02*
X0138971Y0093082D01*
X0138971Y0094281D02*
X0137271Y0094281D01*
X0137271Y0095479D02*
X0138971Y0095479D01*
X0138971Y0096678D02*
X0137271Y0096678D01*
X0137271Y0097876D02*
X0138971Y0097876D01*
X0138971Y0099075D02*
X0136862Y0099075D01*
X0136921Y0100273D02*
X0138971Y0100273D01*
X0138971Y0101472D02*
X0132771Y0101472D01*
X0132771Y0102664D02*
X0136921Y0102664D01*
X0136921Y0104833D01*
X0136812Y0105240D01*
X0136601Y0105605D01*
X0136303Y0105903D01*
X0135938Y0106114D01*
X0135532Y0106223D01*
X0132771Y0106223D01*
X0132771Y0102664D01*
X0132771Y0102670D02*
X0131571Y0102670D01*
X0131571Y0103869D02*
X0132771Y0103869D01*
X0132771Y0105067D02*
X0131571Y0105067D01*
X0128069Y0106266D02*
X0138971Y0106266D01*
X0138971Y0107464D02*
X0137013Y0107464D01*
X0137151Y0108663D02*
X0138971Y0108663D01*
X0138971Y0109861D02*
X0137151Y0109861D01*
X0137151Y0111060D02*
X0138971Y0111060D01*
X0138971Y0112258D02*
X0137151Y0112258D01*
X0137151Y0113457D02*
X0138971Y0113457D01*
X0138971Y0114655D02*
X0136724Y0114655D01*
X0137151Y0115854D02*
X0138971Y0115854D01*
X0138971Y0117052D02*
X0137151Y0117052D01*
X0138971Y0118251D02*
X0133001Y0118251D01*
X0133001Y0119449D02*
X0131801Y0119449D01*
X0131801Y0118251D02*
X0127028Y0118251D01*
X0127171Y0119449D02*
X0127652Y0119449D01*
X0127652Y0120648D02*
X0126816Y0120648D01*
X0127972Y0121846D02*
X0125607Y0121846D01*
X0123174Y0123045D02*
X0138971Y0123045D01*
X0138971Y0124243D02*
X0123870Y0124243D01*
X0123870Y0125442D02*
X0138971Y0125442D01*
X0138971Y0126640D02*
X0123870Y0126640D01*
X0123870Y0129037D02*
X0138971Y0129037D01*
X0138971Y0127839D02*
X0120311Y0127839D01*
X0120311Y0129037D02*
X0119111Y0129037D01*
X0119111Y0130236D02*
X0120311Y0130236D01*
X0120311Y0131434D02*
X0119311Y0131434D01*
X0119311Y0132633D02*
X0120511Y0132633D01*
X0120511Y0133831D02*
X0119311Y0133831D01*
X0119311Y0135030D02*
X0120511Y0135030D01*
X0120511Y0136228D02*
X0138971Y0136228D01*
X0138971Y0135030D02*
X0124070Y0135030D01*
X0124070Y0133831D02*
X0138971Y0133831D01*
X0138971Y0132633D02*
X0124036Y0132633D01*
X0123375Y0131434D02*
X0138971Y0131434D01*
X0138971Y0130236D02*
X0123870Y0130236D01*
X0120311Y0126640D02*
X0119111Y0126640D01*
X0119111Y0125442D02*
X0120311Y0125442D01*
X0120311Y0124243D02*
X0119111Y0124243D01*
X0119111Y0123045D02*
X0120311Y0123045D01*
X0120675Y0121846D02*
X0122736Y0121846D01*
X0124171Y0119194D02*
X0119451Y0119194D01*
X0118781Y0118524D01*
X0121112Y0116194D01*
X0123171Y0116194D01*
X0128541Y0110824D01*
X0132401Y0110824D01*
X0128079Y0114655D02*
X0127821Y0114655D01*
X0127652Y0115854D02*
X0126622Y0115854D01*
X0126272Y0117052D02*
X0127652Y0117052D01*
X0123995Y0112258D02*
X0122077Y0112258D01*
X0122797Y0113457D02*
X0103546Y0113457D01*
X0104125Y0112258D02*
X0102347Y0112258D01*
X0102926Y0111060D02*
X0101149Y0111060D01*
X0101727Y0109861D02*
X0056728Y0109861D01*
X0057171Y0108663D02*
X0075405Y0108663D01*
X0074971Y0107464D02*
X0072143Y0107464D01*
X0072974Y0106266D02*
X0074971Y0106266D01*
X0074971Y0105067D02*
X0073171Y0105067D01*
X0072870Y0103869D02*
X0074971Y0103869D01*
X0074971Y0102670D02*
X0071890Y0102670D01*
X0070171Y0105194D02*
X0058171Y0105194D01*
X0060143Y0107464D02*
X0068199Y0107464D01*
X0068452Y0102670D02*
X0059890Y0102670D01*
X0058371Y0101472D02*
X0074971Y0101472D01*
X0074971Y0100273D02*
X0058371Y0100273D01*
X0058371Y0099075D02*
X0062287Y0099075D01*
X0060621Y0097876D02*
X0058371Y0097876D01*
X0058371Y0096678D02*
X0060171Y0096678D01*
X0060220Y0095479D02*
X0058371Y0095479D01*
X0058371Y0094281D02*
X0060842Y0094281D01*
X0063171Y0096194D02*
X0064171Y0097194D01*
X0074171Y0097194D01*
X0076699Y0095479D02*
X0077775Y0095479D01*
X0078973Y0094281D02*
X0074978Y0094281D01*
X0073365Y0094281D02*
X0065501Y0094281D01*
X0058371Y0093082D02*
X0080172Y0093082D01*
X0081370Y0091884D02*
X0058371Y0091884D01*
X0058371Y0090685D02*
X0082569Y0090685D01*
X0083767Y0089487D02*
X0058371Y0089487D01*
X0059171Y0086194D02*
X0076171Y0086194D01*
X0079171Y0083194D01*
X0106795Y0054570D01*
X0114827Y0054570D01*
X0113547Y0054570D01*
X0112045Y0052333D02*
X0109144Y0052333D01*
X0110342Y0051134D02*
X0119132Y0051134D01*
X0119132Y0052333D02*
X0117608Y0052333D01*
X0117805Y0053531D02*
X0119132Y0053531D01*
X0119491Y0054730D02*
X0117805Y0054730D01*
X0117805Y0055928D02*
X0119132Y0055928D01*
X0119132Y0057127D02*
X0117288Y0057127D01*
X0119132Y0058325D02*
X0106228Y0058325D01*
X0105072Y0059524D02*
X0108697Y0059524D01*
X0108272Y0060722D02*
X0103915Y0060722D01*
X0102758Y0061921D02*
X0108272Y0061921D01*
X0108272Y0064318D02*
X0100445Y0064318D01*
X0099288Y0065516D02*
X0108272Y0065516D01*
X0108272Y0066715D02*
X0098132Y0066715D01*
X0096975Y0067913D02*
X0109091Y0067913D01*
X0108272Y0069112D02*
X0095819Y0069112D01*
X0094662Y0070310D02*
X0108272Y0070310D01*
X0108272Y0071509D02*
X0093505Y0071509D01*
X0092349Y0072707D02*
X0111831Y0072707D01*
X0111831Y0071509D02*
X0113031Y0071509D01*
X0113031Y0070310D02*
X0111831Y0070310D01*
X0111831Y0069112D02*
X0113031Y0069112D01*
X0113031Y0067913D02*
X0111831Y0067913D01*
X0111831Y0066715D02*
X0113031Y0066715D01*
X0113031Y0065516D02*
X0111831Y0065516D01*
X0111831Y0064318D02*
X0113031Y0064318D01*
X0111831Y0063119D02*
X0101602Y0063119D01*
X0107385Y0057127D02*
X0112365Y0057127D01*
X0111831Y0059524D02*
X0113031Y0059524D01*
X0113031Y0060722D02*
X0111831Y0060722D01*
X0111831Y0061921D02*
X0113031Y0061921D01*
X0116166Y0059524D02*
X0116177Y0059524D01*
X0119911Y0063564D02*
X0122110Y0061365D01*
X0122110Y0057129D01*
X0125088Y0057127D02*
X0128575Y0057127D01*
X0128563Y0058325D02*
X0125088Y0058325D01*
X0124734Y0059524D02*
X0128563Y0059524D01*
X0128563Y0060722D02*
X0124310Y0060722D01*
X0124310Y0061921D02*
X0129264Y0061921D01*
X0131541Y0059179D02*
X0131541Y0055564D01*
X0127988Y0052011D01*
X0122110Y0052011D01*
X0124730Y0054730D02*
X0127596Y0054730D01*
X0128795Y0055928D02*
X0125088Y0055928D01*
X0119911Y0063564D02*
X0119911Y0072264D01*
X0119911Y0076172D01*
X0119989Y0081249D01*
X0119226Y0081249D01*
X0118171Y0080194D01*
X0118171Y0083024D01*
X0110931Y0090264D01*
X0110931Y0098964D01*
X0114671Y0094733D02*
X0114888Y0094515D01*
X0114671Y0094298D01*
X0114454Y0094515D01*
X0114671Y0094733D01*
X0118411Y0098964D02*
X0119171Y0099724D01*
X0119171Y0104194D01*
X0119171Y0108686D01*
X0118781Y0109076D01*
X0115171Y0109206D02*
X0115041Y0109076D01*
X0115041Y0112644D01*
X0115041Y0109076D01*
X0115041Y0109076D01*
X0115041Y0109075D02*
X0115041Y0109075D01*
X0115041Y0105507D01*
X0113846Y0105507D01*
X0113440Y0105616D01*
X0113197Y0105756D01*
X0112948Y0105507D01*
X0112596Y0105507D01*
X0110802Y0103713D01*
X0114153Y0103713D01*
X0114671Y0103195D01*
X0115190Y0103713D01*
X0115583Y0103713D01*
X0116071Y0104689D01*
X0116071Y0105507D01*
X0115041Y0105507D01*
X0115041Y0109075D01*
X0115041Y0108663D02*
X0115041Y0108663D01*
X0115041Y0109861D02*
X0115041Y0109861D01*
X0115041Y0111060D02*
X0115041Y0111060D01*
X0115041Y0112258D02*
X0115041Y0112258D01*
X0113943Y0115854D02*
X0116237Y0115854D01*
X0116197Y0117052D02*
X0115141Y0117052D01*
X0115371Y0118251D02*
X0116197Y0118251D01*
X0114171Y0120194D02*
X0113885Y0119908D01*
X0113885Y0120704D01*
X0113776Y0121110D01*
X0113566Y0121475D01*
X0113268Y0121773D01*
X0112903Y0121984D01*
X0112496Y0122093D01*
X0111301Y0122093D01*
X0110106Y0122093D01*
X0109699Y0121984D01*
X0109334Y0121773D01*
X0109037Y0121475D01*
X0108826Y0121110D01*
X0108717Y0120704D01*
X0108717Y0118524D01*
X0108717Y0117194D01*
X0104171Y0117194D01*
X0101952Y0114975D01*
X0101952Y0116180D01*
X0089141Y0116180D01*
X0089141Y0117380D01*
X0101952Y0117380D01*
X0101952Y0120928D01*
X0101843Y0121335D01*
X0101633Y0121700D01*
X0101335Y0121998D01*
X0100970Y0122208D01*
X0100563Y0122317D01*
X0093295Y0122317D01*
X0108272Y0137294D01*
X0108272Y0136524D01*
X0111831Y0136524D01*
X0111831Y0135324D01*
X0108272Y0135324D01*
X0108272Y0132760D01*
X0108381Y0132353D01*
X0108592Y0131988D01*
X0108890Y0131691D01*
X0108906Y0131681D01*
X0108690Y0131557D01*
X0108392Y0131259D01*
X0108181Y0130894D01*
X0108072Y0130487D01*
X0108072Y0127924D01*
X0111631Y0127924D01*
X0111631Y0131371D01*
X0111831Y0131371D01*
X0111831Y0135324D01*
X0113031Y0135324D01*
X0113031Y0131876D01*
X0112831Y0131876D01*
X0112831Y0127924D01*
X0111631Y0127924D01*
X0111631Y0126724D01*
X0108072Y0126724D01*
X0108072Y0124160D01*
X0108181Y0123753D01*
X0108392Y0123388D01*
X0108690Y0123091D01*
X0109054Y0122880D01*
X0109461Y0122771D01*
X0111631Y0122771D01*
X0111631Y0126724D01*
X0112831Y0126724D01*
X0112831Y0122771D01*
X0114171Y0122771D01*
X0114171Y0120194D01*
X0114171Y0120648D02*
X0113885Y0120648D01*
X0114171Y0121846D02*
X0113141Y0121846D01*
X0112831Y0123045D02*
X0111631Y0123045D01*
X0111301Y0122093D02*
X0111301Y0118525D01*
X0111301Y0122093D01*
X0111301Y0121846D02*
X0111301Y0121846D01*
X0111301Y0120648D02*
X0111301Y0120648D01*
X0111301Y0119449D02*
X0111301Y0119449D01*
X0111301Y0118525D02*
X0111301Y0118525D01*
X0111301Y0118524D02*
X0111301Y0118524D01*
X0108717Y0118524D01*
X0111301Y0118524D01*
X0111301Y0126394D01*
X0112231Y0127324D01*
X0112431Y0127524D01*
X0112431Y0135924D01*
X0108701Y0132194D01*
X0107171Y0132194D01*
X0108306Y0132633D02*
X0103610Y0132633D01*
X0102412Y0131434D02*
X0108567Y0131434D01*
X0108072Y0130236D02*
X0101213Y0130236D01*
X0100015Y0129037D02*
X0108072Y0129037D01*
X0108072Y0126640D02*
X0097618Y0126640D01*
X0096419Y0125442D02*
X0108072Y0125442D01*
X0108072Y0124243D02*
X0095221Y0124243D01*
X0094022Y0123045D02*
X0108769Y0123045D01*
X0109461Y0121846D02*
X0101486Y0121846D01*
X0101952Y0120648D02*
X0108717Y0120648D01*
X0108717Y0119449D02*
X0101952Y0119449D01*
X0101952Y0118251D02*
X0108717Y0118251D01*
X0109557Y0116780D02*
X0111301Y0118524D01*
X0109557Y0116780D02*
X0088541Y0116780D01*
X0089141Y0117052D02*
X0104030Y0117052D01*
X0102831Y0115854D02*
X0101952Y0115854D01*
X0106171Y0111194D02*
X0108717Y0111194D01*
X0108717Y0109076D01*
X0111301Y0109076D01*
X0111301Y0109076D01*
X0105419Y0103194D01*
X0104171Y0103194D01*
X0103847Y0102869D01*
X0103847Y0081249D01*
X0103247Y0081097D02*
X0095268Y0081097D01*
X0094070Y0082295D02*
X0098704Y0082295D01*
X0098704Y0081849D02*
X0103247Y0081849D01*
X0103247Y0086195D01*
X0100093Y0086195D01*
X0099686Y0086086D01*
X0099321Y0085876D01*
X0099023Y0085578D01*
X0098813Y0085213D01*
X0098704Y0084806D01*
X0098704Y0081849D01*
X0098704Y0080649D02*
X0098704Y0077692D01*
X0098715Y0077650D01*
X0078114Y0098251D01*
X0087941Y0098251D01*
X0087941Y0103188D01*
X0077171Y0103188D01*
X0077171Y0104388D01*
X0087941Y0104388D01*
X0087941Y0103188D01*
X0089141Y0103188D01*
X0089141Y0098251D01*
X0100563Y0098251D01*
X0100970Y0098360D01*
X0101335Y0098571D01*
X0101633Y0098869D01*
X0101843Y0099234D01*
X0101952Y0099641D01*
X0101952Y0103188D01*
X0089141Y0103188D01*
X0089141Y0104388D01*
X0101952Y0104388D01*
X0101952Y0107194D01*
X0102171Y0107194D01*
X0106171Y0111194D01*
X0106037Y0111060D02*
X0108717Y0111060D01*
X0108717Y0109861D02*
X0104839Y0109861D01*
X0103640Y0108663D02*
X0108717Y0108663D01*
X0108717Y0109076D02*
X0108717Y0106896D01*
X0108826Y0106490D01*
X0109037Y0106125D01*
X0109334Y0105827D01*
X0109632Y0105655D01*
X0106171Y0102194D01*
X0106171Y0086195D01*
X0104447Y0086195D01*
X0104447Y0081849D01*
X0103247Y0081849D01*
X0103247Y0080649D01*
X0098704Y0080649D01*
X0098704Y0079898D02*
X0096467Y0079898D01*
X0097665Y0078700D02*
X0098704Y0078700D01*
X0096951Y0076303D02*
X0088879Y0076303D01*
X0090035Y0075104D02*
X0098149Y0075104D01*
X0095752Y0077501D02*
X0087722Y0077501D01*
X0086565Y0078700D02*
X0094554Y0078700D01*
X0093355Y0079898D02*
X0085409Y0079898D01*
X0084252Y0081097D02*
X0092157Y0081097D01*
X0090958Y0082295D02*
X0083096Y0082295D01*
X0081939Y0083494D02*
X0089760Y0083494D01*
X0088561Y0084692D02*
X0080784Y0084692D01*
X0079585Y0085891D02*
X0087363Y0085891D01*
X0086164Y0087089D02*
X0078387Y0087089D01*
X0077188Y0088288D02*
X0084966Y0088288D01*
X0085680Y0090685D02*
X0106171Y0090685D01*
X0106171Y0089487D02*
X0086878Y0089487D01*
X0088077Y0088288D02*
X0106171Y0088288D01*
X0106171Y0087089D02*
X0089275Y0087089D01*
X0090474Y0085891D02*
X0099348Y0085891D01*
X0098704Y0084692D02*
X0091672Y0084692D01*
X0092871Y0083494D02*
X0098704Y0083494D01*
X0103247Y0083494D02*
X0104447Y0083494D01*
X0104447Y0084692D02*
X0103247Y0084692D01*
X0103247Y0085891D02*
X0104447Y0085891D01*
X0104447Y0082295D02*
X0103247Y0082295D01*
X0107193Y0075104D02*
X0108272Y0075104D01*
X0108272Y0073906D02*
X0091192Y0073906D01*
X0079171Y0079194D02*
X0110171Y0048194D01*
X0118171Y0048194D01*
X0123108Y0043257D01*
X0123108Y0036800D01*
X0120908Y0032641D02*
X0120908Y0032345D01*
X0122197Y0031057D01*
X0123923Y0031057D01*
X0121971Y0029105D01*
X0121971Y0014105D01*
X0120260Y0012394D01*
X0114087Y0012394D01*
X0114171Y0012597D01*
X0114171Y0013082D01*
X0117371Y0016282D01*
X0117371Y0030105D01*
X0116083Y0031394D01*
X0114835Y0032641D01*
X0115234Y0032641D01*
X0115234Y0033356D01*
X0115234Y0033356D01*
X0115234Y0033356D01*
X0115234Y0032641D01*
X0120908Y0032641D01*
X0121296Y0031958D02*
X0115518Y0031958D01*
X0115234Y0033131D02*
X0118171Y0030194D01*
X0118171Y0020194D01*
X0117371Y0019973D02*
X0121971Y0019973D01*
X0121971Y0021171D02*
X0117371Y0021171D01*
X0117371Y0022370D02*
X0121971Y0022370D01*
X0121971Y0023568D02*
X0117371Y0023568D01*
X0117371Y0024767D02*
X0121971Y0024767D01*
X0121971Y0025965D02*
X0117371Y0025965D01*
X0117371Y0027164D02*
X0121971Y0027164D01*
X0121971Y0028362D02*
X0117371Y0028362D01*
X0117371Y0029561D02*
X0122427Y0029561D01*
X0123626Y0030759D02*
X0116717Y0030759D01*
X0115171Y0029194D02*
X0115171Y0017194D01*
X0111171Y0013194D01*
X0110076Y0015987D02*
X0112371Y0018282D01*
X0112371Y0024194D01*
X0112768Y0024194D01*
X0112971Y0024278D01*
X0112971Y0018105D01*
X0111060Y0016194D01*
X0110575Y0016194D01*
X0110076Y0015987D01*
X0110466Y0016377D02*
X0111244Y0016377D01*
X0111665Y0017576D02*
X0112442Y0017576D01*
X0112371Y0018774D02*
X0112971Y0018774D01*
X0112971Y0019973D02*
X0112371Y0019973D01*
X0112371Y0021171D02*
X0112971Y0021171D01*
X0112971Y0022370D02*
X0112371Y0022370D01*
X0112371Y0023568D02*
X0112971Y0023568D01*
X0110171Y0025194D02*
X0110171Y0019194D01*
X0106171Y0015194D01*
X0107360Y0016383D01*
X0106060Y0018194D02*
X0107495Y0019629D01*
X0106310Y0019138D01*
X0104615Y0019138D01*
X0103049Y0019786D01*
X0101851Y0020985D01*
X0101265Y0022399D01*
X0100768Y0022194D01*
X0099575Y0022194D01*
X0098472Y0022650D01*
X0097628Y0023494D01*
X0097171Y0024597D01*
X0097171Y0025790D01*
X0097628Y0026893D01*
X0098472Y0027737D01*
X0099092Y0027994D01*
X0097083Y0027994D01*
X0094171Y0025082D01*
X0094171Y0024597D01*
X0093715Y0023494D01*
X0092871Y0022650D01*
X0091768Y0022194D01*
X0090575Y0022194D01*
X0089472Y0022650D01*
X0088628Y0023494D01*
X0088171Y0024597D01*
X0088171Y0025790D01*
X0088628Y0026893D01*
X0089472Y0027737D01*
X0090575Y0028194D01*
X0091060Y0028194D01*
X0095260Y0032394D01*
X0101223Y0032394D01*
X0101223Y0032641D01*
X0089644Y0032641D01*
X0089644Y0033356D01*
X0089644Y0033356D01*
X0089644Y0032641D01*
X0088842Y0032641D01*
X0088659Y0032690D01*
X0088476Y0032641D01*
X0087675Y0032641D01*
X0087675Y0033428D01*
X0087675Y0033428D01*
X0087675Y0033428D01*
X0087675Y0032641D01*
X0086874Y0032641D01*
X0086691Y0032690D01*
X0086508Y0032641D01*
X0085707Y0032641D01*
X0085707Y0033356D01*
X0085707Y0033356D01*
X0085707Y0032641D01*
X0071927Y0032641D01*
X0071927Y0033356D01*
X0071927Y0032641D01*
X0071126Y0032641D01*
X0070943Y0032690D01*
X0070760Y0032641D01*
X0070190Y0032641D01*
X0070190Y0025415D01*
X0070355Y0025812D01*
X0071553Y0027010D01*
X0073119Y0027659D01*
X0074814Y0027659D01*
X0076380Y0027010D01*
X0077579Y0025812D01*
X0078227Y0024246D01*
X0078227Y0022551D01*
X0077579Y0020985D01*
X0076380Y0019786D01*
X0074814Y0019138D01*
X0073119Y0019138D01*
X0071553Y0019786D01*
X0070355Y0020985D01*
X0069706Y0022551D01*
X0069706Y0023617D01*
X0068901Y0022813D01*
X0067171Y0021082D01*
X0067171Y0020597D01*
X0066715Y0019494D01*
X0065871Y0018650D01*
X0064768Y0018194D01*
X0063575Y0018194D01*
X0062472Y0018650D01*
X0061628Y0019494D01*
X0061171Y0020597D01*
X0061171Y0021790D01*
X0061628Y0022893D01*
X0062472Y0023737D01*
X0063575Y0024194D01*
X0064060Y0024194D01*
X0065790Y0025924D01*
X0065790Y0027203D01*
X0065768Y0027194D01*
X0064575Y0027194D01*
X0063472Y0027650D01*
X0062628Y0028494D01*
X0062171Y0029597D01*
X0062171Y0030082D01*
X0061853Y0030401D01*
X0061853Y0032641D01*
X0058148Y0032641D01*
X0058148Y0033356D01*
X0058148Y0033356D01*
X0058148Y0032641D01*
X0057346Y0032641D01*
X0057163Y0032690D01*
X0056980Y0032641D01*
X0056179Y0032641D01*
X0056179Y0033428D01*
X0056179Y0033428D01*
X0056179Y0033428D01*
X0056179Y0032641D01*
X0055378Y0032641D01*
X0055195Y0032690D01*
X0055012Y0032641D01*
X0054442Y0032641D01*
X0054442Y0017034D01*
X0059083Y0012394D01*
X0105092Y0012394D01*
X0104472Y0012650D01*
X0103628Y0013494D01*
X0103171Y0014597D01*
X0103171Y0015790D01*
X0103628Y0016893D01*
X0104472Y0017737D01*
X0105575Y0018194D01*
X0106060Y0018194D01*
X0106641Y0018774D02*
X0065995Y0018774D01*
X0066913Y0019973D02*
X0071367Y0019973D01*
X0070277Y0021171D02*
X0067260Y0021171D01*
X0068459Y0022370D02*
X0069781Y0022370D01*
X0069706Y0023568D02*
X0069657Y0023568D01*
X0067990Y0025013D02*
X0067990Y0036800D01*
X0067990Y0035375D01*
X0066022Y0036800D02*
X0066022Y0042343D01*
X0060171Y0048194D01*
X0059171Y0048194D01*
X0060171Y0045194D02*
X0057171Y0045194D01*
X0053171Y0049194D01*
X0037171Y0049194D01*
X0036171Y0048194D01*
X0034519Y0045631D02*
X0034171Y0044790D01*
X0034171Y0043597D01*
X0034628Y0042494D01*
X0035472Y0041650D01*
X0036575Y0041194D01*
X0037768Y0041194D01*
X0038871Y0041650D01*
X0039715Y0042494D01*
X0040171Y0043597D01*
X0040171Y0044082D01*
X0041083Y0044994D01*
X0045255Y0044994D01*
X0045171Y0044790D01*
X0045171Y0043597D01*
X0045628Y0042494D01*
X0046105Y0042017D01*
X0046105Y0040959D01*
X0045535Y0040959D01*
X0045128Y0040850D01*
X0044764Y0040639D01*
X0044466Y0040341D01*
X0044255Y0039977D01*
X0044146Y0039570D01*
X0044146Y0036800D01*
X0046105Y0036800D01*
X0046105Y0036800D01*
X0044146Y0036800D01*
X0044146Y0034030D01*
X0044255Y0033623D01*
X0044466Y0033259D01*
X0044764Y0032961D01*
X0045128Y0032750D01*
X0045535Y0032641D01*
X0046337Y0032641D01*
X0050042Y0032641D01*
X0050042Y0015212D01*
X0051331Y0013923D01*
X0055971Y0009282D01*
X0057260Y0007994D01*
X0122083Y0007994D01*
X0125083Y0010994D01*
X0126371Y0012282D01*
X0126371Y0018085D01*
X0126383Y0018074D01*
X0134795Y0018074D01*
X0135732Y0019011D01*
X0135732Y0019522D01*
X0136260Y0018994D01*
X0142831Y0018994D01*
X0142632Y0018795D01*
X0141996Y0017260D01*
X0141996Y0015599D01*
X0142632Y0014065D01*
X0143806Y0012891D01*
X0145341Y0012255D01*
X0147002Y0012255D01*
X0148536Y0012891D01*
X0149710Y0014065D01*
X0150346Y0015599D01*
X0150346Y0017260D01*
X0149710Y0018795D01*
X0149512Y0018994D01*
X0150848Y0018994D01*
X0151751Y0018987D01*
X0151758Y0018994D01*
X0151768Y0018994D01*
X0152406Y0019633D01*
X0155149Y0022335D01*
X0155341Y0022255D01*
X0157002Y0022255D01*
X0158536Y0022891D01*
X0159171Y0023526D01*
X0159171Y0019334D01*
X0158536Y0019969D01*
X0157002Y0020605D01*
X0155341Y0020605D01*
X0153806Y0019969D01*
X0152632Y0018795D01*
X0151996Y0017260D01*
X0151996Y0015599D01*
X0152632Y0014065D01*
X0153806Y0012891D01*
X0155341Y0012255D01*
X0157002Y0012255D01*
X0158536Y0012891D01*
X0159171Y0013526D01*
X0159171Y0009334D01*
X0158891Y0009614D01*
X0158359Y0010001D01*
X0157774Y0010299D01*
X0157149Y0010502D01*
X0156500Y0010605D01*
X0156359Y0010605D01*
X0156359Y0006617D01*
X0155984Y0006617D01*
X0155984Y0006242D01*
X0151996Y0006242D01*
X0151996Y0006101D01*
X0152099Y0005452D01*
X0152248Y0004994D01*
X0150094Y0004994D01*
X0150243Y0005452D01*
X0150346Y0006101D01*
X0150346Y0006242D01*
X0146359Y0006242D01*
X0146359Y0006617D01*
X0150346Y0006617D01*
X0150346Y0006758D01*
X0150243Y0007408D01*
X0150040Y0008032D01*
X0149742Y0008618D01*
X0149356Y0009150D01*
X0148891Y0009614D01*
X0148359Y0010001D01*
X0147774Y0010299D01*
X0147149Y0010502D01*
X0146500Y0010605D01*
X0146359Y0010605D01*
X0146359Y0006617D01*
X0145984Y0006617D01*
X0145984Y0006242D01*
X0141996Y0006242D01*
X0141996Y0006101D01*
X0142099Y0005452D01*
X0142248Y0004994D01*
X0020095Y0004994D01*
X0020346Y0005599D01*
X0020346Y0007260D01*
X0019710Y0008795D01*
X0018536Y0009969D01*
X0017002Y0010605D01*
X0015341Y0010605D01*
X0013806Y0009969D01*
X0012632Y0008795D01*
X0011996Y0007260D01*
X0011996Y0005599D01*
X0012247Y0004994D01*
X0010094Y0004994D01*
X0010243Y0005452D01*
X0010346Y0006101D01*
X0010346Y0006242D01*
X0006359Y0006242D01*
X0006359Y0006617D01*
X0010346Y0006617D01*
X0010346Y0006758D01*
X0010243Y0007408D01*
X0010040Y0008032D01*
X0009742Y0008618D01*
X0009356Y0009150D01*
X0008891Y0009614D01*
X0008359Y0010001D01*
X0007774Y0010299D01*
X0007149Y0010502D01*
X0006500Y0010605D01*
X0006359Y0010605D01*
X0006359Y0006617D01*
X0005984Y0006617D01*
X0005984Y0010605D01*
X0005843Y0010605D01*
X0005194Y0010502D01*
X0004569Y0010299D01*
X0003983Y0010001D01*
X0003452Y0009614D01*
X0003171Y0009334D01*
X0003171Y0013526D01*
X0003806Y0012891D01*
X0005341Y0012255D01*
X0007002Y0012255D01*
X0008536Y0012891D01*
X0009710Y0014065D01*
X0010346Y0015599D01*
X0010346Y0017260D01*
X0009710Y0018795D01*
X0008536Y0019969D01*
X0007002Y0020605D01*
X0005341Y0020605D01*
X0003806Y0019969D01*
X0003171Y0019334D01*
X0003171Y0023526D01*
X0003806Y0022891D01*
X0005341Y0022255D01*
X0007002Y0022255D01*
X0008536Y0022891D01*
X0009710Y0024065D01*
X0010346Y0025599D01*
X0010346Y0027260D01*
X0009710Y0028795D01*
X0008536Y0029969D01*
X0007002Y0030605D01*
X0005341Y0030605D01*
X0003806Y0029969D01*
X0003171Y0029334D01*
X0003171Y0033526D01*
X0003806Y0032891D01*
X0005341Y0032255D01*
X0007002Y0032255D01*
X0008536Y0032891D01*
X0009710Y0034065D01*
X0010346Y0035599D01*
X0010346Y0037260D01*
X0009710Y0038795D01*
X0008536Y0039969D01*
X0007002Y0040605D01*
X0005341Y0040605D01*
X0003806Y0039969D01*
X0003171Y0039334D01*
X0003171Y0043526D01*
X0003806Y0042891D01*
X0005341Y0042255D01*
X0007002Y0042255D01*
X0008536Y0042891D01*
X0009710Y0044065D01*
X0010346Y0045599D01*
X0010346Y0047260D01*
X0009710Y0048795D01*
X0008536Y0049969D01*
X0007002Y0050605D01*
X0005341Y0050605D01*
X0003806Y0049969D01*
X0003171Y0049334D01*
X0003171Y0053526D01*
X0003806Y0052891D01*
X0005341Y0052255D01*
X0007002Y0052255D01*
X0007139Y0052312D01*
X0009129Y0050292D01*
X0009129Y0050282D01*
X0009767Y0049644D01*
X0010401Y0049001D01*
X0010411Y0049001D01*
X0010417Y0048994D01*
X0011320Y0048994D01*
X0012223Y0048987D01*
X0012230Y0048994D01*
X0012831Y0048994D01*
X0012632Y0048795D01*
X0011996Y0047260D01*
X0011996Y0045599D01*
X0012632Y0044065D01*
X0013806Y0042891D01*
X0015341Y0042255D01*
X0017002Y0042255D01*
X0018536Y0042891D01*
X0019710Y0044065D01*
X0020346Y0045599D01*
X0020346Y0046908D01*
X0022971Y0044282D01*
X0022971Y0040236D01*
X0022628Y0039893D01*
X0022171Y0038790D01*
X0022171Y0037597D01*
X0022628Y0036494D01*
X0023472Y0035650D01*
X0024575Y0035194D01*
X0025768Y0035194D01*
X0026871Y0035650D01*
X0027715Y0036494D01*
X0028171Y0037597D01*
X0028171Y0038790D01*
X0027715Y0039893D01*
X0027371Y0040236D01*
X0027371Y0046105D01*
X0026083Y0047394D01*
X0020083Y0053394D01*
X0019039Y0053394D01*
X0019710Y0054065D01*
X0020346Y0055599D01*
X0020346Y0057260D01*
X0019710Y0058795D01*
X0018536Y0059969D01*
X0017002Y0060605D01*
X0015341Y0060605D01*
X0013806Y0059969D01*
X0012632Y0058795D01*
X0011996Y0057260D01*
X0011996Y0055599D01*
X0012632Y0054065D01*
X0013303Y0053394D01*
X0012250Y0053394D01*
X0010266Y0055407D01*
X0010346Y0055599D01*
X0010346Y0057260D01*
X0009710Y0058795D01*
X0008536Y0059969D01*
X0007002Y0060605D01*
X0005341Y0060605D01*
X0003806Y0059969D01*
X0003171Y0059334D01*
X0003171Y0063526D01*
X0003806Y0062891D01*
X0005341Y0062255D01*
X0007002Y0062255D01*
X0008536Y0062891D01*
X0009710Y0064065D01*
X0010346Y0065599D01*
X0010346Y0067260D01*
X0009710Y0068795D01*
X0008536Y0069969D01*
X0007002Y0070605D01*
X0005341Y0070605D01*
X0003806Y0069969D01*
X0003171Y0069334D01*
X0003171Y0073526D01*
X0003806Y0072891D01*
X0005341Y0072255D01*
X0007002Y0072255D01*
X0008536Y0072891D01*
X0009710Y0074065D01*
X0010346Y0075599D01*
X0010346Y0077260D01*
X0009710Y0078795D01*
X0008536Y0079969D01*
X0007002Y0080605D01*
X0005341Y0080605D01*
X0003806Y0079969D01*
X0003171Y0079334D01*
X0003171Y0083526D01*
X0003806Y0082891D01*
X0005341Y0082255D01*
X0007002Y0082255D01*
X0007139Y0082312D01*
X0009129Y0080292D01*
X0009129Y0080282D01*
X0009767Y0079644D01*
X0010401Y0079001D01*
X0010411Y0079001D01*
X0010417Y0078994D01*
X0011320Y0078994D01*
X0012223Y0078987D01*
X0012230Y0078994D01*
X0012831Y0078994D01*
X0012632Y0078795D01*
X0011996Y0077260D01*
X0011996Y0075599D01*
X0012632Y0074065D01*
X0013806Y0072891D01*
X0015341Y0072255D01*
X0017002Y0072255D01*
X0018536Y0072891D01*
X0019710Y0074065D01*
X0019971Y0074695D01*
X0019971Y0068165D01*
X0019710Y0068795D01*
X0018536Y0069969D01*
X0017002Y0070605D01*
X0015341Y0070605D01*
X0013806Y0069969D01*
X0012632Y0068795D01*
X0011996Y0067260D01*
X0011996Y0065599D01*
X0012632Y0064065D01*
X0013806Y0062891D01*
X0015341Y0062255D01*
X0017002Y0062255D01*
X0018536Y0062891D01*
X0019710Y0064065D01*
X0019971Y0064695D01*
X0019971Y0060282D01*
X0021260Y0058994D01*
X0029971Y0050282D01*
X0031260Y0048994D01*
X0033255Y0048994D01*
X0033171Y0048790D01*
X0033171Y0047597D01*
X0033628Y0046494D01*
X0034472Y0045650D01*
X0034519Y0045631D01*
X0034317Y0045142D02*
X0027371Y0045142D01*
X0027371Y0043943D02*
X0034171Y0043943D01*
X0034524Y0042745D02*
X0027371Y0042745D01*
X0027371Y0041546D02*
X0035724Y0041546D01*
X0037171Y0044194D02*
X0040171Y0047194D01*
X0052171Y0047194D01*
X0056171Y0043194D01*
X0058171Y0043194D01*
X0060116Y0041249D01*
X0060116Y0036800D01*
X0062085Y0036800D02*
X0062085Y0043280D01*
X0060171Y0045194D01*
X0062739Y0048737D02*
X0064517Y0048737D01*
X0064260Y0048994D02*
X0062483Y0048994D01*
X0068222Y0043255D01*
X0068222Y0040959D01*
X0069959Y0040959D01*
X0069959Y0040244D01*
X0069959Y0040244D01*
X0069959Y0040959D01*
X0070760Y0040959D01*
X0070943Y0040910D01*
X0071126Y0040959D01*
X0071696Y0040959D01*
X0071696Y0041558D01*
X0064260Y0048994D01*
X0063938Y0047539D02*
X0065715Y0047539D01*
X0065136Y0046340D02*
X0066914Y0046340D01*
X0067171Y0046194D02*
X0070171Y0043194D01*
X0070171Y0042194D01*
X0069959Y0041981D01*
X0069959Y0036800D01*
X0070190Y0036800D02*
X0071696Y0036800D01*
X0070190Y0036800D01*
X0070190Y0036800D01*
X0071696Y0036800D02*
X0071696Y0036800D01*
X0071927Y0036800D02*
X0072171Y0036556D01*
X0072171Y0030194D01*
X0071924Y0027164D02*
X0070190Y0027164D01*
X0070190Y0028362D02*
X0091229Y0028362D01*
X0092427Y0029561D02*
X0070190Y0029561D01*
X0070190Y0030759D02*
X0093626Y0030759D01*
X0094824Y0031958D02*
X0070190Y0031958D01*
X0071927Y0033156D02*
X0071927Y0033156D01*
X0071927Y0033356D02*
X0071927Y0033356D01*
X0073896Y0036800D02*
X0073896Y0042469D01*
X0065171Y0051194D01*
X0032171Y0051194D01*
X0022171Y0061194D01*
X0022171Y0079194D01*
X0020171Y0081194D01*
X0011329Y0081194D01*
X0006171Y0086430D01*
X0003203Y0083494D02*
X0003171Y0083494D01*
X0003171Y0082295D02*
X0005243Y0082295D01*
X0007099Y0082295D02*
X0007156Y0082295D01*
X0008336Y0081097D02*
X0003171Y0081097D01*
X0003171Y0079898D02*
X0003736Y0079898D01*
X0008607Y0079898D02*
X0009513Y0079898D01*
X0009750Y0078700D02*
X0012593Y0078700D01*
X0012096Y0077501D02*
X0010246Y0077501D01*
X0010346Y0076303D02*
X0011996Y0076303D01*
X0012202Y0075104D02*
X0010141Y0075104D01*
X0009551Y0073906D02*
X0012791Y0073906D01*
X0014249Y0072707D02*
X0008093Y0072707D01*
X0007712Y0070310D02*
X0014630Y0070310D01*
X0012949Y0069112D02*
X0009393Y0069112D01*
X0010076Y0067913D02*
X0012267Y0067913D01*
X0011996Y0066715D02*
X0010346Y0066715D01*
X0010312Y0065516D02*
X0012031Y0065516D01*
X0012527Y0064318D02*
X0009815Y0064318D01*
X0008765Y0063119D02*
X0013578Y0063119D01*
X0013361Y0059524D02*
X0008981Y0059524D01*
X0009905Y0058325D02*
X0012438Y0058325D01*
X0011996Y0057127D02*
X0010346Y0057127D01*
X0010346Y0055928D02*
X0011996Y0055928D01*
X0012357Y0054730D02*
X0010934Y0054730D01*
X0012114Y0053531D02*
X0013166Y0053531D01*
X0011329Y0051194D02*
X0019171Y0051194D01*
X0025171Y0045194D01*
X0025171Y0038194D01*
X0027821Y0036752D02*
X0044146Y0036752D01*
X0044146Y0035554D02*
X0026637Y0035554D01*
X0028171Y0037951D02*
X0044146Y0037951D01*
X0044146Y0039149D02*
X0028023Y0039149D01*
X0027371Y0040348D02*
X0044472Y0040348D01*
X0046105Y0041546D02*
X0038619Y0041546D01*
X0039818Y0042745D02*
X0045524Y0042745D01*
X0045171Y0043943D02*
X0040171Y0043943D01*
X0033782Y0046340D02*
X0027136Y0046340D01*
X0025938Y0047539D02*
X0033195Y0047539D01*
X0033171Y0048737D02*
X0024739Y0048737D01*
X0023541Y0049936D02*
X0030318Y0049936D01*
X0029971Y0050282D02*
X0029971Y0050282D01*
X0029120Y0051134D02*
X0022342Y0051134D01*
X0021144Y0052333D02*
X0027921Y0052333D01*
X0026723Y0053531D02*
X0019177Y0053531D01*
X0019986Y0054730D02*
X0025524Y0054730D01*
X0024325Y0055928D02*
X0020346Y0055928D01*
X0020346Y0057127D02*
X0023127Y0057127D01*
X0021928Y0058325D02*
X0019905Y0058325D01*
X0020730Y0059524D02*
X0018981Y0059524D01*
X0019971Y0060722D02*
X0003171Y0060722D01*
X0003171Y0059524D02*
X0003361Y0059524D01*
X0003171Y0061921D02*
X0019971Y0061921D01*
X0019971Y0063119D02*
X0018765Y0063119D01*
X0019815Y0064318D02*
X0019971Y0064318D01*
X0024171Y0062194D02*
X0033171Y0053194D01*
X0066171Y0053194D01*
X0075864Y0043501D01*
X0075864Y0036800D01*
X0077833Y0036800D02*
X0077833Y0044532D01*
X0067171Y0055194D01*
X0034171Y0055194D01*
X0026171Y0063194D01*
X0026171Y0070194D01*
X0027171Y0071194D01*
X0028463Y0073906D02*
X0032348Y0073906D01*
X0033546Y0072707D02*
X0029791Y0072707D01*
X0029715Y0072893D02*
X0030171Y0071790D01*
X0030171Y0070597D01*
X0029970Y0070110D01*
X0030871Y0069737D01*
X0031715Y0068893D01*
X0032171Y0067790D01*
X0032171Y0067027D01*
X0032575Y0067194D01*
X0033768Y0067194D01*
X0034871Y0066737D01*
X0035715Y0065893D01*
X0036171Y0064790D01*
X0036171Y0064436D01*
X0036472Y0064737D01*
X0037575Y0065194D01*
X0038768Y0065194D01*
X0039871Y0064737D01*
X0040715Y0063893D01*
X0040921Y0063394D01*
X0042860Y0063394D01*
X0027965Y0078289D01*
X0028171Y0077790D01*
X0028171Y0076597D01*
X0027715Y0075494D01*
X0026871Y0074650D01*
X0026371Y0074444D01*
X0026371Y0074109D01*
X0026575Y0074194D01*
X0027768Y0074194D01*
X0028871Y0073737D01*
X0029715Y0072893D01*
X0030171Y0071509D02*
X0034745Y0071509D01*
X0035943Y0070310D02*
X0030053Y0070310D01*
X0031496Y0069112D02*
X0037142Y0069112D01*
X0038340Y0067913D02*
X0032120Y0067913D01*
X0034893Y0066715D02*
X0039539Y0066715D01*
X0040737Y0065516D02*
X0035871Y0065516D01*
X0033171Y0064194D02*
X0033171Y0062194D01*
X0036171Y0059194D01*
X0069171Y0059194D01*
X0081770Y0046595D01*
X0081770Y0036800D01*
X0079801Y0036800D02*
X0079801Y0045564D01*
X0068171Y0057194D01*
X0035171Y0057194D01*
X0029171Y0063194D01*
X0029171Y0067194D01*
X0024171Y0062194D02*
X0024171Y0076194D01*
X0025171Y0077194D01*
X0026266Y0079987D02*
X0025768Y0080194D01*
X0024575Y0080194D01*
X0024368Y0080108D01*
X0022371Y0082105D01*
X0021083Y0083394D01*
X0019039Y0083394D01*
X0019710Y0084065D01*
X0020346Y0085599D01*
X0020346Y0085908D01*
X0026266Y0079987D01*
X0025157Y0081097D02*
X0023379Y0081097D01*
X0023958Y0082295D02*
X0022181Y0082295D01*
X0022760Y0083494D02*
X0019139Y0083494D01*
X0019970Y0084692D02*
X0021561Y0084692D01*
X0020363Y0085891D02*
X0020346Y0085891D01*
X0022171Y0087194D02*
X0046171Y0063194D01*
X0071171Y0063194D01*
X0091612Y0042753D01*
X0091612Y0036800D01*
X0089412Y0036800D02*
X0087897Y0036800D01*
X0087675Y0036800D01*
X0085938Y0036800D01*
X0085938Y0036800D01*
X0087675Y0036800D01*
X0087675Y0036800D01*
X0087675Y0017698D01*
X0087171Y0017194D01*
X0100171Y0017194D01*
X0103171Y0015179D02*
X0056297Y0015179D01*
X0055099Y0016377D02*
X0103414Y0016377D01*
X0104311Y0017576D02*
X0054442Y0017576D01*
X0054211Y0017233D02*
X0054171Y0017194D01*
X0056171Y0017194D01*
X0056179Y0017202D01*
X0056179Y0036800D01*
X0054442Y0036800D01*
X0054442Y0036800D01*
X0056179Y0036800D01*
X0056179Y0036800D01*
X0057916Y0036800D01*
X0057916Y0036800D01*
X0056401Y0036800D01*
X0056179Y0036800D01*
X0056179Y0036800D01*
X0054211Y0036800D02*
X0054211Y0017233D01*
X0054442Y0018774D02*
X0062348Y0018774D01*
X0061430Y0019973D02*
X0054442Y0019973D01*
X0054442Y0021171D02*
X0061171Y0021171D01*
X0061411Y0022370D02*
X0054442Y0022370D01*
X0054442Y0023568D02*
X0062303Y0023568D01*
X0064633Y0024767D02*
X0054442Y0024767D01*
X0054442Y0025965D02*
X0065790Y0025965D01*
X0065790Y0027164D02*
X0054442Y0027164D01*
X0054442Y0028362D02*
X0062760Y0028362D01*
X0062186Y0029561D02*
X0054442Y0029561D01*
X0054442Y0030759D02*
X0061853Y0030759D01*
X0061853Y0031958D02*
X0054442Y0031958D01*
X0056179Y0033156D02*
X0056179Y0033156D01*
X0058148Y0033156D02*
X0058148Y0033156D01*
X0056179Y0040172D02*
X0056179Y0040172D01*
X0056179Y0040172D01*
X0056179Y0040959D01*
X0055378Y0040959D01*
X0055195Y0040910D01*
X0055012Y0040959D01*
X0054211Y0040959D01*
X0054211Y0040244D01*
X0054211Y0040244D01*
X0054211Y0040959D01*
X0050505Y0040959D01*
X0050505Y0042285D01*
X0050715Y0042494D01*
X0051171Y0043597D01*
X0051171Y0044790D01*
X0051087Y0044994D01*
X0051260Y0044994D01*
X0055260Y0040994D01*
X0057260Y0040994D01*
X0057306Y0040948D01*
X0057163Y0040910D01*
X0056980Y0040959D01*
X0056179Y0040959D01*
X0056179Y0040172D01*
X0056179Y0040348D02*
X0056179Y0040348D01*
X0054708Y0041546D02*
X0050505Y0041546D01*
X0050818Y0042745D02*
X0053509Y0042745D01*
X0052311Y0043943D02*
X0051171Y0043943D01*
X0048305Y0044060D02*
X0048171Y0044194D01*
X0048305Y0044060D02*
X0048305Y0036800D01*
X0046337Y0036800D02*
X0046337Y0018028D01*
X0047171Y0017194D01*
X0050171Y0017194D01*
X0050274Y0017296D01*
X0050274Y0036800D01*
X0052242Y0036800D02*
X0052242Y0016123D01*
X0058171Y0010194D01*
X0121171Y0010194D01*
X0124171Y0013194D01*
X0124171Y0028194D01*
X0129171Y0033194D01*
X0129171Y0047194D01*
X0131371Y0046282D02*
X0131615Y0046526D01*
X0131628Y0046494D01*
X0131971Y0046151D01*
X0131971Y0031282D01*
X0133318Y0029935D01*
X0129024Y0029935D01*
X0130083Y0030994D01*
X0131371Y0032282D01*
X0131371Y0046282D01*
X0131429Y0046340D02*
X0131782Y0046340D01*
X0131971Y0045142D02*
X0131371Y0045142D01*
X0131371Y0043943D02*
X0131971Y0043943D01*
X0131971Y0042745D02*
X0131371Y0042745D01*
X0131371Y0041546D02*
X0131971Y0041546D01*
X0131971Y0040348D02*
X0131371Y0040348D01*
X0131371Y0039149D02*
X0131971Y0039149D01*
X0131971Y0037951D02*
X0131371Y0037951D01*
X0131371Y0036752D02*
X0131971Y0036752D01*
X0131971Y0035554D02*
X0131371Y0035554D01*
X0131371Y0034355D02*
X0131971Y0034355D01*
X0131971Y0033156D02*
X0131371Y0033156D01*
X0131047Y0031958D02*
X0131971Y0031958D01*
X0132494Y0030759D02*
X0129848Y0030759D01*
X0134171Y0032194D02*
X0136171Y0030194D01*
X0136171Y0022194D01*
X0137171Y0021194D01*
X0150856Y0021194D01*
X0156171Y0026430D01*
X0159171Y0029334D02*
X0158536Y0029969D01*
X0157002Y0030605D01*
X0155341Y0030605D01*
X0153806Y0029969D01*
X0152632Y0028795D01*
X0151996Y0027260D01*
X0151996Y0025599D01*
X0152054Y0025462D01*
X0149955Y0023394D01*
X0149039Y0023394D01*
X0149710Y0024065D01*
X0150346Y0025599D01*
X0150346Y0027260D01*
X0149710Y0028795D01*
X0148536Y0029969D01*
X0147002Y0030605D01*
X0145341Y0030605D01*
X0143806Y0029969D01*
X0142632Y0028795D01*
X0142466Y0028394D01*
X0142371Y0028394D01*
X0142371Y0033105D01*
X0141083Y0034394D01*
X0140371Y0035105D01*
X0140371Y0043151D01*
X0140715Y0043494D01*
X0141171Y0044597D01*
X0141171Y0045790D01*
X0140715Y0046893D01*
X0139871Y0047737D01*
X0138768Y0048194D01*
X0137575Y0048194D01*
X0137171Y0048027D01*
X0137171Y0048790D01*
X0136715Y0049893D01*
X0135871Y0050737D01*
X0135839Y0050750D01*
X0141996Y0056908D01*
X0141996Y0055599D01*
X0142632Y0054065D01*
X0143806Y0052891D01*
X0145341Y0052255D01*
X0147002Y0052255D01*
X0148536Y0052891D01*
X0149710Y0054065D01*
X0150346Y0055599D01*
X0150346Y0057260D01*
X0149710Y0058795D01*
X0148536Y0059969D01*
X0147002Y0060605D01*
X0145341Y0060605D01*
X0143806Y0059969D01*
X0143371Y0059534D01*
X0143371Y0063326D01*
X0143806Y0062891D01*
X0145341Y0062255D01*
X0147002Y0062255D01*
X0148536Y0062891D01*
X0149710Y0064065D01*
X0150346Y0065599D01*
X0150346Y0067260D01*
X0149710Y0068795D01*
X0148536Y0069969D01*
X0147002Y0070605D01*
X0145341Y0070605D01*
X0143806Y0069969D01*
X0143371Y0069534D01*
X0143371Y0073326D01*
X0143806Y0072891D01*
X0145341Y0072255D01*
X0147002Y0072255D01*
X0148536Y0072891D01*
X0149710Y0074065D01*
X0150346Y0075599D01*
X0150346Y0077260D01*
X0149710Y0078795D01*
X0148536Y0079969D01*
X0147002Y0080605D01*
X0145341Y0080605D01*
X0143806Y0079969D01*
X0143371Y0079534D01*
X0143371Y0083326D01*
X0143806Y0082891D01*
X0145341Y0082255D01*
X0147002Y0082255D01*
X0148536Y0082891D01*
X0149710Y0084065D01*
X0150346Y0085599D01*
X0150346Y0087260D01*
X0149710Y0088795D01*
X0148536Y0089969D01*
X0147002Y0090605D01*
X0145341Y0090605D01*
X0143806Y0089969D01*
X0143371Y0089534D01*
X0143371Y0093326D01*
X0143452Y0093246D01*
X0143983Y0092859D01*
X0144569Y0092561D01*
X0145194Y0092358D01*
X0145843Y0092255D01*
X0145984Y0092255D01*
X0145984Y0096242D01*
X0146359Y0096242D01*
X0146359Y0092255D01*
X0146500Y0092255D01*
X0147149Y0092358D01*
X0147774Y0092561D01*
X0148359Y0092859D01*
X0148891Y0093246D01*
X0149356Y0093710D01*
X0149742Y0094242D01*
X0150040Y0094827D01*
X0150243Y0095452D01*
X0150346Y0096101D01*
X0150346Y0096242D01*
X0146359Y0096242D01*
X0146359Y0096617D01*
X0150346Y0096617D01*
X0150346Y0096758D01*
X0150243Y0097408D01*
X0150040Y0098032D01*
X0149742Y0098618D01*
X0149356Y0099150D01*
X0148891Y0099614D01*
X0148359Y0100001D01*
X0147774Y0100299D01*
X0147149Y0100502D01*
X0146500Y0100605D01*
X0146359Y0100605D01*
X0146359Y0096617D01*
X0145984Y0096617D01*
X0145984Y0100605D01*
X0145843Y0100605D01*
X0145194Y0100502D01*
X0144569Y0100299D01*
X0143983Y0100001D01*
X0143452Y0099614D01*
X0143371Y0099534D01*
X0143371Y0103326D01*
X0143806Y0102891D01*
X0145341Y0102255D01*
X0147002Y0102255D01*
X0148536Y0102891D01*
X0149710Y0104065D01*
X0150346Y0105599D01*
X0150346Y0107260D01*
X0149710Y0108795D01*
X0148536Y0109969D01*
X0147002Y0110605D01*
X0145341Y0110605D01*
X0143806Y0109969D01*
X0143371Y0109534D01*
X0143371Y0113326D01*
X0143806Y0112891D01*
X0145341Y0112255D01*
X0147002Y0112255D01*
X0148536Y0112891D01*
X0149710Y0114065D01*
X0150346Y0115599D01*
X0150346Y0117260D01*
X0149710Y0118795D01*
X0148536Y0119969D01*
X0147002Y0120605D01*
X0145341Y0120605D01*
X0143806Y0119969D01*
X0143371Y0119534D01*
X0143371Y0123326D01*
X0143806Y0122891D01*
X0145341Y0122255D01*
X0147002Y0122255D01*
X0148536Y0122891D01*
X0149710Y0124065D01*
X0150346Y0125599D01*
X0150346Y0127260D01*
X0149710Y0128795D01*
X0148536Y0129969D01*
X0147002Y0130605D01*
X0145341Y0130605D01*
X0143806Y0129969D01*
X0143371Y0129534D01*
X0143371Y0133326D01*
X0143806Y0132891D01*
X0145341Y0132255D01*
X0147002Y0132255D01*
X0148536Y0132891D01*
X0149710Y0134065D01*
X0150346Y0135599D01*
X0150346Y0137260D01*
X0149710Y0138795D01*
X0148536Y0139969D01*
X0147002Y0140605D01*
X0145341Y0140605D01*
X0143806Y0139969D01*
X0143371Y0139534D01*
X0143371Y0143326D01*
X0143806Y0142891D01*
X0145341Y0142255D01*
X0147002Y0142255D01*
X0148536Y0142891D01*
X0149710Y0144065D01*
X0150346Y0145599D01*
X0150346Y0147260D01*
X0149710Y0148795D01*
X0148536Y0149969D01*
X0147002Y0150605D01*
X0145341Y0150605D01*
X0143806Y0149969D01*
X0143371Y0149534D01*
X0143371Y0149704D01*
X0145525Y0152255D01*
X0147002Y0152255D01*
X0148536Y0152891D01*
X0149710Y0154065D01*
X0150346Y0155599D01*
X0150346Y0157260D01*
X0149710Y0158795D01*
X0149297Y0159208D01*
X0150371Y0160282D01*
X0153393Y0163304D01*
X0153806Y0162891D01*
X0155341Y0162255D01*
X0157002Y0162255D01*
X0158536Y0162891D01*
X0159171Y0163526D01*
X0159171Y0159334D01*
X0158536Y0159969D01*
X0157002Y0160605D01*
X0155341Y0160605D01*
X0153806Y0159969D01*
X0152632Y0158795D01*
X0151996Y0157260D01*
X0151996Y0155599D01*
X0152632Y0154065D01*
X0153806Y0152891D01*
X0155341Y0152255D01*
X0157002Y0152255D01*
X0158536Y0152891D01*
X0159171Y0153526D01*
X0159171Y0149334D01*
X0158536Y0149969D01*
X0157002Y0150605D01*
X0155341Y0150605D01*
X0153806Y0149969D01*
X0152632Y0148795D01*
X0151996Y0147260D01*
X0151996Y0145599D01*
X0152632Y0144065D01*
X0153806Y0142891D01*
X0155341Y0142255D01*
X0157002Y0142255D01*
X0158536Y0142891D01*
X0159171Y0143526D01*
X0159171Y0139334D01*
X0158536Y0139969D01*
X0157002Y0140605D01*
X0155341Y0140605D01*
X0153806Y0139969D01*
X0152632Y0138795D01*
X0151996Y0137260D01*
X0151996Y0135599D01*
X0152632Y0134065D01*
X0153806Y0132891D01*
X0155341Y0132255D01*
X0157002Y0132255D01*
X0158536Y0132891D01*
X0159171Y0133526D01*
X0159171Y0129334D01*
X0158536Y0129969D01*
X0157002Y0130605D01*
X0155341Y0130605D01*
X0153806Y0129969D01*
X0152632Y0128795D01*
X0151996Y0127260D01*
X0151996Y0125599D01*
X0152632Y0124065D01*
X0153806Y0122891D01*
X0155341Y0122255D01*
X0157002Y0122255D01*
X0158536Y0122891D01*
X0159171Y0123526D01*
X0159171Y0119334D01*
X0158536Y0119969D01*
X0157002Y0120605D01*
X0155341Y0120605D01*
X0153806Y0119969D01*
X0152632Y0118795D01*
X0151996Y0117260D01*
X0151996Y0115599D01*
X0152632Y0114065D01*
X0153806Y0112891D01*
X0155341Y0112255D01*
X0157002Y0112255D01*
X0158536Y0112891D01*
X0159171Y0113526D01*
X0159171Y0109334D01*
X0158536Y0109969D01*
X0157002Y0110605D01*
X0155341Y0110605D01*
X0153806Y0109969D01*
X0152632Y0108795D01*
X0151996Y0107260D01*
X0151996Y0105599D01*
X0152632Y0104065D01*
X0153806Y0102891D01*
X0155341Y0102255D01*
X0157002Y0102255D01*
X0158536Y0102891D01*
X0159171Y0103526D01*
X0159171Y0099334D01*
X0158891Y0099614D01*
X0158359Y0100001D01*
X0157774Y0100299D01*
X0157149Y0100502D01*
X0156500Y0100605D01*
X0156359Y0100605D01*
X0156359Y0096617D01*
X0155984Y0096617D01*
X0155984Y0096242D01*
X0156359Y0096242D01*
X0156359Y0092255D01*
X0156500Y0092255D01*
X0157149Y0092358D01*
X0157774Y0092561D01*
X0158359Y0092859D01*
X0158891Y0093246D01*
X0159171Y0093526D01*
X0159171Y0089334D01*
X0158536Y0089969D01*
X0157002Y0090605D01*
X0155341Y0090605D01*
X0153806Y0089969D01*
X0152632Y0088795D01*
X0151996Y0087260D01*
X0151996Y0085599D01*
X0152632Y0084065D01*
X0153806Y0082891D01*
X0155341Y0082255D01*
X0157002Y0082255D01*
X0158536Y0082891D01*
X0159171Y0083526D01*
X0159171Y0079334D01*
X0158536Y0079969D01*
X0157002Y0080605D01*
X0155341Y0080605D01*
X0153806Y0079969D01*
X0152632Y0078795D01*
X0151996Y0077260D01*
X0151996Y0075599D01*
X0152632Y0074065D01*
X0153806Y0072891D01*
X0155341Y0072255D01*
X0157002Y0072255D01*
X0158536Y0072891D01*
X0159171Y0073526D01*
X0159171Y0069334D01*
X0158536Y0069969D01*
X0157002Y0070605D01*
X0155341Y0070605D01*
X0153806Y0069969D01*
X0152632Y0068795D01*
X0151996Y0067260D01*
X0151996Y0065599D01*
X0152632Y0064065D01*
X0153806Y0062891D01*
X0155341Y0062255D01*
X0157002Y0062255D01*
X0158536Y0062891D01*
X0159171Y0063526D01*
X0159171Y0059334D01*
X0158536Y0059969D01*
X0157002Y0060605D01*
X0155341Y0060605D01*
X0153806Y0059969D01*
X0152632Y0058795D01*
X0151996Y0057260D01*
X0151996Y0055599D01*
X0152632Y0054065D01*
X0153806Y0052891D01*
X0155341Y0052255D01*
X0157002Y0052255D01*
X0158536Y0052891D01*
X0159171Y0053526D01*
X0159171Y0049334D01*
X0158536Y0049969D01*
X0157002Y0050605D01*
X0155341Y0050605D01*
X0153806Y0049969D01*
X0152632Y0048795D01*
X0151996Y0047260D01*
X0151996Y0045599D01*
X0152632Y0044065D01*
X0153806Y0042891D01*
X0155341Y0042255D01*
X0157002Y0042255D01*
X0158536Y0042891D01*
X0159171Y0043526D01*
X0159171Y0039334D01*
X0158536Y0039969D01*
X0157002Y0040605D01*
X0155341Y0040605D01*
X0153806Y0039969D01*
X0152632Y0038795D01*
X0151996Y0037260D01*
X0151996Y0035599D01*
X0152632Y0034065D01*
X0153806Y0032891D01*
X0155341Y0032255D01*
X0157002Y0032255D01*
X0158536Y0032891D01*
X0159171Y0033526D01*
X0159171Y0029334D01*
X0159171Y0029561D02*
X0158944Y0029561D01*
X0159171Y0030759D02*
X0142371Y0030759D01*
X0142371Y0029561D02*
X0143398Y0029561D01*
X0142371Y0031958D02*
X0159171Y0031958D01*
X0159171Y0033156D02*
X0158802Y0033156D01*
X0153541Y0033156D02*
X0148802Y0033156D01*
X0148536Y0032891D02*
X0149710Y0034065D01*
X0150346Y0035599D01*
X0150346Y0037260D01*
X0149710Y0038795D01*
X0148536Y0039969D01*
X0147002Y0040605D01*
X0145341Y0040605D01*
X0143806Y0039969D01*
X0142632Y0038795D01*
X0141996Y0037260D01*
X0141996Y0035599D01*
X0142632Y0034065D01*
X0143806Y0032891D01*
X0145341Y0032255D01*
X0147002Y0032255D01*
X0148536Y0032891D01*
X0149831Y0034355D02*
X0152512Y0034355D01*
X0152016Y0035554D02*
X0150327Y0035554D01*
X0150346Y0036752D02*
X0151996Y0036752D01*
X0152282Y0037951D02*
X0150060Y0037951D01*
X0149356Y0039149D02*
X0152986Y0039149D01*
X0154720Y0040348D02*
X0147623Y0040348D01*
X0147002Y0042255D02*
X0148536Y0042891D01*
X0149710Y0044065D01*
X0150346Y0045599D01*
X0150346Y0047260D01*
X0149710Y0048795D01*
X0148536Y0049969D01*
X0147002Y0050605D01*
X0145341Y0050605D01*
X0143806Y0049969D01*
X0142632Y0048795D01*
X0141996Y0047260D01*
X0141996Y0045599D01*
X0142632Y0044065D01*
X0143806Y0042891D01*
X0145341Y0042255D01*
X0147002Y0042255D01*
X0148183Y0042745D02*
X0154159Y0042745D01*
X0152754Y0043943D02*
X0149588Y0043943D01*
X0150156Y0045142D02*
X0152186Y0045142D01*
X0151996Y0046340D02*
X0150346Y0046340D01*
X0150231Y0047539D02*
X0152112Y0047539D01*
X0152608Y0048737D02*
X0149734Y0048737D01*
X0148570Y0049936D02*
X0153773Y0049936D01*
X0155154Y0052333D02*
X0147189Y0052333D01*
X0145154Y0052333D02*
X0137421Y0052333D01*
X0136223Y0051134D02*
X0159171Y0051134D01*
X0159171Y0049936D02*
X0158570Y0049936D01*
X0159171Y0052333D02*
X0157189Y0052333D01*
X0153166Y0053531D02*
X0149177Y0053531D01*
X0149986Y0054730D02*
X0152357Y0054730D01*
X0151996Y0055928D02*
X0150346Y0055928D01*
X0150346Y0057127D02*
X0151996Y0057127D01*
X0152438Y0058325D02*
X0149905Y0058325D01*
X0148981Y0059524D02*
X0153361Y0059524D01*
X0153578Y0063119D02*
X0148765Y0063119D01*
X0149815Y0064318D02*
X0152527Y0064318D01*
X0152031Y0065516D02*
X0150312Y0065516D01*
X0150346Y0066715D02*
X0151996Y0066715D01*
X0152267Y0067913D02*
X0150076Y0067913D01*
X0149393Y0069112D02*
X0152949Y0069112D01*
X0154630Y0070310D02*
X0147712Y0070310D01*
X0148093Y0072707D02*
X0154249Y0072707D01*
X0152791Y0073906D02*
X0149551Y0073906D01*
X0150141Y0075104D02*
X0152202Y0075104D01*
X0151996Y0076303D02*
X0150346Y0076303D01*
X0150246Y0077501D02*
X0152096Y0077501D01*
X0152593Y0078700D02*
X0149750Y0078700D01*
X0148607Y0079898D02*
X0153736Y0079898D01*
X0155243Y0082295D02*
X0147099Y0082295D01*
X0145243Y0082295D02*
X0143371Y0082295D01*
X0143371Y0081097D02*
X0159171Y0081097D01*
X0159171Y0082295D02*
X0157099Y0082295D01*
X0158607Y0079898D02*
X0159171Y0079898D01*
X0159139Y0083494D02*
X0159171Y0083494D01*
X0159171Y0089487D02*
X0159019Y0089487D01*
X0159171Y0090685D02*
X0143371Y0090685D01*
X0143371Y0091884D02*
X0159171Y0091884D01*
X0159171Y0093082D02*
X0158666Y0093082D01*
X0156359Y0093082D02*
X0155984Y0093082D01*
X0155984Y0092255D02*
X0155984Y0096242D01*
X0151996Y0096242D01*
X0151996Y0096101D01*
X0152099Y0095452D01*
X0152302Y0094827D01*
X0152601Y0094242D01*
X0152987Y0093710D01*
X0153452Y0093246D01*
X0153983Y0092859D01*
X0154569Y0092561D01*
X0155194Y0092358D01*
X0155843Y0092255D01*
X0155984Y0092255D01*
X0155984Y0094281D02*
X0156359Y0094281D01*
X0156359Y0095479D02*
X0155984Y0095479D01*
X0155984Y0096617D02*
X0151996Y0096617D01*
X0151996Y0096758D01*
X0152099Y0097408D01*
X0152302Y0098032D01*
X0152601Y0098618D01*
X0152987Y0099150D01*
X0153452Y0099614D01*
X0153983Y0100001D01*
X0154569Y0100299D01*
X0155194Y0100502D01*
X0155843Y0100605D01*
X0155984Y0100605D01*
X0155984Y0096617D01*
X0155984Y0096678D02*
X0156359Y0096678D01*
X0156359Y0097876D02*
X0155984Y0097876D01*
X0155984Y0099075D02*
X0156359Y0099075D01*
X0156359Y0100273D02*
X0155984Y0100273D01*
X0154518Y0100273D02*
X0147824Y0100273D01*
X0146359Y0100273D02*
X0145984Y0100273D01*
X0145984Y0099075D02*
X0146359Y0099075D01*
X0146359Y0097876D02*
X0145984Y0097876D01*
X0145984Y0096678D02*
X0146359Y0096678D01*
X0146359Y0095479D02*
X0145984Y0095479D01*
X0145984Y0094281D02*
X0146359Y0094281D01*
X0146359Y0093082D02*
X0145984Y0093082D01*
X0148666Y0093082D02*
X0153677Y0093082D01*
X0152581Y0094281D02*
X0149762Y0094281D01*
X0150247Y0095479D02*
X0152095Y0095479D01*
X0151996Y0096678D02*
X0150346Y0096678D01*
X0150091Y0097876D02*
X0152252Y0097876D01*
X0152932Y0099075D02*
X0149410Y0099075D01*
X0148004Y0102670D02*
X0154339Y0102670D01*
X0152828Y0103869D02*
X0149514Y0103869D01*
X0150126Y0105067D02*
X0152217Y0105067D01*
X0151996Y0106266D02*
X0150346Y0106266D01*
X0150262Y0107464D02*
X0152081Y0107464D01*
X0152577Y0108663D02*
X0149765Y0108663D01*
X0148644Y0109861D02*
X0153698Y0109861D01*
X0155333Y0112258D02*
X0147009Y0112258D01*
X0145333Y0112258D02*
X0143371Y0112258D01*
X0143371Y0111060D02*
X0159171Y0111060D01*
X0159171Y0112258D02*
X0157009Y0112258D01*
X0158644Y0109861D02*
X0159171Y0109861D01*
X0159102Y0113457D02*
X0159171Y0113457D01*
X0159171Y0119449D02*
X0159056Y0119449D01*
X0159171Y0120648D02*
X0143371Y0120648D01*
X0143371Y0121846D02*
X0159171Y0121846D01*
X0159171Y0123045D02*
X0158690Y0123045D01*
X0153652Y0123045D02*
X0148690Y0123045D01*
X0149784Y0124243D02*
X0152558Y0124243D01*
X0152062Y0125442D02*
X0150281Y0125442D01*
X0150346Y0126640D02*
X0151996Y0126640D01*
X0152236Y0127839D02*
X0150106Y0127839D01*
X0149468Y0129037D02*
X0152875Y0129037D01*
X0154450Y0130236D02*
X0147892Y0130236D01*
X0147914Y0132633D02*
X0154429Y0132633D01*
X0152866Y0133831D02*
X0149477Y0133831D01*
X0150110Y0135030D02*
X0152232Y0135030D01*
X0151996Y0136228D02*
X0150346Y0136228D01*
X0150277Y0137427D02*
X0152065Y0137427D01*
X0152562Y0138625D02*
X0149781Y0138625D01*
X0148681Y0139824D02*
X0153661Y0139824D01*
X0153278Y0143420D02*
X0149065Y0143420D01*
X0149940Y0144618D02*
X0152403Y0144618D01*
X0151996Y0145817D02*
X0150346Y0145817D01*
X0150346Y0147015D02*
X0151996Y0147015D01*
X0152391Y0148214D02*
X0149951Y0148214D01*
X0149093Y0149412D02*
X0153249Y0149412D01*
X0153689Y0153008D02*
X0148653Y0153008D01*
X0149769Y0154206D02*
X0152574Y0154206D01*
X0152077Y0155405D02*
X0150265Y0155405D01*
X0150346Y0156603D02*
X0151996Y0156603D01*
X0152221Y0157802D02*
X0150122Y0157802D01*
X0149505Y0159000D02*
X0152837Y0159000D01*
X0154361Y0160199D02*
X0150288Y0160199D01*
X0151486Y0161397D02*
X0159171Y0161397D01*
X0159171Y0160199D02*
X0157982Y0160199D01*
X0157824Y0162596D02*
X0159171Y0162596D01*
X0156171Y0166430D02*
X0153407Y0166430D01*
X0148171Y0161194D01*
X0141171Y0161194D01*
X0137171Y0157194D01*
X0137171Y0152194D01*
X0134171Y0149194D01*
X0130911Y0149194D01*
X0135070Y0146994D02*
X0135070Y0145578D01*
X0134886Y0145394D01*
X0138083Y0145394D01*
X0138283Y0145194D01*
X0138768Y0145194D01*
X0138971Y0145109D01*
X0138971Y0150416D01*
X0138935Y0150846D01*
X0136371Y0148282D01*
X0135083Y0146994D01*
X0135070Y0146994D01*
X0135104Y0147015D02*
X0138971Y0147015D01*
X0138971Y0145817D02*
X0135070Y0145817D01*
X0136302Y0148214D02*
X0138971Y0148214D01*
X0138971Y0149412D02*
X0137501Y0149412D01*
X0138699Y0150611D02*
X0138955Y0150611D01*
X0139371Y0151820D02*
X0139371Y0153105D01*
X0139371Y0156282D01*
X0142083Y0158994D01*
X0142831Y0158994D01*
X0142632Y0158795D01*
X0141996Y0157260D01*
X0141996Y0155599D01*
X0142192Y0155127D01*
X0139550Y0151999D01*
X0139371Y0151820D01*
X0139371Y0153008D02*
X0140402Y0153008D01*
X0141414Y0154206D02*
X0139371Y0154206D01*
X0139371Y0155405D02*
X0142077Y0155405D01*
X0141996Y0156603D02*
X0139692Y0156603D01*
X0140890Y0157802D02*
X0142221Y0157802D01*
X0138263Y0161397D02*
X0137486Y0161397D01*
X0137065Y0160199D02*
X0136288Y0160199D01*
X0136260Y0159394D02*
X0135070Y0158204D01*
X0135070Y0158982D01*
X0141996Y0165908D01*
X0141996Y0165599D01*
X0142632Y0164065D01*
X0143303Y0163394D01*
X0140260Y0163394D01*
X0136260Y0159394D01*
X0135866Y0159000D02*
X0135089Y0159000D01*
X0131613Y0161746D02*
X0127690Y0161746D01*
X0127171Y0161228D01*
X0126653Y0161746D01*
X0120209Y0161746D01*
X0119272Y0160809D01*
X0119272Y0159394D01*
X0119070Y0159394D01*
X0119070Y0160809D01*
X0118133Y0161746D01*
X0111690Y0161746D01*
X0111171Y0161228D01*
X0110653Y0161746D01*
X0104209Y0161746D01*
X0103272Y0160809D01*
X0103272Y0159394D01*
X0102214Y0159394D01*
X0101871Y0159737D01*
X0100768Y0160194D01*
X0099575Y0160194D01*
X0098472Y0159737D01*
X0097628Y0158893D01*
X0097171Y0157790D01*
X0097171Y0156597D01*
X0097628Y0155494D01*
X0098472Y0154650D01*
X0099575Y0154194D01*
X0100768Y0154194D01*
X0101871Y0154650D01*
X0102214Y0154994D01*
X0103272Y0154994D01*
X0103272Y0153578D01*
X0103657Y0153194D01*
X0103272Y0152809D01*
X0103272Y0151985D01*
X0102768Y0152194D01*
X0101575Y0152194D01*
X0100472Y0151737D01*
X0099628Y0150893D01*
X0099171Y0149790D01*
X0099171Y0148597D01*
X0099628Y0147494D01*
X0100472Y0146650D01*
X0101575Y0146194D01*
X0102768Y0146194D01*
X0103272Y0146402D01*
X0103272Y0145578D01*
X0103457Y0145394D01*
X0091083Y0145394D01*
X0090311Y0146165D01*
X0090311Y0149594D01*
X0091511Y0149594D01*
X0091511Y0145641D01*
X0093681Y0145641D01*
X0094088Y0145750D01*
X0094453Y0145961D01*
X0094751Y0146259D01*
X0094961Y0146623D01*
X0095070Y0147030D01*
X0095070Y0149594D01*
X0091511Y0149594D01*
X0091511Y0150794D01*
X0090311Y0150794D01*
X0090311Y0154746D01*
X0088371Y0154746D01*
X0088371Y0169540D01*
X0089572Y0169540D01*
X0089572Y0168518D01*
X0090509Y0167581D01*
X0097740Y0167581D01*
X0098329Y0168170D01*
X0098918Y0167581D01*
X0106149Y0167581D01*
X0107086Y0168518D01*
X0107086Y0169994D01*
X0110083Y0169994D01*
X0111371Y0171282D01*
X0117083Y0176994D01*
X0125255Y0176994D01*
X0125171Y0176790D01*
X0125171Y0175597D01*
X0125512Y0174774D01*
X0125122Y0174384D01*
X0125122Y0162822D01*
X0126060Y0161885D01*
X0131322Y0161885D01*
X0132259Y0162822D01*
X0132259Y0174384D01*
X0131322Y0175321D01*
X0131057Y0175321D01*
X0131171Y0175597D01*
X0131171Y0176790D01*
X0131087Y0176994D01*
X0140083Y0176994D01*
X0141371Y0178282D01*
X0141371Y0178282D01*
X0142083Y0178994D01*
X0142831Y0178994D01*
X0142632Y0178795D01*
X0141996Y0177260D01*
X0141996Y0175599D01*
X0142632Y0174065D01*
X0143303Y0173394D01*
X0143260Y0173394D01*
X0131613Y0161746D01*
X0132033Y0162596D02*
X0132462Y0162596D01*
X0132259Y0163794D02*
X0133661Y0163794D01*
X0134859Y0164993D02*
X0132259Y0164993D01*
X0132259Y0166191D02*
X0136058Y0166191D01*
X0137256Y0167390D02*
X0132259Y0167390D01*
X0132259Y0168588D02*
X0138455Y0168588D01*
X0139653Y0169787D02*
X0132259Y0169787D01*
X0132259Y0170985D02*
X0140852Y0170985D01*
X0142050Y0172184D02*
X0132259Y0172184D01*
X0132259Y0173382D02*
X0143249Y0173382D01*
X0142418Y0174581D02*
X0132063Y0174581D01*
X0131171Y0175779D02*
X0141996Y0175779D01*
X0141996Y0176978D02*
X0131094Y0176978D01*
X0128171Y0176194D02*
X0128171Y0169123D01*
X0128691Y0168603D01*
X0125122Y0168588D02*
X0121201Y0168588D01*
X0121201Y0168219D02*
X0121201Y0168987D01*
X0124385Y0168987D01*
X0124385Y0173932D01*
X0124276Y0174339D01*
X0124066Y0174704D01*
X0123768Y0175002D01*
X0123403Y0175212D01*
X0122996Y0175321D01*
X0121201Y0175321D01*
X0121201Y0168987D01*
X0120433Y0168987D01*
X0120433Y0168219D01*
X0121201Y0168219D01*
X0121201Y0161885D01*
X0122996Y0161885D01*
X0123403Y0161994D01*
X0123768Y0162205D01*
X0124066Y0162503D01*
X0124276Y0162867D01*
X0124385Y0163274D01*
X0124385Y0168219D01*
X0121201Y0168219D01*
X0120433Y0168219D02*
X0120433Y0161885D01*
X0118638Y0161885D01*
X0118231Y0161994D01*
X0117866Y0162205D01*
X0117568Y0162503D01*
X0117357Y0162867D01*
X0117248Y0163274D01*
X0117248Y0168219D01*
X0120433Y0168219D01*
X0120433Y0168588D02*
X0107086Y0168588D01*
X0107086Y0169787D02*
X0117248Y0169787D01*
X0117248Y0168987D02*
X0117248Y0173932D01*
X0117357Y0174339D01*
X0117568Y0174704D01*
X0117866Y0175002D01*
X0118231Y0175212D01*
X0118638Y0175321D01*
X0120433Y0175321D01*
X0120433Y0168987D01*
X0117248Y0168987D01*
X0117248Y0167390D02*
X0088371Y0167390D01*
X0088371Y0168588D02*
X0089572Y0168588D01*
X0088371Y0166191D02*
X0117248Y0166191D01*
X0117248Y0164993D02*
X0088371Y0164993D01*
X0088371Y0163794D02*
X0117248Y0163794D01*
X0117514Y0162596D02*
X0088371Y0162596D01*
X0088371Y0161397D02*
X0103860Y0161397D01*
X0103272Y0160199D02*
X0088371Y0160199D01*
X0088371Y0159000D02*
X0097735Y0159000D01*
X0097176Y0157802D02*
X0088371Y0157802D01*
X0088371Y0156603D02*
X0097171Y0156603D01*
X0097718Y0155405D02*
X0088371Y0155405D01*
X0086171Y0152934D02*
X0083431Y0150194D01*
X0082931Y0149694D01*
X0072271Y0149694D01*
X0072271Y0154694D02*
X0065671Y0154694D01*
X0065171Y0155194D01*
X0065171Y0181194D01*
X0054171Y0192194D01*
X0058484Y0196154D02*
X0062858Y0196154D01*
X0061660Y0194956D02*
X0059683Y0194956D01*
X0060021Y0194617D02*
X0057244Y0197394D01*
X0064098Y0197394D01*
X0061321Y0194617D01*
X0061321Y0189771D01*
X0064748Y0186344D01*
X0069594Y0186344D01*
X0069752Y0186502D01*
X0070071Y0186182D01*
X0070071Y0167594D01*
X0067609Y0167594D01*
X0067371Y0167356D01*
X0067371Y0182105D01*
X0059863Y0189613D01*
X0060021Y0189771D01*
X0060021Y0194617D01*
X0060021Y0193757D02*
X0061321Y0193757D01*
X0061321Y0192558D02*
X0060021Y0192558D01*
X0060021Y0191360D02*
X0061321Y0191360D01*
X0061321Y0190161D02*
X0060021Y0190161D01*
X0060513Y0188963D02*
X0062129Y0188963D01*
X0061712Y0187764D02*
X0063327Y0187764D01*
X0062910Y0186566D02*
X0064526Y0186566D01*
X0064109Y0185367D02*
X0070071Y0185367D01*
X0070071Y0184169D02*
X0065307Y0184169D01*
X0066506Y0182970D02*
X0070071Y0182970D01*
X0070071Y0181772D02*
X0067371Y0181772D01*
X0067371Y0180573D02*
X0070071Y0180573D01*
X0070071Y0179375D02*
X0067371Y0179375D01*
X0067371Y0178176D02*
X0070071Y0178176D01*
X0070071Y0176978D02*
X0067371Y0176978D01*
X0067371Y0175779D02*
X0070071Y0175779D01*
X0070071Y0174581D02*
X0067371Y0174581D01*
X0067371Y0173382D02*
X0070071Y0173382D01*
X0070071Y0172184D02*
X0067371Y0172184D01*
X0067371Y0170985D02*
X0070071Y0170985D01*
X0070071Y0169787D02*
X0067371Y0169787D01*
X0067371Y0168588D02*
X0070071Y0168588D01*
X0067405Y0167390D02*
X0067371Y0167390D01*
X0072271Y0164694D02*
X0072271Y0187094D01*
X0067171Y0192194D01*
X0064057Y0197353D02*
X0057286Y0197353D01*
X0051057Y0197353D02*
X0044286Y0197353D01*
X0038098Y0197394D02*
X0035321Y0194617D01*
X0035321Y0189771D01*
X0038748Y0186344D01*
X0043594Y0186344D01*
X0043752Y0186502D01*
X0044971Y0185282D01*
X0044971Y0167594D01*
X0043409Y0167594D01*
X0043371Y0167556D01*
X0043371Y0180105D01*
X0033863Y0189613D01*
X0034021Y0189771D01*
X0034021Y0194617D01*
X0031244Y0197394D01*
X0038098Y0197394D01*
X0038057Y0197353D02*
X0031286Y0197353D01*
X0032484Y0196154D02*
X0036858Y0196154D01*
X0035660Y0194956D02*
X0033683Y0194956D01*
X0034021Y0193757D02*
X0035321Y0193757D01*
X0035321Y0192558D02*
X0034021Y0192558D01*
X0034021Y0191360D02*
X0035321Y0191360D01*
X0035321Y0190161D02*
X0034021Y0190161D01*
X0034513Y0188963D02*
X0036129Y0188963D01*
X0035712Y0187764D02*
X0037327Y0187764D01*
X0036910Y0186566D02*
X0038526Y0186566D01*
X0038109Y0185367D02*
X0044886Y0185367D01*
X0044971Y0184169D02*
X0039307Y0184169D01*
X0040506Y0182970D02*
X0044971Y0182970D01*
X0044971Y0181772D02*
X0041704Y0181772D01*
X0042903Y0180573D02*
X0044971Y0180573D01*
X0044971Y0179375D02*
X0043371Y0179375D01*
X0043371Y0178176D02*
X0044971Y0178176D01*
X0044971Y0176978D02*
X0043371Y0176978D01*
X0043371Y0175779D02*
X0044971Y0175779D01*
X0044971Y0174581D02*
X0043371Y0174581D01*
X0043371Y0173382D02*
X0044971Y0173382D01*
X0044971Y0172184D02*
X0043371Y0172184D01*
X0043371Y0170985D02*
X0044971Y0170985D01*
X0044971Y0169787D02*
X0043371Y0169787D01*
X0043371Y0168588D02*
X0044971Y0168588D01*
X0038971Y0168588D02*
X0037306Y0168588D01*
X0037752Y0167390D02*
X0038971Y0167390D01*
X0038971Y0166191D02*
X0037752Y0166191D01*
X0034192Y0163794D02*
X0032993Y0163794D01*
X0032993Y0162596D02*
X0034192Y0162596D01*
X0034192Y0161397D02*
X0032993Y0161397D01*
X0032993Y0160199D02*
X0034192Y0160199D01*
X0035508Y0156603D02*
X0028312Y0156603D01*
X0028312Y0155405D02*
X0035171Y0155405D01*
X0035333Y0154206D02*
X0028312Y0154206D01*
X0029831Y0153008D02*
X0031031Y0153008D01*
X0031031Y0151809D02*
X0029831Y0151809D01*
X0029831Y0150611D02*
X0031031Y0150611D01*
X0031031Y0148594D02*
X0031031Y0144641D01*
X0033201Y0144641D01*
X0033608Y0144750D01*
X0033973Y0144961D01*
X0034171Y0145159D01*
X0034690Y0144641D01*
X0035511Y0144641D01*
X0035511Y0142716D01*
X0035711Y0142233D01*
X0035711Y0141746D01*
X0034690Y0141746D01*
X0034171Y0141228D01*
X0033973Y0141427D01*
X0033608Y0141637D01*
X0033201Y0141746D01*
X0031031Y0141746D01*
X0031031Y0137794D01*
X0029831Y0137794D01*
X0029831Y0141746D01*
X0028312Y0141746D01*
X0028312Y0144641D01*
X0029831Y0144641D01*
X0029831Y0148594D01*
X0031031Y0148594D01*
X0031031Y0148214D02*
X0029831Y0148214D01*
X0029831Y0147015D02*
X0031031Y0147015D01*
X0031031Y0145817D02*
X0029831Y0145817D01*
X0028312Y0144618D02*
X0035511Y0144618D01*
X0035511Y0143420D02*
X0028312Y0143420D01*
X0028312Y0142221D02*
X0035711Y0142221D01*
X0031031Y0141023D02*
X0029831Y0141023D01*
X0029831Y0139824D02*
X0031031Y0139824D01*
X0031031Y0138625D02*
X0029831Y0138625D01*
X0023912Y0138625D02*
X0019781Y0138625D01*
X0019710Y0138795D02*
X0018536Y0139969D01*
X0017002Y0140605D01*
X0015341Y0140605D01*
X0013806Y0139969D01*
X0012632Y0138795D01*
X0011996Y0137260D01*
X0011996Y0135599D01*
X0012632Y0134065D01*
X0013806Y0132891D01*
X0015341Y0132255D01*
X0017002Y0132255D01*
X0018536Y0132891D01*
X0019710Y0134065D01*
X0020346Y0135599D01*
X0020346Y0137260D01*
X0019710Y0138795D01*
X0018681Y0139824D02*
X0023912Y0139824D01*
X0023912Y0141023D02*
X0003171Y0141023D01*
X0003171Y0142221D02*
X0023912Y0142221D01*
X0023912Y0143420D02*
X0019065Y0143420D01*
X0018891Y0143246D02*
X0019356Y0143710D01*
X0019742Y0144242D01*
X0020040Y0144827D01*
X0020243Y0145452D01*
X0020346Y0146101D01*
X0020346Y0146242D01*
X0016359Y0146242D01*
X0016359Y0142255D01*
X0016500Y0142255D01*
X0017149Y0142358D01*
X0017774Y0142561D01*
X0018359Y0142859D01*
X0018891Y0143246D01*
X0019934Y0144618D02*
X0023912Y0144618D01*
X0023912Y0145817D02*
X0020301Y0145817D01*
X0020346Y0146617D02*
X0020346Y0146758D01*
X0020243Y0147408D01*
X0020040Y0148032D01*
X0019742Y0148618D01*
X0019356Y0149150D01*
X0018891Y0149614D01*
X0018359Y0150001D01*
X0017774Y0150299D01*
X0017149Y0150502D01*
X0016500Y0150605D01*
X0016359Y0150605D01*
X0016359Y0146617D01*
X0020346Y0146617D01*
X0020305Y0147015D02*
X0023912Y0147015D01*
X0023912Y0148214D02*
X0019948Y0148214D01*
X0019093Y0149412D02*
X0023912Y0149412D01*
X0023912Y0150611D02*
X0003171Y0150611D01*
X0003806Y0149969D02*
X0003171Y0149334D01*
X0003171Y0153526D01*
X0003806Y0152891D01*
X0005341Y0152255D01*
X0007002Y0152255D01*
X0008536Y0152891D01*
X0009710Y0154065D01*
X0010346Y0155599D01*
X0010346Y0157260D01*
X0009710Y0158795D01*
X0008536Y0159969D01*
X0007002Y0160605D01*
X0005341Y0160605D01*
X0003806Y0159969D01*
X0003171Y0159334D01*
X0003171Y0163526D01*
X0003806Y0162891D01*
X0005341Y0162255D01*
X0007002Y0162255D01*
X0008536Y0162891D01*
X0009710Y0164065D01*
X0010346Y0165599D01*
X0010346Y0167260D01*
X0009710Y0168795D01*
X0008536Y0169969D01*
X0007002Y0170605D01*
X0005341Y0170605D01*
X0003806Y0169969D01*
X0003171Y0169334D01*
X0003171Y0173526D01*
X0003806Y0172891D01*
X0005341Y0172255D01*
X0007002Y0172255D01*
X0007139Y0172312D01*
X0009129Y0170292D01*
X0009129Y0170282D01*
X0009767Y0169644D01*
X0010401Y0169001D01*
X0010411Y0169001D01*
X0010417Y0168994D01*
X0011320Y0168994D01*
X0012223Y0168987D01*
X0012230Y0168994D01*
X0012831Y0168994D01*
X0012632Y0168795D01*
X0011996Y0167260D01*
X0011996Y0165599D01*
X0012632Y0164065D01*
X0013806Y0162891D01*
X0015341Y0162255D01*
X0017002Y0162255D01*
X0018536Y0162891D01*
X0019710Y0164065D01*
X0020346Y0165599D01*
X0020346Y0167260D01*
X0019710Y0168795D01*
X0019512Y0168994D01*
X0022260Y0168994D01*
X0022532Y0168721D01*
X0021953Y0168142D01*
X0021953Y0160911D01*
X0022890Y0159974D01*
X0023912Y0159974D01*
X0023912Y0132341D01*
X0024971Y0131282D01*
X0026260Y0129994D01*
X0032971Y0129994D01*
X0032971Y0126525D01*
X0031419Y0126525D01*
X0030481Y0125588D01*
X0030481Y0119144D01*
X0031000Y0118626D01*
X0030481Y0118108D01*
X0030481Y0113394D01*
X0019039Y0113394D01*
X0019710Y0114065D01*
X0020346Y0115599D01*
X0020346Y0117260D01*
X0019710Y0118795D01*
X0018536Y0119969D01*
X0017002Y0120605D01*
X0015341Y0120605D01*
X0013806Y0119969D01*
X0012632Y0118795D01*
X0011996Y0117260D01*
X0011996Y0115599D01*
X0012632Y0114065D01*
X0013303Y0113394D01*
X0012250Y0113394D01*
X0010266Y0115407D01*
X0010346Y0115599D01*
X0010346Y0117260D01*
X0009710Y0118795D01*
X0008536Y0119969D01*
X0007002Y0120605D01*
X0005341Y0120605D01*
X0003806Y0119969D01*
X0003171Y0119334D01*
X0003171Y0123526D01*
X0003806Y0122891D01*
X0005341Y0122255D01*
X0007002Y0122255D01*
X0008536Y0122891D01*
X0009710Y0124065D01*
X0010346Y0125599D01*
X0010346Y0127260D01*
X0009710Y0128795D01*
X0008536Y0129969D01*
X0007002Y0130605D01*
X0005341Y0130605D01*
X0003806Y0129969D01*
X0003171Y0129334D01*
X0003171Y0133526D01*
X0003806Y0132891D01*
X0005341Y0132255D01*
X0007002Y0132255D01*
X0008536Y0132891D01*
X0009710Y0134065D01*
X0010346Y0135599D01*
X0010346Y0137260D01*
X0009710Y0138795D01*
X0008536Y0139969D01*
X0007002Y0140605D01*
X0005341Y0140605D01*
X0003806Y0139969D01*
X0003171Y0139334D01*
X0003171Y0143526D01*
X0003806Y0142891D01*
X0005341Y0142255D01*
X0007002Y0142255D01*
X0008536Y0142891D01*
X0009710Y0144065D01*
X0010346Y0145599D01*
X0010346Y0147260D01*
X0009710Y0148795D01*
X0008536Y0149969D01*
X0007002Y0150605D01*
X0005341Y0150605D01*
X0003806Y0149969D01*
X0003249Y0149412D02*
X0003171Y0149412D01*
X0003171Y0151809D02*
X0023912Y0151809D01*
X0023912Y0153008D02*
X0018653Y0153008D01*
X0018536Y0152891D02*
X0019710Y0154065D01*
X0020346Y0155599D01*
X0020346Y0157260D01*
X0019710Y0158795D01*
X0018536Y0159969D01*
X0017002Y0160605D01*
X0015341Y0160605D01*
X0013806Y0159969D01*
X0012632Y0158795D01*
X0011996Y0157260D01*
X0011996Y0155599D01*
X0012632Y0154065D01*
X0013806Y0152891D01*
X0015341Y0152255D01*
X0017002Y0152255D01*
X0018536Y0152891D01*
X0019769Y0154206D02*
X0023912Y0154206D01*
X0023912Y0155405D02*
X0020265Y0155405D01*
X0020346Y0156603D02*
X0023912Y0156603D01*
X0023912Y0157802D02*
X0020122Y0157802D01*
X0019505Y0159000D02*
X0023912Y0159000D01*
X0022666Y0160199D02*
X0017982Y0160199D01*
X0017824Y0162596D02*
X0021953Y0162596D01*
X0021953Y0163794D02*
X0019440Y0163794D01*
X0020095Y0164993D02*
X0021953Y0164993D01*
X0021953Y0166191D02*
X0020346Y0166191D01*
X0020292Y0167390D02*
X0021953Y0167390D01*
X0022399Y0168588D02*
X0019796Y0168588D01*
X0023171Y0171194D02*
X0025171Y0169194D01*
X0023171Y0171194D02*
X0011329Y0171194D01*
X0006171Y0176430D01*
X0003171Y0179334D02*
X0003806Y0179969D01*
X0005341Y0180605D01*
X0007002Y0180605D01*
X0008536Y0179969D01*
X0009710Y0178795D01*
X0010346Y0177260D01*
X0010346Y0175599D01*
X0010266Y0175407D01*
X0012250Y0173394D01*
X0013303Y0173394D01*
X0012632Y0174065D01*
X0011996Y0175599D01*
X0011996Y0177260D01*
X0012632Y0178795D01*
X0012831Y0178994D01*
X0012230Y0178994D01*
X0012223Y0178987D01*
X0011320Y0178994D01*
X0010417Y0178994D01*
X0010411Y0179001D01*
X0010401Y0179001D01*
X0009767Y0179644D01*
X0009129Y0180282D01*
X0009129Y0180292D01*
X0007139Y0182312D01*
X0007002Y0182255D01*
X0005341Y0182255D01*
X0003806Y0182891D01*
X0003171Y0183526D01*
X0003171Y0179334D01*
X0003171Y0179375D02*
X0003212Y0179375D01*
X0003171Y0180573D02*
X0005265Y0180573D01*
X0007077Y0180573D02*
X0008852Y0180573D01*
X0009130Y0179375D02*
X0010032Y0179375D01*
X0009967Y0178176D02*
X0012376Y0178176D01*
X0011996Y0176978D02*
X0010346Y0176978D01*
X0010346Y0175779D02*
X0011996Y0175779D01*
X0012418Y0174581D02*
X0011080Y0174581D01*
X0008446Y0170985D02*
X0003171Y0170985D01*
X0003171Y0169787D02*
X0003624Y0169787D01*
X0003171Y0172184D02*
X0007266Y0172184D01*
X0008718Y0169787D02*
X0009624Y0169787D01*
X0009796Y0168588D02*
X0012547Y0168588D01*
X0012050Y0167390D02*
X0010292Y0167390D01*
X0010346Y0166191D02*
X0011996Y0166191D01*
X0012248Y0164993D02*
X0010095Y0164993D01*
X0009440Y0163794D02*
X0012903Y0163794D01*
X0014519Y0162596D02*
X0007824Y0162596D01*
X0007982Y0160199D02*
X0014361Y0160199D01*
X0012837Y0159000D02*
X0009505Y0159000D01*
X0010122Y0157802D02*
X0012221Y0157802D01*
X0011996Y0156603D02*
X0010346Y0156603D01*
X0010265Y0155405D02*
X0012077Y0155405D01*
X0012574Y0154206D02*
X0009769Y0154206D01*
X0008653Y0153008D02*
X0013689Y0153008D01*
X0014569Y0150299D02*
X0013983Y0150001D01*
X0013452Y0149614D01*
X0012987Y0149150D01*
X0012601Y0148618D01*
X0012302Y0148032D01*
X0012099Y0147408D01*
X0011996Y0146758D01*
X0011996Y0146617D01*
X0015984Y0146617D01*
X0015984Y0146242D01*
X0016359Y0146242D01*
X0016359Y0146617D01*
X0015984Y0146617D01*
X0015984Y0150605D01*
X0015843Y0150605D01*
X0015194Y0150502D01*
X0014569Y0150299D01*
X0013249Y0149412D02*
X0009093Y0149412D01*
X0009951Y0148214D02*
X0012395Y0148214D01*
X0012037Y0147015D02*
X0010346Y0147015D01*
X0010346Y0145817D02*
X0012042Y0145817D01*
X0011996Y0146101D02*
X0012099Y0145452D01*
X0012302Y0144827D01*
X0012601Y0144242D01*
X0012987Y0143710D01*
X0013452Y0143246D01*
X0013983Y0142859D01*
X0014569Y0142561D01*
X0015194Y0142358D01*
X0015843Y0142255D01*
X0015984Y0142255D01*
X0015984Y0146242D01*
X0011996Y0146242D01*
X0011996Y0146101D01*
X0012409Y0144618D02*
X0009940Y0144618D01*
X0009065Y0143420D02*
X0013278Y0143420D01*
X0015984Y0143420D02*
X0016359Y0143420D01*
X0016359Y0144618D02*
X0015984Y0144618D01*
X0015984Y0145817D02*
X0016359Y0145817D01*
X0016171Y0146194D02*
X0022171Y0140194D01*
X0022171Y0130194D01*
X0024171Y0128194D01*
X0030171Y0128194D01*
X0030481Y0125442D02*
X0020281Y0125442D01*
X0020346Y0125599D02*
X0019710Y0124065D01*
X0018536Y0122891D01*
X0017002Y0122255D01*
X0015341Y0122255D01*
X0013806Y0122891D01*
X0012632Y0124065D01*
X0011996Y0125599D01*
X0011996Y0127260D01*
X0012632Y0128795D01*
X0013806Y0129969D01*
X0015341Y0130605D01*
X0017002Y0130605D01*
X0018536Y0129969D01*
X0019710Y0128795D01*
X0020346Y0127260D01*
X0020346Y0125599D01*
X0020346Y0126640D02*
X0032971Y0126640D01*
X0032971Y0127839D02*
X0020106Y0127839D01*
X0019468Y0129037D02*
X0032971Y0129037D01*
X0030481Y0124243D02*
X0019784Y0124243D01*
X0018690Y0123045D02*
X0030481Y0123045D01*
X0030481Y0121846D02*
X0003171Y0121846D01*
X0003171Y0120648D02*
X0030481Y0120648D01*
X0030481Y0119449D02*
X0019056Y0119449D01*
X0019936Y0118251D02*
X0030625Y0118251D01*
X0030481Y0117052D02*
X0020346Y0117052D01*
X0020346Y0115854D02*
X0030481Y0115854D01*
X0030481Y0114655D02*
X0019955Y0114655D01*
X0019102Y0113457D02*
X0030481Y0113457D01*
X0031539Y0111194D02*
X0030887Y0110542D01*
X0030887Y0103702D01*
X0028387Y0107127D02*
X0028687Y0107427D01*
X0028687Y0108994D01*
X0019512Y0108994D01*
X0019710Y0108795D01*
X0020346Y0107260D01*
X0020346Y0105599D01*
X0020268Y0105411D01*
X0023244Y0102396D01*
X0023244Y0106983D01*
X0024181Y0107920D01*
X0027593Y0107920D01*
X0028387Y0107127D01*
X0028687Y0107464D02*
X0028049Y0107464D01*
X0028687Y0108663D02*
X0019765Y0108663D01*
X0020262Y0107464D02*
X0023725Y0107464D01*
X0023244Y0106266D02*
X0020346Y0106266D01*
X0020608Y0105067D02*
X0023244Y0105067D01*
X0023244Y0103869D02*
X0021791Y0103869D01*
X0022973Y0102670D02*
X0023244Y0102670D01*
X0022171Y0100351D02*
X0016171Y0106430D01*
X0011996Y0106266D02*
X0010346Y0106266D01*
X0010346Y0105599D02*
X0010346Y0107260D01*
X0009710Y0108795D01*
X0008536Y0109969D01*
X0007002Y0110605D01*
X0005341Y0110605D01*
X0003806Y0109969D01*
X0003171Y0109334D01*
X0003171Y0113526D01*
X0003806Y0112891D01*
X0005341Y0112255D01*
X0007002Y0112255D01*
X0007139Y0112312D01*
X0009129Y0110292D01*
X0009129Y0110282D01*
X0009767Y0109644D01*
X0010401Y0109001D01*
X0010411Y0109001D01*
X0010417Y0108994D01*
X0011320Y0108994D01*
X0012223Y0108987D01*
X0012230Y0108994D01*
X0012831Y0108994D01*
X0012632Y0108795D01*
X0011996Y0107260D01*
X0011996Y0105599D01*
X0012632Y0104065D01*
X0013806Y0102891D01*
X0015341Y0102255D01*
X0017002Y0102255D01*
X0017143Y0102314D01*
X0019971Y0099448D01*
X0019971Y0098165D01*
X0019710Y0098795D01*
X0018536Y0099969D01*
X0017002Y0100605D01*
X0015341Y0100605D01*
X0013806Y0099969D01*
X0012632Y0098795D01*
X0011996Y0097260D01*
X0011996Y0095599D01*
X0012632Y0094065D01*
X0013806Y0092891D01*
X0015341Y0092255D01*
X0017002Y0092255D01*
X0018536Y0092891D01*
X0019710Y0094065D01*
X0019971Y0094695D01*
X0019971Y0088165D01*
X0019710Y0088795D01*
X0018536Y0089969D01*
X0017002Y0090605D01*
X0015341Y0090605D01*
X0013806Y0089969D01*
X0012632Y0088795D01*
X0011996Y0087260D01*
X0011996Y0085599D01*
X0012632Y0084065D01*
X0013303Y0083394D01*
X0012250Y0083394D01*
X0010266Y0085407D01*
X0010346Y0085599D01*
X0010346Y0087260D01*
X0009710Y0088795D01*
X0008536Y0089969D01*
X0007002Y0090605D01*
X0005341Y0090605D01*
X0003806Y0089969D01*
X0003171Y0089334D01*
X0003171Y0093526D01*
X0003806Y0092891D01*
X0005341Y0092255D01*
X0007002Y0092255D01*
X0008536Y0092891D01*
X0009710Y0094065D01*
X0010346Y0095599D01*
X0010346Y0097260D01*
X0009710Y0098795D01*
X0008536Y0099969D01*
X0007002Y0100605D01*
X0005341Y0100605D01*
X0003806Y0099969D01*
X0003171Y0099334D01*
X0003171Y0103526D01*
X0003806Y0102891D01*
X0005341Y0102255D01*
X0007002Y0102255D01*
X0008536Y0102891D01*
X0009710Y0104065D01*
X0010346Y0105599D01*
X0010126Y0105067D02*
X0012217Y0105067D01*
X0012828Y0103869D02*
X0009514Y0103869D01*
X0008004Y0102670D02*
X0014339Y0102670D01*
X0014540Y0100273D02*
X0007802Y0100273D01*
X0009431Y0099075D02*
X0012912Y0099075D01*
X0012252Y0097876D02*
X0010091Y0097876D01*
X0010346Y0096678D02*
X0011996Y0096678D01*
X0012046Y0095479D02*
X0010296Y0095479D01*
X0009800Y0094281D02*
X0012543Y0094281D01*
X0013615Y0093082D02*
X0008727Y0093082D01*
X0009019Y0089487D02*
X0013324Y0089487D01*
X0012422Y0088288D02*
X0009920Y0088288D01*
X0010346Y0087089D02*
X0011996Y0087089D01*
X0011996Y0085891D02*
X0010346Y0085891D01*
X0010971Y0084692D02*
X0012372Y0084692D01*
X0012151Y0083494D02*
X0013203Y0083494D01*
X0019019Y0089487D02*
X0019971Y0089487D01*
X0019971Y0090685D02*
X0003171Y0090685D01*
X0003171Y0089487D02*
X0003324Y0089487D01*
X0003171Y0091884D02*
X0019971Y0091884D01*
X0019971Y0093082D02*
X0018727Y0093082D01*
X0019800Y0094281D02*
X0019971Y0094281D01*
X0024371Y0095479D02*
X0037971Y0095479D01*
X0037971Y0096678D02*
X0024371Y0096678D01*
X0024371Y0097876D02*
X0037971Y0097876D01*
X0037971Y0099075D02*
X0024371Y0099075D01*
X0022171Y0100351D02*
X0022171Y0087194D01*
X0019971Y0088288D02*
X0019920Y0088288D01*
X0025592Y0086884D02*
X0032971Y0079505D01*
X0032971Y0084105D01*
X0034260Y0085394D01*
X0034260Y0085394D01*
X0035751Y0086884D01*
X0034181Y0086884D01*
X0033387Y0087678D01*
X0032593Y0086884D01*
X0029181Y0086884D01*
X0028387Y0087678D01*
X0027593Y0086884D01*
X0025592Y0086884D01*
X0026585Y0085891D02*
X0034757Y0085891D01*
X0033976Y0087089D02*
X0032798Y0087089D01*
X0033559Y0084692D02*
X0027784Y0084692D01*
X0028982Y0083494D02*
X0032971Y0083494D01*
X0032971Y0082295D02*
X0030181Y0082295D01*
X0031379Y0081097D02*
X0032971Y0081097D01*
X0032971Y0079898D02*
X0032578Y0079898D01*
X0029951Y0076303D02*
X0028049Y0076303D01*
X0028171Y0077501D02*
X0028752Y0077501D01*
X0027325Y0075104D02*
X0031149Y0075104D01*
X0028976Y0087089D02*
X0027798Y0087089D01*
X0019888Y0078365D02*
X0019971Y0078282D01*
X0019971Y0078165D01*
X0019888Y0078365D01*
X0019971Y0073906D02*
X0019551Y0073906D01*
X0019971Y0072707D02*
X0018093Y0072707D01*
X0019971Y0071509D02*
X0003171Y0071509D01*
X0003171Y0072707D02*
X0004249Y0072707D01*
X0004630Y0070310D02*
X0003171Y0070310D01*
X0003171Y0063119D02*
X0003578Y0063119D01*
X0006171Y0056430D02*
X0011329Y0051194D01*
X0009476Y0049936D02*
X0008570Y0049936D01*
X0008299Y0051134D02*
X0003171Y0051134D01*
X0003171Y0049936D02*
X0003773Y0049936D01*
X0003171Y0052333D02*
X0005154Y0052333D01*
X0009734Y0048737D02*
X0012608Y0048737D01*
X0012112Y0047539D02*
X0010231Y0047539D01*
X0010346Y0046340D02*
X0011996Y0046340D01*
X0012186Y0045142D02*
X0010156Y0045142D01*
X0009588Y0043943D02*
X0012754Y0043943D01*
X0014159Y0042745D02*
X0008183Y0042745D01*
X0007623Y0040348D02*
X0014720Y0040348D01*
X0015341Y0040605D02*
X0013806Y0039969D01*
X0012632Y0038795D01*
X0011996Y0037260D01*
X0011996Y0035599D01*
X0012632Y0034065D01*
X0013806Y0032891D01*
X0015341Y0032255D01*
X0017002Y0032255D01*
X0018536Y0032891D01*
X0019710Y0034065D01*
X0020346Y0035599D01*
X0020346Y0037260D01*
X0019710Y0038795D01*
X0018536Y0039969D01*
X0017002Y0040605D01*
X0015341Y0040605D01*
X0017623Y0040348D02*
X0022971Y0040348D01*
X0022971Y0041546D02*
X0003171Y0041546D01*
X0003171Y0040348D02*
X0004720Y0040348D01*
X0004159Y0042745D02*
X0003171Y0042745D01*
X0009356Y0039149D02*
X0012986Y0039149D01*
X0012282Y0037951D02*
X0010060Y0037951D01*
X0010346Y0036752D02*
X0011996Y0036752D01*
X0012016Y0035554D02*
X0010327Y0035554D01*
X0009831Y0034355D02*
X0012512Y0034355D01*
X0013541Y0033156D02*
X0008802Y0033156D01*
X0008944Y0029561D02*
X0013398Y0029561D01*
X0013806Y0029969D02*
X0012632Y0028795D01*
X0011996Y0027260D01*
X0011996Y0025599D01*
X0012632Y0024065D01*
X0013806Y0022891D01*
X0015341Y0022255D01*
X0017002Y0022255D01*
X0018536Y0022891D01*
X0019710Y0024065D01*
X0020346Y0025599D01*
X0020346Y0027260D01*
X0019710Y0028795D01*
X0018536Y0029969D01*
X0017002Y0030605D01*
X0015341Y0030605D01*
X0013806Y0029969D01*
X0012453Y0028362D02*
X0009890Y0028362D01*
X0010346Y0027164D02*
X0011996Y0027164D01*
X0011996Y0025965D02*
X0010346Y0025965D01*
X0010001Y0024767D02*
X0012341Y0024767D01*
X0013129Y0023568D02*
X0009214Y0023568D01*
X0007279Y0022370D02*
X0015064Y0022370D01*
X0015341Y0020605D02*
X0013806Y0019969D01*
X0012632Y0018795D01*
X0011996Y0017260D01*
X0011996Y0015599D01*
X0012632Y0014065D01*
X0013806Y0012891D01*
X0015341Y0012255D01*
X0017002Y0012255D01*
X0018536Y0012891D01*
X0019710Y0014065D01*
X0020346Y0015599D01*
X0020346Y0017260D01*
X0019710Y0018795D01*
X0018536Y0019969D01*
X0017002Y0020605D01*
X0015341Y0020605D01*
X0013815Y0019973D02*
X0008527Y0019973D01*
X0009719Y0018774D02*
X0012624Y0018774D01*
X0012127Y0017576D02*
X0010215Y0017576D01*
X0010346Y0016377D02*
X0011996Y0016377D01*
X0012171Y0015179D02*
X0010172Y0015179D01*
X0009626Y0013980D02*
X0012717Y0013980D01*
X0014069Y0012782D02*
X0008273Y0012782D01*
X0007509Y0010385D02*
X0014810Y0010385D01*
X0017533Y0010385D02*
X0054869Y0010385D01*
X0055971Y0009282D02*
X0055971Y0009282D01*
X0056067Y0009186D02*
X0019319Y0009186D01*
X0020045Y0007988D02*
X0142288Y0007988D01*
X0142302Y0008032D02*
X0142099Y0007408D01*
X0141996Y0006758D01*
X0141996Y0006617D01*
X0145984Y0006617D01*
X0145984Y0010605D01*
X0145843Y0010605D01*
X0145194Y0010502D01*
X0144569Y0010299D01*
X0143983Y0010001D01*
X0143452Y0009614D01*
X0142987Y0009150D01*
X0142601Y0008618D01*
X0142302Y0008032D01*
X0142001Y0006789D02*
X0020346Y0006789D01*
X0020342Y0005591D02*
X0142077Y0005591D01*
X0143024Y0009186D02*
X0123275Y0009186D01*
X0124474Y0010385D02*
X0144833Y0010385D01*
X0145984Y0010385D02*
X0146359Y0010385D01*
X0147509Y0010385D02*
X0154833Y0010385D01*
X0154569Y0010299D02*
X0153983Y0010001D01*
X0153452Y0009614D01*
X0152987Y0009150D01*
X0152601Y0008618D01*
X0152302Y0008032D01*
X0152099Y0007408D01*
X0151996Y0006758D01*
X0151996Y0006617D01*
X0155984Y0006617D01*
X0155984Y0010605D01*
X0155843Y0010605D01*
X0155194Y0010502D01*
X0154569Y0010299D01*
X0155984Y0010385D02*
X0156359Y0010385D01*
X0157509Y0010385D02*
X0159171Y0010385D01*
X0159171Y0011583D02*
X0125672Y0011583D01*
X0126371Y0012782D02*
X0144069Y0012782D01*
X0142717Y0013980D02*
X0126371Y0013980D01*
X0126371Y0015179D02*
X0142171Y0015179D01*
X0141996Y0016377D02*
X0126371Y0016377D01*
X0126371Y0017576D02*
X0142127Y0017576D01*
X0142624Y0018774D02*
X0135495Y0018774D01*
X0138371Y0023394D02*
X0138371Y0025882D01*
X0140260Y0023994D01*
X0142703Y0023994D01*
X0143303Y0023394D01*
X0138371Y0023394D01*
X0138371Y0023568D02*
X0143129Y0023568D01*
X0141171Y0026194D02*
X0140171Y0027194D01*
X0140171Y0032194D01*
X0138171Y0034194D01*
X0138171Y0045194D01*
X0140944Y0046340D02*
X0141996Y0046340D01*
X0142112Y0047539D02*
X0140069Y0047539D01*
X0141171Y0045142D02*
X0142186Y0045142D01*
X0142754Y0043943D02*
X0140900Y0043943D01*
X0140371Y0042745D02*
X0144159Y0042745D01*
X0144720Y0040348D02*
X0140371Y0040348D01*
X0140371Y0041546D02*
X0159171Y0041546D01*
X0159171Y0040348D02*
X0157623Y0040348D01*
X0158183Y0042745D02*
X0159171Y0042745D01*
X0153398Y0029561D02*
X0148944Y0029561D01*
X0149890Y0028362D02*
X0152453Y0028362D01*
X0151996Y0027164D02*
X0150346Y0027164D01*
X0150346Y0025965D02*
X0151996Y0025965D01*
X0151348Y0024767D02*
X0150001Y0024767D01*
X0150132Y0023568D02*
X0149214Y0023568D01*
X0146171Y0026430D02*
X0145856Y0026194D01*
X0141171Y0026194D01*
X0139487Y0024767D02*
X0138371Y0024767D01*
X0134171Y0032194D02*
X0134171Y0048194D01*
X0136672Y0049936D02*
X0143773Y0049936D01*
X0142608Y0048737D02*
X0137171Y0048737D01*
X0138620Y0053531D02*
X0143166Y0053531D01*
X0142357Y0054730D02*
X0139819Y0054730D01*
X0141017Y0055928D02*
X0141996Y0055928D01*
X0138390Y0059524D02*
X0134519Y0059524D01*
X0134519Y0060722D02*
X0138971Y0060722D01*
X0138971Y0064318D02*
X0136974Y0064318D01*
X0137078Y0065516D02*
X0138971Y0065516D01*
X0138971Y0066715D02*
X0137078Y0066715D01*
X0137078Y0067913D02*
X0138971Y0067913D01*
X0141171Y0072194D02*
X0141171Y0150509D01*
X0146171Y0156430D01*
X0145149Y0151809D02*
X0159171Y0151809D01*
X0159171Y0150611D02*
X0144137Y0150611D01*
X0143371Y0142221D02*
X0159171Y0142221D01*
X0159171Y0141023D02*
X0143371Y0141023D01*
X0143371Y0139824D02*
X0143661Y0139824D01*
X0138971Y0138625D02*
X0124070Y0138625D01*
X0124070Y0137427D02*
X0138971Y0137427D01*
X0136298Y0139824D02*
X0123771Y0139824D01*
X0120511Y0139824D02*
X0119311Y0139824D01*
X0119311Y0138625D02*
X0120511Y0138625D01*
X0120511Y0137427D02*
X0119311Y0137427D01*
X0116371Y0131690D02*
X0116386Y0131681D01*
X0116371Y0131673D01*
X0116371Y0131690D01*
X0113031Y0132633D02*
X0111831Y0132633D01*
X0111831Y0133831D02*
X0113031Y0133831D01*
X0113031Y0135030D02*
X0111831Y0135030D01*
X0111831Y0136228D02*
X0107206Y0136228D01*
X0108272Y0135030D02*
X0106008Y0135030D01*
X0104809Y0133831D02*
X0108272Y0133831D01*
X0111831Y0131434D02*
X0112831Y0131434D01*
X0112831Y0130236D02*
X0111631Y0130236D01*
X0111631Y0129037D02*
X0112831Y0129037D01*
X0111631Y0127839D02*
X0098816Y0127839D01*
X0096904Y0129037D02*
X0077871Y0129037D01*
X0077871Y0129644D02*
X0077871Y0128183D01*
X0077762Y0127776D01*
X0077552Y0127411D01*
X0077254Y0127113D01*
X0076889Y0126903D01*
X0076482Y0126794D01*
X0072321Y0126794D01*
X0072321Y0129644D01*
X0077871Y0129644D01*
X0077871Y0130236D02*
X0098102Y0130236D01*
X0099301Y0131434D02*
X0077810Y0131434D01*
X0077779Y0127839D02*
X0095705Y0127839D01*
X0098722Y0132633D02*
X0100499Y0132633D01*
X0099920Y0133831D02*
X0101698Y0133831D01*
X0101119Y0135030D02*
X0102896Y0135030D01*
X0102852Y0136228D02*
X0104095Y0136228D01*
X0104647Y0137427D02*
X0105293Y0137427D01*
X0105171Y0138625D02*
X0106492Y0138625D01*
X0107690Y0139824D02*
X0105157Y0139824D01*
X0102171Y0139194D02*
X0097671Y0134694D01*
X0072271Y0134694D01*
X0072321Y0139644D02*
X0072321Y0139744D01*
X0077871Y0139744D01*
X0077871Y0141204D01*
X0077762Y0141611D01*
X0077552Y0141976D01*
X0077334Y0142194D01*
X0077634Y0142494D01*
X0087760Y0142494D01*
X0087971Y0142282D01*
X0089260Y0140994D01*
X0099729Y0140994D01*
X0099628Y0140893D01*
X0099171Y0139790D01*
X0099171Y0139305D01*
X0096760Y0136894D01*
X0077634Y0136894D01*
X0077334Y0137194D01*
X0077552Y0137411D01*
X0077762Y0137776D01*
X0077871Y0138183D01*
X0077871Y0139644D01*
X0072321Y0139644D01*
X0072271Y0144694D02*
X0088671Y0144694D01*
X0090171Y0143194D01*
X0137171Y0143194D01*
X0138171Y0142194D01*
X0143371Y0132633D02*
X0144429Y0132633D01*
X0143371Y0131434D02*
X0159171Y0131434D01*
X0159171Y0130236D02*
X0157892Y0130236D01*
X0157914Y0132633D02*
X0159171Y0132633D01*
X0159171Y0139824D02*
X0158681Y0139824D01*
X0159065Y0143420D02*
X0159171Y0143420D01*
X0159093Y0149412D02*
X0159171Y0149412D01*
X0159171Y0153008D02*
X0158653Y0153008D01*
X0154519Y0162596D02*
X0152685Y0162596D01*
X0150346Y0166480D02*
X0150346Y0167260D01*
X0149710Y0168795D01*
X0149297Y0169208D01*
X0150371Y0170282D01*
X0153371Y0173282D01*
X0153371Y0173326D01*
X0153452Y0173246D01*
X0153983Y0172859D01*
X0154569Y0172561D01*
X0155194Y0172358D01*
X0155843Y0172255D01*
X0155984Y0172255D01*
X0155984Y0176242D01*
X0156359Y0176242D01*
X0156359Y0172255D01*
X0156500Y0172255D01*
X0157149Y0172358D01*
X0157774Y0172561D01*
X0158359Y0172859D01*
X0158891Y0173246D01*
X0159171Y0173526D01*
X0159171Y0169334D01*
X0158536Y0169969D01*
X0157002Y0170605D01*
X0155341Y0170605D01*
X0153806Y0169969D01*
X0152632Y0168795D01*
X0152564Y0168630D01*
X0152496Y0168630D01*
X0150346Y0166480D01*
X0150292Y0167390D02*
X0151256Y0167390D01*
X0152455Y0168588D02*
X0149796Y0168588D01*
X0149876Y0169787D02*
X0153624Y0169787D01*
X0151074Y0170985D02*
X0159171Y0170985D01*
X0159171Y0169787D02*
X0158718Y0169787D01*
X0159171Y0172184D02*
X0152273Y0172184D01*
X0151171Y0174194D02*
X0148171Y0171194D01*
X0144171Y0171194D01*
X0130171Y0157194D01*
X0130911Y0157194D01*
X0130171Y0157194D02*
X0129171Y0157194D01*
X0127340Y0161397D02*
X0127002Y0161397D01*
X0125349Y0162596D02*
X0124119Y0162596D01*
X0124385Y0163794D02*
X0125122Y0163794D01*
X0125122Y0164993D02*
X0124385Y0164993D01*
X0124385Y0166191D02*
X0125122Y0166191D01*
X0125122Y0167390D02*
X0124385Y0167390D01*
X0124385Y0169787D02*
X0125122Y0169787D01*
X0125122Y0170985D02*
X0124385Y0170985D01*
X0124385Y0172184D02*
X0125122Y0172184D01*
X0125122Y0173382D02*
X0124385Y0173382D01*
X0124137Y0174581D02*
X0125319Y0174581D01*
X0125171Y0175779D02*
X0115868Y0175779D01*
X0114670Y0174581D02*
X0117497Y0174581D01*
X0117248Y0173382D02*
X0113471Y0173382D01*
X0112273Y0172184D02*
X0117248Y0172184D01*
X0117248Y0170985D02*
X0111074Y0170985D01*
X0109171Y0172194D02*
X0102987Y0172194D01*
X0102534Y0171740D01*
X0094125Y0171740D01*
X0087717Y0171740D01*
X0086171Y0172194D01*
X0086171Y0152934D01*
X0083971Y0154746D02*
X0080209Y0154746D01*
X0079272Y0153809D01*
X0079272Y0151894D01*
X0077634Y0151894D01*
X0077334Y0152194D01*
X0077871Y0152731D01*
X0077871Y0156656D01*
X0077334Y0157194D01*
X0077552Y0157411D01*
X0077762Y0157776D01*
X0077871Y0158183D01*
X0077871Y0159644D01*
X0072321Y0159644D01*
X0072321Y0159744D01*
X0077871Y0159744D01*
X0077871Y0161204D01*
X0077762Y0161611D01*
X0077552Y0161976D01*
X0077334Y0162194D01*
X0077871Y0162731D01*
X0077871Y0166656D01*
X0076934Y0167594D01*
X0074471Y0167594D01*
X0074471Y0188005D01*
X0072863Y0189613D01*
X0073021Y0189771D01*
X0073021Y0194617D01*
X0070244Y0197394D01*
X0107581Y0197394D01*
X0107012Y0196825D01*
X0107012Y0182267D01*
X0106977Y0182397D01*
X0106767Y0182762D01*
X0106469Y0183060D01*
X0106104Y0183270D01*
X0105697Y0183379D01*
X0103134Y0183379D01*
X0103134Y0179820D01*
X0107086Y0179820D01*
X0107086Y0181990D01*
X0107068Y0182058D01*
X0107949Y0181176D01*
X0115043Y0181176D01*
X0108260Y0174394D01*
X0107086Y0174394D01*
X0107086Y0174962D01*
X0106568Y0175480D01*
X0106767Y0175679D01*
X0106977Y0176044D01*
X0107086Y0176451D01*
X0107086Y0178620D01*
X0103134Y0178620D01*
X0103134Y0179820D01*
X0101934Y0179820D01*
X0101934Y0183379D01*
X0099370Y0183379D01*
X0098963Y0183270D01*
X0098599Y0183060D01*
X0098329Y0182790D01*
X0098060Y0183060D01*
X0097695Y0183270D01*
X0097288Y0183379D01*
X0094725Y0183379D01*
X0094725Y0179820D01*
X0098678Y0179820D01*
X0101934Y0179820D01*
X0101934Y0178620D01*
X0094725Y0178620D01*
X0094725Y0179820D01*
X0093525Y0179820D01*
X0093525Y0178620D01*
X0089572Y0178620D01*
X0089572Y0176451D01*
X0089681Y0176044D01*
X0089892Y0175679D01*
X0090090Y0175480D01*
X0089572Y0174962D01*
X0089572Y0173940D01*
X0088668Y0173940D01*
X0087871Y0174737D01*
X0086768Y0175194D01*
X0085575Y0175194D01*
X0084472Y0174737D01*
X0083628Y0173893D01*
X0083171Y0172790D01*
X0083171Y0171597D01*
X0083628Y0170494D01*
X0083971Y0170151D01*
X0083971Y0154746D01*
X0083971Y0155405D02*
X0077871Y0155405D01*
X0077871Y0156603D02*
X0083971Y0156603D01*
X0083971Y0157802D02*
X0077769Y0157802D01*
X0077871Y0159000D02*
X0083971Y0159000D01*
X0083971Y0160199D02*
X0077871Y0160199D01*
X0077820Y0161397D02*
X0083971Y0161397D01*
X0083971Y0162596D02*
X0077736Y0162596D01*
X0077871Y0163794D02*
X0083971Y0163794D01*
X0083971Y0164993D02*
X0077871Y0164993D01*
X0077871Y0166191D02*
X0083971Y0166191D01*
X0083971Y0167390D02*
X0077138Y0167390D01*
X0074471Y0168588D02*
X0083971Y0168588D01*
X0083971Y0169787D02*
X0074471Y0169787D01*
X0074471Y0170985D02*
X0083425Y0170985D01*
X0083171Y0172184D02*
X0074471Y0172184D01*
X0074471Y0173382D02*
X0083416Y0173382D01*
X0084316Y0174581D02*
X0074471Y0174581D01*
X0074471Y0175779D02*
X0089834Y0175779D01*
X0089572Y0174581D02*
X0088027Y0174581D01*
X0089572Y0176978D02*
X0074471Y0176978D01*
X0074471Y0178176D02*
X0089572Y0178176D01*
X0089572Y0179820D02*
X0093525Y0179820D01*
X0093525Y0183379D01*
X0090961Y0183379D01*
X0090554Y0183270D01*
X0090190Y0183060D01*
X0089892Y0182762D01*
X0089681Y0182397D01*
X0089572Y0181990D01*
X0089572Y0179820D01*
X0089572Y0180573D02*
X0074471Y0180573D01*
X0074471Y0179375D02*
X0093525Y0179375D01*
X0093525Y0180573D02*
X0094725Y0180573D01*
X0094725Y0179375D02*
X0101934Y0179375D01*
X0101934Y0180573D02*
X0103134Y0180573D01*
X0103134Y0179375D02*
X0113241Y0179375D01*
X0112043Y0178176D02*
X0107086Y0178176D01*
X0107086Y0176978D02*
X0110844Y0176978D01*
X0109646Y0175779D02*
X0106825Y0175779D01*
X0107086Y0174581D02*
X0108447Y0174581D01*
X0109171Y0172194D02*
X0116171Y0179194D01*
X0139171Y0179194D01*
X0141171Y0181194D01*
X0147171Y0181194D01*
X0151171Y0185194D01*
X0151171Y0191509D01*
X0156171Y0196430D01*
X0157734Y0192558D02*
X0159171Y0192558D01*
X0158536Y0192891D02*
X0159171Y0193526D01*
X0159171Y0189334D01*
X0158536Y0189969D01*
X0157002Y0190605D01*
X0155341Y0190605D01*
X0153806Y0189969D01*
X0153371Y0189534D01*
X0153371Y0190587D01*
X0155147Y0192335D01*
X0155341Y0192255D01*
X0157002Y0192255D01*
X0158536Y0192891D01*
X0159171Y0191360D02*
X0154156Y0191360D01*
X0154271Y0190161D02*
X0153371Y0190161D01*
X0156171Y0186430D02*
X0151171Y0181509D01*
X0151171Y0174194D01*
X0148971Y0179534D02*
X0148797Y0179708D01*
X0148971Y0179882D01*
X0148971Y0179534D01*
X0153371Y0179534D02*
X0153371Y0180587D01*
X0155147Y0182335D01*
X0155341Y0182255D01*
X0157002Y0182255D01*
X0158536Y0182891D01*
X0159171Y0183526D01*
X0159171Y0179334D01*
X0158891Y0179614D01*
X0158359Y0180001D01*
X0157774Y0180299D01*
X0157149Y0180502D01*
X0156500Y0180605D01*
X0156359Y0180605D01*
X0156359Y0176617D01*
X0155984Y0176617D01*
X0155984Y0180605D01*
X0155843Y0180605D01*
X0155194Y0180502D01*
X0154569Y0180299D01*
X0153983Y0180001D01*
X0153452Y0179614D01*
X0153371Y0179534D01*
X0153371Y0180573D02*
X0155645Y0180573D01*
X0155984Y0180573D02*
X0156359Y0180573D01*
X0156698Y0180573D02*
X0159171Y0180573D01*
X0159130Y0179375D02*
X0159171Y0179375D01*
X0159171Y0181772D02*
X0154575Y0181772D01*
X0155984Y0179375D02*
X0156359Y0179375D01*
X0156359Y0178176D02*
X0155984Y0178176D01*
X0155984Y0176978D02*
X0156359Y0176978D01*
X0156359Y0175779D02*
X0155984Y0175779D01*
X0155984Y0174581D02*
X0156359Y0174581D01*
X0156359Y0173382D02*
X0155984Y0173382D01*
X0159028Y0173382D02*
X0159171Y0173382D01*
X0159171Y0182970D02*
X0158616Y0182970D01*
X0158072Y0190161D02*
X0159171Y0190161D01*
X0152053Y0195463D02*
X0150346Y0193783D01*
X0150346Y0196242D01*
X0146359Y0196242D01*
X0146359Y0192255D01*
X0148957Y0192255D01*
X0148971Y0192259D01*
X0148971Y0191518D01*
X0148964Y0190615D01*
X0148971Y0190608D01*
X0148971Y0189534D01*
X0148536Y0189969D01*
X0147002Y0190605D01*
X0145341Y0190605D01*
X0143806Y0189969D01*
X0142632Y0188795D01*
X0142496Y0188465D01*
X0142496Y0192693D01*
X0142614Y0192575D01*
X0142979Y0192364D01*
X0143386Y0192255D01*
X0145984Y0192255D01*
X0145984Y0196242D01*
X0146359Y0196242D01*
X0146359Y0196617D01*
X0150346Y0196617D01*
X0150346Y0197394D01*
X0152052Y0197394D01*
X0151996Y0197260D01*
X0151996Y0195599D01*
X0152053Y0195463D01*
X0151996Y0196154D02*
X0150346Y0196154D01*
X0150346Y0194956D02*
X0151537Y0194956D01*
X0152035Y0197353D02*
X0150346Y0197353D01*
X0146359Y0196154D02*
X0145984Y0196154D01*
X0145984Y0194956D02*
X0146359Y0194956D01*
X0146359Y0193757D02*
X0145984Y0193757D01*
X0145984Y0192558D02*
X0146359Y0192558D01*
X0148970Y0191360D02*
X0142496Y0191360D01*
X0142496Y0192558D02*
X0142642Y0192558D01*
X0142496Y0190161D02*
X0144271Y0190161D01*
X0142800Y0188963D02*
X0142496Y0188963D01*
X0142496Y0184394D02*
X0142496Y0183394D01*
X0143303Y0183394D01*
X0142632Y0184065D01*
X0142496Y0184394D01*
X0142496Y0184169D02*
X0142589Y0184169D01*
X0142376Y0178176D02*
X0141265Y0178176D01*
X0134110Y0181394D02*
X0115398Y0181394D01*
X0116118Y0182114D01*
X0116118Y0196825D01*
X0115549Y0197394D01*
X0133959Y0197394D01*
X0133390Y0196825D01*
X0133390Y0182114D01*
X0134110Y0181394D01*
X0133732Y0181772D02*
X0115776Y0181772D01*
X0116118Y0182970D02*
X0133390Y0182970D01*
X0133390Y0184169D02*
X0116118Y0184169D01*
X0116118Y0185367D02*
X0133390Y0185367D01*
X0133390Y0186566D02*
X0116118Y0186566D01*
X0116118Y0187764D02*
X0133390Y0187764D01*
X0133390Y0188963D02*
X0116118Y0188963D01*
X0116118Y0190161D02*
X0133390Y0190161D01*
X0133390Y0191360D02*
X0116118Y0191360D01*
X0116118Y0192558D02*
X0133390Y0192558D01*
X0133390Y0193757D02*
X0116118Y0193757D01*
X0116118Y0194956D02*
X0133390Y0194956D01*
X0133390Y0196154D02*
X0116118Y0196154D01*
X0115590Y0197353D02*
X0133918Y0197353D01*
X0141927Y0197394D02*
X0141996Y0197324D01*
X0141996Y0197394D01*
X0141927Y0197394D01*
X0141968Y0197353D02*
X0141996Y0197353D01*
X0148072Y0190161D02*
X0148971Y0190161D01*
X0142248Y0164993D02*
X0141082Y0164993D01*
X0139883Y0163794D02*
X0142903Y0163794D01*
X0139462Y0162596D02*
X0138685Y0162596D01*
X0134971Y0153479D02*
X0134971Y0153105D01*
X0134873Y0153007D01*
X0134686Y0153194D01*
X0134971Y0153479D01*
X0134874Y0153008D02*
X0134872Y0153008D01*
X0123431Y0149194D02*
X0114911Y0149194D01*
X0119070Y0151394D02*
X0119070Y0152809D01*
X0118686Y0153194D01*
X0119070Y0153578D01*
X0119070Y0154994D01*
X0119272Y0154994D01*
X0119272Y0153578D01*
X0119657Y0153194D01*
X0119272Y0152809D01*
X0119272Y0151394D01*
X0119070Y0151394D01*
X0119070Y0151809D02*
X0119272Y0151809D01*
X0119470Y0153008D02*
X0118872Y0153008D01*
X0119070Y0154206D02*
X0119272Y0154206D01*
X0123431Y0157194D02*
X0114911Y0157194D01*
X0119070Y0160199D02*
X0119272Y0160199D01*
X0119860Y0161397D02*
X0118482Y0161397D01*
X0120433Y0162596D02*
X0121201Y0162596D01*
X0121201Y0163794D02*
X0120433Y0163794D01*
X0120433Y0164993D02*
X0121201Y0164993D01*
X0121201Y0166191D02*
X0120433Y0166191D01*
X0120433Y0167390D02*
X0121201Y0167390D01*
X0121201Y0169787D02*
X0120433Y0169787D01*
X0120433Y0170985D02*
X0121201Y0170985D01*
X0121201Y0172184D02*
X0120433Y0172184D01*
X0120433Y0173382D02*
X0121201Y0173382D01*
X0121201Y0174581D02*
X0120433Y0174581D01*
X0117067Y0176978D02*
X0125249Y0176978D01*
X0114440Y0180573D02*
X0107086Y0180573D01*
X0107086Y0181772D02*
X0107354Y0181772D01*
X0107012Y0182970D02*
X0106558Y0182970D01*
X0107012Y0184169D02*
X0074471Y0184169D01*
X0074471Y0185367D02*
X0107012Y0185367D01*
X0107012Y0186566D02*
X0074471Y0186566D01*
X0074471Y0187764D02*
X0107012Y0187764D01*
X0107012Y0188963D02*
X0073513Y0188963D01*
X0073021Y0190161D02*
X0107012Y0190161D01*
X0107012Y0191360D02*
X0073021Y0191360D01*
X0073021Y0192558D02*
X0107012Y0192558D01*
X0107012Y0193757D02*
X0073021Y0193757D01*
X0072683Y0194956D02*
X0107012Y0194956D01*
X0107012Y0196154D02*
X0071484Y0196154D01*
X0070286Y0197353D02*
X0107540Y0197353D01*
X0103134Y0182970D02*
X0101934Y0182970D01*
X0101934Y0181772D02*
X0103134Y0181772D01*
X0098509Y0182970D02*
X0098149Y0182970D01*
X0094725Y0182970D02*
X0093525Y0182970D01*
X0093525Y0181772D02*
X0094725Y0181772D01*
X0090100Y0182970D02*
X0074471Y0182970D01*
X0074471Y0181772D02*
X0089572Y0181772D01*
X0098159Y0175480D02*
X0098329Y0175650D01*
X0098499Y0175480D01*
X0098329Y0175310D01*
X0098159Y0175480D01*
X0111002Y0161397D02*
X0111340Y0161397D01*
X0107431Y0157194D02*
X0100171Y0157194D01*
X0099545Y0154206D02*
X0094674Y0154206D01*
X0094751Y0154129D02*
X0094453Y0154427D01*
X0094088Y0154637D01*
X0093681Y0154746D01*
X0091511Y0154746D01*
X0091511Y0150794D01*
X0095070Y0150794D01*
X0095070Y0153357D01*
X0094961Y0153764D01*
X0094751Y0154129D01*
X0095070Y0153008D02*
X0103470Y0153008D01*
X0103272Y0154206D02*
X0100798Y0154206D01*
X0100646Y0151809D02*
X0095070Y0151809D01*
X0095070Y0149412D02*
X0099171Y0149412D01*
X0099330Y0148214D02*
X0095070Y0148214D01*
X0095066Y0147015D02*
X0100107Y0147015D01*
X0102171Y0149194D02*
X0107431Y0149194D01*
X0103272Y0145817D02*
X0094203Y0145817D01*
X0091511Y0145817D02*
X0090660Y0145817D01*
X0090311Y0147015D02*
X0091511Y0147015D01*
X0091511Y0148214D02*
X0090311Y0148214D01*
X0090311Y0149412D02*
X0091511Y0149412D01*
X0091511Y0150611D02*
X0099511Y0150611D01*
X0091511Y0151809D02*
X0090311Y0151809D01*
X0090311Y0153008D02*
X0091511Y0153008D01*
X0091511Y0154206D02*
X0090311Y0154206D01*
X0088033Y0142221D02*
X0077361Y0142221D01*
X0077871Y0141023D02*
X0089231Y0141023D01*
X0097293Y0137427D02*
X0077561Y0137427D01*
X0077871Y0138625D02*
X0098492Y0138625D01*
X0099185Y0139824D02*
X0077871Y0139824D01*
X0077634Y0146894D02*
X0077334Y0147194D01*
X0077634Y0147494D01*
X0079272Y0147494D01*
X0079272Y0146894D01*
X0077634Y0146894D01*
X0077513Y0147015D02*
X0079272Y0147015D01*
X0079272Y0153008D02*
X0077871Y0153008D01*
X0077871Y0154206D02*
X0079669Y0154206D01*
X0072321Y0129037D02*
X0072221Y0129037D01*
X0072221Y0127839D02*
X0072321Y0127839D01*
X0054171Y0108194D02*
X0054171Y0103194D01*
X0056171Y0101194D01*
X0056171Y0080194D01*
X0057171Y0079194D01*
X0079171Y0079194D01*
X0077851Y0081394D02*
X0058371Y0081394D01*
X0058371Y0083278D01*
X0058575Y0083194D01*
X0059768Y0083194D01*
X0060871Y0083650D01*
X0061214Y0083994D01*
X0075260Y0083994D01*
X0077602Y0081652D01*
X0077851Y0081394D01*
X0076958Y0082295D02*
X0058371Y0082295D01*
X0060493Y0083494D02*
X0075760Y0083494D01*
X0084481Y0091884D02*
X0106171Y0091884D01*
X0106171Y0093082D02*
X0083283Y0093082D01*
X0082084Y0094281D02*
X0106171Y0094281D01*
X0106171Y0095479D02*
X0080886Y0095479D01*
X0079687Y0096678D02*
X0106171Y0096678D01*
X0106171Y0097876D02*
X0078489Y0097876D01*
X0077171Y0103869D02*
X0087941Y0103869D01*
X0088541Y0103788D02*
X0090577Y0103788D01*
X0091171Y0103194D01*
X0096171Y0103194D01*
X0104171Y0103194D01*
X0101952Y0102670D02*
X0106648Y0102670D01*
X0106171Y0101472D02*
X0101952Y0101472D01*
X0101952Y0100273D02*
X0106171Y0100273D01*
X0106171Y0099075D02*
X0101752Y0099075D01*
X0101952Y0105067D02*
X0109045Y0105067D01*
X0108955Y0106266D02*
X0101952Y0106266D01*
X0102442Y0107464D02*
X0108717Y0107464D01*
X0108717Y0109076D02*
X0111301Y0109076D01*
X0112156Y0105067D02*
X0116071Y0105067D01*
X0115661Y0103869D02*
X0110957Y0103869D01*
X0107846Y0103869D02*
X0089141Y0103869D01*
X0089141Y0102670D02*
X0087941Y0102670D01*
X0087941Y0101472D02*
X0089141Y0101472D01*
X0089141Y0100273D02*
X0087941Y0100273D01*
X0087941Y0099075D02*
X0089141Y0099075D01*
X0109371Y0084692D02*
X0113391Y0084692D01*
X0114590Y0083494D02*
X0109371Y0083494D01*
X0109371Y0082295D02*
X0114845Y0082295D01*
X0114845Y0081097D02*
X0109371Y0081097D01*
X0109371Y0079898D02*
X0114845Y0079898D01*
X0114845Y0078700D02*
X0109371Y0078700D01*
X0109371Y0077501D02*
X0114845Y0077501D01*
X0116167Y0076302D02*
X0116175Y0076302D01*
X0116171Y0076298D01*
X0116167Y0076302D01*
X0113031Y0076303D02*
X0111831Y0076303D01*
X0111831Y0075104D02*
X0113031Y0075104D01*
X0113031Y0073906D02*
X0111831Y0073906D01*
X0108696Y0076303D02*
X0108392Y0076303D01*
X0115770Y0067914D02*
X0115973Y0068031D01*
X0116171Y0068229D01*
X0116487Y0067914D01*
X0116171Y0067598D01*
X0115973Y0067797D01*
X0115770Y0067914D01*
X0115771Y0067913D02*
X0116486Y0067913D01*
X0127171Y0073194D02*
X0128982Y0071383D01*
X0128982Y0066463D01*
X0131352Y0069112D02*
X0131731Y0069112D01*
X0131900Y0070310D02*
X0131182Y0070310D01*
X0131182Y0071509D02*
X0132375Y0071509D01*
X0133574Y0072707D02*
X0130769Y0072707D01*
X0131140Y0073906D02*
X0138971Y0073906D01*
X0138971Y0075104D02*
X0137214Y0075104D01*
X0137214Y0076303D02*
X0138971Y0076303D01*
X0138971Y0077501D02*
X0137214Y0077501D01*
X0137214Y0078700D02*
X0138971Y0078700D01*
X0138971Y0079898D02*
X0137214Y0079898D01*
X0137214Y0081097D02*
X0138971Y0081097D01*
X0138971Y0082295D02*
X0137054Y0082295D01*
X0137214Y0083494D02*
X0138971Y0083494D01*
X0138971Y0084692D02*
X0137214Y0084692D01*
X0133064Y0088288D02*
X0131864Y0088288D01*
X0131864Y0089487D02*
X0133064Y0089487D01*
X0131781Y0094194D02*
X0132171Y0094583D01*
X0128781Y0094583D01*
X0126171Y0097194D01*
X0126171Y0102194D01*
X0124171Y0104194D01*
X0119171Y0104194D01*
X0115041Y0106266D02*
X0115041Y0106266D01*
X0115041Y0107464D02*
X0115041Y0107464D01*
X0110543Y0114655D02*
X0119539Y0114655D01*
X0123275Y0111060D02*
X0125194Y0111060D01*
X0124474Y0109861D02*
X0126392Y0109861D01*
X0125672Y0108663D02*
X0127591Y0108663D01*
X0127789Y0107464D02*
X0126871Y0107464D01*
X0124171Y0099194D02*
X0119171Y0099194D01*
X0118411Y0098964D02*
X0118411Y0090264D01*
X0119171Y0091194D02*
X0123171Y0091194D01*
X0126171Y0094194D02*
X0131781Y0094194D01*
X0127714Y0087089D02*
X0127037Y0087089D01*
X0132464Y0078079D02*
X0128056Y0074079D01*
X0127171Y0073194D01*
X0134519Y0058325D02*
X0137192Y0058325D01*
X0135993Y0057127D02*
X0134507Y0057127D01*
X0134795Y0055928D02*
X0133741Y0055928D01*
X0143371Y0060722D02*
X0159171Y0060722D01*
X0159171Y0059524D02*
X0158981Y0059524D01*
X0159171Y0061921D02*
X0143371Y0061921D01*
X0143371Y0063119D02*
X0143578Y0063119D01*
X0143371Y0070310D02*
X0144630Y0070310D01*
X0143371Y0071509D02*
X0159171Y0071509D01*
X0159171Y0072707D02*
X0158093Y0072707D01*
X0157712Y0070310D02*
X0159171Y0070310D01*
X0159171Y0063119D02*
X0158765Y0063119D01*
X0144249Y0072707D02*
X0143371Y0072707D01*
X0143371Y0079898D02*
X0143736Y0079898D01*
X0149139Y0083494D02*
X0153203Y0083494D01*
X0152372Y0084692D02*
X0149970Y0084692D01*
X0150346Y0085891D02*
X0151996Y0085891D01*
X0151996Y0087089D02*
X0150346Y0087089D01*
X0149920Y0088288D02*
X0152422Y0088288D01*
X0153324Y0089487D02*
X0149019Y0089487D01*
X0143677Y0093082D02*
X0143371Y0093082D01*
X0143371Y0100273D02*
X0144518Y0100273D01*
X0143371Y0101472D02*
X0159171Y0101472D01*
X0159171Y0102670D02*
X0158004Y0102670D01*
X0157824Y0100273D02*
X0159171Y0100273D01*
X0153240Y0113457D02*
X0149102Y0113457D01*
X0149955Y0114655D02*
X0152388Y0114655D01*
X0151996Y0115854D02*
X0150346Y0115854D01*
X0150346Y0117052D02*
X0151996Y0117052D01*
X0152407Y0118251D02*
X0149936Y0118251D01*
X0149056Y0119449D02*
X0153287Y0119449D01*
X0144450Y0130236D02*
X0143371Y0130236D01*
X0143371Y0123045D02*
X0143652Y0123045D01*
X0138971Y0121846D02*
X0136830Y0121846D01*
X0137151Y0120648D02*
X0138971Y0120648D01*
X0138971Y0119449D02*
X0137151Y0119449D01*
X0133001Y0120648D02*
X0131801Y0120648D01*
X0131801Y0121846D02*
X0133001Y0121846D01*
X0143371Y0109861D02*
X0143698Y0109861D01*
X0138971Y0105067D02*
X0136858Y0105067D01*
X0136921Y0103869D02*
X0138971Y0103869D01*
X0138971Y0102670D02*
X0136921Y0102670D01*
X0143371Y0102670D02*
X0144339Y0102670D01*
X0116888Y0121846D02*
X0116371Y0121846D01*
X0112831Y0124243D02*
X0111631Y0124243D01*
X0111631Y0125442D02*
X0112831Y0125442D01*
X0112831Y0126640D02*
X0111631Y0126640D01*
X0118886Y0145394D02*
X0119070Y0145578D01*
X0119070Y0146994D01*
X0119272Y0146994D01*
X0119272Y0145578D01*
X0119457Y0145394D01*
X0118886Y0145394D01*
X0119070Y0145817D02*
X0119272Y0145817D01*
X0053272Y0124243D02*
X0053233Y0124243D01*
X0049971Y0120994D02*
X0049971Y0119394D01*
X0049214Y0119394D01*
X0048871Y0119737D01*
X0047768Y0120194D01*
X0046575Y0120194D01*
X0045734Y0119846D01*
X0045715Y0119893D01*
X0044871Y0120737D01*
X0044251Y0120994D01*
X0049971Y0120994D01*
X0049971Y0120648D02*
X0044960Y0120648D01*
X0043171Y0118194D02*
X0043171Y0103194D01*
X0050171Y0096194D01*
X0047171Y0087194D02*
X0046171Y0086194D01*
X0045971Y0081882D02*
X0045971Y0078505D01*
X0044371Y0080105D01*
X0044371Y0080282D01*
X0045971Y0081882D01*
X0045971Y0081097D02*
X0045186Y0081097D01*
X0044578Y0079898D02*
X0045971Y0079898D01*
X0045971Y0078700D02*
X0045776Y0078700D01*
X0041936Y0064318D02*
X0040290Y0064318D01*
X0038171Y0062194D02*
X0039171Y0061194D01*
X0070171Y0061194D01*
X0083738Y0047627D01*
X0083738Y0036800D01*
X0085707Y0036800D02*
X0085707Y0017729D01*
X0085171Y0017194D01*
X0087171Y0017194D01*
X0085171Y0017194D02*
X0071171Y0017194D01*
X0071927Y0017950D01*
X0071171Y0017194D02*
X0056171Y0017194D01*
X0057496Y0013980D02*
X0103427Y0013980D01*
X0104341Y0012782D02*
X0058694Y0012782D01*
X0053670Y0011583D02*
X0003171Y0011583D01*
X0003171Y0010385D02*
X0004833Y0010385D01*
X0005984Y0010385D02*
X0006359Y0010385D01*
X0006359Y0009186D02*
X0005984Y0009186D01*
X0005984Y0007988D02*
X0006359Y0007988D01*
X0006359Y0006789D02*
X0005984Y0006789D01*
X0009319Y0009186D02*
X0013024Y0009186D01*
X0012298Y0007988D02*
X0010055Y0007988D01*
X0010341Y0006789D02*
X0011996Y0006789D01*
X0012000Y0005591D02*
X0010265Y0005591D01*
X0004069Y0012782D02*
X0003171Y0012782D01*
X0003171Y0019973D02*
X0003815Y0019973D01*
X0003171Y0021171D02*
X0033713Y0021171D01*
X0033713Y0019973D02*
X0018527Y0019973D01*
X0019719Y0018774D02*
X0033950Y0018774D01*
X0033713Y0019011D02*
X0034650Y0018074D01*
X0043062Y0018074D01*
X0044000Y0019011D01*
X0044000Y0028998D01*
X0043062Y0029935D01*
X0034650Y0029935D01*
X0033713Y0028998D01*
X0033713Y0019011D01*
X0033713Y0022370D02*
X0017279Y0022370D01*
X0019214Y0023568D02*
X0033713Y0023568D01*
X0033713Y0024767D02*
X0020001Y0024767D01*
X0020346Y0025965D02*
X0033713Y0025965D01*
X0033713Y0027164D02*
X0020346Y0027164D01*
X0019890Y0028362D02*
X0033713Y0028362D01*
X0034276Y0029561D02*
X0018944Y0029561D01*
X0018802Y0033156D02*
X0044568Y0033156D01*
X0044146Y0034355D02*
X0019831Y0034355D01*
X0020327Y0035554D02*
X0023706Y0035554D01*
X0022521Y0036752D02*
X0020346Y0036752D01*
X0020060Y0037951D02*
X0022171Y0037951D01*
X0022320Y0039149D02*
X0019356Y0039149D01*
X0018183Y0042745D02*
X0022971Y0042745D01*
X0022971Y0043943D02*
X0019588Y0043943D01*
X0020156Y0045142D02*
X0022112Y0045142D01*
X0020914Y0046340D02*
X0020346Y0046340D01*
X0003541Y0033156D02*
X0003171Y0033156D01*
X0003171Y0031958D02*
X0050042Y0031958D01*
X0050042Y0030759D02*
X0003171Y0030759D01*
X0003171Y0029561D02*
X0003398Y0029561D01*
X0003171Y0022370D02*
X0005064Y0022370D01*
X0018273Y0012782D02*
X0052472Y0012782D01*
X0051273Y0013980D02*
X0019626Y0013980D01*
X0020172Y0015179D02*
X0050075Y0015179D01*
X0050042Y0016377D02*
X0020346Y0016377D01*
X0020215Y0017576D02*
X0050042Y0017576D01*
X0050042Y0018774D02*
X0043763Y0018774D01*
X0044000Y0019973D02*
X0050042Y0019973D01*
X0050042Y0021171D02*
X0044000Y0021171D01*
X0044000Y0022370D02*
X0050042Y0022370D01*
X0050042Y0023568D02*
X0044000Y0023568D01*
X0044000Y0024767D02*
X0050042Y0024767D01*
X0050042Y0025965D02*
X0044000Y0025965D01*
X0044000Y0027164D02*
X0050042Y0027164D01*
X0050042Y0028362D02*
X0044000Y0028362D01*
X0043437Y0029561D02*
X0050042Y0029561D01*
X0046337Y0032641D02*
X0046337Y0033356D01*
X0046337Y0033356D01*
X0046337Y0032641D01*
X0046337Y0033156D02*
X0046337Y0033156D01*
X0054211Y0040348D02*
X0054211Y0040348D01*
X0064053Y0036800D02*
X0064053Y0031312D01*
X0065171Y0030194D01*
X0067990Y0025013D02*
X0064171Y0021194D01*
X0070190Y0025965D02*
X0070508Y0025965D01*
X0076009Y0027164D02*
X0088899Y0027164D01*
X0088244Y0025965D02*
X0077425Y0025965D01*
X0078011Y0024767D02*
X0088171Y0024767D01*
X0088597Y0023568D02*
X0078227Y0023568D01*
X0078152Y0022370D02*
X0090149Y0022370D01*
X0091171Y0025194D02*
X0096171Y0030194D01*
X0102171Y0030194D01*
X0103423Y0031446D01*
X0103423Y0036800D01*
X0105392Y0036800D02*
X0105392Y0029414D01*
X0104171Y0028194D01*
X0103171Y0028194D01*
X0100171Y0025194D01*
X0099149Y0022370D02*
X0092193Y0022370D01*
X0093745Y0023568D02*
X0097597Y0023568D01*
X0097171Y0024767D02*
X0094171Y0024767D01*
X0095054Y0025965D02*
X0097244Y0025965D01*
X0097899Y0027164D02*
X0096253Y0027164D01*
X0092171Y0032194D02*
X0101171Y0032194D01*
X0101455Y0032477D01*
X0101455Y0036800D01*
X0101686Y0040959D02*
X0101686Y0044567D01*
X0105295Y0040959D01*
X0104138Y0040959D01*
X0101686Y0040959D01*
X0101686Y0041546D02*
X0104708Y0041546D01*
X0103509Y0042745D02*
X0101686Y0042745D01*
X0101686Y0043943D02*
X0102311Y0043943D01*
X0107360Y0036800D02*
X0107360Y0029005D01*
X0109171Y0027194D01*
X0109171Y0026194D01*
X0110171Y0025194D01*
X0112171Y0027194D02*
X0109329Y0030036D01*
X0109329Y0036800D01*
X0111297Y0036800D02*
X0111297Y0033068D01*
X0115171Y0029194D01*
X0115234Y0033131D02*
X0115234Y0036800D01*
X0115234Y0033156D02*
X0115234Y0033156D01*
X0117371Y0018774D02*
X0121971Y0018774D01*
X0121971Y0017576D02*
X0117371Y0017576D01*
X0117371Y0016377D02*
X0121971Y0016377D01*
X0121971Y0015179D02*
X0116268Y0015179D01*
X0115069Y0013980D02*
X0121847Y0013980D01*
X0120648Y0012782D02*
X0114171Y0012782D01*
X0108255Y0012394D02*
X0107251Y0012394D01*
X0107871Y0012650D01*
X0108171Y0012951D01*
X0108171Y0012597D01*
X0108255Y0012394D01*
X0108171Y0012782D02*
X0108002Y0012782D01*
X0102863Y0019973D02*
X0076566Y0019973D01*
X0077656Y0021171D02*
X0101773Y0021171D01*
X0101277Y0022370D02*
X0101193Y0022370D01*
X0089644Y0033156D02*
X0089644Y0033156D01*
X0087675Y0033156D02*
X0087675Y0033156D01*
X0085707Y0033156D02*
X0085707Y0033156D01*
X0087675Y0036800D02*
X0087675Y0036800D01*
X0089412Y0036800D01*
X0089412Y0036800D01*
X0087675Y0040172D02*
X0087675Y0040172D01*
X0087675Y0040172D01*
X0087675Y0040959D01*
X0086874Y0040959D01*
X0086691Y0040910D01*
X0086508Y0040959D01*
X0085938Y0040959D01*
X0085938Y0045316D01*
X0089412Y0041841D01*
X0089412Y0040959D01*
X0088842Y0040959D01*
X0088659Y0040910D01*
X0088476Y0040959D01*
X0087675Y0040959D01*
X0087675Y0040172D01*
X0087675Y0040348D02*
X0087675Y0040348D01*
X0085938Y0041546D02*
X0089412Y0041546D01*
X0088509Y0042745D02*
X0085938Y0042745D01*
X0085938Y0043943D02*
X0087311Y0043943D01*
X0086112Y0045142D02*
X0085938Y0045142D01*
X0071696Y0041546D02*
X0068222Y0041546D01*
X0068222Y0042745D02*
X0070509Y0042745D01*
X0069311Y0043943D02*
X0067533Y0043943D01*
X0068112Y0045142D02*
X0066335Y0045142D01*
X0069959Y0040348D02*
X0069959Y0040348D01*
X0019971Y0069112D02*
X0019393Y0069112D01*
X0019971Y0070310D02*
X0017712Y0070310D01*
X0003615Y0093082D02*
X0003171Y0093082D01*
X0003171Y0100273D02*
X0004540Y0100273D01*
X0003171Y0101472D02*
X0017974Y0101472D01*
X0017802Y0100273D02*
X0019157Y0100273D01*
X0019431Y0099075D02*
X0019971Y0099075D01*
X0028382Y0100273D02*
X0028392Y0100273D01*
X0033382Y0100273D02*
X0033464Y0100273D01*
X0035887Y0100273D02*
X0035887Y0100273D01*
X0035887Y0101472D02*
X0035887Y0101472D01*
X0035887Y0102670D02*
X0035887Y0102670D01*
X0035887Y0103702D02*
X0035887Y0103702D01*
X0035887Y0103869D02*
X0035887Y0103869D01*
X0035887Y0105067D02*
X0035887Y0105067D01*
X0035887Y0106266D02*
X0035887Y0106266D01*
X0035887Y0107464D02*
X0035887Y0107464D01*
X0033725Y0107464D02*
X0033087Y0107464D01*
X0031539Y0111194D02*
X0035231Y0114886D01*
X0031539Y0111194D02*
X0011329Y0111194D01*
X0006171Y0116430D01*
X0003240Y0113457D02*
X0003171Y0113457D01*
X0003171Y0112258D02*
X0005333Y0112258D01*
X0007009Y0112258D02*
X0007192Y0112258D01*
X0008373Y0111060D02*
X0003171Y0111060D01*
X0003171Y0109861D02*
X0003698Y0109861D01*
X0008644Y0109861D02*
X0009550Y0109861D01*
X0009765Y0108663D02*
X0012577Y0108663D01*
X0012081Y0107464D02*
X0010262Y0107464D01*
X0012188Y0113457D02*
X0013240Y0113457D01*
X0012388Y0114655D02*
X0011007Y0114655D01*
X0010346Y0115854D02*
X0011996Y0115854D01*
X0011996Y0117052D02*
X0010346Y0117052D01*
X0009936Y0118251D02*
X0012407Y0118251D01*
X0013287Y0119449D02*
X0009056Y0119449D01*
X0008690Y0123045D02*
X0013652Y0123045D01*
X0012558Y0124243D02*
X0009784Y0124243D01*
X0010281Y0125442D02*
X0012062Y0125442D01*
X0011996Y0126640D02*
X0010346Y0126640D01*
X0010106Y0127839D02*
X0012236Y0127839D01*
X0012875Y0129037D02*
X0009468Y0129037D01*
X0007892Y0130236D02*
X0014450Y0130236D01*
X0014429Y0132633D02*
X0007914Y0132633D01*
X0009477Y0133831D02*
X0012866Y0133831D01*
X0012232Y0135030D02*
X0010110Y0135030D01*
X0010346Y0136228D02*
X0011996Y0136228D01*
X0012065Y0137427D02*
X0010277Y0137427D01*
X0009781Y0138625D02*
X0012562Y0138625D01*
X0013661Y0139824D02*
X0008681Y0139824D01*
X0003661Y0139824D02*
X0003171Y0139824D01*
X0003171Y0143420D02*
X0003278Y0143420D01*
X0003171Y0153008D02*
X0003689Y0153008D01*
X0003171Y0160199D02*
X0004361Y0160199D01*
X0003171Y0161397D02*
X0021953Y0161397D01*
X0029559Y0160199D02*
X0030216Y0160199D01*
X0029879Y0168588D02*
X0029825Y0168588D01*
X0030230Y0170985D02*
X0031188Y0170985D01*
X0026894Y0175424D02*
X0021124Y0181194D01*
X0011329Y0181194D01*
X0006171Y0186430D01*
X0004271Y0190161D02*
X0003171Y0190161D01*
X0003171Y0191360D02*
X0022321Y0191360D01*
X0022321Y0192558D02*
X0017734Y0192558D01*
X0019402Y0193757D02*
X0022321Y0193757D01*
X0022660Y0194956D02*
X0020079Y0194956D01*
X0020346Y0196154D02*
X0023858Y0196154D01*
X0025057Y0197353D02*
X0020308Y0197353D01*
X0022321Y0190161D02*
X0018043Y0190161D01*
X0019491Y0188963D02*
X0023129Y0188963D01*
X0024327Y0187764D02*
X0020127Y0187764D01*
X0020216Y0185367D02*
X0031886Y0185367D01*
X0033085Y0184169D02*
X0019689Y0184169D01*
X0022459Y0182970D02*
X0034283Y0182970D01*
X0035482Y0181772D02*
X0023657Y0181772D01*
X0024856Y0180573D02*
X0036680Y0180573D01*
X0034974Y0179375D02*
X0033774Y0179375D01*
X0033774Y0178176D02*
X0034974Y0178176D01*
X0034974Y0176978D02*
X0033774Y0176978D01*
X0038533Y0176978D02*
X0038971Y0176978D01*
X0038971Y0178176D02*
X0038533Y0178176D01*
X0025526Y0186566D02*
X0016359Y0186566D01*
X0015984Y0186566D02*
X0010346Y0186566D01*
X0010306Y0185367D02*
X0012127Y0185367D01*
X0011996Y0186617D02*
X0015984Y0186617D01*
X0015984Y0190605D01*
X0015843Y0190605D01*
X0015194Y0190502D01*
X0014569Y0190299D01*
X0013983Y0190001D01*
X0013452Y0189614D01*
X0012987Y0189150D01*
X0012601Y0188618D01*
X0012302Y0188032D01*
X0012099Y0187408D01*
X0011996Y0186758D01*
X0011996Y0186617D01*
X0012215Y0187764D02*
X0010137Y0187764D01*
X0009542Y0188963D02*
X0012851Y0188963D01*
X0014299Y0190161D02*
X0008072Y0190161D01*
X0009700Y0192558D02*
X0014608Y0192558D01*
X0012940Y0193757D02*
X0010346Y0193757D01*
X0010346Y0194956D02*
X0012263Y0194956D01*
X0011996Y0196154D02*
X0010346Y0196154D01*
X0010346Y0197353D02*
X0012035Y0197353D01*
X0015984Y0190161D02*
X0016359Y0190161D01*
X0016359Y0188963D02*
X0015984Y0188963D01*
X0015984Y0187764D02*
X0016359Y0187764D01*
X0012654Y0184169D02*
X0011486Y0184169D01*
X0007671Y0181772D02*
X0003171Y0181772D01*
X0003171Y0182970D02*
X0003727Y0182970D01*
X0003315Y0173382D02*
X0003171Y0173382D01*
X0003171Y0162596D02*
X0004519Y0162596D01*
X0015984Y0149412D02*
X0016359Y0149412D01*
X0016359Y0148214D02*
X0015984Y0148214D01*
X0015984Y0147015D02*
X0016359Y0147015D01*
X0020277Y0137427D02*
X0023912Y0137427D01*
X0023912Y0136228D02*
X0020346Y0136228D01*
X0020110Y0135030D02*
X0023912Y0135030D01*
X0023912Y0133831D02*
X0019477Y0133831D01*
X0017914Y0132633D02*
X0023912Y0132633D01*
X0024819Y0131434D02*
X0003171Y0131434D01*
X0003171Y0130236D02*
X0004450Y0130236D01*
X0004429Y0132633D02*
X0003171Y0132633D01*
X0003171Y0123045D02*
X0003652Y0123045D01*
X0003287Y0119449D02*
X0003171Y0119449D01*
X0003171Y0102670D02*
X0004339Y0102670D01*
X0017892Y0130236D02*
X0026018Y0130236D01*
X0034171Y0123426D02*
X0035231Y0122366D01*
X0049158Y0119449D02*
X0049971Y0119449D01*
X0042709Y0151894D02*
X0042070Y0151894D01*
X0042070Y0152494D01*
X0042709Y0152494D01*
X0043009Y0152194D01*
X0042709Y0151894D01*
X0022735Y0173394D02*
X0022735Y0176471D01*
X0020213Y0178994D01*
X0019512Y0178994D01*
X0019710Y0178795D01*
X0020346Y0177260D01*
X0020346Y0175599D01*
X0019710Y0174065D01*
X0019039Y0173394D01*
X0022735Y0173394D01*
X0022735Y0174581D02*
X0019924Y0174581D01*
X0020346Y0175779D02*
X0022735Y0175779D01*
X0022229Y0176978D02*
X0020346Y0176978D01*
X0019967Y0178176D02*
X0021030Y0178176D01*
X0006359Y0192558D02*
X0005984Y0192558D01*
X0005984Y0193757D02*
X0006359Y0193757D01*
X0006359Y0194956D02*
X0005984Y0194956D01*
X0005984Y0196154D02*
X0006359Y0196154D01*
X0140371Y0039149D02*
X0142986Y0039149D01*
X0142282Y0037951D02*
X0140371Y0037951D01*
X0140371Y0036752D02*
X0141996Y0036752D01*
X0142016Y0035554D02*
X0140371Y0035554D01*
X0141121Y0034355D02*
X0142512Y0034355D01*
X0142320Y0033156D02*
X0143541Y0033156D01*
X0153968Y0021171D02*
X0159171Y0021171D01*
X0159171Y0019973D02*
X0158527Y0019973D01*
X0159171Y0022370D02*
X0157279Y0022370D01*
X0153815Y0019973D02*
X0152752Y0019973D01*
X0152624Y0018774D02*
X0149719Y0018774D01*
X0150215Y0017576D02*
X0152127Y0017576D01*
X0151996Y0016377D02*
X0150346Y0016377D01*
X0150172Y0015179D02*
X0152171Y0015179D01*
X0152717Y0013980D02*
X0149626Y0013980D01*
X0148273Y0012782D02*
X0154069Y0012782D01*
X0153024Y0009186D02*
X0149319Y0009186D01*
X0150055Y0007988D02*
X0152288Y0007988D01*
X0152001Y0006789D02*
X0150341Y0006789D01*
X0150265Y0005591D02*
X0152077Y0005591D01*
X0155984Y0006789D02*
X0156359Y0006789D01*
X0156359Y0007988D02*
X0155984Y0007988D01*
X0155984Y0009186D02*
X0156359Y0009186D01*
X0158273Y0012782D02*
X0159171Y0012782D01*
X0146359Y0009186D02*
X0145984Y0009186D01*
X0145984Y0007988D02*
X0146359Y0007988D01*
X0146359Y0006789D02*
X0145984Y0006789D01*
D29*
X0134171Y0010194D03*
X0119171Y0016194D03*
X0111171Y0013194D03*
X0106171Y0015194D03*
X0100171Y0025194D03*
X0091171Y0025194D03*
X0112171Y0027194D03*
X0134171Y0048194D03*
X0138171Y0045194D03*
X0151171Y0062194D03*
X0127171Y0073194D03*
X0095171Y0073194D03*
X0081171Y0087194D03*
X0075171Y0082194D03*
X0063171Y0096194D03*
X0058171Y0105194D03*
X0054171Y0108194D03*
X0055171Y0114194D03*
X0047171Y0113194D03*
X0047171Y0117194D03*
X0043171Y0118194D03*
X0039171Y0108194D03*
X0040171Y0101194D03*
X0043171Y0098194D03*
X0045171Y0093194D03*
X0047171Y0087194D03*
X0059171Y0086194D03*
X0060171Y0082194D03*
X0074171Y0097194D03*
X0070171Y0105194D03*
X0085171Y0129194D03*
X0102171Y0122194D03*
X0107171Y0132194D03*
X0102171Y0139194D03*
X0102171Y0149194D03*
X0100171Y0157194D03*
X0092171Y0161194D03*
X0086171Y0172194D03*
X0081171Y0160194D03*
X0059171Y0151194D03*
X0057171Y0135194D03*
X0038171Y0155194D03*
X0020171Y0152194D03*
X0030171Y0128194D03*
X0022171Y0114194D03*
X0025171Y0077194D03*
X0027171Y0071194D03*
X0029171Y0067194D03*
X0033171Y0064194D03*
X0038171Y0062194D03*
X0036171Y0048194D03*
X0037171Y0044194D03*
X0048171Y0044194D03*
X0059171Y0048194D03*
X0065171Y0047194D03*
X0065171Y0030194D03*
X0061171Y0025194D03*
X0064171Y0021194D03*
X0047171Y0026194D03*
X0025171Y0038194D03*
X0092171Y0096194D03*
X0124171Y0119194D03*
X0131171Y0131194D03*
X0138171Y0142194D03*
X0128171Y0176194D03*
X0124171Y0189194D03*
X0085171Y0189194D03*
X0055171Y0178194D03*
D30*
X0082171Y0103194D02*
X0087947Y0103194D01*
X0088541Y0103788D01*
X0082171Y0103194D02*
X0082171Y0097194D01*
X0096171Y0097194D02*
X0096171Y0103194D01*
D31*
X0096171Y0097194D02*
X0095171Y0096194D01*
X0092171Y0096194D01*
X0102171Y0122194D02*
X0103171Y0123194D01*
D32*
X0118171Y0104194D02*
X0117881Y0103613D01*
X0117911Y0103613D01*
X0117911Y0099464D01*
X0118911Y0099464D01*
X0118911Y0103613D01*
X0121168Y0103613D01*
X0121549Y0103511D01*
X0121891Y0103314D01*
X0122171Y0103034D01*
X0122368Y0102692D01*
X0122470Y0102311D01*
X0122470Y0099464D01*
X0118911Y0099464D01*
X0118911Y0098464D01*
X0118911Y0090764D01*
X0117911Y0090764D01*
X0117911Y0094717D01*
X0117911Y0098464D01*
X0118911Y0098464D01*
X0122470Y0098464D01*
X0122470Y0095617D01*
X0122368Y0095235D01*
X0122171Y0094893D01*
X0121891Y0094614D01*
X0121721Y0094515D01*
X0121891Y0094417D01*
X0122171Y0094138D01*
X0122368Y0093796D01*
X0122470Y0093414D01*
X0122470Y0090764D01*
X0118911Y0090764D01*
X0118911Y0089764D01*
X0122470Y0089764D01*
X0122470Y0087194D01*
X0124171Y0087194D01*
X0127951Y0090974D01*
X0127821Y0091103D01*
X0127624Y0091445D01*
X0127522Y0091827D01*
X0127522Y0094083D01*
X0131671Y0094083D01*
X0131671Y0095083D01*
X0127522Y0095083D01*
X0127522Y0097340D01*
X0127624Y0097721D01*
X0127821Y0098064D01*
X0128101Y0098343D01*
X0128171Y0098384D01*
X0128171Y0103194D01*
X0121266Y0110099D01*
X0121266Y0109076D01*
X0118782Y0109076D01*
X0118782Y0109076D01*
X0121266Y0109076D01*
X0121266Y0106910D01*
X0121164Y0106528D01*
X0120966Y0106186D01*
X0120687Y0105907D01*
X0120345Y0105709D01*
X0119963Y0105607D01*
X0118782Y0105607D01*
X0118782Y0109075D01*
X0118781Y0109075D01*
X0118781Y0105607D01*
X0118171Y0105607D01*
X0118171Y0104194D01*
X0118096Y0104043D02*
X0127322Y0104043D01*
X0128171Y0103045D02*
X0122160Y0103045D01*
X0122470Y0102046D02*
X0128171Y0102046D01*
X0128171Y0101048D02*
X0122470Y0101048D01*
X0122470Y0100049D02*
X0128171Y0100049D01*
X0128171Y0099051D02*
X0118911Y0099051D01*
X0118911Y0100049D02*
X0117911Y0100049D01*
X0117911Y0101048D02*
X0118911Y0101048D01*
X0118911Y0102046D02*
X0117911Y0102046D01*
X0117911Y0103045D02*
X0118911Y0103045D01*
X0118171Y0105042D02*
X0126323Y0105042D01*
X0125325Y0106040D02*
X0120820Y0106040D01*
X0121266Y0107039D02*
X0124326Y0107039D01*
X0123328Y0108037D02*
X0121266Y0108037D01*
X0121266Y0109036D02*
X0122329Y0109036D01*
X0121331Y0110034D02*
X0121266Y0110034D01*
X0118782Y0109036D02*
X0118781Y0109036D01*
X0118781Y0108037D02*
X0118782Y0108037D01*
X0118781Y0107039D02*
X0118782Y0107039D01*
X0118781Y0106040D02*
X0118782Y0106040D01*
X0118911Y0098052D02*
X0117911Y0098052D01*
X0117911Y0097054D02*
X0118911Y0097054D01*
X0118911Y0096055D02*
X0117911Y0096055D01*
X0117911Y0095057D02*
X0118911Y0095057D01*
X0118911Y0094058D02*
X0117911Y0094058D01*
X0117911Y0093060D02*
X0118911Y0093060D01*
X0118911Y0092061D02*
X0117911Y0092061D01*
X0117911Y0091063D02*
X0118911Y0091063D01*
X0118911Y0090064D02*
X0127042Y0090064D01*
X0127862Y0091063D02*
X0122470Y0091063D01*
X0122470Y0092061D02*
X0127522Y0092061D01*
X0127522Y0093060D02*
X0122470Y0093060D01*
X0122217Y0094058D02*
X0127522Y0094058D01*
X0127522Y0096055D02*
X0122470Y0096055D01*
X0122470Y0097054D02*
X0127522Y0097054D01*
X0127815Y0098052D02*
X0122470Y0098052D01*
X0122265Y0095057D02*
X0131671Y0095057D01*
X0126043Y0089066D02*
X0122470Y0089066D01*
X0122470Y0088067D02*
X0125045Y0088067D01*
D33*
X0048071Y0144694D02*
X0037911Y0144694D01*
X0037911Y0143194D01*
M02*
