G75*
%MOIN*%
%OFA0B0*%
%FSLAX25Y25*%
%IPPOS*%
%LPD*%
%AMOC8*
5,1,8,0,0,1.08239X$1,22.5*
%
%ADD10C,0.00000*%
%ADD11C,0.05150*%
%ADD12R,0.05150X0.05150*%
%ADD13R,0.02756X0.05512*%
%ADD14R,0.05512X0.07874*%
%ADD15R,0.05039X0.05512*%
%ADD16R,0.07677X0.05512*%
%ADD17OC8,0.08500*%
%ADD18R,0.06300X0.04600*%
%ADD19R,0.23622X0.07874*%
%ADD20C,0.01200*%
%ADD21C,0.02800*%
%ADD22C,0.03200*%
D10*
X0001171Y0003194D02*
X0001171Y0199194D01*
X0162171Y0199194D01*
X0162171Y0003194D01*
X0001171Y0003194D01*
X0071506Y0023398D02*
X0071508Y0023497D01*
X0071514Y0023596D01*
X0071524Y0023695D01*
X0071538Y0023793D01*
X0071556Y0023890D01*
X0071578Y0023987D01*
X0071603Y0024083D01*
X0071633Y0024177D01*
X0071666Y0024271D01*
X0071703Y0024363D01*
X0071744Y0024453D01*
X0071788Y0024542D01*
X0071836Y0024628D01*
X0071887Y0024713D01*
X0071942Y0024796D01*
X0072000Y0024876D01*
X0072061Y0024954D01*
X0072125Y0025030D01*
X0072192Y0025103D01*
X0072262Y0025173D01*
X0072335Y0025240D01*
X0072411Y0025304D01*
X0072489Y0025365D01*
X0072569Y0025423D01*
X0072652Y0025478D01*
X0072736Y0025529D01*
X0072823Y0025577D01*
X0072912Y0025621D01*
X0073002Y0025662D01*
X0073094Y0025699D01*
X0073188Y0025732D01*
X0073282Y0025762D01*
X0073378Y0025787D01*
X0073475Y0025809D01*
X0073572Y0025827D01*
X0073670Y0025841D01*
X0073769Y0025851D01*
X0073868Y0025857D01*
X0073967Y0025859D01*
X0074066Y0025857D01*
X0074165Y0025851D01*
X0074264Y0025841D01*
X0074362Y0025827D01*
X0074459Y0025809D01*
X0074556Y0025787D01*
X0074652Y0025762D01*
X0074746Y0025732D01*
X0074840Y0025699D01*
X0074932Y0025662D01*
X0075022Y0025621D01*
X0075111Y0025577D01*
X0075197Y0025529D01*
X0075282Y0025478D01*
X0075365Y0025423D01*
X0075445Y0025365D01*
X0075523Y0025304D01*
X0075599Y0025240D01*
X0075672Y0025173D01*
X0075742Y0025103D01*
X0075809Y0025030D01*
X0075873Y0024954D01*
X0075934Y0024876D01*
X0075992Y0024796D01*
X0076047Y0024713D01*
X0076098Y0024629D01*
X0076146Y0024542D01*
X0076190Y0024453D01*
X0076231Y0024363D01*
X0076268Y0024271D01*
X0076301Y0024177D01*
X0076331Y0024083D01*
X0076356Y0023987D01*
X0076378Y0023890D01*
X0076396Y0023793D01*
X0076410Y0023695D01*
X0076420Y0023596D01*
X0076426Y0023497D01*
X0076428Y0023398D01*
X0076426Y0023299D01*
X0076420Y0023200D01*
X0076410Y0023101D01*
X0076396Y0023003D01*
X0076378Y0022906D01*
X0076356Y0022809D01*
X0076331Y0022713D01*
X0076301Y0022619D01*
X0076268Y0022525D01*
X0076231Y0022433D01*
X0076190Y0022343D01*
X0076146Y0022254D01*
X0076098Y0022168D01*
X0076047Y0022083D01*
X0075992Y0022000D01*
X0075934Y0021920D01*
X0075873Y0021842D01*
X0075809Y0021766D01*
X0075742Y0021693D01*
X0075672Y0021623D01*
X0075599Y0021556D01*
X0075523Y0021492D01*
X0075445Y0021431D01*
X0075365Y0021373D01*
X0075282Y0021318D01*
X0075198Y0021267D01*
X0075111Y0021219D01*
X0075022Y0021175D01*
X0074932Y0021134D01*
X0074840Y0021097D01*
X0074746Y0021064D01*
X0074652Y0021034D01*
X0074556Y0021009D01*
X0074459Y0020987D01*
X0074362Y0020969D01*
X0074264Y0020955D01*
X0074165Y0020945D01*
X0074066Y0020939D01*
X0073967Y0020937D01*
X0073868Y0020939D01*
X0073769Y0020945D01*
X0073670Y0020955D01*
X0073572Y0020969D01*
X0073475Y0020987D01*
X0073378Y0021009D01*
X0073282Y0021034D01*
X0073188Y0021064D01*
X0073094Y0021097D01*
X0073002Y0021134D01*
X0072912Y0021175D01*
X0072823Y0021219D01*
X0072737Y0021267D01*
X0072652Y0021318D01*
X0072569Y0021373D01*
X0072489Y0021431D01*
X0072411Y0021492D01*
X0072335Y0021556D01*
X0072262Y0021623D01*
X0072192Y0021693D01*
X0072125Y0021766D01*
X0072061Y0021842D01*
X0072000Y0021920D01*
X0071942Y0022000D01*
X0071887Y0022083D01*
X0071836Y0022167D01*
X0071788Y0022254D01*
X0071744Y0022343D01*
X0071703Y0022433D01*
X0071666Y0022525D01*
X0071633Y0022619D01*
X0071603Y0022713D01*
X0071578Y0022809D01*
X0071556Y0022906D01*
X0071538Y0023003D01*
X0071524Y0023101D01*
X0071514Y0023200D01*
X0071508Y0023299D01*
X0071506Y0023398D01*
X0103002Y0023398D02*
X0103004Y0023497D01*
X0103010Y0023596D01*
X0103020Y0023695D01*
X0103034Y0023793D01*
X0103052Y0023890D01*
X0103074Y0023987D01*
X0103099Y0024083D01*
X0103129Y0024177D01*
X0103162Y0024271D01*
X0103199Y0024363D01*
X0103240Y0024453D01*
X0103284Y0024542D01*
X0103332Y0024628D01*
X0103383Y0024713D01*
X0103438Y0024796D01*
X0103496Y0024876D01*
X0103557Y0024954D01*
X0103621Y0025030D01*
X0103688Y0025103D01*
X0103758Y0025173D01*
X0103831Y0025240D01*
X0103907Y0025304D01*
X0103985Y0025365D01*
X0104065Y0025423D01*
X0104148Y0025478D01*
X0104232Y0025529D01*
X0104319Y0025577D01*
X0104408Y0025621D01*
X0104498Y0025662D01*
X0104590Y0025699D01*
X0104684Y0025732D01*
X0104778Y0025762D01*
X0104874Y0025787D01*
X0104971Y0025809D01*
X0105068Y0025827D01*
X0105166Y0025841D01*
X0105265Y0025851D01*
X0105364Y0025857D01*
X0105463Y0025859D01*
X0105562Y0025857D01*
X0105661Y0025851D01*
X0105760Y0025841D01*
X0105858Y0025827D01*
X0105955Y0025809D01*
X0106052Y0025787D01*
X0106148Y0025762D01*
X0106242Y0025732D01*
X0106336Y0025699D01*
X0106428Y0025662D01*
X0106518Y0025621D01*
X0106607Y0025577D01*
X0106693Y0025529D01*
X0106778Y0025478D01*
X0106861Y0025423D01*
X0106941Y0025365D01*
X0107019Y0025304D01*
X0107095Y0025240D01*
X0107168Y0025173D01*
X0107238Y0025103D01*
X0107305Y0025030D01*
X0107369Y0024954D01*
X0107430Y0024876D01*
X0107488Y0024796D01*
X0107543Y0024713D01*
X0107594Y0024629D01*
X0107642Y0024542D01*
X0107686Y0024453D01*
X0107727Y0024363D01*
X0107764Y0024271D01*
X0107797Y0024177D01*
X0107827Y0024083D01*
X0107852Y0023987D01*
X0107874Y0023890D01*
X0107892Y0023793D01*
X0107906Y0023695D01*
X0107916Y0023596D01*
X0107922Y0023497D01*
X0107924Y0023398D01*
X0107922Y0023299D01*
X0107916Y0023200D01*
X0107906Y0023101D01*
X0107892Y0023003D01*
X0107874Y0022906D01*
X0107852Y0022809D01*
X0107827Y0022713D01*
X0107797Y0022619D01*
X0107764Y0022525D01*
X0107727Y0022433D01*
X0107686Y0022343D01*
X0107642Y0022254D01*
X0107594Y0022168D01*
X0107543Y0022083D01*
X0107488Y0022000D01*
X0107430Y0021920D01*
X0107369Y0021842D01*
X0107305Y0021766D01*
X0107238Y0021693D01*
X0107168Y0021623D01*
X0107095Y0021556D01*
X0107019Y0021492D01*
X0106941Y0021431D01*
X0106861Y0021373D01*
X0106778Y0021318D01*
X0106694Y0021267D01*
X0106607Y0021219D01*
X0106518Y0021175D01*
X0106428Y0021134D01*
X0106336Y0021097D01*
X0106242Y0021064D01*
X0106148Y0021034D01*
X0106052Y0021009D01*
X0105955Y0020987D01*
X0105858Y0020969D01*
X0105760Y0020955D01*
X0105661Y0020945D01*
X0105562Y0020939D01*
X0105463Y0020937D01*
X0105364Y0020939D01*
X0105265Y0020945D01*
X0105166Y0020955D01*
X0105068Y0020969D01*
X0104971Y0020987D01*
X0104874Y0021009D01*
X0104778Y0021034D01*
X0104684Y0021064D01*
X0104590Y0021097D01*
X0104498Y0021134D01*
X0104408Y0021175D01*
X0104319Y0021219D01*
X0104233Y0021267D01*
X0104148Y0021318D01*
X0104065Y0021373D01*
X0103985Y0021431D01*
X0103907Y0021492D01*
X0103831Y0021556D01*
X0103758Y0021623D01*
X0103688Y0021693D01*
X0103621Y0021766D01*
X0103557Y0021842D01*
X0103496Y0021920D01*
X0103438Y0022000D01*
X0103383Y0022083D01*
X0103332Y0022167D01*
X0103284Y0022254D01*
X0103240Y0022343D01*
X0103199Y0022433D01*
X0103162Y0022525D01*
X0103129Y0022619D01*
X0103099Y0022713D01*
X0103074Y0022809D01*
X0103052Y0022906D01*
X0103034Y0023003D01*
X0103020Y0023101D01*
X0103010Y0023200D01*
X0103004Y0023299D01*
X0103002Y0023398D01*
D11*
X0146171Y0026430D03*
X0146171Y0036430D03*
X0146171Y0046430D03*
X0146171Y0056430D03*
X0146171Y0066430D03*
X0146171Y0076430D03*
X0146171Y0086430D03*
X0146171Y0096430D03*
X0146171Y0106430D03*
X0146171Y0116430D03*
X0146171Y0126430D03*
X0146171Y0136430D03*
X0146171Y0146430D03*
X0146171Y0156430D03*
X0146171Y0166430D03*
X0146171Y0176430D03*
X0146171Y0186430D03*
X0156171Y0186430D03*
X0156171Y0196430D03*
X0156171Y0176430D03*
X0156171Y0166430D03*
X0156171Y0156430D03*
X0156171Y0146430D03*
X0156171Y0136430D03*
X0156171Y0126430D03*
X0156171Y0116430D03*
X0156171Y0106430D03*
X0156171Y0096430D03*
X0156171Y0086430D03*
X0156171Y0076430D03*
X0156171Y0066430D03*
X0156171Y0056430D03*
X0156171Y0046430D03*
X0156171Y0036430D03*
X0156171Y0026430D03*
X0156171Y0016430D03*
X0156171Y0006430D03*
X0146171Y0006430D03*
X0146171Y0016430D03*
X0016171Y0016430D03*
X0016171Y0026430D03*
X0016171Y0036430D03*
X0016171Y0046430D03*
X0016171Y0056430D03*
X0016171Y0066430D03*
X0016171Y0076430D03*
X0016171Y0086430D03*
X0016171Y0096430D03*
X0016171Y0106430D03*
X0016171Y0116430D03*
X0016171Y0126430D03*
X0016171Y0136430D03*
X0016171Y0146430D03*
X0016171Y0156430D03*
X0016171Y0166430D03*
X0016171Y0176430D03*
X0016171Y0186430D03*
X0016171Y0196430D03*
X0006171Y0186430D03*
X0006171Y0176430D03*
X0006171Y0166430D03*
X0006171Y0156430D03*
X0006171Y0146430D03*
X0006171Y0136430D03*
X0006171Y0126430D03*
X0006171Y0116430D03*
X0006171Y0106430D03*
X0006171Y0096430D03*
X0006171Y0086430D03*
X0006171Y0076430D03*
X0006171Y0066430D03*
X0006171Y0056430D03*
X0006171Y0046430D03*
X0006171Y0036430D03*
X0006171Y0026430D03*
X0006171Y0016430D03*
X0006171Y0006430D03*
X0016171Y0006430D03*
D12*
X0006171Y0196430D03*
X0146171Y0196430D03*
D13*
X0112156Y0066194D03*
X0107825Y0066194D03*
X0103494Y0066194D03*
X0099163Y0066194D03*
X0094833Y0066194D03*
X0090502Y0066194D03*
X0086171Y0066194D03*
X0081841Y0066194D03*
X0077510Y0066194D03*
D14*
X0055069Y0024973D03*
X0117274Y0024973D03*
D15*
X0117510Y0062769D03*
D16*
X0058514Y0062769D03*
D17*
X0054171Y0192194D03*
X0067171Y0192194D03*
X0041171Y0192194D03*
X0028171Y0192194D03*
D18*
X0121171Y0169194D03*
X0121171Y0163194D03*
X0121171Y0157194D03*
D19*
X0089171Y0116280D03*
X0089171Y0103288D03*
D20*
X0086305Y0097751D02*
X0086458Y0097381D01*
X0089446Y0094394D01*
X0080083Y0094394D01*
X0077171Y0097305D01*
X0077171Y0097751D01*
X0086305Y0097751D01*
X0087162Y0096678D02*
X0077799Y0096678D01*
X0078997Y0095479D02*
X0088360Y0095479D01*
X0094889Y0094394D02*
X0095371Y0095557D01*
X0095371Y0096830D01*
X0094990Y0097751D01*
X0099617Y0097751D01*
X0096260Y0094394D01*
X0094889Y0094394D01*
X0095339Y0095479D02*
X0097345Y0095479D01*
X0098544Y0096678D02*
X0095371Y0096678D01*
X0097171Y0092194D02*
X0079171Y0092194D01*
X0074171Y0097194D01*
X0072371Y0099636D02*
X0072371Y0103151D01*
X0072715Y0103494D01*
X0073171Y0104597D01*
X0073171Y0105790D01*
X0072715Y0106893D01*
X0071871Y0107737D01*
X0070768Y0108194D01*
X0069575Y0108194D01*
X0068472Y0107737D01*
X0067628Y0106893D01*
X0067171Y0105790D01*
X0067171Y0105305D01*
X0058171Y0114305D01*
X0058171Y0114790D01*
X0057715Y0115893D01*
X0056871Y0116737D01*
X0055768Y0117194D01*
X0054575Y0117194D01*
X0053472Y0116737D01*
X0052628Y0115893D01*
X0052171Y0114790D01*
X0052171Y0113597D01*
X0052628Y0112494D01*
X0053472Y0111650D01*
X0054575Y0111194D01*
X0055060Y0111194D01*
X0055266Y0110987D01*
X0054768Y0111194D01*
X0053575Y0111194D01*
X0052472Y0110737D01*
X0052129Y0110394D01*
X0048251Y0110394D01*
X0048871Y0110650D01*
X0049715Y0111494D01*
X0050171Y0112597D01*
X0050171Y0113790D01*
X0049715Y0114893D01*
X0049414Y0115194D01*
X0049715Y0115494D01*
X0050171Y0116597D01*
X0050171Y0117790D01*
X0049715Y0118893D01*
X0048871Y0119737D01*
X0047768Y0120194D01*
X0046575Y0120194D01*
X0045734Y0119846D01*
X0045715Y0119893D01*
X0044871Y0120737D01*
X0043768Y0121194D01*
X0042575Y0121194D01*
X0041472Y0120737D01*
X0040628Y0119893D01*
X0040421Y0119394D01*
X0034083Y0119394D01*
X0026371Y0127105D01*
X0026371Y0128345D01*
X0026376Y0129252D01*
X0026371Y0129256D01*
X0026371Y0129262D01*
X0025731Y0129903D01*
X0020270Y0135417D01*
X0020346Y0135599D01*
X0020346Y0137260D01*
X0019710Y0138795D01*
X0018536Y0139969D01*
X0017002Y0140605D01*
X0015341Y0140605D01*
X0013806Y0139969D01*
X0012632Y0138795D01*
X0011996Y0137260D01*
X0011996Y0135599D01*
X0012632Y0134065D01*
X0013303Y0133394D01*
X0012250Y0133394D01*
X0010266Y0135407D01*
X0010346Y0135599D01*
X0010346Y0137260D01*
X0009710Y0138795D01*
X0008536Y0139969D01*
X0007002Y0140605D01*
X0005341Y0140605D01*
X0003806Y0139969D01*
X0003171Y0139334D01*
X0003171Y0143526D01*
X0003806Y0142891D01*
X0005341Y0142255D01*
X0007002Y0142255D01*
X0008536Y0142891D01*
X0009710Y0144065D01*
X0010346Y0145599D01*
X0010346Y0147260D01*
X0009710Y0148795D01*
X0008536Y0149969D01*
X0007002Y0150605D01*
X0005341Y0150605D01*
X0003806Y0149969D01*
X0003171Y0149334D01*
X0003171Y0153526D01*
X0003806Y0152891D01*
X0005341Y0152255D01*
X0007002Y0152255D01*
X0008536Y0152891D01*
X0009710Y0154065D01*
X0010346Y0155599D01*
X0010346Y0157260D01*
X0009710Y0158795D01*
X0008536Y0159969D01*
X0007002Y0160605D01*
X0005341Y0160605D01*
X0003806Y0159969D01*
X0003171Y0159334D01*
X0003171Y0163526D01*
X0003806Y0162891D01*
X0005341Y0162255D01*
X0007002Y0162255D01*
X0008536Y0162891D01*
X0009710Y0164065D01*
X0010346Y0165599D01*
X0010346Y0167260D01*
X0009710Y0168795D01*
X0008536Y0169969D01*
X0007002Y0170605D01*
X0005341Y0170605D01*
X0003806Y0169969D01*
X0003171Y0169334D01*
X0003171Y0173526D01*
X0003806Y0172891D01*
X0005341Y0172255D01*
X0007002Y0172255D01*
X0008536Y0172891D01*
X0009710Y0174065D01*
X0010346Y0175599D01*
X0010346Y0177260D01*
X0009710Y0178795D01*
X0008536Y0179969D01*
X0007002Y0180605D01*
X0005341Y0180605D01*
X0003806Y0179969D01*
X0003171Y0179334D01*
X0003171Y0183526D01*
X0003806Y0182891D01*
X0005341Y0182255D01*
X0007002Y0182255D01*
X0008536Y0182891D01*
X0009710Y0184065D01*
X0010346Y0185599D01*
X0010346Y0187260D01*
X0009710Y0188795D01*
X0008536Y0189969D01*
X0007002Y0190605D01*
X0005341Y0190605D01*
X0003806Y0189969D01*
X0003171Y0189334D01*
X0003171Y0192313D01*
X0003386Y0192255D01*
X0005984Y0192255D01*
X0005984Y0196242D01*
X0006359Y0196242D01*
X0006359Y0192255D01*
X0008957Y0192255D01*
X0009364Y0192364D01*
X0009728Y0192575D01*
X0010026Y0192873D01*
X0010237Y0193238D01*
X0010346Y0193644D01*
X0010346Y0196242D01*
X0006359Y0196242D01*
X0006359Y0196617D01*
X0010346Y0196617D01*
X0010346Y0197394D01*
X0012052Y0197394D01*
X0011996Y0197260D01*
X0011996Y0195599D01*
X0012632Y0194065D01*
X0013806Y0192891D01*
X0015341Y0192255D01*
X0017002Y0192255D01*
X0018536Y0192891D01*
X0019710Y0194065D01*
X0020346Y0195599D01*
X0020346Y0197260D01*
X0020291Y0197394D01*
X0025098Y0197394D01*
X0022321Y0194617D01*
X0022321Y0189771D01*
X0025748Y0186344D01*
X0030594Y0186344D01*
X0034021Y0189771D01*
X0034021Y0194617D01*
X0031244Y0197394D01*
X0038098Y0197394D01*
X0035321Y0194617D01*
X0035321Y0189771D01*
X0038748Y0186344D01*
X0043594Y0186344D01*
X0047021Y0189771D01*
X0047021Y0194617D01*
X0044244Y0197394D01*
X0051098Y0197394D01*
X0048321Y0194617D01*
X0048321Y0189771D01*
X0051748Y0186344D01*
X0056594Y0186344D01*
X0060021Y0189771D01*
X0060021Y0194617D01*
X0057244Y0197394D01*
X0064098Y0197394D01*
X0061321Y0194617D01*
X0061321Y0189771D01*
X0064748Y0186344D01*
X0069594Y0186344D01*
X0073021Y0189771D01*
X0073021Y0194617D01*
X0070244Y0197394D01*
X0141996Y0197394D01*
X0141996Y0196617D01*
X0145984Y0196617D01*
X0145984Y0196242D01*
X0141996Y0196242D01*
X0141996Y0193644D01*
X0142064Y0193394D01*
X0140260Y0193394D01*
X0138971Y0192105D01*
X0132971Y0186105D01*
X0132971Y0165105D01*
X0127260Y0159394D01*
X0125921Y0159394D01*
X0125921Y0160156D01*
X0125884Y0160194D01*
X0125921Y0160231D01*
X0125921Y0166156D01*
X0125884Y0166194D01*
X0125921Y0166231D01*
X0125921Y0170832D01*
X0128283Y0173194D01*
X0128768Y0173194D01*
X0129871Y0173650D01*
X0130715Y0174494D01*
X0131171Y0175597D01*
X0131171Y0176790D01*
X0130715Y0177893D01*
X0129871Y0178737D01*
X0128768Y0179194D01*
X0127575Y0179194D01*
X0126472Y0178737D01*
X0125628Y0177893D01*
X0125171Y0176790D01*
X0125171Y0176394D01*
X0097260Y0176394D01*
X0095971Y0175105D01*
X0090260Y0169394D01*
X0087251Y0169394D01*
X0087871Y0169650D01*
X0088715Y0170494D01*
X0089171Y0171597D01*
X0089171Y0172790D01*
X0088715Y0173893D01*
X0087871Y0174737D01*
X0086768Y0175194D01*
X0085575Y0175194D01*
X0084472Y0174737D01*
X0084129Y0174394D01*
X0047260Y0174394D01*
X0045971Y0173105D01*
X0035971Y0163105D01*
X0035971Y0157236D01*
X0035628Y0156893D01*
X0035171Y0155790D01*
X0035171Y0154597D01*
X0035628Y0153494D01*
X0036472Y0152650D01*
X0037575Y0152194D01*
X0038060Y0152194D01*
X0037260Y0151394D01*
X0034243Y0151394D01*
X0020274Y0165426D01*
X0020346Y0165599D01*
X0020346Y0167260D01*
X0019710Y0168795D01*
X0018536Y0169969D01*
X0017002Y0170605D01*
X0015341Y0170605D01*
X0013806Y0169969D01*
X0012632Y0168795D01*
X0011996Y0167260D01*
X0011996Y0165599D01*
X0012632Y0164065D01*
X0013806Y0162891D01*
X0015341Y0162255D01*
X0017002Y0162255D01*
X0017158Y0162320D01*
X0031129Y0148285D01*
X0031129Y0148282D01*
X0031772Y0147639D01*
X0032412Y0146996D01*
X0032415Y0146996D01*
X0032417Y0146994D01*
X0033326Y0146994D01*
X0034235Y0146992D01*
X0034237Y0146994D01*
X0039083Y0146994D01*
X0057083Y0164994D01*
X0092083Y0164994D01*
X0099083Y0171994D01*
X0116421Y0171994D01*
X0116421Y0166231D01*
X0116459Y0166194D01*
X0116421Y0166156D01*
X0116421Y0165394D01*
X0115260Y0165394D01*
X0109260Y0159394D01*
X0107971Y0158105D01*
X0107971Y0136105D01*
X0107060Y0135194D01*
X0106575Y0135194D01*
X0105472Y0134737D01*
X0104628Y0133893D01*
X0104171Y0132790D01*
X0104171Y0131597D01*
X0104628Y0130494D01*
X0105472Y0129650D01*
X0106575Y0129194D01*
X0107768Y0129194D01*
X0108871Y0129650D01*
X0109715Y0130494D01*
X0110171Y0131597D01*
X0110171Y0132082D01*
X0112371Y0134282D01*
X0112371Y0156282D01*
X0116421Y0160332D01*
X0116421Y0160231D01*
X0116459Y0160194D01*
X0116421Y0160156D01*
X0116421Y0154231D01*
X0117359Y0153294D01*
X0124984Y0153294D01*
X0125921Y0154231D01*
X0125921Y0154994D01*
X0129083Y0154994D01*
X0137371Y0163282D01*
X0137371Y0184282D01*
X0142083Y0188994D01*
X0142831Y0188994D01*
X0142632Y0188795D01*
X0141996Y0187260D01*
X0141996Y0185599D01*
X0142632Y0184065D01*
X0143806Y0182891D01*
X0145341Y0182255D01*
X0147002Y0182255D01*
X0148536Y0182891D01*
X0149710Y0184065D01*
X0150346Y0185599D01*
X0150346Y0187260D01*
X0149710Y0188795D01*
X0149512Y0188994D01*
X0150848Y0188994D01*
X0151751Y0188987D01*
X0151758Y0188994D01*
X0151768Y0188994D01*
X0152406Y0189633D01*
X0155149Y0192335D01*
X0155341Y0192255D01*
X0157002Y0192255D01*
X0158536Y0192891D01*
X0159171Y0193526D01*
X0159171Y0189334D01*
X0158536Y0189969D01*
X0157002Y0190605D01*
X0155341Y0190605D01*
X0153806Y0189969D01*
X0152632Y0188795D01*
X0151996Y0187260D01*
X0151996Y0185599D01*
X0152632Y0184065D01*
X0153806Y0182891D01*
X0155341Y0182255D01*
X0157002Y0182255D01*
X0158536Y0182891D01*
X0159171Y0183526D01*
X0159171Y0179334D01*
X0158891Y0179614D01*
X0158359Y0180001D01*
X0157774Y0180299D01*
X0157149Y0180502D01*
X0156500Y0180605D01*
X0156359Y0180605D01*
X0156359Y0176617D01*
X0155984Y0176617D01*
X0155984Y0176242D01*
X0156359Y0176242D01*
X0156359Y0172255D01*
X0156500Y0172255D01*
X0157149Y0172358D01*
X0157774Y0172561D01*
X0158359Y0172859D01*
X0158891Y0173246D01*
X0159171Y0173526D01*
X0159171Y0169334D01*
X0158536Y0169969D01*
X0157002Y0170605D01*
X0155341Y0170605D01*
X0153806Y0169969D01*
X0152632Y0168795D01*
X0151996Y0167260D01*
X0151996Y0165599D01*
X0152632Y0164065D01*
X0153806Y0162891D01*
X0155341Y0162255D01*
X0157002Y0162255D01*
X0158536Y0162891D01*
X0159171Y0163526D01*
X0159171Y0159334D01*
X0158536Y0159969D01*
X0157002Y0160605D01*
X0155341Y0160605D01*
X0153806Y0159969D01*
X0152632Y0158795D01*
X0151996Y0157260D01*
X0151996Y0155599D01*
X0152632Y0154065D01*
X0153806Y0152891D01*
X0155341Y0152255D01*
X0157002Y0152255D01*
X0158536Y0152891D01*
X0159171Y0153526D01*
X0159171Y0149334D01*
X0158536Y0149969D01*
X0157002Y0150605D01*
X0155341Y0150605D01*
X0153806Y0149969D01*
X0152632Y0148795D01*
X0151996Y0147260D01*
X0151996Y0145599D01*
X0152632Y0144065D01*
X0153806Y0142891D01*
X0155341Y0142255D01*
X0157002Y0142255D01*
X0158536Y0142891D01*
X0159171Y0143526D01*
X0159171Y0139334D01*
X0158536Y0139969D01*
X0157002Y0140605D01*
X0155341Y0140605D01*
X0153806Y0139969D01*
X0152632Y0138795D01*
X0151996Y0137260D01*
X0151996Y0135599D01*
X0152632Y0134065D01*
X0153806Y0132891D01*
X0155341Y0132255D01*
X0157002Y0132255D01*
X0158536Y0132891D01*
X0159171Y0133526D01*
X0159171Y0129334D01*
X0158536Y0129969D01*
X0157002Y0130605D01*
X0155341Y0130605D01*
X0153806Y0129969D01*
X0152632Y0128795D01*
X0151996Y0127260D01*
X0151996Y0125599D01*
X0152632Y0124065D01*
X0153806Y0122891D01*
X0155341Y0122255D01*
X0157002Y0122255D01*
X0158536Y0122891D01*
X0159171Y0123526D01*
X0159171Y0119334D01*
X0158536Y0119969D01*
X0157002Y0120605D01*
X0155341Y0120605D01*
X0153806Y0119969D01*
X0152632Y0118795D01*
X0151996Y0117260D01*
X0151996Y0115599D01*
X0152632Y0114065D01*
X0153806Y0112891D01*
X0155341Y0112255D01*
X0157002Y0112255D01*
X0158536Y0112891D01*
X0159171Y0113526D01*
X0159171Y0109334D01*
X0158536Y0109969D01*
X0157002Y0110605D01*
X0155341Y0110605D01*
X0153806Y0109969D01*
X0152632Y0108795D01*
X0151996Y0107260D01*
X0151996Y0105599D01*
X0152632Y0104065D01*
X0153806Y0102891D01*
X0155341Y0102255D01*
X0157002Y0102255D01*
X0158536Y0102891D01*
X0159171Y0103526D01*
X0159171Y0099334D01*
X0158891Y0099614D01*
X0158359Y0100001D01*
X0157774Y0100299D01*
X0157149Y0100502D01*
X0156500Y0100605D01*
X0156359Y0100605D01*
X0156359Y0096617D01*
X0155984Y0096617D01*
X0155984Y0096242D01*
X0156359Y0096242D01*
X0156359Y0092255D01*
X0156500Y0092255D01*
X0157149Y0092358D01*
X0157774Y0092561D01*
X0158359Y0092859D01*
X0158891Y0093246D01*
X0159171Y0093526D01*
X0159171Y0089334D01*
X0158536Y0089969D01*
X0157002Y0090605D01*
X0155341Y0090605D01*
X0153806Y0089969D01*
X0152632Y0088795D01*
X0151996Y0087260D01*
X0151996Y0085599D01*
X0152053Y0085463D01*
X0150270Y0083709D01*
X0150260Y0083709D01*
X0149622Y0083070D01*
X0148979Y0082437D01*
X0148978Y0082427D01*
X0148971Y0082420D01*
X0148971Y0081518D01*
X0148964Y0080615D01*
X0148971Y0080608D01*
X0148971Y0079534D01*
X0148536Y0079969D01*
X0147002Y0080605D01*
X0145341Y0080605D01*
X0143806Y0079969D01*
X0142632Y0078795D01*
X0141996Y0077260D01*
X0141996Y0075599D01*
X0142632Y0074065D01*
X0143303Y0073394D01*
X0141260Y0073394D01*
X0139971Y0072105D01*
X0139260Y0071394D01*
X0129614Y0071394D01*
X0129715Y0071494D01*
X0130171Y0072597D01*
X0130171Y0073790D01*
X0129715Y0074893D01*
X0128871Y0075737D01*
X0127768Y0076194D01*
X0126575Y0076194D01*
X0125472Y0075737D01*
X0125129Y0075394D01*
X0104083Y0075394D01*
X0100371Y0079105D01*
X0099083Y0080394D01*
X0072371Y0080394D01*
X0072371Y0094751D01*
X0072472Y0094650D01*
X0073575Y0094194D01*
X0074060Y0094194D01*
X0078260Y0089994D01*
X0098083Y0089994D01*
X0099371Y0091282D01*
X0124283Y0116194D01*
X0124768Y0116194D01*
X0125871Y0116650D01*
X0126715Y0117494D01*
X0127171Y0118597D01*
X0127171Y0119790D01*
X0126715Y0120893D01*
X0125871Y0121737D01*
X0124768Y0122194D01*
X0123575Y0122194D01*
X0122472Y0121737D01*
X0121628Y0120893D01*
X0121171Y0119790D01*
X0121171Y0119305D01*
X0102582Y0100716D01*
X0102582Y0107888D01*
X0101645Y0108825D01*
X0076697Y0108825D01*
X0075760Y0107888D01*
X0075760Y0099783D01*
X0074768Y0100194D01*
X0073575Y0100194D01*
X0072472Y0099737D01*
X0072371Y0099636D01*
X0072371Y0100273D02*
X0075760Y0100273D01*
X0075760Y0101472D02*
X0072371Y0101472D01*
X0072371Y0102670D02*
X0075760Y0102670D01*
X0075760Y0103869D02*
X0072870Y0103869D01*
X0073171Y0105067D02*
X0075760Y0105067D01*
X0075760Y0106266D02*
X0072974Y0106266D01*
X0072143Y0107464D02*
X0075760Y0107464D01*
X0076535Y0108663D02*
X0063814Y0108663D01*
X0065012Y0107464D02*
X0068199Y0107464D01*
X0067368Y0106266D02*
X0066211Y0106266D01*
X0070171Y0105194D02*
X0070171Y0079194D01*
X0071171Y0078194D01*
X0098171Y0078194D01*
X0103171Y0073194D01*
X0127171Y0073194D01*
X0129503Y0075104D02*
X0142202Y0075104D01*
X0141996Y0076303D02*
X0103173Y0076303D01*
X0101975Y0077501D02*
X0142096Y0077501D01*
X0142593Y0078700D02*
X0100776Y0078700D01*
X0099578Y0079898D02*
X0143736Y0079898D01*
X0145243Y0082295D02*
X0072371Y0082295D01*
X0072371Y0081097D02*
X0148968Y0081097D01*
X0148971Y0082295D02*
X0147099Y0082295D01*
X0147002Y0082255D02*
X0148536Y0082891D01*
X0149710Y0084065D01*
X0150346Y0085599D01*
X0150346Y0087260D01*
X0149710Y0088795D01*
X0148536Y0089969D01*
X0147002Y0090605D01*
X0145341Y0090605D01*
X0143806Y0089969D01*
X0142632Y0088795D01*
X0141996Y0087260D01*
X0141996Y0085599D01*
X0142632Y0084065D01*
X0143806Y0082891D01*
X0145341Y0082255D01*
X0147002Y0082255D01*
X0149139Y0083494D02*
X0150045Y0083494D01*
X0149970Y0084692D02*
X0151270Y0084692D01*
X0151996Y0085891D02*
X0150346Y0085891D01*
X0150346Y0087089D02*
X0151996Y0087089D01*
X0152422Y0088288D02*
X0149920Y0088288D01*
X0149019Y0089487D02*
X0153324Y0089487D01*
X0154569Y0092561D02*
X0153983Y0092859D01*
X0153452Y0093246D01*
X0152987Y0093710D01*
X0152601Y0094242D01*
X0152302Y0094827D01*
X0152099Y0095452D01*
X0151996Y0096101D01*
X0151996Y0096242D01*
X0155984Y0096242D01*
X0155984Y0092255D01*
X0155843Y0092255D01*
X0155194Y0092358D01*
X0154569Y0092561D01*
X0153677Y0093082D02*
X0148666Y0093082D01*
X0148891Y0093246D02*
X0149356Y0093710D01*
X0149742Y0094242D01*
X0150040Y0094827D01*
X0150243Y0095452D01*
X0150346Y0096101D01*
X0150346Y0096242D01*
X0146359Y0096242D01*
X0146359Y0092255D01*
X0146500Y0092255D01*
X0147149Y0092358D01*
X0147774Y0092561D01*
X0148359Y0092859D01*
X0148891Y0093246D01*
X0149762Y0094281D02*
X0152581Y0094281D01*
X0152095Y0095479D02*
X0150247Y0095479D01*
X0150346Y0096617D02*
X0150346Y0096758D01*
X0150243Y0097408D01*
X0150040Y0098032D01*
X0149742Y0098618D01*
X0149356Y0099150D01*
X0148891Y0099614D01*
X0148359Y0100001D01*
X0147774Y0100299D01*
X0147149Y0100502D01*
X0146500Y0100605D01*
X0146359Y0100605D01*
X0146359Y0096617D01*
X0150346Y0096617D01*
X0150346Y0096678D02*
X0151996Y0096678D01*
X0151996Y0096617D02*
X0155984Y0096617D01*
X0155984Y0100605D01*
X0155843Y0100605D01*
X0155194Y0100502D01*
X0154569Y0100299D01*
X0153983Y0100001D01*
X0153452Y0099614D01*
X0152987Y0099150D01*
X0152601Y0098618D01*
X0152302Y0098032D01*
X0152099Y0097408D01*
X0151996Y0096758D01*
X0151996Y0096617D01*
X0152252Y0097876D02*
X0150091Y0097876D01*
X0149410Y0099075D02*
X0152932Y0099075D01*
X0154518Y0100273D02*
X0147824Y0100273D01*
X0146359Y0100273D02*
X0145984Y0100273D01*
X0145984Y0100605D02*
X0145843Y0100605D01*
X0145194Y0100502D01*
X0144569Y0100299D01*
X0143983Y0100001D01*
X0143452Y0099614D01*
X0142987Y0099150D01*
X0142601Y0098618D01*
X0142302Y0098032D01*
X0142099Y0097408D01*
X0141996Y0096758D01*
X0141996Y0096617D01*
X0145984Y0096617D01*
X0145984Y0096242D01*
X0146359Y0096242D01*
X0146359Y0096617D01*
X0145984Y0096617D01*
X0145984Y0100605D01*
X0144518Y0100273D02*
X0108362Y0100273D01*
X0107163Y0099075D02*
X0142932Y0099075D01*
X0142252Y0097876D02*
X0105965Y0097876D01*
X0104766Y0096678D02*
X0141996Y0096678D01*
X0141996Y0096242D02*
X0141996Y0096101D01*
X0142099Y0095452D01*
X0142302Y0094827D01*
X0142601Y0094242D01*
X0142987Y0093710D01*
X0143452Y0093246D01*
X0143983Y0092859D01*
X0144569Y0092561D01*
X0145194Y0092358D01*
X0145843Y0092255D01*
X0145984Y0092255D01*
X0145984Y0096242D01*
X0141996Y0096242D01*
X0142095Y0095479D02*
X0103568Y0095479D01*
X0102369Y0094281D02*
X0142581Y0094281D01*
X0143677Y0093082D02*
X0101171Y0093082D01*
X0099972Y0091884D02*
X0159171Y0091884D01*
X0159171Y0093082D02*
X0158666Y0093082D01*
X0156359Y0093082D02*
X0155984Y0093082D01*
X0155984Y0094281D02*
X0156359Y0094281D01*
X0156359Y0095479D02*
X0155984Y0095479D01*
X0155984Y0096678D02*
X0156359Y0096678D01*
X0156359Y0097876D02*
X0155984Y0097876D01*
X0155984Y0099075D02*
X0156359Y0099075D01*
X0156359Y0100273D02*
X0155984Y0100273D01*
X0157824Y0100273D02*
X0159171Y0100273D01*
X0159171Y0101472D02*
X0109560Y0101472D01*
X0110759Y0102670D02*
X0144339Y0102670D01*
X0143806Y0102891D02*
X0145341Y0102255D01*
X0147002Y0102255D01*
X0148536Y0102891D01*
X0149710Y0104065D01*
X0150346Y0105599D01*
X0150346Y0107260D01*
X0149710Y0108795D01*
X0148536Y0109969D01*
X0147002Y0110605D01*
X0145341Y0110605D01*
X0143806Y0109969D01*
X0142632Y0108795D01*
X0141996Y0107260D01*
X0141996Y0105599D01*
X0142632Y0104065D01*
X0143806Y0102891D01*
X0142828Y0103869D02*
X0111957Y0103869D01*
X0113156Y0105067D02*
X0142217Y0105067D01*
X0141996Y0106266D02*
X0114355Y0106266D01*
X0115553Y0107464D02*
X0142081Y0107464D01*
X0142577Y0108663D02*
X0116752Y0108663D01*
X0117950Y0109861D02*
X0143698Y0109861D01*
X0145333Y0112258D02*
X0120347Y0112258D01*
X0119149Y0111060D02*
X0159171Y0111060D01*
X0159171Y0112258D02*
X0157009Y0112258D01*
X0155333Y0112258D02*
X0147009Y0112258D01*
X0147002Y0112255D02*
X0148536Y0112891D01*
X0149710Y0114065D01*
X0150346Y0115599D01*
X0150346Y0117260D01*
X0149710Y0118795D01*
X0148536Y0119969D01*
X0147002Y0120605D01*
X0145341Y0120605D01*
X0145158Y0120529D01*
X0140371Y0125269D01*
X0140371Y0140151D01*
X0140715Y0140494D01*
X0141171Y0141597D01*
X0141171Y0142790D01*
X0140715Y0143893D01*
X0139871Y0144737D01*
X0138768Y0145194D01*
X0137575Y0145194D01*
X0136472Y0144737D01*
X0135628Y0143893D01*
X0135171Y0142790D01*
X0135171Y0141597D01*
X0135628Y0140494D01*
X0135971Y0140151D01*
X0135971Y0125256D01*
X0135967Y0125252D01*
X0135971Y0124345D01*
X0135971Y0123440D01*
X0135976Y0123435D01*
X0135976Y0123429D01*
X0136619Y0122792D01*
X0137260Y0122151D01*
X0137266Y0122151D01*
X0142057Y0117407D01*
X0141996Y0117260D01*
X0141996Y0115599D01*
X0142632Y0114065D01*
X0143806Y0112891D01*
X0145341Y0112255D01*
X0147002Y0112255D01*
X0149102Y0113457D02*
X0153240Y0113457D01*
X0152388Y0114655D02*
X0149955Y0114655D01*
X0150346Y0115854D02*
X0151996Y0115854D01*
X0151996Y0117052D02*
X0150346Y0117052D01*
X0149936Y0118251D02*
X0152407Y0118251D01*
X0153287Y0119449D02*
X0149056Y0119449D01*
X0147002Y0122255D02*
X0148536Y0122891D01*
X0149710Y0124065D01*
X0150346Y0125599D01*
X0150346Y0127260D01*
X0149710Y0128795D01*
X0148536Y0129969D01*
X0147002Y0130605D01*
X0145341Y0130605D01*
X0143806Y0129969D01*
X0142632Y0128795D01*
X0141996Y0127260D01*
X0141996Y0125599D01*
X0142632Y0124065D01*
X0143806Y0122891D01*
X0145341Y0122255D01*
X0147002Y0122255D01*
X0148690Y0123045D02*
X0153652Y0123045D01*
X0152558Y0124243D02*
X0149784Y0124243D01*
X0150281Y0125442D02*
X0152062Y0125442D01*
X0151996Y0126640D02*
X0150346Y0126640D01*
X0150106Y0127839D02*
X0152236Y0127839D01*
X0152875Y0129037D02*
X0149468Y0129037D01*
X0147892Y0130236D02*
X0154450Y0130236D01*
X0154429Y0132633D02*
X0147914Y0132633D01*
X0148536Y0132891D02*
X0149710Y0134065D01*
X0150346Y0135599D01*
X0150346Y0137260D01*
X0149710Y0138795D01*
X0148536Y0139969D01*
X0147002Y0140605D01*
X0145341Y0140605D01*
X0143806Y0139969D01*
X0142632Y0138795D01*
X0141996Y0137260D01*
X0141996Y0135599D01*
X0142632Y0134065D01*
X0143806Y0132891D01*
X0145341Y0132255D01*
X0147002Y0132255D01*
X0148536Y0132891D01*
X0149477Y0133831D02*
X0152866Y0133831D01*
X0152232Y0135030D02*
X0150110Y0135030D01*
X0150346Y0136228D02*
X0151996Y0136228D01*
X0152065Y0137427D02*
X0150277Y0137427D01*
X0149781Y0138625D02*
X0152562Y0138625D01*
X0153661Y0139824D02*
X0148681Y0139824D01*
X0147002Y0142255D02*
X0148536Y0142891D01*
X0149710Y0144065D01*
X0150346Y0145599D01*
X0150346Y0147260D01*
X0149710Y0148795D01*
X0148536Y0149969D01*
X0147002Y0150605D01*
X0145341Y0150605D01*
X0143806Y0149969D01*
X0142632Y0148795D01*
X0141996Y0147260D01*
X0141996Y0145599D01*
X0142632Y0144065D01*
X0143806Y0142891D01*
X0145341Y0142255D01*
X0147002Y0142255D01*
X0149065Y0143420D02*
X0153278Y0143420D01*
X0152403Y0144618D02*
X0149940Y0144618D01*
X0150346Y0145817D02*
X0151996Y0145817D01*
X0151996Y0147015D02*
X0150346Y0147015D01*
X0149951Y0148214D02*
X0152391Y0148214D01*
X0153249Y0149412D02*
X0149093Y0149412D01*
X0148536Y0152891D02*
X0147002Y0152255D01*
X0145341Y0152255D01*
X0143806Y0152891D01*
X0142632Y0154065D01*
X0141996Y0155599D01*
X0141996Y0157260D01*
X0142632Y0158795D01*
X0143806Y0159969D01*
X0145341Y0160605D01*
X0147002Y0160605D01*
X0148536Y0159969D01*
X0149710Y0158795D01*
X0150346Y0157260D01*
X0150346Y0155599D01*
X0149710Y0154065D01*
X0148536Y0152891D01*
X0148653Y0153008D02*
X0153689Y0153008D01*
X0152574Y0154206D02*
X0149769Y0154206D01*
X0150265Y0155405D02*
X0152077Y0155405D01*
X0151996Y0156603D02*
X0150346Y0156603D01*
X0150122Y0157802D02*
X0152221Y0157802D01*
X0152837Y0159000D02*
X0149505Y0159000D01*
X0147982Y0160199D02*
X0154361Y0160199D01*
X0154519Y0162596D02*
X0147824Y0162596D01*
X0148536Y0162891D02*
X0149710Y0164065D01*
X0150346Y0165599D01*
X0150346Y0167260D01*
X0149710Y0168795D01*
X0148536Y0169969D01*
X0147002Y0170605D01*
X0145341Y0170605D01*
X0143806Y0169969D01*
X0142632Y0168795D01*
X0141996Y0167260D01*
X0141996Y0165599D01*
X0142632Y0164065D01*
X0143806Y0162891D01*
X0145341Y0162255D01*
X0147002Y0162255D01*
X0148536Y0162891D01*
X0149440Y0163794D02*
X0152903Y0163794D01*
X0152248Y0164993D02*
X0150095Y0164993D01*
X0150346Y0166191D02*
X0151996Y0166191D01*
X0152050Y0167390D02*
X0150292Y0167390D01*
X0149796Y0168588D02*
X0152547Y0168588D01*
X0153624Y0169787D02*
X0148718Y0169787D01*
X0147002Y0172255D02*
X0145341Y0172255D01*
X0143806Y0172891D01*
X0142632Y0174065D01*
X0141996Y0175599D01*
X0141996Y0177260D01*
X0142632Y0178795D01*
X0143806Y0179969D01*
X0145341Y0180605D01*
X0147002Y0180605D01*
X0148536Y0179969D01*
X0149710Y0178795D01*
X0150346Y0177260D01*
X0150346Y0175599D01*
X0149710Y0174065D01*
X0148536Y0172891D01*
X0147002Y0172255D01*
X0149028Y0173382D02*
X0153315Y0173382D01*
X0153452Y0173246D02*
X0153983Y0172859D01*
X0154569Y0172561D01*
X0155194Y0172358D01*
X0155843Y0172255D01*
X0155984Y0172255D01*
X0155984Y0176242D01*
X0151996Y0176242D01*
X0151996Y0176101D01*
X0152099Y0175452D01*
X0152302Y0174827D01*
X0152601Y0174242D01*
X0152987Y0173710D01*
X0153452Y0173246D01*
X0152428Y0174581D02*
X0149924Y0174581D01*
X0150346Y0175779D02*
X0152047Y0175779D01*
X0151996Y0176617D02*
X0155984Y0176617D01*
X0155984Y0180605D01*
X0155843Y0180605D01*
X0155194Y0180502D01*
X0154569Y0180299D01*
X0153983Y0180001D01*
X0153452Y0179614D01*
X0152987Y0179150D01*
X0152601Y0178618D01*
X0152302Y0178032D01*
X0152099Y0177408D01*
X0151996Y0176758D01*
X0151996Y0176617D01*
X0152031Y0176978D02*
X0150346Y0176978D01*
X0149967Y0178176D02*
X0152376Y0178176D01*
X0153212Y0179375D02*
X0149130Y0179375D01*
X0147077Y0180573D02*
X0155645Y0180573D01*
X0155984Y0180573D02*
X0156359Y0180573D01*
X0156698Y0180573D02*
X0159171Y0180573D01*
X0159130Y0179375D02*
X0159171Y0179375D01*
X0159171Y0181772D02*
X0137371Y0181772D01*
X0137371Y0182970D02*
X0143727Y0182970D01*
X0142589Y0184169D02*
X0137371Y0184169D01*
X0138456Y0185367D02*
X0142093Y0185367D01*
X0141996Y0186566D02*
X0139655Y0186566D01*
X0140853Y0187764D02*
X0142205Y0187764D01*
X0142052Y0188963D02*
X0142800Y0188963D01*
X0141171Y0191194D02*
X0150856Y0191194D01*
X0156171Y0196430D01*
X0157734Y0192558D02*
X0159171Y0192558D01*
X0159171Y0191360D02*
X0154160Y0191360D01*
X0154271Y0190161D02*
X0152943Y0190161D01*
X0152800Y0188963D02*
X0149542Y0188963D01*
X0150137Y0187764D02*
X0152205Y0187764D01*
X0151996Y0186566D02*
X0150346Y0186566D01*
X0150250Y0185367D02*
X0152093Y0185367D01*
X0152589Y0184169D02*
X0149753Y0184169D01*
X0148616Y0182970D02*
X0153727Y0182970D01*
X0155984Y0179375D02*
X0156359Y0179375D01*
X0156359Y0178176D02*
X0155984Y0178176D01*
X0155984Y0176978D02*
X0156359Y0176978D01*
X0156359Y0175779D02*
X0155984Y0175779D01*
X0155984Y0174581D02*
X0156359Y0174581D01*
X0156359Y0173382D02*
X0155984Y0173382D01*
X0159028Y0173382D02*
X0159171Y0173382D01*
X0159171Y0172184D02*
X0137371Y0172184D01*
X0137371Y0173382D02*
X0143315Y0173382D01*
X0142418Y0174581D02*
X0137371Y0174581D01*
X0137371Y0175779D02*
X0141996Y0175779D01*
X0141996Y0176978D02*
X0137371Y0176978D01*
X0137371Y0178176D02*
X0142376Y0178176D01*
X0143212Y0179375D02*
X0137371Y0179375D01*
X0137371Y0180573D02*
X0145265Y0180573D01*
X0135171Y0185194D02*
X0141171Y0191194D01*
X0139425Y0192558D02*
X0073021Y0192558D01*
X0073021Y0191360D02*
X0138226Y0191360D01*
X0138971Y0192105D02*
X0138971Y0192105D01*
X0137028Y0190161D02*
X0073021Y0190161D01*
X0072214Y0188963D02*
X0135829Y0188963D01*
X0134631Y0187764D02*
X0071015Y0187764D01*
X0069817Y0186566D02*
X0133432Y0186566D01*
X0132971Y0185367D02*
X0020216Y0185367D01*
X0020243Y0185452D02*
X0020346Y0186101D01*
X0020346Y0186242D01*
X0016359Y0186242D01*
X0016359Y0182255D01*
X0016500Y0182255D01*
X0017149Y0182358D01*
X0017774Y0182561D01*
X0018359Y0182859D01*
X0018891Y0183246D01*
X0019356Y0183710D01*
X0019742Y0184242D01*
X0020040Y0184827D01*
X0020243Y0185452D01*
X0020346Y0186617D02*
X0020346Y0186758D01*
X0020243Y0187408D01*
X0020040Y0188032D01*
X0019742Y0188618D01*
X0019356Y0189150D01*
X0018891Y0189614D01*
X0018359Y0190001D01*
X0017774Y0190299D01*
X0017149Y0190502D01*
X0016500Y0190605D01*
X0016359Y0190605D01*
X0016359Y0186617D01*
X0020346Y0186617D01*
X0020127Y0187764D02*
X0024327Y0187764D01*
X0025526Y0186566D02*
X0016359Y0186566D01*
X0016359Y0186617D02*
X0016359Y0186242D01*
X0015984Y0186242D01*
X0015984Y0182255D01*
X0015843Y0182255D01*
X0015194Y0182358D01*
X0014569Y0182561D01*
X0013983Y0182859D01*
X0013452Y0183246D01*
X0012987Y0183710D01*
X0012601Y0184242D01*
X0012302Y0184827D01*
X0012099Y0185452D01*
X0011996Y0186101D01*
X0011996Y0186242D01*
X0015984Y0186242D01*
X0015984Y0186617D01*
X0011996Y0186617D01*
X0011996Y0186758D01*
X0012099Y0187408D01*
X0012302Y0188032D01*
X0012601Y0188618D01*
X0012987Y0189150D01*
X0013452Y0189614D01*
X0013983Y0190001D01*
X0014569Y0190299D01*
X0015194Y0190502D01*
X0015843Y0190605D01*
X0015984Y0190605D01*
X0015984Y0186617D01*
X0016359Y0186617D01*
X0015984Y0186566D02*
X0010346Y0186566D01*
X0010250Y0185367D02*
X0012127Y0185367D01*
X0012654Y0184169D02*
X0009753Y0184169D01*
X0008616Y0182970D02*
X0013830Y0182970D01*
X0015984Y0182970D02*
X0016359Y0182970D01*
X0016359Y0184169D02*
X0015984Y0184169D01*
X0015984Y0185367D02*
X0016359Y0185367D01*
X0016359Y0187764D02*
X0015984Y0187764D01*
X0015984Y0188963D02*
X0016359Y0188963D01*
X0016359Y0190161D02*
X0015984Y0190161D01*
X0014299Y0190161D02*
X0008072Y0190161D01*
X0009542Y0188963D02*
X0012851Y0188963D01*
X0012215Y0187764D02*
X0010137Y0187764D01*
X0009700Y0192558D02*
X0014608Y0192558D01*
X0012940Y0193757D02*
X0010346Y0193757D01*
X0010346Y0194956D02*
X0012263Y0194956D01*
X0011996Y0196154D02*
X0010346Y0196154D01*
X0010346Y0197353D02*
X0012035Y0197353D01*
X0017734Y0192558D02*
X0022321Y0192558D01*
X0022321Y0191360D02*
X0003171Y0191360D01*
X0003171Y0190161D02*
X0004271Y0190161D01*
X0005984Y0192558D02*
X0006359Y0192558D01*
X0006359Y0193757D02*
X0005984Y0193757D01*
X0005984Y0194956D02*
X0006359Y0194956D01*
X0006359Y0196154D02*
X0005984Y0196154D01*
X0003727Y0182970D02*
X0003171Y0182970D01*
X0003171Y0181772D02*
X0132971Y0181772D01*
X0132971Y0182970D02*
X0018512Y0182970D01*
X0019689Y0184169D02*
X0132971Y0184169D01*
X0135171Y0185194D02*
X0135171Y0164194D01*
X0128171Y0157194D01*
X0121171Y0157194D01*
X0116421Y0156603D02*
X0112692Y0156603D01*
X0112371Y0155405D02*
X0116421Y0155405D01*
X0116446Y0154206D02*
X0112371Y0154206D01*
X0112371Y0153008D02*
X0143689Y0153008D01*
X0142574Y0154206D02*
X0125896Y0154206D01*
X0129493Y0155405D02*
X0142077Y0155405D01*
X0141996Y0156603D02*
X0130692Y0156603D01*
X0131890Y0157802D02*
X0142221Y0157802D01*
X0142837Y0159000D02*
X0133089Y0159000D01*
X0134288Y0160199D02*
X0144361Y0160199D01*
X0144519Y0162596D02*
X0136685Y0162596D01*
X0137371Y0163794D02*
X0142903Y0163794D01*
X0142248Y0164993D02*
X0137371Y0164993D01*
X0137371Y0166191D02*
X0141996Y0166191D01*
X0142050Y0167390D02*
X0137371Y0167390D01*
X0137371Y0168588D02*
X0142547Y0168588D01*
X0143624Y0169787D02*
X0137371Y0169787D01*
X0137371Y0170985D02*
X0159171Y0170985D01*
X0159171Y0169787D02*
X0158718Y0169787D01*
X0159171Y0162596D02*
X0157824Y0162596D01*
X0159171Y0161397D02*
X0135486Y0161397D01*
X0132859Y0164993D02*
X0125921Y0164993D01*
X0125886Y0166191D02*
X0132971Y0166191D01*
X0132971Y0167390D02*
X0125921Y0167390D01*
X0125921Y0168588D02*
X0132971Y0168588D01*
X0132971Y0169787D02*
X0125921Y0169787D01*
X0126074Y0170985D02*
X0132971Y0170985D01*
X0132971Y0172184D02*
X0127273Y0172184D01*
X0129223Y0173382D02*
X0132971Y0173382D01*
X0132971Y0174581D02*
X0130750Y0174581D01*
X0131171Y0175779D02*
X0132971Y0175779D01*
X0132971Y0176978D02*
X0131094Y0176978D01*
X0130431Y0178176D02*
X0132971Y0178176D01*
X0132971Y0179375D02*
X0019130Y0179375D01*
X0019710Y0178795D02*
X0018536Y0179969D01*
X0017002Y0180605D01*
X0015341Y0180605D01*
X0013806Y0179969D01*
X0012632Y0178795D01*
X0011996Y0177260D01*
X0011996Y0175599D01*
X0012632Y0174065D01*
X0013806Y0172891D01*
X0015341Y0172255D01*
X0017002Y0172255D01*
X0018536Y0172891D01*
X0019710Y0174065D01*
X0020346Y0175599D01*
X0020346Y0177260D01*
X0019710Y0178795D01*
X0019967Y0178176D02*
X0125911Y0178176D01*
X0125249Y0176978D02*
X0020346Y0176978D01*
X0020346Y0175779D02*
X0096646Y0175779D01*
X0095447Y0174581D02*
X0088027Y0174581D01*
X0088926Y0173382D02*
X0094249Y0173382D01*
X0093050Y0172184D02*
X0089171Y0172184D01*
X0088918Y0170985D02*
X0091852Y0170985D01*
X0090653Y0169787D02*
X0088007Y0169787D01*
X0085092Y0169394D02*
X0055260Y0169394D01*
X0053971Y0168105D01*
X0041171Y0155305D01*
X0041171Y0155790D01*
X0040715Y0156893D01*
X0040371Y0157236D01*
X0040371Y0161282D01*
X0049083Y0169994D01*
X0084129Y0169994D01*
X0084472Y0169650D01*
X0085092Y0169394D01*
X0084336Y0169787D02*
X0048876Y0169787D01*
X0047677Y0168588D02*
X0054455Y0168588D01*
X0053256Y0167390D02*
X0046479Y0167390D01*
X0045280Y0166191D02*
X0052058Y0166191D01*
X0050859Y0164993D02*
X0044082Y0164993D01*
X0042883Y0163794D02*
X0049661Y0163794D01*
X0048462Y0162596D02*
X0041685Y0162596D01*
X0040486Y0161397D02*
X0047263Y0161397D01*
X0046065Y0160199D02*
X0040371Y0160199D01*
X0040371Y0159000D02*
X0044866Y0159000D01*
X0043668Y0157802D02*
X0040371Y0157802D01*
X0040835Y0156603D02*
X0042469Y0156603D01*
X0041271Y0155405D02*
X0041171Y0155405D01*
X0043898Y0151809D02*
X0094971Y0151809D01*
X0094971Y0150611D02*
X0042699Y0150611D01*
X0041501Y0149412D02*
X0094971Y0149412D01*
X0094971Y0148214D02*
X0040302Y0148214D01*
X0039104Y0147015D02*
X0094971Y0147015D01*
X0094971Y0145817D02*
X0020301Y0145817D01*
X0020346Y0146101D02*
X0020346Y0146242D01*
X0016359Y0146242D01*
X0016359Y0142255D01*
X0016500Y0142255D01*
X0017149Y0142358D01*
X0017774Y0142561D01*
X0018359Y0142859D01*
X0018891Y0143246D01*
X0019356Y0143710D01*
X0019742Y0144242D01*
X0020040Y0144827D01*
X0020243Y0145452D01*
X0020346Y0146101D01*
X0020346Y0146617D02*
X0020346Y0146758D01*
X0020243Y0147408D01*
X0020040Y0148032D01*
X0019742Y0148618D01*
X0019356Y0149150D01*
X0018891Y0149614D01*
X0018359Y0150001D01*
X0017774Y0150299D01*
X0017149Y0150502D01*
X0016500Y0150605D01*
X0016359Y0150605D01*
X0016359Y0146617D01*
X0020346Y0146617D01*
X0020305Y0147015D02*
X0032393Y0147015D01*
X0031198Y0148214D02*
X0019948Y0148214D01*
X0019093Y0149412D02*
X0030007Y0149412D01*
X0028814Y0150611D02*
X0003171Y0150611D01*
X0003171Y0151809D02*
X0027621Y0151809D01*
X0026428Y0153008D02*
X0018653Y0153008D01*
X0018536Y0152891D02*
X0019710Y0154065D01*
X0020346Y0155599D01*
X0020346Y0157260D01*
X0019710Y0158795D01*
X0018536Y0159969D01*
X0017002Y0160605D01*
X0015341Y0160605D01*
X0013806Y0159969D01*
X0012632Y0158795D01*
X0011996Y0157260D01*
X0011996Y0155599D01*
X0012632Y0154065D01*
X0013806Y0152891D01*
X0015341Y0152255D01*
X0017002Y0152255D01*
X0018536Y0152891D01*
X0019769Y0154206D02*
X0025235Y0154206D01*
X0024042Y0155405D02*
X0020265Y0155405D01*
X0020346Y0156603D02*
X0022849Y0156603D01*
X0021656Y0157802D02*
X0020122Y0157802D01*
X0020463Y0159000D02*
X0019505Y0159000D01*
X0019270Y0160199D02*
X0017982Y0160199D01*
X0018077Y0161397D02*
X0003171Y0161397D01*
X0003171Y0160199D02*
X0004361Y0160199D01*
X0004519Y0162596D02*
X0003171Y0162596D01*
X0007824Y0162596D02*
X0014519Y0162596D01*
X0012903Y0163794D02*
X0009440Y0163794D01*
X0010095Y0164993D02*
X0012248Y0164993D01*
X0011996Y0166191D02*
X0010346Y0166191D01*
X0010292Y0167390D02*
X0012050Y0167390D01*
X0012547Y0168588D02*
X0009796Y0168588D01*
X0008718Y0169787D02*
X0013624Y0169787D01*
X0016171Y0166430D02*
X0033329Y0149194D01*
X0038171Y0149194D01*
X0056171Y0167194D01*
X0091171Y0167194D01*
X0098171Y0174194D01*
X0126171Y0174194D01*
X0128171Y0176194D01*
X0121171Y0169194D01*
X0121171Y0170194D02*
X0121171Y0164194D01*
X0121171Y0163194D02*
X0116171Y0163194D01*
X0110171Y0157194D01*
X0110171Y0135194D01*
X0107171Y0132194D01*
X0106179Y0135030D02*
X0095119Y0135030D01*
X0095083Y0134994D02*
X0098083Y0137994D01*
X0099171Y0139082D01*
X0099171Y0138597D01*
X0099628Y0137494D01*
X0100472Y0136650D01*
X0101575Y0136194D01*
X0102768Y0136194D01*
X0103871Y0136650D01*
X0104715Y0137494D01*
X0105171Y0138597D01*
X0105171Y0139790D01*
X0104715Y0140893D01*
X0104371Y0141236D01*
X0104371Y0147151D01*
X0104715Y0147494D01*
X0105171Y0148597D01*
X0105171Y0149790D01*
X0104715Y0150893D01*
X0103871Y0151737D01*
X0102768Y0152194D01*
X0101575Y0152194D01*
X0100472Y0151737D01*
X0099628Y0150893D01*
X0099371Y0150273D01*
X0099371Y0153282D01*
X0100283Y0154194D01*
X0100768Y0154194D01*
X0101871Y0154650D01*
X0102715Y0155494D01*
X0103171Y0156597D01*
X0103171Y0157790D01*
X0102715Y0158893D01*
X0101871Y0159737D01*
X0100768Y0160194D01*
X0099575Y0160194D01*
X0098472Y0159737D01*
X0097628Y0158893D01*
X0097171Y0157790D01*
X0097171Y0157305D01*
X0094971Y0155105D01*
X0094971Y0141105D01*
X0093260Y0139394D01*
X0058260Y0139394D01*
X0057060Y0138194D01*
X0056575Y0138194D01*
X0055472Y0137737D01*
X0054628Y0136893D01*
X0054171Y0135790D01*
X0054171Y0134597D01*
X0054628Y0133494D01*
X0055472Y0132650D01*
X0056575Y0132194D01*
X0057768Y0132194D01*
X0058871Y0132650D01*
X0059715Y0133494D01*
X0060171Y0134597D01*
X0060171Y0134994D01*
X0095083Y0134994D01*
X0096317Y0136228D02*
X0101491Y0136228D01*
X0102852Y0136228D02*
X0107971Y0136228D01*
X0107971Y0137427D02*
X0104647Y0137427D01*
X0105171Y0138625D02*
X0107971Y0138625D01*
X0107971Y0139824D02*
X0105157Y0139824D01*
X0104585Y0141023D02*
X0107971Y0141023D01*
X0107971Y0142221D02*
X0104371Y0142221D01*
X0104371Y0143420D02*
X0107971Y0143420D01*
X0107971Y0144618D02*
X0104371Y0144618D01*
X0104371Y0145817D02*
X0107971Y0145817D01*
X0107971Y0147015D02*
X0104371Y0147015D01*
X0105012Y0148214D02*
X0107971Y0148214D01*
X0107971Y0149412D02*
X0105171Y0149412D01*
X0104832Y0150611D02*
X0107971Y0150611D01*
X0107971Y0151809D02*
X0103696Y0151809D01*
X0102625Y0155405D02*
X0107971Y0155405D01*
X0107971Y0156603D02*
X0103171Y0156603D01*
X0103167Y0157802D02*
X0107971Y0157802D01*
X0108866Y0159000D02*
X0102607Y0159000D01*
X0100171Y0157194D02*
X0097171Y0154194D01*
X0097171Y0140194D01*
X0094171Y0137194D01*
X0059171Y0137194D01*
X0057171Y0135194D01*
X0054353Y0136228D02*
X0020346Y0136228D01*
X0020277Y0137427D02*
X0055162Y0137427D01*
X0054171Y0135030D02*
X0020654Y0135030D01*
X0021841Y0133831D02*
X0054488Y0133831D01*
X0055514Y0132633D02*
X0023027Y0132633D01*
X0024214Y0131434D02*
X0104239Y0131434D01*
X0104171Y0132633D02*
X0058828Y0132633D01*
X0059854Y0133831D02*
X0104602Y0133831D01*
X0104886Y0130236D02*
X0025401Y0130236D01*
X0026375Y0129037D02*
X0135971Y0129037D01*
X0135971Y0127839D02*
X0026371Y0127839D01*
X0026836Y0126640D02*
X0135971Y0126640D01*
X0135971Y0125442D02*
X0028034Y0125442D01*
X0029233Y0124243D02*
X0099695Y0124243D01*
X0100359Y0124907D02*
X0097269Y0121817D01*
X0076697Y0121817D01*
X0075760Y0120880D01*
X0075760Y0111681D01*
X0076697Y0110743D01*
X0101645Y0110743D01*
X0102582Y0111681D01*
X0102582Y0118079D01*
X0104884Y0120381D01*
X0105371Y0121557D01*
X0105371Y0122830D01*
X0104884Y0124006D01*
X0103984Y0124907D01*
X0102808Y0125394D01*
X0101535Y0125394D01*
X0100359Y0124907D01*
X0098497Y0123045D02*
X0030431Y0123045D01*
X0031630Y0121846D02*
X0097298Y0121846D01*
X0102754Y0118251D02*
X0120117Y0118251D01*
X0121171Y0119449D02*
X0103952Y0119449D01*
X0104995Y0120648D02*
X0121526Y0120648D01*
X0122736Y0121846D02*
X0105371Y0121846D01*
X0105282Y0123045D02*
X0136364Y0123045D01*
X0135971Y0124243D02*
X0104647Y0124243D01*
X0109456Y0130236D02*
X0135971Y0130236D01*
X0135971Y0131434D02*
X0110104Y0131434D01*
X0110722Y0132633D02*
X0135971Y0132633D01*
X0135971Y0133831D02*
X0111920Y0133831D01*
X0112371Y0135030D02*
X0135971Y0135030D01*
X0135971Y0136228D02*
X0112371Y0136228D01*
X0112371Y0137427D02*
X0135971Y0137427D01*
X0135971Y0138625D02*
X0112371Y0138625D01*
X0112371Y0139824D02*
X0135971Y0139824D01*
X0135409Y0141023D02*
X0112371Y0141023D01*
X0112371Y0142221D02*
X0135171Y0142221D01*
X0135432Y0143420D02*
X0112371Y0143420D01*
X0112371Y0144618D02*
X0136353Y0144618D01*
X0138171Y0142194D02*
X0138171Y0124351D01*
X0146171Y0116430D01*
X0143240Y0113457D02*
X0121546Y0113457D01*
X0122744Y0114655D02*
X0142388Y0114655D01*
X0141996Y0115854D02*
X0123943Y0115854D01*
X0124171Y0119194D02*
X0097171Y0092194D01*
X0098774Y0090685D02*
X0159171Y0090685D01*
X0159171Y0089487D02*
X0159019Y0089487D01*
X0156171Y0086430D02*
X0151171Y0081509D01*
X0151171Y0072194D01*
X0150171Y0071194D01*
X0142171Y0071194D01*
X0140171Y0069194D01*
X0113171Y0069194D01*
X0113171Y0067209D01*
X0112156Y0066194D01*
X0111416Y0070550D02*
X0110115Y0070550D01*
X0109990Y0070425D01*
X0109865Y0070550D01*
X0105784Y0070550D01*
X0105659Y0070425D01*
X0105535Y0070550D01*
X0101453Y0070550D01*
X0101276Y0070373D01*
X0101159Y0070441D01*
X0100752Y0070550D01*
X0099252Y0070550D01*
X0099252Y0066283D01*
X0099074Y0066283D01*
X0099074Y0070550D01*
X0097575Y0070550D01*
X0097168Y0070441D01*
X0097050Y0070373D01*
X0096873Y0070550D01*
X0092792Y0070550D01*
X0092702Y0070460D01*
X0092702Y0071774D01*
X0088483Y0075994D01*
X0097260Y0075994D01*
X0102260Y0070994D01*
X0111860Y0070994D01*
X0111416Y0070550D01*
X0107825Y0066194D02*
X0107825Y0056540D01*
X0109171Y0055194D01*
X0139171Y0055194D01*
X0143171Y0051194D01*
X0151329Y0051194D01*
X0156171Y0046430D01*
X0159171Y0043526D02*
X0158536Y0042891D01*
X0157002Y0042255D01*
X0155341Y0042255D01*
X0153806Y0042891D01*
X0152632Y0044065D01*
X0151996Y0045599D01*
X0151996Y0047260D01*
X0152053Y0047396D01*
X0150428Y0048994D01*
X0149512Y0048994D01*
X0149710Y0048795D01*
X0150346Y0047260D01*
X0150346Y0045599D01*
X0149710Y0044065D01*
X0149039Y0043394D01*
X0151320Y0043394D01*
X0152222Y0043401D01*
X0152229Y0043394D01*
X0152240Y0043394D01*
X0152879Y0042755D01*
X0155146Y0040524D01*
X0155341Y0040605D01*
X0157002Y0040605D01*
X0158536Y0039969D01*
X0159171Y0039334D01*
X0159171Y0043526D01*
X0159171Y0042745D02*
X0158183Y0042745D01*
X0159171Y0041546D02*
X0154108Y0041546D01*
X0154159Y0042745D02*
X0152889Y0042745D01*
X0152754Y0043943D02*
X0149588Y0043943D01*
X0150156Y0045142D02*
X0152186Y0045142D01*
X0151996Y0046340D02*
X0150346Y0046340D01*
X0150231Y0047539D02*
X0151907Y0047539D01*
X0150689Y0048737D02*
X0149734Y0048737D01*
X0146171Y0046430D02*
X0141935Y0046430D01*
X0137171Y0051194D01*
X0107171Y0051194D01*
X0103494Y0054871D01*
X0103494Y0066194D01*
X0101276Y0062015D02*
X0101294Y0061997D01*
X0101294Y0056182D01*
X0097033Y0060444D01*
X0097033Y0061997D01*
X0097050Y0062015D01*
X0097168Y0061947D01*
X0097575Y0061838D01*
X0099074Y0061838D01*
X0099074Y0066105D01*
X0099252Y0066105D01*
X0099252Y0061838D01*
X0100752Y0061838D01*
X0101159Y0061947D01*
X0101276Y0062015D01*
X0101294Y0061921D02*
X0101062Y0061921D01*
X0101294Y0060722D02*
X0097033Y0060722D01*
X0097033Y0061921D02*
X0097265Y0061921D01*
X0099074Y0061921D02*
X0099252Y0061921D01*
X0099252Y0063119D02*
X0099074Y0063119D01*
X0099074Y0064318D02*
X0099252Y0064318D01*
X0099252Y0065516D02*
X0099074Y0065516D01*
X0099074Y0066715D02*
X0099252Y0066715D01*
X0099252Y0067913D02*
X0099074Y0067913D01*
X0099074Y0069112D02*
X0099252Y0069112D01*
X0099252Y0070310D02*
X0099074Y0070310D01*
X0100546Y0072707D02*
X0091769Y0072707D01*
X0092702Y0071509D02*
X0101745Y0071509D01*
X0099348Y0073906D02*
X0090570Y0073906D01*
X0089372Y0075104D02*
X0098149Y0075104D01*
X0090502Y0070863D02*
X0086171Y0075194D01*
X0069171Y0075194D01*
X0067171Y0077194D01*
X0067171Y0102194D01*
X0055171Y0114194D01*
X0054233Y0117052D02*
X0050171Y0117052D01*
X0049981Y0118251D02*
X0075760Y0118251D01*
X0075760Y0119449D02*
X0049158Y0119449D01*
X0047171Y0117194D02*
X0045171Y0115194D01*
X0032171Y0115194D01*
X0022171Y0125194D01*
X0022171Y0127194D01*
X0018171Y0131194D01*
X0011329Y0131194D01*
X0006171Y0136430D01*
X0003171Y0133526D02*
X0003806Y0132891D01*
X0005341Y0132255D01*
X0007002Y0132255D01*
X0007139Y0132312D01*
X0009129Y0130292D01*
X0009129Y0130282D01*
X0009767Y0129644D01*
X0010401Y0129001D01*
X0010411Y0129001D01*
X0010417Y0128994D01*
X0011320Y0128994D01*
X0012223Y0128987D01*
X0012230Y0128994D01*
X0012831Y0128994D01*
X0012632Y0128795D01*
X0011996Y0127260D01*
X0011996Y0125599D01*
X0012632Y0124065D01*
X0013303Y0123394D01*
X0012250Y0123394D01*
X0010266Y0125407D01*
X0010346Y0125599D01*
X0010346Y0127260D01*
X0009710Y0128795D01*
X0008536Y0129969D01*
X0007002Y0130605D01*
X0005341Y0130605D01*
X0003806Y0129969D01*
X0003171Y0129334D01*
X0003171Y0133526D01*
X0003171Y0132633D02*
X0004429Y0132633D01*
X0003171Y0131434D02*
X0008004Y0131434D01*
X0007892Y0130236D02*
X0009175Y0130236D01*
X0009468Y0129037D02*
X0010365Y0129037D01*
X0010106Y0127839D02*
X0012236Y0127839D01*
X0011996Y0126640D02*
X0010346Y0126640D01*
X0010281Y0125442D02*
X0012062Y0125442D01*
X0012558Y0124243D02*
X0011413Y0124243D01*
X0011329Y0121194D02*
X0020171Y0121194D01*
X0030171Y0111194D01*
X0043171Y0111194D01*
X0046171Y0108194D01*
X0054171Y0108194D01*
X0056965Y0109289D02*
X0058060Y0108194D01*
X0057575Y0108194D01*
X0057171Y0108027D01*
X0057171Y0108790D01*
X0056965Y0109289D01*
X0057171Y0108663D02*
X0057591Y0108663D01*
X0058171Y0105194D02*
X0027171Y0105194D01*
X0016093Y0116272D01*
X0016171Y0116430D01*
X0013240Y0113457D02*
X0009102Y0113457D01*
X0008536Y0112891D02*
X0009710Y0114065D01*
X0010346Y0115599D01*
X0010346Y0117260D01*
X0009710Y0118795D01*
X0008536Y0119969D01*
X0007002Y0120605D01*
X0005341Y0120605D01*
X0003806Y0119969D01*
X0003171Y0119334D01*
X0003171Y0123526D01*
X0003806Y0122891D01*
X0005341Y0122255D01*
X0007002Y0122255D01*
X0007139Y0122312D01*
X0009129Y0120292D01*
X0009129Y0120282D01*
X0009767Y0119644D01*
X0010401Y0119001D01*
X0010411Y0119001D01*
X0010417Y0118994D01*
X0011320Y0118994D01*
X0012223Y0118987D01*
X0012230Y0118994D01*
X0012831Y0118994D01*
X0012632Y0118795D01*
X0011996Y0117260D01*
X0011996Y0115599D01*
X0012632Y0114065D01*
X0013806Y0112891D01*
X0015341Y0112255D01*
X0016999Y0112255D01*
X0024860Y0104394D01*
X0019847Y0104394D01*
X0020346Y0105599D01*
X0020346Y0107260D01*
X0019710Y0108795D01*
X0018536Y0109969D01*
X0017002Y0110605D01*
X0015341Y0110605D01*
X0013806Y0109969D01*
X0012632Y0108795D01*
X0011996Y0107260D01*
X0011996Y0105599D01*
X0012496Y0104394D01*
X0011252Y0104394D01*
X0010264Y0105401D01*
X0010346Y0105599D01*
X0010346Y0107260D01*
X0009710Y0108795D01*
X0008536Y0109969D01*
X0007002Y0110605D01*
X0005341Y0110605D01*
X0003806Y0109969D01*
X0003171Y0109334D01*
X0003171Y0113526D01*
X0003806Y0112891D01*
X0005341Y0112255D01*
X0007002Y0112255D01*
X0008536Y0112891D01*
X0007009Y0112258D02*
X0015333Y0112258D01*
X0013698Y0109861D02*
X0008644Y0109861D01*
X0009765Y0108663D02*
X0012577Y0108663D01*
X0012081Y0107464D02*
X0010262Y0107464D01*
X0010346Y0106266D02*
X0011996Y0106266D01*
X0012217Y0105067D02*
X0010591Y0105067D01*
X0010329Y0102194D02*
X0039171Y0102194D01*
X0040171Y0101194D01*
X0042614Y0102994D02*
X0056129Y0102994D01*
X0056472Y0102650D01*
X0057575Y0102194D01*
X0058768Y0102194D01*
X0059871Y0102650D01*
X0060715Y0103494D01*
X0061171Y0104597D01*
X0061171Y0105082D01*
X0064971Y0101282D01*
X0064971Y0098636D01*
X0064871Y0098737D01*
X0063768Y0099194D01*
X0062575Y0099194D01*
X0061472Y0098737D01*
X0060628Y0097893D01*
X0060171Y0096790D01*
X0060171Y0095597D01*
X0060628Y0094494D01*
X0060971Y0094151D01*
X0060971Y0088636D01*
X0060871Y0088737D01*
X0059768Y0089194D01*
X0058575Y0089194D01*
X0057472Y0088737D01*
X0057129Y0088394D01*
X0054260Y0088394D01*
X0052971Y0087105D01*
X0045971Y0080105D01*
X0045971Y0046236D01*
X0045628Y0045893D01*
X0045171Y0044790D01*
X0045171Y0043597D01*
X0045255Y0043394D01*
X0040087Y0043394D01*
X0040171Y0043597D01*
X0040171Y0044790D01*
X0039715Y0045893D01*
X0038871Y0046737D01*
X0038823Y0046757D01*
X0039171Y0047597D01*
X0039171Y0048790D01*
X0038715Y0049893D01*
X0037871Y0050737D01*
X0036768Y0051194D01*
X0035575Y0051194D01*
X0034472Y0050737D01*
X0034129Y0050394D01*
X0025083Y0050394D01*
X0023371Y0052105D01*
X0022083Y0053394D01*
X0019039Y0053394D01*
X0019710Y0054065D01*
X0020346Y0055599D01*
X0020346Y0055994D01*
X0035083Y0055994D01*
X0036371Y0057282D01*
X0038283Y0059194D01*
X0038768Y0059194D01*
X0039871Y0059650D01*
X0040715Y0060494D01*
X0041171Y0061597D01*
X0041171Y0062790D01*
X0040715Y0063893D01*
X0039871Y0064737D01*
X0038768Y0065194D01*
X0037575Y0065194D01*
X0036472Y0064737D01*
X0036171Y0064436D01*
X0036171Y0064790D01*
X0035715Y0065893D01*
X0034871Y0066737D01*
X0033768Y0067194D01*
X0032575Y0067194D01*
X0032171Y0067027D01*
X0032171Y0067790D01*
X0031715Y0068893D01*
X0030871Y0069737D01*
X0029970Y0070110D01*
X0030171Y0070597D01*
X0030171Y0071790D01*
X0029715Y0072893D01*
X0028871Y0073737D01*
X0027768Y0074194D01*
X0026575Y0074194D01*
X0025472Y0073737D01*
X0025129Y0073394D01*
X0019039Y0073394D01*
X0019710Y0074065D01*
X0020095Y0074994D01*
X0023129Y0074994D01*
X0023472Y0074650D01*
X0024575Y0074194D01*
X0025768Y0074194D01*
X0026871Y0074650D01*
X0027715Y0075494D01*
X0028171Y0076597D01*
X0028171Y0077790D01*
X0027715Y0078893D01*
X0026871Y0079737D01*
X0025768Y0080194D01*
X0024575Y0080194D01*
X0023472Y0079737D01*
X0023129Y0079394D01*
X0019112Y0079394D01*
X0018536Y0079969D01*
X0017002Y0080605D01*
X0015341Y0080605D01*
X0013806Y0079969D01*
X0012632Y0078795D01*
X0011996Y0077260D01*
X0011996Y0075599D01*
X0012632Y0074065D01*
X0013303Y0073394D01*
X0012250Y0073394D01*
X0010266Y0075407D01*
X0010346Y0075599D01*
X0010346Y0077260D01*
X0009710Y0078795D01*
X0008536Y0079969D01*
X0007002Y0080605D01*
X0005341Y0080605D01*
X0003806Y0079969D01*
X0003171Y0079334D01*
X0003171Y0083526D01*
X0003806Y0082891D01*
X0005341Y0082255D01*
X0007002Y0082255D01*
X0008536Y0082891D01*
X0009710Y0084065D01*
X0010346Y0085599D01*
X0010346Y0087260D01*
X0009710Y0088795D01*
X0008536Y0089969D01*
X0007002Y0090605D01*
X0005341Y0090605D01*
X0003806Y0089969D01*
X0003171Y0089334D01*
X0003171Y0093526D01*
X0003806Y0092891D01*
X0005341Y0092255D01*
X0007002Y0092255D01*
X0007139Y0092312D01*
X0009129Y0090292D01*
X0009129Y0090282D01*
X0009767Y0089644D01*
X0010401Y0089001D01*
X0010411Y0089001D01*
X0010417Y0088994D01*
X0011320Y0088994D01*
X0012223Y0088987D01*
X0012230Y0088994D01*
X0012831Y0088994D01*
X0012632Y0088795D01*
X0011996Y0087260D01*
X0011996Y0085599D01*
X0012632Y0084065D01*
X0013806Y0082891D01*
X0015341Y0082255D01*
X0017002Y0082255D01*
X0018536Y0082891D01*
X0019710Y0084065D01*
X0019779Y0084230D01*
X0046487Y0084230D01*
X0046575Y0084194D01*
X0047768Y0084194D01*
X0048871Y0084650D01*
X0049715Y0085494D01*
X0050171Y0086597D01*
X0050171Y0087790D01*
X0049715Y0088893D01*
X0048871Y0089737D01*
X0047768Y0090194D01*
X0046575Y0090194D01*
X0045472Y0089737D01*
X0044628Y0088893D01*
X0044519Y0088630D01*
X0019779Y0088630D01*
X0019710Y0088795D01*
X0019512Y0088994D01*
X0044083Y0088994D01*
X0045283Y0090194D01*
X0045768Y0090194D01*
X0046871Y0090650D01*
X0047715Y0091494D01*
X0048171Y0092597D01*
X0048171Y0093790D01*
X0047715Y0094893D01*
X0046871Y0095737D01*
X0045768Y0096194D01*
X0045414Y0096194D01*
X0045715Y0096494D01*
X0046171Y0097597D01*
X0046171Y0098790D01*
X0045715Y0099893D01*
X0044871Y0100737D01*
X0043768Y0101194D01*
X0043171Y0101194D01*
X0043171Y0101790D01*
X0042715Y0102893D01*
X0042614Y0102994D01*
X0042807Y0102670D02*
X0056452Y0102670D01*
X0059890Y0102670D02*
X0063584Y0102670D01*
X0064782Y0101472D02*
X0043171Y0101472D01*
X0045334Y0100273D02*
X0064971Y0100273D01*
X0064971Y0099075D02*
X0064055Y0099075D01*
X0063171Y0096194D02*
X0063171Y0076194D01*
X0070171Y0069194D01*
X0070171Y0038194D01*
X0087171Y0038194D01*
X0100171Y0025194D01*
X0101265Y0022399D02*
X0101851Y0020985D01*
X0102442Y0020394D01*
X0093260Y0020394D01*
X0091971Y0019105D01*
X0090260Y0017394D01*
X0063483Y0017394D01*
X0064283Y0018194D01*
X0064768Y0018194D01*
X0065871Y0018650D01*
X0066715Y0019494D01*
X0067171Y0020597D01*
X0067171Y0021790D01*
X0066715Y0022893D01*
X0066614Y0022994D01*
X0069083Y0022994D01*
X0069706Y0023617D01*
X0069706Y0022551D01*
X0070355Y0020985D01*
X0071553Y0019786D01*
X0073119Y0019138D01*
X0074814Y0019138D01*
X0076380Y0019786D01*
X0077579Y0020985D01*
X0078227Y0022551D01*
X0078227Y0023027D01*
X0078260Y0022994D01*
X0089129Y0022994D01*
X0089472Y0022650D01*
X0090575Y0022194D01*
X0091768Y0022194D01*
X0092871Y0022650D01*
X0093715Y0023494D01*
X0094171Y0024597D01*
X0094171Y0025790D01*
X0093715Y0026893D01*
X0092871Y0027737D01*
X0091768Y0028194D01*
X0090575Y0028194D01*
X0089472Y0027737D01*
X0089129Y0027394D01*
X0080083Y0027394D01*
X0077083Y0030394D01*
X0070260Y0030394D01*
X0068971Y0029105D01*
X0067260Y0027394D01*
X0067083Y0027394D01*
X0066839Y0027637D01*
X0066871Y0027650D01*
X0067715Y0028494D01*
X0068171Y0029597D01*
X0068171Y0030790D01*
X0067715Y0031893D01*
X0066871Y0032737D01*
X0065768Y0033194D01*
X0065283Y0033194D01*
X0062483Y0035994D01*
X0086260Y0035994D01*
X0097171Y0025082D01*
X0097171Y0024597D01*
X0097628Y0023494D01*
X0098472Y0022650D01*
X0099575Y0022194D01*
X0100768Y0022194D01*
X0101265Y0022399D01*
X0101277Y0022370D02*
X0101193Y0022370D01*
X0101773Y0021171D02*
X0077656Y0021171D01*
X0078152Y0022370D02*
X0090149Y0022370D01*
X0091171Y0025194D02*
X0079171Y0025194D01*
X0076171Y0028194D01*
X0071171Y0028194D01*
X0068171Y0025194D01*
X0066171Y0025194D01*
X0060171Y0031194D01*
X0010856Y0031194D01*
X0006171Y0026430D01*
X0003171Y0029334D02*
X0003806Y0029969D01*
X0005341Y0030605D01*
X0007002Y0030605D01*
X0007136Y0030549D01*
X0008656Y0032094D01*
X0008656Y0032105D01*
X0009294Y0032743D01*
X0009927Y0033386D01*
X0009937Y0033386D01*
X0009945Y0033394D01*
X0010847Y0033394D01*
X0011749Y0033401D01*
X0011757Y0033394D01*
X0013303Y0033394D01*
X0012632Y0034065D01*
X0011996Y0035599D01*
X0011996Y0037260D01*
X0012632Y0038795D01*
X0012831Y0038994D01*
X0011778Y0038994D01*
X0010265Y0037455D01*
X0010346Y0037260D01*
X0010346Y0035599D01*
X0009710Y0034065D01*
X0008536Y0032891D01*
X0007002Y0032255D01*
X0005341Y0032255D01*
X0003806Y0032891D01*
X0003171Y0033526D01*
X0003171Y0029334D01*
X0003171Y0029561D02*
X0003398Y0029561D01*
X0003171Y0030759D02*
X0007344Y0030759D01*
X0008522Y0031958D02*
X0003171Y0031958D01*
X0003171Y0033156D02*
X0003541Y0033156D01*
X0006171Y0036430D02*
X0010856Y0041194D01*
X0051171Y0041194D01*
X0058171Y0048194D01*
X0059171Y0048194D01*
X0058368Y0045279D02*
X0058575Y0045194D01*
X0059768Y0045194D01*
X0060871Y0045650D01*
X0061715Y0046494D01*
X0062171Y0047597D01*
X0062171Y0048790D01*
X0061715Y0049893D01*
X0060871Y0050737D01*
X0059768Y0051194D01*
X0058575Y0051194D01*
X0057472Y0050737D01*
X0056628Y0049893D01*
X0056535Y0049669D01*
X0055971Y0049105D01*
X0051171Y0044305D01*
X0051171Y0044790D01*
X0050715Y0045893D01*
X0050371Y0046236D01*
X0050371Y0078282D01*
X0056083Y0083994D01*
X0057129Y0083994D01*
X0057472Y0083650D01*
X0058575Y0083194D01*
X0059768Y0083194D01*
X0060871Y0083650D01*
X0060971Y0083751D01*
X0060971Y0075282D01*
X0067971Y0068282D01*
X0067971Y0040394D01*
X0053483Y0040394D01*
X0058368Y0045279D01*
X0058230Y0045142D02*
X0067971Y0045142D01*
X0067971Y0046340D02*
X0061560Y0046340D01*
X0062147Y0047539D02*
X0067971Y0047539D01*
X0067971Y0048737D02*
X0062171Y0048737D01*
X0061672Y0049936D02*
X0067971Y0049936D01*
X0067971Y0051134D02*
X0059912Y0051134D01*
X0058431Y0051134D02*
X0050371Y0051134D01*
X0050371Y0049936D02*
X0056671Y0049936D01*
X0055603Y0048737D02*
X0050371Y0048737D01*
X0050371Y0047539D02*
X0054405Y0047539D01*
X0053206Y0046340D02*
X0050371Y0046340D01*
X0051026Y0045142D02*
X0052008Y0045142D01*
X0048171Y0044194D02*
X0048171Y0079194D01*
X0055171Y0086194D01*
X0059171Y0086194D01*
X0057850Y0083494D02*
X0055583Y0083494D01*
X0054384Y0082295D02*
X0060971Y0082295D01*
X0060971Y0081097D02*
X0053186Y0081097D01*
X0051987Y0079898D02*
X0060971Y0079898D01*
X0060971Y0078700D02*
X0050789Y0078700D01*
X0050371Y0077501D02*
X0060971Y0077501D01*
X0060971Y0076303D02*
X0050371Y0076303D01*
X0050371Y0075104D02*
X0061149Y0075104D01*
X0062348Y0073906D02*
X0050371Y0073906D01*
X0050371Y0072707D02*
X0063546Y0072707D01*
X0064745Y0071509D02*
X0050371Y0071509D01*
X0050371Y0070310D02*
X0065943Y0070310D01*
X0067142Y0069112D02*
X0050371Y0069112D01*
X0050371Y0067913D02*
X0067971Y0067913D01*
X0067971Y0066715D02*
X0063425Y0066715D01*
X0063335Y0066805D02*
X0063633Y0066507D01*
X0063843Y0066142D01*
X0063952Y0065735D01*
X0063952Y0063368D01*
X0059114Y0063368D01*
X0059114Y0062169D01*
X0063952Y0062169D01*
X0063952Y0059802D01*
X0063843Y0059395D01*
X0063633Y0059030D01*
X0063335Y0058732D01*
X0062970Y0058522D01*
X0062563Y0058413D01*
X0059114Y0058413D01*
X0059114Y0062168D01*
X0057914Y0062168D01*
X0057914Y0058413D01*
X0054465Y0058413D01*
X0054058Y0058522D01*
X0053693Y0058732D01*
X0053395Y0059030D01*
X0053184Y0059395D01*
X0053075Y0059802D01*
X0053075Y0062169D01*
X0057914Y0062169D01*
X0057914Y0063368D01*
X0053075Y0063368D01*
X0053075Y0065735D01*
X0053184Y0066142D01*
X0053395Y0066507D01*
X0053693Y0066805D01*
X0054058Y0067015D01*
X0054465Y0067124D01*
X0057914Y0067124D01*
X0057914Y0063369D01*
X0059114Y0063369D01*
X0059114Y0067124D01*
X0062563Y0067124D01*
X0062970Y0067015D01*
X0063335Y0066805D01*
X0063952Y0065516D02*
X0067971Y0065516D01*
X0067971Y0064318D02*
X0063952Y0064318D01*
X0063952Y0061921D02*
X0067971Y0061921D01*
X0067971Y0063119D02*
X0059114Y0063119D01*
X0059114Y0061921D02*
X0057914Y0061921D01*
X0057914Y0063119D02*
X0050371Y0063119D01*
X0050371Y0061921D02*
X0053075Y0061921D01*
X0053075Y0060722D02*
X0050371Y0060722D01*
X0050371Y0059524D02*
X0053150Y0059524D01*
X0050371Y0058325D02*
X0067971Y0058325D01*
X0067971Y0057127D02*
X0050371Y0057127D01*
X0050371Y0055928D02*
X0067971Y0055928D01*
X0067971Y0054730D02*
X0050371Y0054730D01*
X0050371Y0053531D02*
X0067971Y0053531D01*
X0067971Y0052333D02*
X0050371Y0052333D01*
X0045971Y0052333D02*
X0023144Y0052333D01*
X0024342Y0051134D02*
X0035431Y0051134D01*
X0036912Y0051134D02*
X0045971Y0051134D01*
X0045971Y0049936D02*
X0038672Y0049936D01*
X0039171Y0048737D02*
X0045971Y0048737D01*
X0045971Y0047539D02*
X0039147Y0047539D01*
X0039267Y0046340D02*
X0045971Y0046340D01*
X0045317Y0045142D02*
X0040026Y0045142D01*
X0040171Y0043943D02*
X0045171Y0043943D01*
X0037171Y0044194D02*
X0018329Y0044194D01*
X0016171Y0046430D01*
X0013303Y0043394D02*
X0011757Y0043394D01*
X0011749Y0043401D01*
X0010847Y0043394D01*
X0009945Y0043394D01*
X0009937Y0043386D01*
X0009927Y0043386D01*
X0009294Y0042743D01*
X0008656Y0042105D01*
X0008656Y0042094D01*
X0007136Y0040549D01*
X0007002Y0040605D01*
X0005341Y0040605D01*
X0003806Y0039969D01*
X0003171Y0039334D01*
X0003171Y0043526D01*
X0003806Y0042891D01*
X0005341Y0042255D01*
X0007002Y0042255D01*
X0008536Y0042891D01*
X0009710Y0044065D01*
X0010346Y0045599D01*
X0010346Y0047260D01*
X0010265Y0047455D01*
X0011778Y0048994D01*
X0012831Y0048994D01*
X0012632Y0048795D01*
X0011996Y0047260D01*
X0011996Y0045599D01*
X0012632Y0044065D01*
X0013303Y0043394D01*
X0012754Y0043943D02*
X0009588Y0043943D01*
X0009296Y0042745D02*
X0008183Y0042745D01*
X0008117Y0041546D02*
X0003171Y0041546D01*
X0003171Y0040348D02*
X0004720Y0040348D01*
X0004159Y0042745D02*
X0003171Y0042745D01*
X0006171Y0046430D02*
X0010856Y0051194D01*
X0021171Y0051194D01*
X0024171Y0048194D01*
X0036171Y0048194D01*
X0036216Y0057127D02*
X0045971Y0057127D01*
X0045971Y0058325D02*
X0037414Y0058325D01*
X0039565Y0059524D02*
X0045971Y0059524D01*
X0045971Y0060722D02*
X0040809Y0060722D01*
X0041171Y0061921D02*
X0045971Y0061921D01*
X0045971Y0063119D02*
X0041035Y0063119D01*
X0040290Y0064318D02*
X0045971Y0064318D01*
X0045971Y0065516D02*
X0035871Y0065516D01*
X0034893Y0066715D02*
X0045971Y0066715D01*
X0045971Y0067913D02*
X0032120Y0067913D01*
X0031496Y0069112D02*
X0045971Y0069112D01*
X0045971Y0070310D02*
X0030053Y0070310D01*
X0030171Y0071509D02*
X0045971Y0071509D01*
X0045971Y0072707D02*
X0029791Y0072707D01*
X0028463Y0073906D02*
X0045971Y0073906D01*
X0045971Y0075104D02*
X0027325Y0075104D01*
X0028049Y0076303D02*
X0045971Y0076303D01*
X0045971Y0077501D02*
X0028171Y0077501D01*
X0027795Y0078700D02*
X0045971Y0078700D01*
X0045971Y0079898D02*
X0026481Y0079898D01*
X0025171Y0077194D02*
X0016856Y0077194D01*
X0016171Y0076430D01*
X0011996Y0076303D02*
X0010346Y0076303D01*
X0010246Y0077501D02*
X0012096Y0077501D01*
X0012593Y0078700D02*
X0009750Y0078700D01*
X0008607Y0079898D02*
X0013736Y0079898D01*
X0015243Y0082295D02*
X0007099Y0082295D01*
X0005243Y0082295D02*
X0003171Y0082295D01*
X0003171Y0081097D02*
X0046963Y0081097D01*
X0048162Y0082295D02*
X0017099Y0082295D01*
X0019139Y0083494D02*
X0049360Y0083494D01*
X0048913Y0084692D02*
X0050559Y0084692D01*
X0049879Y0085891D02*
X0051757Y0085891D01*
X0052956Y0087089D02*
X0050171Y0087089D01*
X0049965Y0088288D02*
X0054154Y0088288D01*
X0060493Y0083494D02*
X0060971Y0083494D01*
X0060971Y0089487D02*
X0049121Y0089487D01*
X0046905Y0090685D02*
X0060971Y0090685D01*
X0060971Y0091884D02*
X0047876Y0091884D01*
X0048171Y0093082D02*
X0060971Y0093082D01*
X0060842Y0094281D02*
X0047968Y0094281D01*
X0047129Y0095479D02*
X0060220Y0095479D01*
X0060171Y0096678D02*
X0045790Y0096678D01*
X0046171Y0097876D02*
X0060621Y0097876D01*
X0062287Y0099075D02*
X0046054Y0099075D01*
X0043171Y0098194D02*
X0041407Y0096430D01*
X0016171Y0096430D01*
X0013303Y0093394D02*
X0012250Y0093394D01*
X0010266Y0095407D01*
X0010346Y0095599D01*
X0010346Y0097260D01*
X0009710Y0098795D01*
X0008536Y0099969D01*
X0007002Y0100605D01*
X0005341Y0100605D01*
X0003806Y0099969D01*
X0003171Y0099334D01*
X0003171Y0103526D01*
X0003806Y0102891D01*
X0005341Y0102255D01*
X0007002Y0102255D01*
X0007133Y0102309D01*
X0008129Y0101295D01*
X0008129Y0101282D01*
X0008766Y0100645D01*
X0009397Y0100002D01*
X0009409Y0100002D01*
X0009417Y0099994D01*
X0010319Y0099994D01*
X0011219Y0099985D01*
X0011228Y0099994D01*
X0013866Y0099994D01*
X0013806Y0099969D01*
X0012632Y0098795D01*
X0011996Y0097260D01*
X0011996Y0095599D01*
X0012632Y0094065D01*
X0013303Y0093394D01*
X0012543Y0094281D02*
X0011376Y0094281D01*
X0012046Y0095479D02*
X0010296Y0095479D01*
X0010346Y0096678D02*
X0011996Y0096678D01*
X0012252Y0097876D02*
X0010091Y0097876D01*
X0009431Y0099075D02*
X0012912Y0099075D01*
X0009131Y0100273D02*
X0007802Y0100273D01*
X0007955Y0101472D02*
X0003171Y0101472D01*
X0003171Y0102670D02*
X0004339Y0102670D01*
X0004540Y0100273D02*
X0003171Y0100273D01*
X0006171Y0096430D02*
X0011329Y0091194D01*
X0043171Y0091194D01*
X0045171Y0093194D01*
X0042378Y0094289D02*
X0042171Y0093790D01*
X0042171Y0093394D01*
X0019039Y0093394D01*
X0019710Y0094065D01*
X0019779Y0094230D01*
X0042319Y0094230D01*
X0042378Y0094289D01*
X0042374Y0094281D02*
X0042369Y0094281D01*
X0044575Y0089487D02*
X0045221Y0089487D01*
X0047171Y0087194D02*
X0046407Y0086430D01*
X0016171Y0086430D01*
X0013203Y0083494D02*
X0009139Y0083494D01*
X0009970Y0084692D02*
X0012372Y0084692D01*
X0011996Y0085891D02*
X0010346Y0085891D01*
X0010346Y0087089D02*
X0011996Y0087089D01*
X0012422Y0088288D02*
X0009920Y0088288D01*
X0009922Y0089487D02*
X0009019Y0089487D01*
X0008742Y0090685D02*
X0003171Y0090685D01*
X0003171Y0089487D02*
X0003324Y0089487D01*
X0003171Y0091884D02*
X0007561Y0091884D01*
X0003615Y0093082D02*
X0003171Y0093082D01*
X0003171Y0083494D02*
X0003203Y0083494D01*
X0003171Y0079898D02*
X0003736Y0079898D01*
X0006171Y0076430D02*
X0011329Y0071194D01*
X0027171Y0071194D01*
X0025880Y0073906D02*
X0019551Y0073906D01*
X0018607Y0079898D02*
X0023862Y0079898D01*
X0029171Y0067194D02*
X0016856Y0067194D01*
X0016171Y0066430D01*
X0013303Y0063394D02*
X0012250Y0063394D01*
X0010266Y0065407D01*
X0010346Y0065599D01*
X0010346Y0067260D01*
X0009710Y0068795D01*
X0008536Y0069969D01*
X0007002Y0070605D01*
X0005341Y0070605D01*
X0003806Y0069969D01*
X0003171Y0069334D01*
X0003171Y0073526D01*
X0003806Y0072891D01*
X0005341Y0072255D01*
X0007002Y0072255D01*
X0007139Y0072312D01*
X0009129Y0070292D01*
X0009129Y0070282D01*
X0009767Y0069644D01*
X0010401Y0069001D01*
X0010411Y0069001D01*
X0010417Y0068994D01*
X0011320Y0068994D01*
X0012223Y0068987D01*
X0012230Y0068994D01*
X0012831Y0068994D01*
X0012632Y0068795D01*
X0011996Y0067260D01*
X0011996Y0065599D01*
X0012632Y0064065D01*
X0013303Y0063394D01*
X0012527Y0064318D02*
X0011340Y0064318D01*
X0012031Y0065516D02*
X0010312Y0065516D01*
X0010346Y0066715D02*
X0011996Y0066715D01*
X0012267Y0067913D02*
X0010076Y0067913D01*
X0010291Y0069112D02*
X0009393Y0069112D01*
X0009111Y0070310D02*
X0007712Y0070310D01*
X0007930Y0071509D02*
X0003171Y0071509D01*
X0003171Y0072707D02*
X0004249Y0072707D01*
X0004630Y0070310D02*
X0003171Y0070310D01*
X0006171Y0066430D02*
X0011329Y0061194D01*
X0018171Y0061194D01*
X0021171Y0064194D01*
X0033171Y0064194D01*
X0034266Y0061400D02*
X0033260Y0060394D01*
X0020483Y0060394D01*
X0022083Y0061994D01*
X0031129Y0061994D01*
X0031472Y0061650D01*
X0032575Y0061194D01*
X0033768Y0061194D01*
X0034266Y0061400D01*
X0033589Y0060722D02*
X0020811Y0060722D01*
X0022010Y0061921D02*
X0031202Y0061921D01*
X0034171Y0058194D02*
X0017856Y0058194D01*
X0016171Y0056430D01*
X0013166Y0053531D02*
X0009177Y0053531D01*
X0009710Y0054065D02*
X0010346Y0055599D01*
X0010346Y0057260D01*
X0009710Y0058795D01*
X0008536Y0059969D01*
X0007002Y0060605D01*
X0005341Y0060605D01*
X0003806Y0059969D01*
X0003171Y0059334D01*
X0003171Y0063526D01*
X0003806Y0062891D01*
X0005341Y0062255D01*
X0007002Y0062255D01*
X0007139Y0062312D01*
X0009129Y0060292D01*
X0009129Y0060282D01*
X0009767Y0059644D01*
X0010401Y0059001D01*
X0010411Y0059001D01*
X0010417Y0058994D01*
X0011320Y0058994D01*
X0012223Y0058987D01*
X0012230Y0058994D01*
X0012831Y0058994D01*
X0012632Y0058795D01*
X0011996Y0057260D01*
X0011996Y0055599D01*
X0012632Y0054065D01*
X0013303Y0053394D01*
X0011757Y0053394D01*
X0011749Y0053401D01*
X0010847Y0053394D01*
X0009945Y0053394D01*
X0009937Y0053386D01*
X0009927Y0053386D01*
X0009294Y0052743D01*
X0008656Y0052105D01*
X0008656Y0052094D01*
X0007136Y0050549D01*
X0007002Y0050605D01*
X0005341Y0050605D01*
X0003806Y0049969D01*
X0003171Y0049334D01*
X0003171Y0053526D01*
X0003806Y0052891D01*
X0005341Y0052255D01*
X0007002Y0052255D01*
X0008536Y0052891D01*
X0009710Y0054065D01*
X0009986Y0054730D02*
X0012357Y0054730D01*
X0011996Y0055928D02*
X0010346Y0055928D01*
X0010346Y0057127D02*
X0011996Y0057127D01*
X0012438Y0058325D02*
X0009905Y0058325D01*
X0009886Y0059524D02*
X0008981Y0059524D01*
X0008705Y0060722D02*
X0003171Y0060722D01*
X0003171Y0059524D02*
X0003361Y0059524D01*
X0003171Y0061921D02*
X0007525Y0061921D01*
X0003578Y0063119D02*
X0003171Y0063119D01*
X0003171Y0052333D02*
X0005154Y0052333D01*
X0007189Y0052333D02*
X0008884Y0052333D01*
X0007712Y0051134D02*
X0003171Y0051134D01*
X0003171Y0049936D02*
X0003773Y0049936D01*
X0010347Y0047539D02*
X0012112Y0047539D01*
X0011996Y0046340D02*
X0010346Y0046340D01*
X0010156Y0045142D02*
X0012186Y0045142D01*
X0012608Y0048737D02*
X0011526Y0048737D01*
X0019512Y0048994D02*
X0020260Y0048994D01*
X0021971Y0047282D01*
X0022860Y0046394D01*
X0020346Y0046394D01*
X0020346Y0047260D01*
X0019710Y0048795D01*
X0019512Y0048994D01*
X0019734Y0048737D02*
X0020517Y0048737D01*
X0020231Y0047539D02*
X0021715Y0047539D01*
X0019177Y0053531D02*
X0045971Y0053531D01*
X0045971Y0054730D02*
X0019986Y0054730D01*
X0020346Y0055928D02*
X0045971Y0055928D01*
X0050371Y0064318D02*
X0053075Y0064318D01*
X0053075Y0065516D02*
X0050371Y0065516D01*
X0050371Y0066715D02*
X0053603Y0066715D01*
X0057914Y0066715D02*
X0059114Y0066715D01*
X0059114Y0065516D02*
X0057914Y0065516D01*
X0057914Y0064318D02*
X0059114Y0064318D01*
X0059114Y0060722D02*
X0057914Y0060722D01*
X0057914Y0059524D02*
X0059114Y0059524D01*
X0063878Y0059524D02*
X0067971Y0059524D01*
X0067971Y0060722D02*
X0063952Y0060722D01*
X0072371Y0060722D02*
X0075310Y0060722D01*
X0075310Y0059524D02*
X0072371Y0059524D01*
X0072371Y0058325D02*
X0075310Y0058325D01*
X0075310Y0057127D02*
X0072371Y0057127D01*
X0072371Y0055928D02*
X0075310Y0055928D01*
X0075310Y0054730D02*
X0072371Y0054730D01*
X0072371Y0053531D02*
X0075310Y0053531D01*
X0075310Y0052333D02*
X0072371Y0052333D01*
X0072371Y0051134D02*
X0075310Y0051134D01*
X0075310Y0049936D02*
X0072371Y0049936D01*
X0072371Y0048737D02*
X0075310Y0048737D01*
X0075310Y0047539D02*
X0072371Y0047539D01*
X0072371Y0046340D02*
X0075310Y0046340D01*
X0075310Y0045944D02*
X0078971Y0042282D01*
X0080260Y0040994D01*
X0096260Y0040994D01*
X0101971Y0035282D01*
X0103260Y0033994D01*
X0105083Y0033994D01*
X0105319Y0034230D01*
X0142564Y0034230D01*
X0142632Y0034065D01*
X0143806Y0032891D01*
X0145341Y0032255D01*
X0147002Y0032255D01*
X0148536Y0032891D01*
X0149710Y0034065D01*
X0150346Y0035599D01*
X0150346Y0037260D01*
X0149710Y0038795D01*
X0149512Y0038994D01*
X0150428Y0038994D01*
X0152053Y0037396D01*
X0151996Y0037260D01*
X0151996Y0035599D01*
X0152632Y0034065D01*
X0153806Y0032891D01*
X0155341Y0032255D01*
X0157002Y0032255D01*
X0158536Y0032891D01*
X0159171Y0033526D01*
X0159171Y0029334D01*
X0158536Y0029969D01*
X0157002Y0030605D01*
X0155341Y0030605D01*
X0153806Y0029969D01*
X0152632Y0028795D01*
X0151996Y0027260D01*
X0151996Y0025599D01*
X0152632Y0024065D01*
X0153806Y0022891D01*
X0155341Y0022255D01*
X0157002Y0022255D01*
X0158536Y0022891D01*
X0159171Y0023526D01*
X0159171Y0019334D01*
X0158536Y0019969D01*
X0157002Y0020605D01*
X0155341Y0020605D01*
X0153806Y0019969D01*
X0152632Y0018795D01*
X0151996Y0017260D01*
X0151996Y0015599D01*
X0152632Y0014065D01*
X0153806Y0012891D01*
X0155341Y0012255D01*
X0157002Y0012255D01*
X0158536Y0012891D01*
X0159171Y0013526D01*
X0159171Y0009334D01*
X0158891Y0009614D01*
X0158359Y0010001D01*
X0157774Y0010299D01*
X0157149Y0010502D01*
X0156500Y0010605D01*
X0156359Y0010605D01*
X0156359Y0006617D01*
X0155984Y0006617D01*
X0155984Y0006242D01*
X0151996Y0006242D01*
X0151996Y0006101D01*
X0152099Y0005452D01*
X0152248Y0004994D01*
X0150094Y0004994D01*
X0150243Y0005452D01*
X0150346Y0006101D01*
X0150346Y0006242D01*
X0146359Y0006242D01*
X0146359Y0006617D01*
X0150346Y0006617D01*
X0150346Y0006758D01*
X0150243Y0007408D01*
X0150040Y0008032D01*
X0149742Y0008618D01*
X0149356Y0009150D01*
X0148891Y0009614D01*
X0148359Y0010001D01*
X0147774Y0010299D01*
X0147149Y0010502D01*
X0146500Y0010605D01*
X0146359Y0010605D01*
X0146359Y0006617D01*
X0145984Y0006617D01*
X0145984Y0006242D01*
X0141996Y0006242D01*
X0141996Y0006101D01*
X0142099Y0005452D01*
X0142248Y0004994D01*
X0020095Y0004994D01*
X0020346Y0005599D01*
X0020346Y0006994D01*
X0108083Y0006994D01*
X0111283Y0010194D01*
X0111768Y0010194D01*
X0112871Y0010650D01*
X0113715Y0011494D01*
X0114171Y0012597D01*
X0114171Y0013790D01*
X0113715Y0014893D01*
X0112871Y0015737D01*
X0112132Y0016043D01*
X0113371Y0017282D01*
X0114371Y0018282D01*
X0114371Y0019436D01*
X0116674Y0019436D01*
X0116674Y0024373D01*
X0117874Y0024373D01*
X0117874Y0025573D01*
X0121630Y0025573D01*
X0121630Y0029121D01*
X0121520Y0029528D01*
X0121310Y0029893D01*
X0121012Y0030191D01*
X0120647Y0030401D01*
X0120240Y0030510D01*
X0117874Y0030510D01*
X0117874Y0025573D01*
X0116674Y0025573D01*
X0116674Y0030510D01*
X0114307Y0030510D01*
X0113900Y0030401D01*
X0113535Y0030191D01*
X0113313Y0029968D01*
X0112768Y0030194D01*
X0111575Y0030194D01*
X0110472Y0029737D01*
X0109628Y0028893D01*
X0109171Y0027790D01*
X0109171Y0026597D01*
X0109628Y0025494D01*
X0109971Y0025151D01*
X0109971Y0020394D01*
X0108483Y0020394D01*
X0109075Y0020985D01*
X0109723Y0022551D01*
X0109723Y0024246D01*
X0109075Y0025812D01*
X0107876Y0027010D01*
X0106310Y0027659D01*
X0104615Y0027659D01*
X0103049Y0027010D01*
X0102778Y0026739D01*
X0102715Y0026893D01*
X0101871Y0027737D01*
X0100768Y0028194D01*
X0100283Y0028194D01*
X0088083Y0040394D01*
X0072371Y0040394D01*
X0072371Y0070105D01*
X0071083Y0071394D01*
X0069483Y0072994D01*
X0085260Y0072994D01*
X0087704Y0070550D01*
X0084131Y0070550D01*
X0084006Y0070425D01*
X0083881Y0070550D01*
X0079800Y0070550D01*
X0079675Y0070425D01*
X0079551Y0070550D01*
X0075469Y0070550D01*
X0074532Y0069612D01*
X0074532Y0062775D01*
X0075310Y0061997D01*
X0075310Y0045944D01*
X0076112Y0045142D02*
X0072371Y0045142D01*
X0072371Y0043943D02*
X0077311Y0043943D01*
X0078509Y0042745D02*
X0072371Y0042745D01*
X0072371Y0041546D02*
X0079708Y0041546D01*
X0081171Y0043194D02*
X0097171Y0043194D01*
X0104171Y0036194D01*
X0104407Y0036430D01*
X0146171Y0036430D01*
X0150060Y0037951D02*
X0151488Y0037951D01*
X0151996Y0036752D02*
X0150346Y0036752D01*
X0150327Y0035554D02*
X0152016Y0035554D01*
X0152512Y0034355D02*
X0149831Y0034355D01*
X0148802Y0033156D02*
X0153541Y0033156D01*
X0153398Y0029561D02*
X0148944Y0029561D01*
X0148536Y0029969D02*
X0147002Y0030605D01*
X0145341Y0030605D01*
X0143806Y0029969D01*
X0142632Y0028795D01*
X0141996Y0027260D01*
X0141996Y0025599D01*
X0142632Y0024065D01*
X0143806Y0022891D01*
X0145341Y0022255D01*
X0147002Y0022255D01*
X0148536Y0022891D01*
X0149710Y0024065D01*
X0150346Y0025599D01*
X0150346Y0027260D01*
X0149710Y0028795D01*
X0148536Y0029969D01*
X0149890Y0028362D02*
X0152453Y0028362D01*
X0151996Y0027164D02*
X0150346Y0027164D01*
X0150346Y0025965D02*
X0151996Y0025965D01*
X0152341Y0024767D02*
X0150001Y0024767D01*
X0149214Y0023568D02*
X0153129Y0023568D01*
X0155064Y0022370D02*
X0147279Y0022370D01*
X0147002Y0020605D02*
X0145341Y0020605D01*
X0143806Y0019969D01*
X0142632Y0018795D01*
X0141996Y0017260D01*
X0141996Y0015599D01*
X0142632Y0014065D01*
X0143806Y0012891D01*
X0145341Y0012255D01*
X0147002Y0012255D01*
X0148536Y0012891D01*
X0149710Y0014065D01*
X0150346Y0015599D01*
X0150346Y0017260D01*
X0149710Y0018795D01*
X0148536Y0019969D01*
X0147002Y0020605D01*
X0148527Y0019973D02*
X0153815Y0019973D01*
X0152624Y0018774D02*
X0149719Y0018774D01*
X0150215Y0017576D02*
X0152127Y0017576D01*
X0151996Y0016377D02*
X0150346Y0016377D01*
X0150172Y0015179D02*
X0152171Y0015179D01*
X0152717Y0013980D02*
X0149626Y0013980D01*
X0148273Y0012782D02*
X0154069Y0012782D01*
X0154833Y0010385D02*
X0147509Y0010385D01*
X0146359Y0010385D02*
X0145984Y0010385D01*
X0145984Y0010605D02*
X0145843Y0010605D01*
X0145194Y0010502D01*
X0144569Y0010299D01*
X0143983Y0010001D01*
X0143452Y0009614D01*
X0142987Y0009150D01*
X0142601Y0008618D01*
X0142302Y0008032D01*
X0142099Y0007408D01*
X0141996Y0006758D01*
X0141996Y0006617D01*
X0145984Y0006617D01*
X0145984Y0010605D01*
X0144833Y0010385D02*
X0112229Y0010385D01*
X0113751Y0011583D02*
X0159171Y0011583D01*
X0159171Y0010385D02*
X0157509Y0010385D01*
X0156359Y0010385D02*
X0155984Y0010385D01*
X0155984Y0010605D02*
X0155843Y0010605D01*
X0155194Y0010502D01*
X0154569Y0010299D01*
X0153983Y0010001D01*
X0153452Y0009614D01*
X0152987Y0009150D01*
X0152601Y0008618D01*
X0152302Y0008032D01*
X0152099Y0007408D01*
X0151996Y0006758D01*
X0151996Y0006617D01*
X0155984Y0006617D01*
X0155984Y0010605D01*
X0155984Y0009186D02*
X0156359Y0009186D01*
X0156359Y0007988D02*
X0155984Y0007988D01*
X0155984Y0006789D02*
X0156359Y0006789D01*
X0153024Y0009186D02*
X0149319Y0009186D01*
X0150055Y0007988D02*
X0152288Y0007988D01*
X0152001Y0006789D02*
X0150341Y0006789D01*
X0150265Y0005591D02*
X0152077Y0005591D01*
X0146359Y0006789D02*
X0145984Y0006789D01*
X0145984Y0007988D02*
X0146359Y0007988D01*
X0146359Y0009186D02*
X0145984Y0009186D01*
X0143024Y0009186D02*
X0110275Y0009186D01*
X0109077Y0007988D02*
X0142288Y0007988D01*
X0142001Y0006789D02*
X0020346Y0006789D01*
X0020342Y0005591D02*
X0142077Y0005591D01*
X0144069Y0012782D02*
X0114171Y0012782D01*
X0114093Y0013980D02*
X0142717Y0013980D01*
X0142171Y0015179D02*
X0113429Y0015179D01*
X0112466Y0016377D02*
X0141996Y0016377D01*
X0142127Y0017576D02*
X0113665Y0017576D01*
X0114371Y0018774D02*
X0142624Y0018774D01*
X0143815Y0019973D02*
X0121229Y0019973D01*
X0121310Y0020054D02*
X0121012Y0019756D01*
X0120647Y0019545D01*
X0120240Y0019436D01*
X0117874Y0019436D01*
X0117874Y0024373D01*
X0121630Y0024373D01*
X0121630Y0020826D01*
X0121520Y0020419D01*
X0121310Y0020054D01*
X0121630Y0021171D02*
X0159171Y0021171D01*
X0159171Y0019973D02*
X0158527Y0019973D01*
X0159171Y0022370D02*
X0157279Y0022370D01*
X0158944Y0029561D02*
X0159171Y0029561D01*
X0159171Y0030759D02*
X0097717Y0030759D01*
X0098915Y0029561D02*
X0110296Y0029561D01*
X0109408Y0028362D02*
X0100114Y0028362D01*
X0102444Y0027164D02*
X0103420Y0027164D01*
X0107505Y0027164D02*
X0109171Y0027164D01*
X0108921Y0025965D02*
X0109433Y0025965D01*
X0109507Y0024767D02*
X0109971Y0024767D01*
X0109971Y0023568D02*
X0109723Y0023568D01*
X0109648Y0022370D02*
X0109971Y0022370D01*
X0109971Y0021171D02*
X0109152Y0021171D01*
X0111171Y0018194D02*
X0094171Y0018194D01*
X0091171Y0015194D01*
X0047171Y0015194D01*
X0041171Y0021194D01*
X0010856Y0021194D01*
X0006171Y0016430D01*
X0003171Y0019334D02*
X0003806Y0019969D01*
X0005341Y0020605D01*
X0007002Y0020605D01*
X0007136Y0020549D01*
X0008656Y0022094D01*
X0008656Y0022105D01*
X0009294Y0022743D01*
X0009927Y0023386D01*
X0009937Y0023386D01*
X0009945Y0023394D01*
X0010846Y0023394D01*
X0011749Y0023401D01*
X0011757Y0023394D01*
X0013303Y0023394D01*
X0012632Y0024065D01*
X0011996Y0025599D01*
X0011996Y0027260D01*
X0012632Y0028795D01*
X0012831Y0028994D01*
X0011778Y0028994D01*
X0010265Y0027455D01*
X0010346Y0027260D01*
X0010346Y0025599D01*
X0009710Y0024065D01*
X0008536Y0022891D01*
X0007002Y0022255D01*
X0005341Y0022255D01*
X0003806Y0022891D01*
X0003171Y0023526D01*
X0003171Y0019334D01*
X0003171Y0019973D02*
X0003815Y0019973D01*
X0003171Y0021171D02*
X0007749Y0021171D01*
X0007279Y0022370D02*
X0008921Y0022370D01*
X0009214Y0023568D02*
X0013129Y0023568D01*
X0012341Y0024767D02*
X0010001Y0024767D01*
X0010346Y0025965D02*
X0011996Y0025965D01*
X0011996Y0027164D02*
X0010346Y0027164D01*
X0011157Y0028362D02*
X0012453Y0028362D01*
X0016171Y0026430D02*
X0040935Y0026430D01*
X0048171Y0019194D01*
X0062171Y0019194D01*
X0064171Y0021194D01*
X0066931Y0022370D02*
X0069781Y0022370D01*
X0069706Y0023568D02*
X0069657Y0023568D01*
X0070277Y0021171D02*
X0067171Y0021171D01*
X0066913Y0019973D02*
X0071367Y0019973D01*
X0076566Y0019973D02*
X0092839Y0019973D01*
X0091641Y0018774D02*
X0065995Y0018774D01*
X0063665Y0017576D02*
X0090442Y0017576D01*
X0093483Y0014394D02*
X0095083Y0015994D01*
X0103255Y0015994D01*
X0103171Y0015790D01*
X0103171Y0015305D01*
X0102260Y0014394D01*
X0093483Y0014394D01*
X0094268Y0015179D02*
X0103045Y0015179D01*
X0103171Y0012194D02*
X0106171Y0015194D01*
X0107266Y0012400D02*
X0106260Y0011394D01*
X0105483Y0011394D01*
X0106283Y0012194D01*
X0106768Y0012194D01*
X0107266Y0012400D01*
X0106450Y0011583D02*
X0105672Y0011583D01*
X0107171Y0009194D02*
X0111171Y0013194D01*
X0110092Y0015994D02*
X0109472Y0015737D01*
X0109171Y0015436D01*
X0109171Y0015790D01*
X0109087Y0015994D01*
X0110092Y0015994D01*
X0111171Y0018194D02*
X0112171Y0019194D01*
X0112171Y0027194D01*
X0116674Y0027164D02*
X0117874Y0027164D01*
X0117874Y0028362D02*
X0116674Y0028362D01*
X0116674Y0029561D02*
X0117874Y0029561D01*
X0117874Y0025965D02*
X0116674Y0025965D01*
X0117874Y0024767D02*
X0142341Y0024767D01*
X0141996Y0025965D02*
X0121630Y0025965D01*
X0121630Y0027164D02*
X0141996Y0027164D01*
X0142453Y0028362D02*
X0121630Y0028362D01*
X0121501Y0029561D02*
X0143398Y0029561D01*
X0143541Y0033156D02*
X0095320Y0033156D01*
X0096518Y0031958D02*
X0159171Y0031958D01*
X0159171Y0033156D02*
X0158802Y0033156D01*
X0156171Y0036430D02*
X0151329Y0041194D01*
X0104171Y0041194D01*
X0099171Y0046194D01*
X0085171Y0046194D01*
X0081841Y0049524D01*
X0081841Y0066194D01*
X0077510Y0066194D02*
X0077510Y0046855D01*
X0081171Y0043194D01*
X0082083Y0045394D02*
X0082860Y0045394D01*
X0079710Y0048544D01*
X0079710Y0047766D01*
X0082083Y0045394D01*
X0081914Y0046340D02*
X0081136Y0046340D01*
X0080715Y0047539D02*
X0079938Y0047539D01*
X0086171Y0051194D02*
X0088171Y0049194D01*
X0101171Y0049194D01*
X0105171Y0045194D01*
X0138171Y0045194D01*
X0140900Y0043943D02*
X0142754Y0043943D01*
X0142632Y0044065D02*
X0143303Y0043394D01*
X0140614Y0043394D01*
X0140715Y0043494D01*
X0141021Y0044233D01*
X0141024Y0044230D01*
X0142564Y0044230D01*
X0142632Y0044065D01*
X0142831Y0038994D02*
X0142632Y0038795D01*
X0142564Y0038630D01*
X0104846Y0038630D01*
X0104483Y0038994D01*
X0142831Y0038994D01*
X0137211Y0048043D02*
X0137171Y0048082D01*
X0137171Y0048027D01*
X0137211Y0048043D01*
X0134171Y0048194D02*
X0106171Y0048194D01*
X0094833Y0059532D01*
X0094833Y0066194D01*
X0090502Y0066194D02*
X0090502Y0070863D01*
X0086745Y0071509D02*
X0070967Y0071509D01*
X0069769Y0072707D02*
X0085546Y0072707D01*
X0086171Y0066194D02*
X0086171Y0051194D01*
X0088371Y0052105D02*
X0088371Y0061928D01*
X0088461Y0061838D01*
X0092543Y0061838D01*
X0092633Y0061928D01*
X0092633Y0058621D01*
X0099860Y0051394D01*
X0089083Y0051394D01*
X0088371Y0052105D01*
X0088371Y0052333D02*
X0098921Y0052333D01*
X0097723Y0053531D02*
X0088371Y0053531D01*
X0088371Y0054730D02*
X0096524Y0054730D01*
X0095325Y0055928D02*
X0088371Y0055928D01*
X0088371Y0057127D02*
X0094127Y0057127D01*
X0092928Y0058325D02*
X0088371Y0058325D01*
X0088371Y0059524D02*
X0092633Y0059524D01*
X0092633Y0060722D02*
X0088371Y0060722D01*
X0088371Y0061921D02*
X0088378Y0061921D01*
X0092626Y0061921D02*
X0092633Y0061921D01*
X0097952Y0059524D02*
X0101294Y0059524D01*
X0101294Y0058325D02*
X0099151Y0058325D01*
X0100350Y0057127D02*
X0101294Y0057127D01*
X0110025Y0057451D02*
X0110025Y0061928D01*
X0110115Y0061838D01*
X0113390Y0061838D01*
X0113390Y0059802D01*
X0113499Y0059395D01*
X0113710Y0059030D01*
X0114008Y0058732D01*
X0114373Y0058522D01*
X0114780Y0058413D01*
X0116910Y0058413D01*
X0116910Y0062168D01*
X0118110Y0062168D01*
X0118110Y0058413D01*
X0120240Y0058413D01*
X0120647Y0058522D01*
X0121012Y0058732D01*
X0121310Y0059030D01*
X0121520Y0059395D01*
X0121630Y0059802D01*
X0121630Y0062169D01*
X0118110Y0062169D01*
X0118110Y0063368D01*
X0121630Y0063368D01*
X0121630Y0065735D01*
X0121520Y0066142D01*
X0121310Y0066507D01*
X0121012Y0066805D01*
X0120685Y0066994D01*
X0141083Y0066994D01*
X0142454Y0068365D01*
X0141996Y0067260D01*
X0141996Y0065599D01*
X0142632Y0064065D01*
X0143806Y0062891D01*
X0145341Y0062255D01*
X0147002Y0062255D01*
X0148536Y0062891D01*
X0149710Y0064065D01*
X0150346Y0065599D01*
X0150346Y0067260D01*
X0149710Y0068795D01*
X0149512Y0068994D01*
X0151083Y0068994D01*
X0152083Y0069994D01*
X0153371Y0071282D01*
X0153371Y0073326D01*
X0153806Y0072891D01*
X0155341Y0072255D01*
X0157002Y0072255D01*
X0158536Y0072891D01*
X0159171Y0073526D01*
X0159171Y0069334D01*
X0158536Y0069969D01*
X0157002Y0070605D01*
X0155341Y0070605D01*
X0153806Y0069969D01*
X0152632Y0068795D01*
X0151996Y0067260D01*
X0151996Y0065599D01*
X0152632Y0064065D01*
X0153806Y0062891D01*
X0155341Y0062255D01*
X0157002Y0062255D01*
X0158536Y0062891D01*
X0159171Y0063526D01*
X0159171Y0059334D01*
X0158536Y0059969D01*
X0157002Y0060605D01*
X0155341Y0060605D01*
X0153806Y0059969D01*
X0152632Y0058795D01*
X0151996Y0057260D01*
X0151996Y0055599D01*
X0152632Y0054065D01*
X0153806Y0052891D01*
X0155341Y0052255D01*
X0157002Y0052255D01*
X0158536Y0052891D01*
X0159171Y0053526D01*
X0159171Y0049334D01*
X0158536Y0049969D01*
X0157002Y0050605D01*
X0155341Y0050605D01*
X0155146Y0050524D01*
X0152879Y0052755D01*
X0152240Y0053394D01*
X0152229Y0053394D01*
X0152222Y0053401D01*
X0151320Y0053394D01*
X0149039Y0053394D01*
X0149710Y0054065D01*
X0150346Y0055599D01*
X0150346Y0057260D01*
X0149710Y0058795D01*
X0148536Y0059969D01*
X0147002Y0060605D01*
X0145341Y0060605D01*
X0143806Y0059969D01*
X0142632Y0058795D01*
X0141996Y0057260D01*
X0141996Y0055599D01*
X0142081Y0055395D01*
X0140083Y0057394D01*
X0110083Y0057394D01*
X0110025Y0057451D01*
X0110025Y0058325D02*
X0142438Y0058325D01*
X0141996Y0057127D02*
X0140350Y0057127D01*
X0141548Y0055928D02*
X0141996Y0055928D01*
X0143361Y0059524D02*
X0121555Y0059524D01*
X0121630Y0060722D02*
X0159171Y0060722D01*
X0159171Y0059524D02*
X0158981Y0059524D01*
X0159171Y0061921D02*
X0121630Y0061921D01*
X0121630Y0064318D02*
X0142527Y0064318D01*
X0142031Y0065516D02*
X0121630Y0065516D01*
X0121102Y0066715D02*
X0141996Y0066715D01*
X0142002Y0067913D02*
X0142267Y0067913D01*
X0139375Y0071509D02*
X0129721Y0071509D01*
X0130171Y0072707D02*
X0140574Y0072707D01*
X0142791Y0073906D02*
X0130123Y0073906D01*
X0118110Y0063119D02*
X0143578Y0063119D01*
X0148765Y0063119D02*
X0153578Y0063119D01*
X0152527Y0064318D02*
X0149815Y0064318D01*
X0150312Y0065516D02*
X0152031Y0065516D01*
X0151996Y0066715D02*
X0150346Y0066715D01*
X0150076Y0067913D02*
X0152267Y0067913D01*
X0152949Y0069112D02*
X0151201Y0069112D01*
X0152399Y0070310D02*
X0154630Y0070310D01*
X0153371Y0071509D02*
X0159171Y0071509D01*
X0159171Y0072707D02*
X0158093Y0072707D01*
X0157712Y0070310D02*
X0159171Y0070310D01*
X0154249Y0072707D02*
X0153371Y0072707D01*
X0153371Y0079534D02*
X0153371Y0080587D01*
X0155147Y0082335D01*
X0155341Y0082255D01*
X0157002Y0082255D01*
X0158536Y0082891D01*
X0159171Y0083526D01*
X0159171Y0079334D01*
X0158536Y0079969D01*
X0157002Y0080605D01*
X0155341Y0080605D01*
X0153806Y0079969D01*
X0153371Y0079534D01*
X0153371Y0079898D02*
X0153736Y0079898D01*
X0153889Y0081097D02*
X0159171Y0081097D01*
X0159171Y0082295D02*
X0157099Y0082295D01*
X0155243Y0082295D02*
X0155107Y0082295D01*
X0158607Y0079898D02*
X0159171Y0079898D01*
X0159139Y0083494D02*
X0159171Y0083494D01*
X0148971Y0079898D02*
X0148607Y0079898D01*
X0143203Y0083494D02*
X0072371Y0083494D01*
X0072371Y0084692D02*
X0142372Y0084692D01*
X0141996Y0085891D02*
X0072371Y0085891D01*
X0072371Y0087089D02*
X0141996Y0087089D01*
X0142422Y0088288D02*
X0072371Y0088288D01*
X0072371Y0089487D02*
X0143324Y0089487D01*
X0145984Y0093082D02*
X0146359Y0093082D01*
X0146359Y0094281D02*
X0145984Y0094281D01*
X0145984Y0095479D02*
X0146359Y0095479D01*
X0146359Y0096678D02*
X0145984Y0096678D01*
X0145984Y0097876D02*
X0146359Y0097876D01*
X0146359Y0099075D02*
X0145984Y0099075D01*
X0148004Y0102670D02*
X0154339Y0102670D01*
X0152828Y0103869D02*
X0149514Y0103869D01*
X0150126Y0105067D02*
X0152217Y0105067D01*
X0151996Y0106266D02*
X0150346Y0106266D01*
X0150262Y0107464D02*
X0152081Y0107464D01*
X0152577Y0108663D02*
X0149765Y0108663D01*
X0148644Y0109861D02*
X0153698Y0109861D01*
X0158644Y0109861D02*
X0159171Y0109861D01*
X0159102Y0113457D02*
X0159171Y0113457D01*
X0159171Y0119449D02*
X0159056Y0119449D01*
X0159171Y0120648D02*
X0145038Y0120648D01*
X0143828Y0121846D02*
X0159171Y0121846D01*
X0159171Y0123045D02*
X0158690Y0123045D01*
X0159171Y0130236D02*
X0157892Y0130236D01*
X0159171Y0131434D02*
X0140371Y0131434D01*
X0140371Y0130236D02*
X0144450Y0130236D01*
X0142875Y0129037D02*
X0140371Y0129037D01*
X0140371Y0127839D02*
X0142236Y0127839D01*
X0141996Y0126640D02*
X0140371Y0126640D01*
X0140371Y0125442D02*
X0142062Y0125442D01*
X0142558Y0124243D02*
X0141407Y0124243D01*
X0142617Y0123045D02*
X0143652Y0123045D01*
X0139995Y0119449D02*
X0127171Y0119449D01*
X0127028Y0118251D02*
X0141206Y0118251D01*
X0141996Y0117052D02*
X0126272Y0117052D01*
X0126816Y0120648D02*
X0138785Y0120648D01*
X0137574Y0121846D02*
X0125607Y0121846D01*
X0118919Y0117052D02*
X0102582Y0117052D01*
X0102582Y0115854D02*
X0117720Y0115854D01*
X0116522Y0114655D02*
X0102582Y0114655D01*
X0102582Y0113457D02*
X0115323Y0113457D01*
X0114125Y0112258D02*
X0102582Y0112258D01*
X0101961Y0111060D02*
X0112926Y0111060D01*
X0111728Y0109861D02*
X0062615Y0109861D01*
X0061416Y0111060D02*
X0076381Y0111060D01*
X0075760Y0112258D02*
X0060218Y0112258D01*
X0059019Y0113457D02*
X0075760Y0113457D01*
X0075760Y0114655D02*
X0058171Y0114655D01*
X0057731Y0115854D02*
X0075760Y0115854D01*
X0075760Y0117052D02*
X0056109Y0117052D01*
X0052612Y0115854D02*
X0049863Y0115854D01*
X0049813Y0114655D02*
X0052171Y0114655D01*
X0052229Y0113457D02*
X0050171Y0113457D01*
X0050031Y0112258D02*
X0052864Y0112258D01*
X0053251Y0111060D02*
X0049280Y0111060D01*
X0047171Y0113194D02*
X0031171Y0113194D01*
X0018171Y0126194D01*
X0016329Y0126194D01*
X0016171Y0126430D01*
X0011329Y0121194D02*
X0006171Y0126430D01*
X0004450Y0130236D02*
X0003171Y0130236D01*
X0003171Y0123045D02*
X0003652Y0123045D01*
X0003171Y0121846D02*
X0007598Y0121846D01*
X0008778Y0120648D02*
X0003171Y0120648D01*
X0003171Y0119449D02*
X0003287Y0119449D01*
X0009056Y0119449D02*
X0009959Y0119449D01*
X0009936Y0118251D02*
X0012407Y0118251D01*
X0011996Y0117052D02*
X0010346Y0117052D01*
X0010346Y0115854D02*
X0011996Y0115854D01*
X0012388Y0114655D02*
X0009955Y0114655D01*
X0005333Y0112258D02*
X0003171Y0112258D01*
X0003171Y0111060D02*
X0018194Y0111060D01*
X0018644Y0109861D02*
X0019392Y0109861D01*
X0019765Y0108663D02*
X0020591Y0108663D01*
X0020262Y0107464D02*
X0021789Y0107464D01*
X0022988Y0106266D02*
X0020346Y0106266D01*
X0020126Y0105067D02*
X0024187Y0105067D01*
X0026814Y0108663D02*
X0042591Y0108663D01*
X0042260Y0108994D02*
X0043860Y0107394D01*
X0028083Y0107394D01*
X0020209Y0115268D01*
X0020346Y0115599D01*
X0020346Y0117260D01*
X0019888Y0118365D01*
X0027971Y0110282D01*
X0029260Y0108994D01*
X0042260Y0108994D01*
X0043790Y0107464D02*
X0028012Y0107464D01*
X0028392Y0109861D02*
X0025615Y0109861D01*
X0024416Y0111060D02*
X0027194Y0111060D01*
X0025995Y0112258D02*
X0023218Y0112258D01*
X0022019Y0113457D02*
X0024797Y0113457D01*
X0023598Y0114655D02*
X0020821Y0114655D01*
X0020346Y0115854D02*
X0022400Y0115854D01*
X0021201Y0117052D02*
X0020346Y0117052D01*
X0020003Y0118251D02*
X0019936Y0118251D01*
X0024171Y0126194D02*
X0033171Y0117194D01*
X0043171Y0117194D01*
X0043171Y0118194D01*
X0041383Y0120648D02*
X0032828Y0120648D01*
X0034027Y0119449D02*
X0040444Y0119449D01*
X0044960Y0120648D02*
X0075760Y0120648D01*
X0080171Y0127194D02*
X0079171Y0128194D01*
X0030171Y0128194D01*
X0024171Y0128351D02*
X0024171Y0126194D01*
X0024171Y0128351D02*
X0016171Y0136430D01*
X0011996Y0136228D02*
X0010346Y0136228D01*
X0010277Y0137427D02*
X0012065Y0137427D01*
X0012562Y0138625D02*
X0009781Y0138625D01*
X0008681Y0139824D02*
X0013661Y0139824D01*
X0014569Y0142561D02*
X0015194Y0142358D01*
X0015843Y0142255D01*
X0015984Y0142255D01*
X0015984Y0146242D01*
X0016359Y0146242D01*
X0016359Y0146617D01*
X0015984Y0146617D01*
X0015984Y0146242D01*
X0011996Y0146242D01*
X0011996Y0146101D01*
X0012099Y0145452D01*
X0012302Y0144827D01*
X0012601Y0144242D01*
X0012987Y0143710D01*
X0013452Y0143246D01*
X0013983Y0142859D01*
X0014569Y0142561D01*
X0013278Y0143420D02*
X0009065Y0143420D01*
X0009940Y0144618D02*
X0012409Y0144618D01*
X0012042Y0145817D02*
X0010346Y0145817D01*
X0010346Y0147015D02*
X0012037Y0147015D01*
X0011996Y0146758D02*
X0011996Y0146617D01*
X0015984Y0146617D01*
X0015984Y0150605D01*
X0015843Y0150605D01*
X0015194Y0150502D01*
X0014569Y0150299D01*
X0013983Y0150001D01*
X0013452Y0149614D01*
X0012987Y0149150D01*
X0012601Y0148618D01*
X0012302Y0148032D01*
X0012099Y0147408D01*
X0011996Y0146758D01*
X0012395Y0148214D02*
X0009951Y0148214D01*
X0009093Y0149412D02*
X0013249Y0149412D01*
X0015984Y0149412D02*
X0016359Y0149412D01*
X0016359Y0148214D02*
X0015984Y0148214D01*
X0015984Y0147015D02*
X0016359Y0147015D01*
X0016359Y0145817D02*
X0015984Y0145817D01*
X0015984Y0144618D02*
X0016359Y0144618D01*
X0016359Y0143420D02*
X0015984Y0143420D01*
X0019065Y0143420D02*
X0094971Y0143420D01*
X0094971Y0144618D02*
X0019934Y0144618D01*
X0018681Y0139824D02*
X0093690Y0139824D01*
X0094889Y0141023D02*
X0003171Y0141023D01*
X0003171Y0142221D02*
X0094971Y0142221D01*
X0099371Y0142221D02*
X0099971Y0142221D01*
X0099971Y0141236D02*
X0099971Y0147151D01*
X0099628Y0147494D01*
X0099371Y0148114D01*
X0099371Y0140273D01*
X0099628Y0140893D01*
X0099971Y0141236D01*
X0099757Y0141023D02*
X0099371Y0141023D01*
X0099371Y0143420D02*
X0099971Y0143420D01*
X0099971Y0144618D02*
X0099371Y0144618D01*
X0099371Y0145817D02*
X0099971Y0145817D01*
X0099971Y0147015D02*
X0099371Y0147015D01*
X0102171Y0149194D02*
X0102171Y0139194D01*
X0099695Y0137427D02*
X0097516Y0137427D01*
X0098714Y0138625D02*
X0099171Y0138625D01*
X0099371Y0150611D02*
X0099511Y0150611D01*
X0099371Y0151809D02*
X0100646Y0151809D01*
X0099371Y0153008D02*
X0107971Y0153008D01*
X0107971Y0154206D02*
X0100798Y0154206D01*
X0097176Y0157802D02*
X0049890Y0157802D01*
X0048692Y0156603D02*
X0096469Y0156603D01*
X0095271Y0155405D02*
X0047493Y0155405D01*
X0046295Y0154206D02*
X0094971Y0154206D01*
X0094971Y0153008D02*
X0045096Y0153008D01*
X0038171Y0155194D02*
X0038171Y0162194D01*
X0048171Y0172194D01*
X0086171Y0172194D01*
X0084316Y0174581D02*
X0019924Y0174581D01*
X0019028Y0173382D02*
X0046249Y0173382D01*
X0045050Y0172184D02*
X0003171Y0172184D01*
X0003171Y0173382D02*
X0003315Y0173382D01*
X0003171Y0170985D02*
X0043852Y0170985D01*
X0042653Y0169787D02*
X0018718Y0169787D01*
X0019796Y0168588D02*
X0041455Y0168588D01*
X0040256Y0167390D02*
X0020292Y0167390D01*
X0020346Y0166191D02*
X0039058Y0166191D01*
X0037859Y0164993D02*
X0020706Y0164993D01*
X0021899Y0163794D02*
X0036661Y0163794D01*
X0035971Y0162596D02*
X0023092Y0162596D01*
X0024285Y0161397D02*
X0035971Y0161397D01*
X0035971Y0160199D02*
X0025478Y0160199D01*
X0026671Y0159000D02*
X0035971Y0159000D01*
X0035971Y0157802D02*
X0027864Y0157802D01*
X0029057Y0156603D02*
X0035508Y0156603D01*
X0035171Y0155405D02*
X0030250Y0155405D01*
X0031443Y0154206D02*
X0035333Y0154206D01*
X0036115Y0153008D02*
X0032636Y0153008D01*
X0033829Y0151809D02*
X0037675Y0151809D01*
X0051089Y0159000D02*
X0097735Y0159000D01*
X0093280Y0166191D02*
X0116456Y0166191D01*
X0116421Y0167390D02*
X0094479Y0167390D01*
X0095677Y0168588D02*
X0116421Y0168588D01*
X0116421Y0169787D02*
X0096876Y0169787D01*
X0098074Y0170985D02*
X0116421Y0170985D01*
X0114859Y0164993D02*
X0057082Y0164993D01*
X0055883Y0163794D02*
X0113661Y0163794D01*
X0112462Y0162596D02*
X0054685Y0162596D01*
X0053486Y0161397D02*
X0111263Y0161397D01*
X0110065Y0160199D02*
X0052288Y0160199D01*
X0057492Y0138625D02*
X0019781Y0138625D01*
X0012232Y0135030D02*
X0010638Y0135030D01*
X0011819Y0133831D02*
X0012866Y0133831D01*
X0003661Y0139824D02*
X0003171Y0139824D01*
X0003171Y0143420D02*
X0003278Y0143420D01*
X0003171Y0149412D02*
X0003249Y0149412D01*
X0003171Y0153008D02*
X0003689Y0153008D01*
X0008653Y0153008D02*
X0013689Y0153008D01*
X0012574Y0154206D02*
X0009769Y0154206D01*
X0010265Y0155405D02*
X0012077Y0155405D01*
X0011996Y0156603D02*
X0010346Y0156603D01*
X0010122Y0157802D02*
X0012221Y0157802D01*
X0012837Y0159000D02*
X0009505Y0159000D01*
X0007982Y0160199D02*
X0014361Y0160199D01*
X0013315Y0173382D02*
X0009028Y0173382D01*
X0009924Y0174581D02*
X0012418Y0174581D01*
X0011996Y0175779D02*
X0010346Y0175779D01*
X0010346Y0176978D02*
X0011996Y0176978D01*
X0012376Y0178176D02*
X0009967Y0178176D01*
X0009130Y0179375D02*
X0013212Y0179375D01*
X0015265Y0180573D02*
X0007077Y0180573D01*
X0005265Y0180573D02*
X0003171Y0180573D01*
X0003171Y0179375D02*
X0003212Y0179375D01*
X0003171Y0169787D02*
X0003624Y0169787D01*
X0017077Y0180573D02*
X0132971Y0180573D01*
X0141996Y0193757D02*
X0073021Y0193757D01*
X0072683Y0194956D02*
X0141996Y0194956D01*
X0141996Y0196154D02*
X0071484Y0196154D01*
X0070286Y0197353D02*
X0141996Y0197353D01*
X0146359Y0196617D02*
X0150346Y0196617D01*
X0150346Y0197394D01*
X0152052Y0197394D01*
X0151996Y0197260D01*
X0151996Y0195599D01*
X0152054Y0195462D01*
X0150346Y0193779D01*
X0150346Y0196242D01*
X0146359Y0196242D01*
X0146359Y0196617D01*
X0150346Y0196154D02*
X0151996Y0196154D01*
X0152035Y0197353D02*
X0150346Y0197353D01*
X0150346Y0194956D02*
X0151540Y0194956D01*
X0158072Y0190161D02*
X0159171Y0190161D01*
X0159171Y0182970D02*
X0158616Y0182970D01*
X0159171Y0160199D02*
X0157982Y0160199D01*
X0158653Y0153008D02*
X0159171Y0153008D01*
X0159171Y0151809D02*
X0112371Y0151809D01*
X0112371Y0150611D02*
X0159171Y0150611D01*
X0159171Y0149412D02*
X0159093Y0149412D01*
X0159065Y0143420D02*
X0159171Y0143420D01*
X0159171Y0142221D02*
X0141171Y0142221D01*
X0140933Y0141023D02*
X0159171Y0141023D01*
X0159171Y0139824D02*
X0158681Y0139824D01*
X0159171Y0132633D02*
X0157914Y0132633D01*
X0144429Y0132633D02*
X0140371Y0132633D01*
X0140371Y0133831D02*
X0142866Y0133831D01*
X0142232Y0135030D02*
X0140371Y0135030D01*
X0140371Y0136228D02*
X0141996Y0136228D01*
X0142065Y0137427D02*
X0140371Y0137427D01*
X0140371Y0138625D02*
X0142562Y0138625D01*
X0143661Y0139824D02*
X0140371Y0139824D01*
X0140911Y0143420D02*
X0143278Y0143420D01*
X0142403Y0144618D02*
X0139990Y0144618D01*
X0141996Y0145817D02*
X0112371Y0145817D01*
X0112371Y0147015D02*
X0141996Y0147015D01*
X0142391Y0148214D02*
X0112371Y0148214D01*
X0112371Y0149412D02*
X0143249Y0149412D01*
X0131661Y0163794D02*
X0125921Y0163794D01*
X0125921Y0162596D02*
X0130462Y0162596D01*
X0129263Y0161397D02*
X0125921Y0161397D01*
X0125889Y0160199D02*
X0128065Y0160199D01*
X0116454Y0160199D02*
X0116287Y0160199D01*
X0116421Y0159000D02*
X0115089Y0159000D01*
X0113890Y0157802D02*
X0116421Y0157802D01*
X0110529Y0108663D02*
X0101808Y0108663D01*
X0102582Y0107464D02*
X0109330Y0107464D01*
X0108132Y0106266D02*
X0102582Y0106266D01*
X0102582Y0105067D02*
X0106933Y0105067D01*
X0105735Y0103869D02*
X0102582Y0103869D01*
X0102582Y0102670D02*
X0104536Y0102670D01*
X0103338Y0101472D02*
X0102582Y0101472D01*
X0077569Y0090685D02*
X0072371Y0090685D01*
X0072371Y0091884D02*
X0076370Y0091884D01*
X0075172Y0093082D02*
X0072371Y0093082D01*
X0072371Y0094281D02*
X0073365Y0094281D01*
X0062385Y0103869D02*
X0060870Y0103869D01*
X0061171Y0105067D02*
X0061187Y0105067D01*
X0055194Y0111060D02*
X0055091Y0111060D01*
X0038521Y0098630D02*
X0019779Y0098630D01*
X0019710Y0098795D01*
X0018536Y0099969D01*
X0018477Y0099994D01*
X0037421Y0099994D01*
X0037628Y0099494D01*
X0038472Y0098650D01*
X0038521Y0098630D01*
X0038048Y0099075D02*
X0019431Y0099075D01*
X0016329Y0106194D02*
X0016171Y0106430D01*
X0010329Y0102194D02*
X0006171Y0106430D01*
X0003698Y0109861D02*
X0003171Y0109861D01*
X0003171Y0113457D02*
X0003240Y0113457D01*
X0010565Y0075104D02*
X0012202Y0075104D01*
X0011745Y0073906D02*
X0012791Y0073906D01*
X0034171Y0058194D02*
X0038171Y0062194D01*
X0054635Y0041546D02*
X0067971Y0041546D01*
X0067971Y0042745D02*
X0055833Y0042745D01*
X0057032Y0043943D02*
X0067971Y0043943D01*
X0070171Y0038194D02*
X0025171Y0038194D01*
X0022171Y0037951D02*
X0020060Y0037951D01*
X0020346Y0037260D02*
X0019710Y0038795D01*
X0019512Y0038994D01*
X0022255Y0038994D01*
X0022171Y0038790D01*
X0022171Y0037597D01*
X0022628Y0036494D01*
X0022729Y0036394D01*
X0020346Y0036394D01*
X0020346Y0037260D01*
X0020346Y0036752D02*
X0022521Y0036752D01*
X0018329Y0034194D02*
X0061171Y0034194D01*
X0065171Y0030194D01*
X0067583Y0028362D02*
X0068229Y0028362D01*
X0068156Y0029561D02*
X0069427Y0029561D01*
X0068171Y0030759D02*
X0091494Y0030759D01*
X0092693Y0029561D02*
X0077915Y0029561D01*
X0079114Y0028362D02*
X0093891Y0028362D01*
X0093444Y0027164D02*
X0095090Y0027164D01*
X0094099Y0025965D02*
X0096288Y0025965D01*
X0097171Y0024767D02*
X0094171Y0024767D01*
X0093745Y0023568D02*
X0097597Y0023568D01*
X0099149Y0022370D02*
X0092193Y0022370D01*
X0090296Y0031958D02*
X0067650Y0031958D01*
X0065858Y0033156D02*
X0089097Y0033156D01*
X0087899Y0034355D02*
X0064121Y0034355D01*
X0062923Y0035554D02*
X0086700Y0035554D01*
X0089327Y0039149D02*
X0098105Y0039149D01*
X0099303Y0037951D02*
X0090526Y0037951D01*
X0091724Y0036752D02*
X0100502Y0036752D01*
X0101700Y0035554D02*
X0092923Y0035554D01*
X0094121Y0034355D02*
X0102899Y0034355D01*
X0096906Y0040348D02*
X0088129Y0040348D01*
X0075310Y0061921D02*
X0072371Y0061921D01*
X0072371Y0063119D02*
X0074532Y0063119D01*
X0074532Y0064318D02*
X0072371Y0064318D01*
X0072371Y0065516D02*
X0074532Y0065516D01*
X0074532Y0066715D02*
X0072371Y0066715D01*
X0072371Y0067913D02*
X0074532Y0067913D01*
X0074532Y0069112D02*
X0072371Y0069112D01*
X0072166Y0070310D02*
X0075230Y0070310D01*
X0059425Y0028829D02*
X0063971Y0024282D01*
X0064060Y0024194D01*
X0063575Y0024194D01*
X0062472Y0023737D01*
X0061628Y0022893D01*
X0061171Y0021790D01*
X0061171Y0021394D01*
X0059425Y0021394D01*
X0059425Y0024373D01*
X0055669Y0024373D01*
X0055669Y0025573D01*
X0059425Y0025573D01*
X0059425Y0028829D01*
X0059425Y0028362D02*
X0059891Y0028362D01*
X0059425Y0027164D02*
X0061090Y0027164D01*
X0062288Y0025965D02*
X0059425Y0025965D01*
X0059425Y0023568D02*
X0062303Y0023568D01*
X0061411Y0022370D02*
X0059425Y0022370D01*
X0055669Y0024767D02*
X0063487Y0024767D01*
X0054469Y0024767D02*
X0045709Y0024767D01*
X0044511Y0025965D02*
X0050713Y0025965D01*
X0050713Y0025573D02*
X0050713Y0028994D01*
X0019512Y0028994D01*
X0019710Y0028795D01*
X0019779Y0028630D01*
X0041846Y0028630D01*
X0049083Y0021394D01*
X0050713Y0021394D01*
X0050713Y0024373D01*
X0054469Y0024373D01*
X0054469Y0025573D01*
X0050713Y0025573D01*
X0050713Y0027164D02*
X0043312Y0027164D01*
X0042114Y0028362D02*
X0050713Y0028362D01*
X0050713Y0023568D02*
X0046908Y0023568D01*
X0048106Y0022370D02*
X0050713Y0022370D01*
X0042171Y0016194D02*
X0046171Y0012194D01*
X0103171Y0012194D01*
X0107171Y0009194D02*
X0018856Y0009194D01*
X0016171Y0006430D01*
X0013806Y0009969D02*
X0012632Y0008795D01*
X0011996Y0007260D01*
X0011996Y0005599D01*
X0012247Y0004994D01*
X0010094Y0004994D01*
X0010243Y0005452D01*
X0010346Y0006101D01*
X0010346Y0006242D01*
X0006359Y0006242D01*
X0006359Y0006617D01*
X0010346Y0006617D01*
X0010346Y0006758D01*
X0010243Y0007408D01*
X0010040Y0008032D01*
X0009742Y0008618D01*
X0009356Y0009150D01*
X0008891Y0009614D01*
X0008359Y0010001D01*
X0007774Y0010299D01*
X0007149Y0010502D01*
X0006500Y0010605D01*
X0006359Y0010605D01*
X0006359Y0006617D01*
X0005984Y0006617D01*
X0005984Y0010605D01*
X0005843Y0010605D01*
X0005194Y0010502D01*
X0004569Y0010299D01*
X0003983Y0010001D01*
X0003452Y0009614D01*
X0003171Y0009334D01*
X0003171Y0013526D01*
X0003806Y0012891D01*
X0005341Y0012255D01*
X0007002Y0012255D01*
X0008536Y0012891D01*
X0009710Y0014065D01*
X0010346Y0015599D01*
X0010346Y0017260D01*
X0010265Y0017455D01*
X0011778Y0018994D01*
X0012831Y0018994D01*
X0012632Y0018795D01*
X0011996Y0017260D01*
X0011996Y0015599D01*
X0012632Y0014065D01*
X0013806Y0012891D01*
X0015341Y0012255D01*
X0017002Y0012255D01*
X0018536Y0012891D01*
X0019639Y0013994D01*
X0041260Y0013994D01*
X0043860Y0011394D01*
X0019749Y0011394D01*
X0019736Y0011407D01*
X0018840Y0011394D01*
X0017945Y0011394D01*
X0017932Y0011381D01*
X0017913Y0011380D01*
X0017289Y0010738D01*
X0017111Y0010559D01*
X0017002Y0010605D01*
X0015341Y0010605D01*
X0013806Y0009969D01*
X0014810Y0010385D02*
X0007509Y0010385D01*
X0006359Y0010385D02*
X0005984Y0010385D01*
X0004833Y0010385D02*
X0003171Y0010385D01*
X0003171Y0011583D02*
X0043670Y0011583D01*
X0042472Y0012782D02*
X0018273Y0012782D01*
X0019626Y0013980D02*
X0041273Y0013980D01*
X0042171Y0016194D02*
X0016329Y0016194D01*
X0016171Y0016430D01*
X0011996Y0016377D02*
X0010346Y0016377D01*
X0010384Y0017576D02*
X0012127Y0017576D01*
X0012624Y0018774D02*
X0011563Y0018774D01*
X0012171Y0015179D02*
X0010172Y0015179D01*
X0009626Y0013980D02*
X0012717Y0013980D01*
X0014069Y0012782D02*
X0008273Y0012782D01*
X0010856Y0011194D02*
X0021171Y0011194D01*
X0019877Y0018394D02*
X0019710Y0018795D01*
X0019512Y0018994D01*
X0040260Y0018994D01*
X0040860Y0018394D01*
X0019877Y0018394D01*
X0019719Y0018774D02*
X0040479Y0018774D01*
X0040860Y0023394D02*
X0019039Y0023394D01*
X0019710Y0024065D01*
X0019779Y0024230D01*
X0040024Y0024230D01*
X0040860Y0023394D01*
X0040685Y0023568D02*
X0019214Y0023568D01*
X0018329Y0034194D02*
X0016171Y0036430D01*
X0012282Y0037951D02*
X0010752Y0037951D01*
X0010346Y0036752D02*
X0011996Y0036752D01*
X0012016Y0035554D02*
X0010327Y0035554D01*
X0009831Y0034355D02*
X0012512Y0034355D01*
X0009701Y0033156D02*
X0008802Y0033156D01*
X0005064Y0022370D02*
X0003171Y0022370D01*
X0003171Y0012782D02*
X0004069Y0012782D01*
X0005984Y0009186D02*
X0006359Y0009186D01*
X0006359Y0007988D02*
X0005984Y0007988D01*
X0005984Y0006789D02*
X0006359Y0006789D01*
X0006171Y0006430D02*
X0010856Y0011194D01*
X0009319Y0009186D02*
X0013024Y0009186D01*
X0012298Y0007988D02*
X0010055Y0007988D01*
X0010341Y0006789D02*
X0011996Y0006789D01*
X0012000Y0005591D02*
X0010265Y0005591D01*
X0110025Y0059524D02*
X0113465Y0059524D01*
X0113390Y0060722D02*
X0110025Y0060722D01*
X0110025Y0061921D02*
X0110032Y0061921D01*
X0116910Y0061921D02*
X0118110Y0061921D01*
X0118110Y0060722D02*
X0116910Y0060722D01*
X0116910Y0059524D02*
X0118110Y0059524D01*
X0142483Y0048994D02*
X0142831Y0048994D01*
X0142657Y0048819D01*
X0142483Y0048994D01*
X0149177Y0053531D02*
X0153166Y0053531D01*
X0153308Y0052333D02*
X0155154Y0052333D01*
X0154526Y0051134D02*
X0159171Y0051134D01*
X0159171Y0049936D02*
X0158570Y0049936D01*
X0159171Y0052333D02*
X0157189Y0052333D01*
X0152357Y0054730D02*
X0149986Y0054730D01*
X0150346Y0055928D02*
X0151996Y0055928D01*
X0151996Y0057127D02*
X0150346Y0057127D01*
X0149905Y0058325D02*
X0152438Y0058325D01*
X0153361Y0059524D02*
X0148981Y0059524D01*
X0158765Y0063119D02*
X0159171Y0063119D01*
X0159171Y0040348D02*
X0157623Y0040348D01*
X0145064Y0022370D02*
X0121630Y0022370D01*
X0121630Y0023568D02*
X0143129Y0023568D01*
X0158273Y0012782D02*
X0159171Y0012782D01*
X0117874Y0019973D02*
X0116674Y0019973D01*
X0116674Y0021171D02*
X0117874Y0021171D01*
X0117874Y0022370D02*
X0116674Y0022370D01*
X0116674Y0023568D02*
X0117874Y0023568D01*
X0158004Y0102670D02*
X0159171Y0102670D01*
X0064526Y0186566D02*
X0056817Y0186566D01*
X0058015Y0187764D02*
X0063327Y0187764D01*
X0062129Y0188963D02*
X0059214Y0188963D01*
X0060021Y0190161D02*
X0061321Y0190161D01*
X0061321Y0191360D02*
X0060021Y0191360D01*
X0060021Y0192558D02*
X0061321Y0192558D01*
X0061321Y0193757D02*
X0060021Y0193757D01*
X0059683Y0194956D02*
X0061660Y0194956D01*
X0062858Y0196154D02*
X0058484Y0196154D01*
X0057286Y0197353D02*
X0064057Y0197353D01*
X0051057Y0197353D02*
X0044286Y0197353D01*
X0045484Y0196154D02*
X0049858Y0196154D01*
X0048660Y0194956D02*
X0046683Y0194956D01*
X0047021Y0193757D02*
X0048321Y0193757D01*
X0048321Y0192558D02*
X0047021Y0192558D01*
X0047021Y0191360D02*
X0048321Y0191360D01*
X0048321Y0190161D02*
X0047021Y0190161D01*
X0046214Y0188963D02*
X0049129Y0188963D01*
X0050327Y0187764D02*
X0045015Y0187764D01*
X0043817Y0186566D02*
X0051526Y0186566D01*
X0038526Y0186566D02*
X0030817Y0186566D01*
X0032015Y0187764D02*
X0037327Y0187764D01*
X0036129Y0188963D02*
X0033214Y0188963D01*
X0034021Y0190161D02*
X0035321Y0190161D01*
X0035321Y0191360D02*
X0034021Y0191360D01*
X0034021Y0192558D02*
X0035321Y0192558D01*
X0035321Y0193757D02*
X0034021Y0193757D01*
X0033683Y0194956D02*
X0035660Y0194956D01*
X0036858Y0196154D02*
X0032484Y0196154D01*
X0031286Y0197353D02*
X0038057Y0197353D01*
X0025057Y0197353D02*
X0020308Y0197353D01*
X0020346Y0196154D02*
X0023858Y0196154D01*
X0022660Y0194956D02*
X0020079Y0194956D01*
X0019402Y0193757D02*
X0022321Y0193757D01*
X0022321Y0190161D02*
X0018043Y0190161D01*
X0019491Y0188963D02*
X0023129Y0188963D01*
D21*
X0038171Y0155194D03*
X0020171Y0152194D03*
X0030171Y0128194D03*
X0022171Y0114194D03*
X0039171Y0108194D03*
X0040171Y0101194D03*
X0043171Y0098194D03*
X0045171Y0093194D03*
X0047171Y0087194D03*
X0059171Y0086194D03*
X0060171Y0082194D03*
X0063171Y0096194D03*
X0058171Y0105194D03*
X0054171Y0108194D03*
X0055171Y0114194D03*
X0047171Y0113194D03*
X0047171Y0117194D03*
X0043171Y0118194D03*
X0057171Y0135194D03*
X0059171Y0151194D03*
X0081171Y0160194D03*
X0086171Y0172194D03*
X0092171Y0161194D03*
X0100171Y0157194D03*
X0102171Y0149194D03*
X0102171Y0139194D03*
X0107171Y0132194D03*
X0102171Y0122194D03*
X0085171Y0129194D03*
X0070171Y0105194D03*
X0074171Y0097194D03*
X0081171Y0087194D03*
X0075171Y0082194D03*
X0092171Y0096194D03*
X0095171Y0073194D03*
X0127171Y0073194D03*
X0134171Y0048194D03*
X0138171Y0045194D03*
X0151171Y0062194D03*
X0119171Y0016194D03*
X0111171Y0013194D03*
X0106171Y0015194D03*
X0100171Y0025194D03*
X0091171Y0025194D03*
X0112171Y0027194D03*
X0134171Y0010194D03*
X0064171Y0021194D03*
X0061171Y0025194D03*
X0065171Y0030194D03*
X0065171Y0047194D03*
X0059171Y0048194D03*
X0048171Y0044194D03*
X0037171Y0044194D03*
X0036171Y0048194D03*
X0038171Y0062194D03*
X0033171Y0064194D03*
X0029171Y0067194D03*
X0027171Y0071194D03*
X0025171Y0077194D03*
X0025171Y0038194D03*
X0047171Y0026194D03*
X0124171Y0119194D03*
X0131171Y0131194D03*
X0138171Y0142194D03*
X0128171Y0176194D03*
X0124171Y0189194D03*
X0085171Y0189194D03*
X0055171Y0178194D03*
D22*
X0102171Y0122194D02*
X0096258Y0116280D01*
X0089171Y0116280D01*
X0089171Y0103288D02*
X0089171Y0099194D01*
X0092171Y0096194D01*
M02*
