%
M48
M72
T01C0.01200
T02C0.03150
T03C0.04400
T04C0.04921
%
T01
X25171Y38194
X37171Y44194
X36171Y48194
X48171Y44194
X59171Y48194
X65171Y47194
X65171Y30194
X61171Y25194
X64171Y21194
X47171Y26194
X38171Y62194
X33171Y64194
X29171Y67194
X27171Y71194
X25171Y77194
X43171Y98194
X40171Y101194
X39171Y108194
X47171Y113194
X47171Y117194
X43171Y118194
X55171Y114194
X54171Y108194
X58171Y105194
X63171Y96194
X59171Y86194
X60171Y82194
X47171Y87194
X45171Y93194
X22171Y114194
X30171Y128194
X20171Y152194
X38171Y155194
X57171Y135194
X59171Y151194
X81171Y160194
X86171Y172194
X92171Y161194
X100171Y157194
X102171Y149194
X102171Y139194
X107171Y132194
X102171Y122194
X85171Y129194
X70171Y105194
X74171Y97194
X81171Y87194
X75171Y82194
X92171Y96194
X95171Y73194
X127171Y73194
X134171Y48194
X138171Y45194
X151171Y62194
X119171Y16194
X111171Y13194
X106171Y15194
X100171Y25194
X91171Y25194
X112171Y27194
X134171Y10194
X124171Y119194
X131171Y131194
X138171Y142194
X128171Y176194
X124171Y189194
X85171Y189194
X55171Y178194
T02
X6171Y6430
X6171Y16430
X6171Y26430
X6171Y36430
X6171Y46430
X6171Y56430
X6171Y66430
X6171Y76430
X6171Y86430
X6171Y96430
X6171Y106430
X6171Y116430
X6171Y126430
X6171Y136430
X6171Y146430
X6171Y156430
X6171Y166430
X6171Y176430
X6171Y186430
X6171Y196430
X16171Y196430
X16171Y186430
X16171Y176430
X16171Y166430
X16171Y156430
X16171Y146430
X16171Y136430
X16171Y126430
X16171Y116430
X16171Y106430
X16171Y96430
X16171Y86430
X16171Y76430
X16171Y66430
X16171Y56430
X16171Y46430
X16171Y36430
X16171Y26430
X16171Y16430
X16171Y6430
X146171Y6430
X146171Y16430
X146171Y26430
X146171Y36430
X146171Y46430
X146171Y56430
X146171Y66430
X146171Y76430
X146171Y86430
X146171Y96430
X146171Y106430
X146171Y116430
X146171Y126430
X146171Y136430
X146171Y146430
X146171Y156430
X146171Y166430
X146171Y176430
X146171Y186430
X146171Y196430
X156171Y196430
X156171Y186430
X156171Y176430
X156171Y166430
X156171Y156430
X156171Y146430
X156171Y136430
X156171Y126430
X156171Y116430
X156171Y106430
X156171Y96430
X156171Y86430
X156171Y76430
X156171Y66430
X156171Y56430
X156171Y46430
X156171Y36430
X156171Y26430
X156171Y16430
X156171Y6430
T03
X67171Y192194
X54171Y192194
X41171Y192194
X28171Y192194
T04
X73967Y23398
X105463Y23398
M30
